;TYPE=PLATED
;Layer: PTH_Through
;EasyEDA Pro Client v1.9.28.eba1c1, 2023-02-22 19:28:50
;Gerber Generator version 0.3
M48
METRIC,LZ,000.000
;Hole size 1 = 1.000 METRIC
T01C1.000
;Hole size 2 = 1.100 METRIC
T02C1.100
;Hole size 3 = 1.500 METRIC
T03C1.500
%
G05
G90
T01
X037592Y-001524
X040132Y-001524
X042672Y-001524
X045212Y-001524
X045212Y006096
X042672Y006096
X040132Y006096
X037592Y006096
X037592Y021425
X040132Y021425
X042672Y021425
X045212Y021425
X045212Y029045
X042672Y029045
X040132Y029045
X037592Y029045
X037592Y044374
X040132Y044374
X042672Y044374
X045212Y044374
X045212Y051994
X042672Y051994
X040132Y051994
X037592Y051994
T02
X032893Y003556
X030353Y003556
X027813Y003556
X025273Y003556
X032893Y026505
X030353Y026505
X027813Y026505
X025273Y026505
X032893Y049454
X030353Y049454
X027813Y049454
X025273Y049454
T03
X-001260Y005000
X-001260Y-005500
X-001260Y027949
X-001260Y017449
X-001260Y050898
X-001260Y040398
M30