;TYPE=NON_PLATED
;Layer: NPTH_Through
;EasyEDA Pro Client v1.9.28.eba1c1, 2023-02-22 19:28:50
;Gerber Generator version 0.3
M48
METRIC,LZ,000.000
;Hole size 1 = 0.450 METRIC
T01C0.450
;Hole size 2 = 2.000 METRIC
T02C2.000
%
G05
G90
T01
X-009083Y056448
X-008233Y056448
X-007383Y056448
X-006533Y056448
X-005682Y056448
X-004832Y056448
X-003982Y056448
X-003132Y056448
X-009083Y-010550
X-008233Y-010550
X-007383Y-010550
X-006533Y-010550
X-005682Y-010550
X-004832Y-010550
X-003982Y-010550
X-003132Y-010550
X-009083Y010550
X-008233Y010550
X-007383Y010550
X-006533Y010550
X-005682Y010550
X-004832Y010550
X-003982Y010550
X-003132Y010550
X-009083Y012400
X-008233Y012400
X-007383Y012400
X-006533Y012400
X-005682Y012400
X-004832Y012400
X-003982Y012400
X-003132Y012400
X-009083Y033499
X-008233Y033499
X-007383Y033499
X-006533Y033499
X-005682Y033499
X-004832Y033499
X-003982Y033499
X-003132Y033499
X-009083Y035349
X-008233Y035349
X-007383Y035349
X-006533Y035349
X-005682Y035349
X-004832Y035349
X-003982Y035349
X-003132Y035349
X-009083Y056448
X-008233Y056448
X-007383Y056448
X-006533Y056448
X-005682Y056448
X-004832Y056448
X-003982Y056448
X-003132Y056448
X-009083Y-010550
X-008233Y-010550
X-007383Y-010550
X-006533Y-010550
X-005682Y-010550
X-004832Y-010550
X-003982Y-010550
X-003132Y-010550
X-009083Y010550
X-008233Y010550
X-007383Y010550
X-006533Y010550
X-005682Y010550
X-004832Y010550
X-003982Y010550
X-003132Y010550
X-009083Y012400
X-008233Y012400
X-007383Y012400
X-006533Y012400
X-005682Y012400
X-004832Y012400
X-003982Y012400
X-003132Y012400
X-009083Y033499
X-008233Y033499
X-007383Y033499
X-006533Y033499
X-005682Y033499
X-004832Y033499
X-003982Y033499
X-003132Y033499
X-009083Y035349
X-008233Y035349
X-007383Y035349
X-006533Y035349
X-005682Y035349
X-004832Y035349
X-003982Y035349
X-003132Y035349
X-009083Y056448
X-008233Y056448
X-007383Y056448
X-006533Y056448
X-005682Y056448
X-004832Y056448
X-003982Y056448
X-003132Y056448
X-009083Y-010550
X-008233Y-010550
X-007383Y-010550
X-006533Y-010550
X-005682Y-010550
X-004832Y-010550
X-003982Y-010550
X-003132Y-010550
X-009083Y010550
X-008233Y010550
X-007383Y010550
X-006533Y010550
X-005682Y010550
X-004832Y010550
X-003982Y010550
X-003132Y010550
X-009083Y012400
X-008233Y012400
X-007383Y012400
X-006533Y012400
X-005682Y012400
X-004832Y012400
X-003982Y012400
X-003132Y012400
X-009083Y033499
X-008233Y033499
X-007383Y033499
X-006533Y033499
X-005682Y033499
X-004832Y033499
X-003982Y033499
X-003132Y033499
X-009083Y035349
X-008233Y035349
X-007383Y035349
X-006533Y035349
X-005682Y035349
X-004832Y035349
X-003982Y035349
X-003132Y035349
T02
X-064975Y060373
X052760Y060373
X-059975Y-014475
X047760Y-014475
X-064975Y060373
X052760Y060373
X-059975Y-014475
X047760Y-014475
X-064975Y060373
X052760Y060373
X-059975Y-014475
X047760Y-014475
M30