G04 Layer: TopLayer*
G04 EasyEDA Pro v1.9.28.eba1c1, 2023-02-22 19:28:42*
G04 Gerber Generator version 0.3*
G04 Scale: 100 percent, Rotated: No, Reflected: No*
G04 Dimensions in millimeters*
G04 Leading zeros omitted, absolute positions, 3 integers and 3 decimals*
G04 Panelize: Stamp Hole, Column: 1, Row: 3, Board Size: 127.734mm x 20.95mm, Panelized Board Size: 127.734mm x 82.847mm, Panelized Method: All Objects*
%FSLAX33Y33*%
%MOMM*%
%AMRect*21,1,$1,$2,0,0,$3*%
%ADD10C,1.000001*%
%ADD999C,0.2032*%
%ADD11C,0.254*%
%ADD12R,3.500001X1.799999*%
%ADD13C,2.999999*%
%ADD14R,3.500001X2.999999*%
%ADD15C,0.6096*%
%ADD16R,0.999998X0.550012*%
%ADD17R,2.062505X1.539011*%
%ADD18R,0.8649X0.806475*%
%ADD19R,0.864006X0.806475*%
%ADD20R,2.350008X3.499993*%
%ADD21R,1.35001X1.410005*%
%ADD22R,0.864006X0.806475*%
%ADD23R,1.6002X1.6002*%
%ADD24C,1.6002*%
%ADD25R,2.399995X1.899996*%
%ADD26Rect,1.899996X2.399995X90.73*%
%ADD27R,0.899998X0.799998*%
%ADD28C,1.699997*%
%ADD29R,1.699997X1.699997*%
%ADD30C,0.999998*%
%ADD31C,0.610001*%
%ADD32C,1.549999*%
%ADD33C,0.399999*%
%ADD34C,1.3*%
%ADD35C,1.799999*%
%ADD36C,0.599999*%
%ADD37C,1.4*%
%ADD38C,0.499999*%
%ADD39C,1.5*%
G75*


G04 Panelize Start*
G54D10*
G01X-59975Y60373D03*
G01X47760Y60373D03*
G01X-54975Y-14475D03*
G01X42760Y-14475D03*
G04 Panelize End*

G04 Copper Start*
G36*
G01X-7645Y-10142D02*
G01X-7645Y10142D01*
G01X52642D01*
G01Y7366D01*
G03X53000Y7008I358J0D01*
G01X57427D01*
G01Y-7135D01*
G01X53000D01*
G03X52642Y-7493I0J-358D01*
G01Y-10142D01*
G01X-7645D01*
G37*
%LPC*%
G36*
G01X29845Y-7386D02*
G03X30186Y-7635I341J109D01*
G01X31536D01*
G03X31894Y-7277I0J358D01*
G01Y-5867D01*
G03X31739Y-5572I-358J0D01*
G03X31894Y-5277I-203J295D01*
G01Y-3867D01*
G03X31536Y-3509I-358J0D01*
G01X30186D01*
G03X29995Y-3564I0J-358D01*
G01X29695D01*
G03X29504Y-3509I-191J-303D01*
G01X28154D01*
G03X27963Y-3564I0J-358D01*
G01X27932D01*
G01Y1905D01*
G03X27830Y2348I-1008J0D01*
G03X28176Y2404I-17J1208D01*
G01X29196Y1383D01*
G03X29591Y1220I395J395D01*
G01X37869D01*
G03X38227Y1115I358J558D01*
G03X38890Y1778I0J663D01*
G03X38227Y2441I-663J0D01*
G03X37869Y2336I0J-663D01*
G01X29822D01*
G01X29161Y2998D01*
G01X29282D01*
G03X30353Y2348I1071J558D01*
G03X31561Y3556I0J1208D01*
G03X30353Y4764I-1208J0D01*
G03X29282Y4114I0J-1208D01*
G01X28885D01*
G03X27813Y4764I-1071J-558D01*
G03X26608Y3646I0J-1208D01*
G01X26481Y3774D01*
G01Y4406D01*
G03X26123Y4764I-358J0D01*
G01X24423D01*
G03X24102Y4564I0J-358D01*
G01X22098D01*
G01X21825Y4838D01*
G01X36576D01*
G01X37592D01*
G03X38850Y6096I0J1258D01*
G03X38777Y6518I-1258J0D01*
G01X39383Y7124D01*
G01X39598D01*
G03X38974Y6096I534J-1028D01*
G03X40132Y4938I1158J0D01*
G03X41290Y6096I0J1158D01*
G03X40666Y7124I-1158J0D01*
G01X42138D01*
G03X41514Y6096I534J-1028D01*
G03X42672Y4938I1158J0D01*
G03X43830Y6096I0J1158D01*
G03X43206Y7124I-1158J0D01*
G01X44678D01*
G03X44054Y6096I534J-1028D01*
G03X45212Y4938I1158J0D01*
G03X46370Y6096I0J1158D01*
G03X46339Y6365I-1158J0D01*
G01X47370Y5333D01*
G01X48386Y4317D01*
G03X49276Y3949I890J890D01*
G01X53178D01*
G01X54241Y2886D01*
G01Y-914D01*
G01X53667Y-1488D01*
G03X53670Y-1438I-355J50D01*
G01Y362D01*
G03X53312Y720I-358J0D01*
G01X49812D01*
G03X49454Y362I0J-358D01*
G01Y-77D01*
G01X49253D01*
G03X48895Y28I-358J-558D01*
G03X48232Y-635I0J-663D01*
G03X48895Y-1298I663J0D01*
G03X49253Y-1193I0J663D01*
G01X49454D01*
G01Y-1438D01*
G03X49812Y-1796I358J0D01*
G01X53312D01*
G03X53362Y-1793I0J358D01*
G01X53178Y-1977D01*
G01X52197D01*
G01X49812D01*
G03X49454Y-2335I0J-358D01*
G01Y-4135D01*
G03X49812Y-4493I358J0D01*
G01X52197D01*
G01X53312D01*
G01X53699D01*
G03X54589Y-4125I0J1258D01*
G01X56389Y-2325D01*
G03X56757Y-1435I-890J890D01*
G01Y3407D01*
G03X56389Y4297I-1258J0D01*
G01X54589Y6097D01*
G03X53699Y6465I-890J-890D01*
G01X49797D01*
G01X49150Y7113D01*
G01X46991Y9272D01*
G03X46101Y9640I-890J-890D01*
G01X38862D01*
G03X37972Y9272I0J-1258D01*
G01X36055Y7354D01*
G01X21209D01*
G03X20319Y6986I0J-1258D01*
G01X19541Y6208D01*
G01X19125D01*
G03X18767Y5850I0J-358D01*
G01Y4310D01*
G03X19125Y3952I358J0D01*
G01X19599D01*
G03X19976Y3835I558J1128D01*
G01X20968Y2843D01*
G03X21681Y2548I713J713D01*
G01X24102D01*
G03X24423Y2348I321J158D01*
G01X25055D01*
G01X25916Y1487D01*
G01Y-3117D01*
G03X25705Y-3049I-211J-289D01*
G01X24841D01*
G03X24492Y-3325I0J-358D01*
G01X24403D01*
G03X24054Y-3049I-349J-82D01*
G01X23190D01*
G03X22841Y-3325I0J-358D01*
G01X21051D01*
G03X20823Y-3243I-228J-276D01*
G01X19823D01*
G03X19481Y-3494I0J-358D01*
G01Y-2700D01*
G03X19318Y-2305I-558J0D01*
G01X14215Y2798D01*
G03X14347Y3076I-226J278D01*
G01Y3947D01*
G01X15149D01*
G03X15261Y3952I0J1133D01*
G01X16181D01*
G03X16539Y4310I0J358D01*
G01Y5850D01*
G03X16181Y6208I-358J0D01*
G01X15261D01*
G03X15149Y6213I-111J-1128D01*
G01X14347D01*
G01Y6576D01*
G03X13989Y6934I-358J0D01*
G01X11639D01*
G03X11281Y6576I0J-358D01*
G01Y3076D01*
G03X11639Y2718I358J0D01*
G01X12716D01*
G01X18365Y-2931D01*
G01Y-3494D01*
G03X18023Y-3243I-342J-107D01*
G01X17023D01*
G03X16842Y-3292I0J-358D01*
G01X16229D01*
G03X16169Y-3287I-60J-353D01*
G01X15578D01*
G01X8277Y4014D01*
G01Y6576D01*
G03X7919Y6934I-358J0D01*
G01X5569D01*
G03X5211Y6576I0J-358D01*
G01Y6211D01*
G01X2616D01*
G01Y6500D01*
G03X2258Y6858I-358J0D01*
G01X-1242D01*
G01X-1247D01*
G01X-1260D01*
G03X-3118Y5000I0J-1858D01*
G03X-1260Y3142I1858J0D01*
G01X-1247D01*
G01X-1242D01*
G01X2258D01*
G03X2616Y3500I0J358D01*
G01Y3695D01*
G01X3147D01*
G01Y3661D01*
G03X3430Y3311I358J0D01*
G03X3147Y2961I75J-350D01*
G01Y2154D01*
G03X3452Y1800I358J0D01*
G01Y-1781D01*
G03X3129Y-2137I35J-356D01*
G01Y-2937D01*
G03X3291Y-3237I358J0D01*
G03X3153Y-3408I196J-300D01*
G01X2710Y-3850D01*
G03X2385Y-3642I-325J-150D01*
G01X-1115D01*
G03X-1159Y-3645I0J-358D01*
G03X-1260Y-3642I-101J-1855D01*
G03X-3118Y-5500I0J-1858D01*
G03X-1260Y-7358I1858J0D01*
G03X-1159Y-7355I0J1858D01*
G03X-1115Y-7358I44J355D01*
G01X2385D01*
G03X2743Y-7000I0J358D01*
G01Y-6799D01*
G03X3158Y-6538I-369J1045D01*
G01X4721Y-4975D01*
G03X4943Y-4656I-784J784D01*
G01X5458D01*
G01X6543D01*
G03X7008Y-4463I0J658D01*
G01X7400Y-4072D01*
G01Y-4273D01*
G03X7758Y-4631I358J0D01*
G01X8205D01*
G01X8616Y-5042D01*
G03X8959Y-5184I343J343D01*
G01X9125D01*
G03X9474Y-5460I349J82D01*
G01X10338D01*
G03X10696Y-5102I0J358D01*
G01Y-4296D01*
G03X10413Y-3946I-358J0D01*
G03X10696Y-3596I-75J350D01*
G01Y-2789D01*
G03X10338Y-2431I-358J0D01*
G01X9474D01*
G03X9116Y-2774I0J-358D01*
G01Y-2773D01*
G03X9055Y-2573I-358J0D01*
G03X9116Y-2373I-297J200D01*
G01Y-1823D01*
G03X8758Y-1465I-358J0D01*
G01X8438D01*
G03X8258Y-1440I-180J-633D01*
G01X7300D01*
G03X6835Y-1633I0J-658D01*
G01X6520Y-1948D01*
G03X6327Y-2413I465J-465D01*
G01Y-3283D01*
G01X6316Y-3294D01*
G01Y-2773D01*
G03X6255Y-2573I-358J0D01*
G03X6316Y-2373I-297J200D01*
G01Y-1823D01*
G03X5958Y-1465I-358J0D01*
G01X4958D01*
G03X4600Y-1823I0J-358D01*
G01Y-1849D01*
G03X4422Y-1781I-213J-288D01*
G01Y1800D01*
G03X4727Y2154I-53J354D01*
G01Y2961D01*
G03X4444Y3311I-358J0D01*
G03X4727Y3661I-75J350D01*
G01Y3695D01*
G01X5211D01*
G01Y3076D01*
G03X5569Y2718I358J0D01*
G01X6581D01*
G01X12676Y-3377D01*
G03X12556Y-3645I238J-268D01*
G01Y-4121D01*
G03X12531Y-4350I1033J-229D01*
G03X12556Y-4579I1058J0D01*
G01Y-5055D01*
G03X12711Y-5350I358J0D01*
G03X12556Y-5645I203J-295D01*
G01Y-7055D01*
G03X12914Y-7413I358J0D01*
G01X14264D01*
G03X14542Y-7281I0J358D01*
G03X14819Y-7413I277J226D01*
G01X16169D01*
G03X16527Y-7055I0J358D01*
G01Y-5645D01*
G03X16438Y-5408I-358J0D01*
G01X16677D01*
G03X16665Y-5501I346J-93D01*
G01Y-6051D01*
G03X17023Y-6409I358J0D01*
G01X18023D01*
G03X18381Y-6051I0J358D01*
G01Y-5501D01*
G03X18320Y-5301I-358J0D01*
G03X18381Y-5101I-297J200D01*
G01Y-5087D01*
G03X18528Y-5348I542J134D01*
G01X19351Y-6171D01*
G03X19572Y-6306I395J395D01*
G03X19823Y-6409I251J255D01*
G01X20823D01*
G03X21181Y-6051I0J358D01*
G01Y-5501D01*
G03X21120Y-5301I-358J0D01*
G03X21181Y-5101I-297J200D01*
G01Y-4551D01*
G03X21120Y-4351I-358J0D01*
G03X21151Y-4295I-297J200D01*
G01X22841D01*
G03X23115Y-4563I349J82D01*
G03X22832Y-4913I75J-350D01*
G01Y-5720D01*
G03X23190Y-6078I358J0D01*
G01X24054D01*
G03X24398Y-5818I0J358D01*
G03X25273Y-6325I875J501D01*
G01X26052D01*
G03X26765Y-6030I0J1008D01*
G01X27215Y-5580D01*
G01X27940D01*
G03X27796Y-5867I214J-287D01*
G01Y-7277D01*
G03X28154Y-7635I358J0D01*
G01X29504D01*
G03X29845Y-7386I0J358D01*
G37*
G36*
G01X32478Y-5413D02*
G03X32836Y-5771I358J0D01*
G01X35236D01*
G03X35557Y-5571I0J358D01*
G01X40757D01*
G03X41187Y-5393I0J608D01*
G01X43102Y-3478D01*
G03X43280Y-3048I-430J430D01*
G01Y-2510D01*
G03X43830Y-1524I-608J986D01*
G03X42672Y-366I-1158J0D01*
G03X41514Y-1524I0J-1158D01*
G03X42064Y-2510I1158J0D01*
G01Y-2796D01*
G01X40505Y-4355D01*
G01X35594D01*
G01Y-3513D01*
G03X35583Y-3423I-358J0D01*
G01X36273Y-4113D01*
G03X36703Y-4291I430J430D01*
G01X39243D01*
G03X39673Y-4113I0J608D01*
G01X40562Y-3224D01*
G03X40740Y-2794I-430J430D01*
G01Y-2510D01*
G03X41290Y-1524I-608J986D01*
G03X40132Y-366I-1158J0D01*
G03X38974Y-1524I0J-1158D01*
G03X39524Y-2510I1158J0D01*
G01Y-2542D01*
G01X38991Y-3075D01*
G01X36955D01*
G01X36168Y-2288D01*
G01Y-1887D01*
G03X35990Y-1457I-608J0D01*
G01X35603Y-1070D01*
G01X35582Y607D01*
G03X35224Y960I-358J-5D01*
G01X35219D01*
G01X32819Y930D01*
G03X32466Y572I5J-358D01*
G01Y567D01*
G01X32490Y-1333D01*
G03X32848Y-1686I358J5D01*
G01X32853D01*
G01X34479Y-1666D01*
G01X34952Y-2139D01*
G01Y-2540D01*
G03X35130Y-2970I608J0D01*
G01X35326Y-3167D01*
G03X35236Y-3155I-90J-347D01*
G01X32836D01*
G03X32478Y-3513I0J-358D01*
G01Y-5413D01*
G37*
G36*
G01X49454Y1259D02*
G03X49812Y901I358J0D01*
G01X53312D01*
G03X53670Y1259I0J358D01*
G01Y3059D01*
G03X53312Y3417I-358J0D01*
G01X49812D01*
G03X49454Y3059I0J-358D01*
G01Y1259D01*
G37*
G36*
G01X32893Y2348D02*
G03X34101Y3556I0J1208D01*
G03X32893Y4764I-1208J0D01*
G03X31685Y3556I0J-1208D01*
G03X32893Y2348I1208J0D01*
G37*
G36*
G01X44054Y-1524D02*
G03X45212Y-2682I1158J0D01*
G03X46370Y-1524I0J1158D01*
G03X45212Y-366I-1158J0D01*
G03X44054Y-1524I0J-1158D01*
G37*
G36*
G01X38392Y-2682D02*
G03X38750Y-2324I0J358D01*
G01Y-724D01*
G03X38392Y-366I-358J0D01*
G01X36792D01*
G03X36434Y-724I0J-358D01*
G01Y-2324D01*
G03X36792Y-2682I358J0D01*
G01X38392D01*
G37*
G36*
G01X25245Y-7493D02*
G03X25908Y-8156I663J0D01*
G03X26571Y-7493I0J663D01*
G03X25908Y-6830I-663J0D01*
G03X25245Y-7493I0J-663D01*
G37*
%LPD*%
G36*
G01X9399Y-3946D02*
G03X9133Y-4187I75J-350D01*
G01X9116Y-4170D01*
G01Y-3723D01*
G03X9055Y-3523I-358J0D01*
G03X9116Y-3338I-297J200D01*
G01Y-3596D01*
G03X9399Y-3946I358J0D01*
G37*
G54D999*
G01X-7645Y-10142D02*
G01X-7645Y10142D01*
G01X52642D01*
G01Y7366D01*
G03X53000Y7008I358J0D01*
G01X57427D01*
G01Y-7135D01*
G01X53000D01*
G03X52642Y-7493I0J-358D01*
G01Y-10142D01*
G01X-7645D01*
G01X29845Y-7386D02*
G03X30186Y-7635I341J109D01*
G01X31536D01*
G03X31894Y-7277I0J358D01*
G01Y-5867D01*
G03X31739Y-5572I-358J0D01*
G03X31894Y-5277I-203J295D01*
G01Y-3867D01*
G03X31536Y-3509I-358J0D01*
G01X30186D01*
G03X29995Y-3564I0J-358D01*
G01X29695D01*
G03X29504Y-3509I-191J-303D01*
G01X28154D01*
G03X27963Y-3564I0J-358D01*
G01X27932D01*
G01Y1905D01*
G03X27830Y2348I-1008J0D01*
G03X28176Y2404I-17J1208D01*
G01X29196Y1383D01*
G03X29591Y1220I395J395D01*
G01X37869D01*
G03X38227Y1115I358J558D01*
G03X38890Y1778I0J663D01*
G03X38227Y2441I-663J0D01*
G03X37869Y2336I0J-663D01*
G01X29822D01*
G01X29161Y2998D01*
G01X29282D01*
G03X30353Y2348I1071J558D01*
G03X31561Y3556I0J1208D01*
G03X30353Y4764I-1208J0D01*
G03X29282Y4114I0J-1208D01*
G01X28885D01*
G03X27813Y4764I-1071J-558D01*
G03X26608Y3646I0J-1208D01*
G01X26481Y3774D01*
G01Y4406D01*
G03X26123Y4764I-358J0D01*
G01X24423D01*
G03X24102Y4564I0J-358D01*
G01X22098D01*
G01X21825Y4838D01*
G01X36576D01*
G01X37592D01*
G03X38850Y6096I0J1258D01*
G03X38777Y6518I-1258J0D01*
G01X39383Y7124D01*
G01X39598D01*
G03X38974Y6096I534J-1028D01*
G03X40132Y4938I1158J0D01*
G03X41290Y6096I0J1158D01*
G03X40666Y7124I-1158J0D01*
G01X42138D01*
G03X41514Y6096I534J-1028D01*
G03X42672Y4938I1158J0D01*
G03X43830Y6096I0J1158D01*
G03X43206Y7124I-1158J0D01*
G01X44678D01*
G03X44054Y6096I534J-1028D01*
G03X45212Y4938I1158J0D01*
G03X46370Y6096I0J1158D01*
G03X46339Y6365I-1158J0D01*
G01X47370Y5333D01*
G01X48386Y4317D01*
G03X49276Y3949I890J890D01*
G01X53178D01*
G01X54241Y2886D01*
G01Y-914D01*
G01X53667Y-1488D01*
G03X53670Y-1438I-355J50D01*
G01Y362D01*
G03X53312Y720I-358J0D01*
G01X49812D01*
G03X49454Y362I0J-358D01*
G01Y-77D01*
G01X49253D01*
G03X48895Y28I-358J-558D01*
G03X48232Y-635I0J-663D01*
G03X48895Y-1298I663J0D01*
G03X49253Y-1193I0J663D01*
G01X49454D01*
G01Y-1438D01*
G03X49812Y-1796I358J0D01*
G01X53312D01*
G03X53362Y-1793I0J358D01*
G01X53178Y-1977D01*
G01X52197D01*
G01X49812D01*
G03X49454Y-2335I0J-358D01*
G01Y-4135D01*
G03X49812Y-4493I358J0D01*
G01X52197D01*
G01X53312D01*
G01X53699D01*
G03X54589Y-4125I0J1258D01*
G01X56389Y-2325D01*
G03X56757Y-1435I-890J890D01*
G01Y3407D01*
G03X56389Y4297I-1258J0D01*
G01X54589Y6097D01*
G03X53699Y6465I-890J-890D01*
G01X49797D01*
G01X49150Y7113D01*
G01X46991Y9272D01*
G03X46101Y9640I-890J-890D01*
G01X38862D01*
G03X37972Y9272I0J-1258D01*
G01X36055Y7354D01*
G01X21209D01*
G03X20319Y6986I0J-1258D01*
G01X19541Y6208D01*
G01X19125D01*
G03X18767Y5850I0J-358D01*
G01Y4310D01*
G03X19125Y3952I358J0D01*
G01X19599D01*
G03X19976Y3835I558J1128D01*
G01X20968Y2843D01*
G03X21681Y2548I713J713D01*
G01X24102D01*
G03X24423Y2348I321J158D01*
G01X25055D01*
G01X25916Y1487D01*
G01Y-3117D01*
G03X25705Y-3049I-211J-289D01*
G01X24841D01*
G03X24492Y-3325I0J-358D01*
G01X24403D01*
G03X24054Y-3049I-349J-82D01*
G01X23190D01*
G03X22841Y-3325I0J-358D01*
G01X21051D01*
G03X20823Y-3243I-228J-276D01*
G01X19823D01*
G03X19481Y-3494I0J-358D01*
G01Y-2700D01*
G03X19318Y-2305I-558J0D01*
G01X14215Y2798D01*
G03X14347Y3076I-226J278D01*
G01Y3947D01*
G01X15149D01*
G03X15261Y3952I0J1133D01*
G01X16181D01*
G03X16539Y4310I0J358D01*
G01Y5850D01*
G03X16181Y6208I-358J0D01*
G01X15261D01*
G03X15149Y6213I-111J-1128D01*
G01X14347D01*
G01Y6576D01*
G03X13989Y6934I-358J0D01*
G01X11639D01*
G03X11281Y6576I0J-358D01*
G01Y3076D01*
G03X11639Y2718I358J0D01*
G01X12716D01*
G01X18365Y-2931D01*
G01Y-3494D01*
G03X18023Y-3243I-342J-107D01*
G01X17023D01*
G03X16842Y-3292I0J-358D01*
G01X16229D01*
G03X16169Y-3287I-60J-353D01*
G01X15578D01*
G01X8277Y4014D01*
G01Y6576D01*
G03X7919Y6934I-358J0D01*
G01X5569D01*
G03X5211Y6576I0J-358D01*
G01Y6211D01*
G01X2616D01*
G01Y6500D01*
G03X2258Y6858I-358J0D01*
G01X-1242D01*
G01X-1247D01*
G01X-1260D01*
G03X-3118Y5000I0J-1858D01*
G03X-1260Y3142I1858J0D01*
G01X-1247D01*
G01X-1242D01*
G01X2258D01*
G03X2616Y3500I0J358D01*
G01Y3695D01*
G01X3147D01*
G01Y3661D01*
G03X3430Y3311I358J0D01*
G03X3147Y2961I75J-350D01*
G01Y2154D01*
G03X3452Y1800I358J0D01*
G01Y-1781D01*
G03X3129Y-2137I35J-356D01*
G01Y-2937D01*
G03X3291Y-3237I358J0D01*
G03X3153Y-3408I196J-300D01*
G01X2710Y-3850D01*
G03X2385Y-3642I-325J-150D01*
G01X-1115D01*
G03X-1159Y-3645I0J-358D01*
G03X-1260Y-3642I-101J-1855D01*
G03X-3118Y-5500I0J-1858D01*
G03X-1260Y-7358I1858J0D01*
G03X-1159Y-7355I0J1858D01*
G03X-1115Y-7358I44J355D01*
G01X2385D01*
G03X2743Y-7000I0J358D01*
G01Y-6799D01*
G03X3158Y-6538I-369J1045D01*
G01X4721Y-4975D01*
G03X4943Y-4656I-784J784D01*
G01X5458D01*
G01X6543D01*
G03X7008Y-4463I0J658D01*
G01X7400Y-4072D01*
G01Y-4273D01*
G03X7758Y-4631I358J0D01*
G01X8205D01*
G01X8616Y-5042D01*
G03X8959Y-5184I343J343D01*
G01X9125D01*
G03X9474Y-5460I349J82D01*
G01X10338D01*
G03X10696Y-5102I0J358D01*
G01Y-4296D01*
G03X10413Y-3946I-358J0D01*
G03X10696Y-3596I-75J350D01*
G01Y-2789D01*
G03X10338Y-2431I-358J0D01*
G01X9474D01*
G03X9116Y-2774I0J-358D01*
G01Y-2773D01*
G03X9055Y-2573I-358J0D01*
G03X9116Y-2373I-297J200D01*
G01Y-1823D01*
G03X8758Y-1465I-358J0D01*
G01X8438D01*
G03X8258Y-1440I-180J-633D01*
G01X7300D01*
G03X6835Y-1633I0J-658D01*
G01X6520Y-1948D01*
G03X6327Y-2413I465J-465D01*
G01Y-3283D01*
G01X6316Y-3294D01*
G01Y-2773D01*
G03X6255Y-2573I-358J0D01*
G03X6316Y-2373I-297J200D01*
G01Y-1823D01*
G03X5958Y-1465I-358J0D01*
G01X4958D01*
G03X4600Y-1823I0J-358D01*
G01Y-1849D01*
G03X4422Y-1781I-213J-288D01*
G01Y1800D01*
G03X4727Y2154I-53J354D01*
G01Y2961D01*
G03X4444Y3311I-358J0D01*
G03X4727Y3661I-75J350D01*
G01Y3695D01*
G01X5211D01*
G01Y3076D01*
G03X5569Y2718I358J0D01*
G01X6581D01*
G01X12676Y-3377D01*
G03X12556Y-3645I238J-268D01*
G01Y-4121D01*
G03X12531Y-4350I1033J-229D01*
G03X12556Y-4579I1058J0D01*
G01Y-5055D01*
G03X12711Y-5350I358J0D01*
G03X12556Y-5645I203J-295D01*
G01Y-7055D01*
G03X12914Y-7413I358J0D01*
G01X14264D01*
G03X14542Y-7281I0J358D01*
G03X14819Y-7413I277J226D01*
G01X16169D01*
G03X16527Y-7055I0J358D01*
G01Y-5645D01*
G03X16438Y-5408I-358J0D01*
G01X16677D01*
G03X16665Y-5501I346J-93D01*
G01Y-6051D01*
G03X17023Y-6409I358J0D01*
G01X18023D01*
G03X18381Y-6051I0J358D01*
G01Y-5501D01*
G03X18320Y-5301I-358J0D01*
G03X18381Y-5101I-297J200D01*
G01Y-5087D01*
G03X18528Y-5348I542J134D01*
G01X19351Y-6171D01*
G03X19572Y-6306I395J395D01*
G03X19823Y-6409I251J255D01*
G01X20823D01*
G03X21181Y-6051I0J358D01*
G01Y-5501D01*
G03X21120Y-5301I-358J0D01*
G03X21181Y-5101I-297J200D01*
G01Y-4551D01*
G03X21120Y-4351I-358J0D01*
G03X21151Y-4295I-297J200D01*
G01X22841D01*
G03X23115Y-4563I349J82D01*
G03X22832Y-4913I75J-350D01*
G01Y-5720D01*
G03X23190Y-6078I358J0D01*
G01X24054D01*
G03X24398Y-5818I0J358D01*
G03X25273Y-6325I875J501D01*
G01X26052D01*
G03X26765Y-6030I0J1008D01*
G01X27215Y-5580D01*
G01X27940D01*
G03X27796Y-5867I214J-287D01*
G01Y-7277D01*
G03X28154Y-7635I358J0D01*
G01X29504D01*
G03X29845Y-7386I0J358D01*
G01X32478Y-5413D02*
G03X32836Y-5771I358J0D01*
G01X35236D01*
G03X35557Y-5571I0J358D01*
G01X40757D01*
G03X41187Y-5393I0J608D01*
G01X43102Y-3478D01*
G03X43280Y-3048I-430J430D01*
G01Y-2510D01*
G03X43830Y-1524I-608J986D01*
G03X42672Y-366I-1158J0D01*
G03X41514Y-1524I0J-1158D01*
G03X42064Y-2510I1158J0D01*
G01Y-2796D01*
G01X40505Y-4355D01*
G01X35594D01*
G01Y-3513D01*
G03X35583Y-3423I-358J0D01*
G01X36273Y-4113D01*
G03X36703Y-4291I430J430D01*
G01X39243D01*
G03X39673Y-4113I0J608D01*
G01X40562Y-3224D01*
G03X40740Y-2794I-430J430D01*
G01Y-2510D01*
G03X41290Y-1524I-608J986D01*
G03X40132Y-366I-1158J0D01*
G03X38974Y-1524I0J-1158D01*
G03X39524Y-2510I1158J0D01*
G01Y-2542D01*
G01X38991Y-3075D01*
G01X36955D01*
G01X36168Y-2288D01*
G01Y-1887D01*
G03X35990Y-1457I-608J0D01*
G01X35603Y-1070D01*
G01X35582Y607D01*
G03X35224Y960I-358J-5D01*
G01X35219D01*
G01X32819Y930D01*
G03X32466Y572I5J-358D01*
G01Y567D01*
G01X32490Y-1333D01*
G03X32848Y-1686I358J5D01*
G01X32853D01*
G01X34479Y-1666D01*
G01X34952Y-2139D01*
G01Y-2540D01*
G03X35130Y-2970I608J0D01*
G01X35326Y-3167D01*
G03X35236Y-3155I-90J-347D01*
G01X32836D01*
G03X32478Y-3513I0J-358D01*
G01Y-5413D01*
G01X49454Y1259D02*
G03X49812Y901I358J0D01*
G01X53312D01*
G03X53670Y1259I0J358D01*
G01Y3059D01*
G03X53312Y3417I-358J0D01*
G01X49812D01*
G03X49454Y3059I0J-358D01*
G01Y1259D01*
G01X32893Y2348D02*
G03X34101Y3556I0J1208D01*
G03X32893Y4764I-1208J0D01*
G03X31685Y3556I0J-1208D01*
G03X32893Y2348I1208J0D01*
G01X44054Y-1524D02*
G03X45212Y-2682I1158J0D01*
G03X46370Y-1524I0J1158D01*
G03X45212Y-366I-1158J0D01*
G03X44054Y-1524I0J-1158D01*
G01X38392Y-2682D02*
G03X38750Y-2324I0J358D01*
G01Y-724D01*
G03X38392Y-366I-358J0D01*
G01X36792D01*
G03X36434Y-724I0J-358D01*
G01Y-2324D01*
G03X36792Y-2682I358J0D01*
G01X38392D01*
G01X25245Y-7493D02*
G03X25908Y-8156I663J0D01*
G03X26571Y-7493I0J663D01*
G03X25908Y-6830I-663J0D01*
G03X25245Y-7493I0J-663D01*
G01X9399Y-3946D02*
G03X9133Y-4187I75J-350D01*
G01X9116Y-4170D01*
G01Y-3723D01*
G03X9055Y-3523I-358J0D01*
G03X9116Y-3338I-297J200D01*
G01Y-3596D01*
G03X9399Y-3946I358J0D01*
G54D11*
G01X20323Y-4826D02*
G01X21082Y-4826D01*
G01X15494Y-6350D02*
G01X15494Y-7314D01*
G01X15494Y-6350D02*
G01X16428Y-6350D01*
G01X28829Y-6572D02*
G01X28829Y-7536D01*
G01X28829Y-6572D02*
G01X27895Y-6572D01*
G01X45212Y-1524D02*
G01X44153Y-1524D01*
G01X45212Y-1524D02*
G01X46271Y-1524D01*
G01X45212Y-1524D02*
G01X45212Y-465D01*
G01X45212Y-1524D02*
G01X45212Y-2583D01*
G01X13589Y-6350D02*
G01X13589Y-7314D01*
G01X13589Y-6350D02*
G01X12655Y-6350D01*
G01X32893Y3556D02*
G01X31784Y3556D01*
G01X32893Y3556D02*
G01X34002Y3556D01*
G01X32893Y3556D02*
G01X32893Y4665D01*
G01X32893Y3556D02*
G01X32893Y2447D01*
G01X51562Y2159D02*
G01X51562Y1000D01*
G01X51562Y2159D02*
G01X51562Y3318D01*
G01X51562Y2159D02*
G01X49553Y2159D01*
G01X51562Y2159D02*
G01X53571Y2159D01*
G01X23622Y-5317D02*
G01X23622Y-5979D01*
G01X23622Y-5317D02*
G01X22931Y-5317D01*
G01X9906Y-3192D02*
G01X9906Y-2530D01*
G01X9906Y-3192D02*
G01X10597Y-3192D01*
G01X30861Y-6572D02*
G01X30861Y-7536D01*
G01X30861Y-6572D02*
G01X31795Y-6572D01*
G01X25908Y-7493D02*
G01X25344Y-7493D01*
G01X25908Y-7493D02*
G01X26472Y-7493D01*
G01X25908Y-7493D02*
G01X25908Y-6929D01*
G01X25908Y-7493D02*
G01X25908Y-8057D01*
G04 Copper End*

G04 Pad Start*
G54D12*
G01X51562Y2159D03*
G01X51562Y-538D03*
G01X51562Y-3235D03*
G54D13*
G01X-1260Y5000D03*
G01X-1260Y-5500D03*
G54D14*
G01X508Y5000D03*
G01X635Y-5500D03*
G54D15*
G01X26035Y5715D03*
G01X25908Y-7493D03*
G54D16*
G01X20323Y-3876D03*
G01X20323Y-4826D03*
G01X20323Y-5776D03*
G01X17523Y-5776D03*
G01X17523Y-4826D03*
G01X17523Y-3876D03*
G54D17*
G01X15149Y5080D03*
G01X20157Y5080D03*
G54D19*
G01X25273Y-5317D03*
G01X25273Y-3810D03*
G54D20*
G01X6744Y4826D03*
G01X12814Y4826D03*
G54D21*
G01X13589Y-6350D03*
G01X13589Y-4350D03*
G01X15494Y-6350D03*
G01X15494Y-4350D03*
G01X28829Y-6572D03*
G01X28829Y-4572D03*
G01X30861Y-6572D03*
G01X30861Y-4572D03*
G54D22*
G01X23622Y-3810D03*
G01X23622Y-5317D03*
G54D23*
G01X37592Y-1524D03*
G54D24*
G01X40132Y-1524D03*
G01X42672Y-1524D03*
G01X45212Y-1524D03*
G01X45212Y6096D03*
G01X42672Y6096D03*
G01X40132Y6096D03*
G01X37592Y6096D03*
G54D25*
G01X34036Y-4463D03*
G54D26*
G01X34036Y-363D03*
G54D16*
G01X8258Y-2098D03*
G01X8258Y-3048D03*
G01X8258Y-3998D03*
G01X5458Y-3998D03*
G01X5458Y-3048D03*
G01X5458Y-2098D03*
G54D27*
G01X3937Y-3937D03*
G01X3937Y-2537D03*
G54D19*
G01X9906Y-4699D03*
G01X9906Y-3192D03*
G01X3937Y2557D03*
G01X3937Y4064D03*
G54D28*
G01X32893Y3556D03*
G01X30353Y3556D03*
G01X27813Y3556D03*
G54D29*
G01X25273Y3556D03*
G04 Pad End*

G04 Via Start*
G54D30*
G01X45212Y-3810D03*
G01X48260Y6223D03*
G54D31*
G01X38227Y1778D03*
G01X48895Y-635D03*
G04 Via End*

G04 Track Start*
G54D11*
G01X20323Y-4826D02*
G01X23131Y-4826D01*
G01X23622Y-5317D01*
G01X20323Y-3876D02*
G01X20389Y-3810D01*
G01X23622D01*
G01X25273Y-3810D02*
G01X23622Y-3810D01*
G54D32*
G01X15149Y5080D02*
G01X13068Y5080D01*
G01X12814Y4826D01*
G54D33*
G01X12814Y3409D01*
G01X18923Y-2700D01*
G54D34*
G01X20157Y5080D02*
G01X21681Y3556D01*
G01X25273D01*
G54D11*
G01X-1260Y4873D02*
G01X508Y4873D01*
G01X8258Y-3998D02*
G01X8959Y-4699D01*
G01X9906D01*
G01X5458Y-3048D02*
G01X4448Y-3048D01*
G01X3937Y-2537D01*
G54D33*
G01X30353Y3556D02*
G01X27813Y3556D01*
G01X18923Y-2700D02*
G01X18923Y-4953D01*
G01X19746Y-5776D01*
G01X20323D01*
G01X38227Y1778D02*
G01X29591Y1778D01*
G01X27813Y3556D01*
G01X48895Y-635D02*
G01X52100Y-635D01*
G01X52197Y-538D01*
G54D35*
G01X6744Y4826D02*
G01X6617Y4953D01*
G01X588D01*
G01X508Y4873D01*
G54D11*
G01X23622Y-7874D02*
G01X23622Y-5317D01*
G54D35*
G01X45212Y-3810D02*
G01X45212Y-1524D01*
G01X20193Y5080D02*
G01X20157Y5080D01*
G01X21209Y6096D02*
G01X20193Y5080D01*
G01X38862Y8382D02*
G01X36576Y6096D01*
G01X52197Y-3235D02*
G01X53699Y-3235D01*
G01X55499Y-1435D01*
G01X37592Y6096D02*
G01X36576Y6096D01*
G01X45212Y2159D02*
G01X52197Y2159D01*
G01X45212Y2159D02*
G01X45212Y-1524D01*
G54D34*
G01X45212Y2159D02*
G01X41529Y2159D01*
G01X40132Y3556D01*
G01X32893D01*
G01X26924Y1905D02*
G01X25273Y3556D01*
G54D11*
G01X3937Y2557D02*
G01X3937Y-2537D01*
G54D35*
G01X36576Y6096D02*
G01X21209Y6096D01*
G54D11*
G01X9906Y-3192D02*
G01X9915Y-3184D01*
G54D36*
G01X10287Y-3048D02*
G01X8258Y-3048D01*
G01X11430Y-4191D02*
G01X10287Y-3048D01*
G54D37*
G01X13589Y-4350D02*
G01X15494Y-4350D01*
G01X17621D01*
G01X6509Y4286D02*
G01X15145Y-4350D01*
G54D35*
G01X48260Y6223D02*
G01X49276Y5207D01*
G01X53699D01*
G01X55499Y3407D02*
G01X55499Y-1435D01*
G01X53699Y5207D02*
G01X55499Y3407D01*
G01X46101Y8382D02*
G01X38862Y8382D01*
G01X48260Y6223D02*
G01X46101Y8382D01*
G54D38*
G01X42672Y-3048D02*
G01X42672Y-1524D01*
G01X40132Y-1524D02*
G01X40132Y-2794D01*
G01X35560Y-2540D02*
G01X35560Y-1887D01*
G01X34036Y-363D01*
G01X40132Y-2794D02*
G01X39243Y-3683D01*
G01X36703D01*
G01X35560Y-2540D01*
G01X34036Y-4463D02*
G01X34536Y-4963D01*
G01X40757D01*
G01X42672Y-3048D01*
G54D35*
G01X45212Y-3810D02*
G01X42164Y-6858D01*
G01X28067D01*
G01X27051Y-7874D01*
G01X23622D01*
G54D34*
G01X26052Y-5317D02*
G01X25273Y-5317D01*
G01X26924Y1905D02*
G01X26924Y-4445D01*
G01X26052Y-5317D01*
G01X27051Y-4572D02*
G01X26924Y-4445D01*
G01X30861Y-4572D02*
G01X28829Y-4572D01*
G01X27051D01*
G54D39*
G01X3937Y-4191D02*
G01X2374Y-5754D01*
G01X635D01*
G54D36*
G01X8258Y-2098D02*
G01X7300Y-2098D01*
G01X6985Y-2413D01*
G01Y-3556D01*
G01X6543Y-3998D02*
G01X5458Y-3998D01*
G01X6985Y-3556D02*
G01X6543Y-3998D01*
G01X3937Y-3937D02*
G01X3998Y-3998D01*
G01X5458D01*
G04 Track End*
G54D10*
G01X-59975Y60373D03*
G01X47760Y60373D03*
G01X-54975Y-14475D03*
G01X42760Y-14475D03*
G04 Panelize End*
G36*
G01X-7645Y12807D02*
G01X-7645Y33091D01*
G01X52642D01*
G01Y30315D01*
G03X53000Y29957I358J0D01*
G01X57427D01*
G01Y15814D01*
G01X53000D01*
G03X52642Y15456I0J-358D01*
G01Y12807D01*
G01X-7645D01*
G37*
%LPC*%
G36*
G01X29845Y15563D02*
G03X30186Y15314I341J109D01*
G01X31536D01*
G03X31894Y15672I0J358D01*
G01Y17082D01*
G03X31739Y17377I-358J0D01*
G03X31894Y17672I-203J295D01*
G01Y19082D01*
G03X31536Y19440I-358J0D01*
G01X30186D01*
G03X29995Y19385I0J-358D01*
G01X29695D01*
G03X29504Y19440I-191J-303D01*
G01X28154D01*
G03X27963Y19385I0J-358D01*
G01X27932D01*
G01Y24854D01*
G03X27830Y25297I-1008J0D01*
G03X28176Y25353I-17J1208D01*
G01X29196Y24333D01*
G03X29591Y24169I395J395D01*
G01X37869D01*
G03X38227Y24064I358J558D01*
G03X38890Y24727I0J663D01*
G03X38227Y25390I-663J0D01*
G03X37869Y25285I0J-663D01*
G01X29822D01*
G01X29161Y25947D01*
G01X29282D01*
G03X30353Y25297I1071J558D01*
G03X31561Y26505I0J1208D01*
G03X30353Y27713I-1208J0D01*
G03X29282Y27063I0J-1208D01*
G01X28885D01*
G03X27813Y27713I-1071J-558D01*
G03X26608Y26596I0J-1208D01*
G01X26481Y26723D01*
G01Y27355D01*
G03X26123Y27713I-358J0D01*
G01X24423D01*
G03X24102Y27513I0J-358D01*
G01X22098D01*
G01X21825Y27787D01*
G01X36576D01*
G01X37592D01*
G03X38850Y29045I0J1258D01*
G03X38777Y29467I-1258J0D01*
G01X39383Y30073D01*
G01X39598D01*
G03X38974Y29045I534J-1028D01*
G03X40132Y27887I1158J0D01*
G03X41290Y29045I0J1158D01*
G03X40666Y30073I-1158J0D01*
G01X42138D01*
G03X41514Y29045I534J-1028D01*
G03X42672Y27887I1158J0D01*
G03X43830Y29045I0J1158D01*
G03X43206Y30073I-1158J0D01*
G01X44678D01*
G03X44054Y29045I534J-1028D01*
G03X45212Y27887I1158J0D01*
G03X46370Y29045I0J1158D01*
G03X46339Y29314I-1158J0D01*
G01X47370Y28283D01*
G01X48386Y27267D01*
G03X49276Y26898I890J890D01*
G01X53178D01*
G01X54241Y25835D01*
G01Y22035D01*
G01X53667Y21461D01*
G03X53670Y21511I-355J50D01*
G01Y23311D01*
G03X53312Y23669I-358J0D01*
G01X49812D01*
G03X49454Y23311I0J-358D01*
G01Y22872D01*
G01X49253D01*
G03X48895Y22977I-358J-558D01*
G03X48232Y22314I0J-663D01*
G03X48895Y21651I663J0D01*
G03X49253Y21756I0J663D01*
G01X49454D01*
G01Y21511D01*
G03X49812Y21153I358J0D01*
G01X53312D01*
G03X53362Y21157I0J358D01*
G01X53178Y20972D01*
G01X52197D01*
G01X49812D01*
G03X49454Y20614I0J-358D01*
G01Y18814D01*
G03X49812Y18456I358J0D01*
G01X52197D01*
G01X53312D01*
G01X53699D01*
G03X54589Y18825I0J1258D01*
G01X56389Y20625D01*
G03X56757Y21514I-890J890D01*
G01Y26356D01*
G03X56389Y27246I-1258J0D01*
G01X54589Y29046D01*
G03X53699Y29414I-890J-890D01*
G01X49797D01*
G01X49150Y30062D01*
G01X46991Y32221D01*
G03X46101Y32589I-890J-890D01*
G01X38862D01*
G03X37972Y32221I0J-1258D01*
G01X36055Y30303D01*
G01X21209D01*
G03X20319Y29935I0J-1258D01*
G01X19541Y29157D01*
G01X19125D01*
G03X18767Y28799I0J-358D01*
G01Y27260D01*
G03X19125Y26902I358J0D01*
G01X19599D01*
G03X19976Y26784I558J1128D01*
G01X20968Y25792D01*
G03X21681Y25497I713J713D01*
G01X24102D01*
G03X24423Y25297I321J158D01*
G01X25055D01*
G01X25916Y24437D01*
G01Y19832D01*
G03X25705Y19901I-211J-289D01*
G01X24841D01*
G03X24492Y19624I0J-358D01*
G01X24403D01*
G03X24054Y19901I-349J-82D01*
G01X23190D01*
G03X22841Y19624I0J-358D01*
G01X21051D01*
G03X20823Y19706I-228J-276D01*
G01X19823D01*
G03X19481Y19455I0J-358D01*
G01Y20249D01*
G03X19318Y20644I-558J0D01*
G01X14215Y25747D01*
G03X14347Y26025I-226J278D01*
G01Y26896D01*
G01X15149D01*
G03X15261Y26902I0J1133D01*
G01X16181D01*
G03X16539Y27260I0J358D01*
G01Y28799D01*
G03X16181Y29157I-358J0D01*
G01X15261D01*
G03X15149Y29162I-111J-1128D01*
G01X14347D01*
G01Y29525D01*
G03X13989Y29883I-358J0D01*
G01X11639D01*
G03X11281Y29525I0J-358D01*
G01Y26025D01*
G03X11639Y25667I358J0D01*
G01X12716D01*
G01X18365Y20018D01*
G01Y19455D01*
G03X18023Y19706I-342J-107D01*
G01X17023D01*
G03X16842Y19657I0J-358D01*
G01X16229D01*
G03X16169Y19662I-60J-353D01*
G01X15578D01*
G01X8277Y26964D01*
G01Y29525D01*
G03X7919Y29883I-358J0D01*
G01X5569D01*
G03X5211Y29525I0J-358D01*
G01Y29160D01*
G01X2616D01*
G01Y29449D01*
G03X2258Y29807I-358J0D01*
G01X-1242D01*
G01X-1247D01*
G01X-1260D01*
G03X-3118Y27949I0J-1858D01*
G03X-1260Y26091I1858J0D01*
G01X-1247D01*
G01X-1242D01*
G01X2258D01*
G03X2616Y26449I0J358D01*
G01Y26644D01*
G01X3147D01*
G01Y26610D01*
G03X3430Y26260I358J0D01*
G03X3147Y25910I75J-350D01*
G01Y25103D01*
G03X3452Y24749I358J0D01*
G01Y21169D01*
G03X3129Y20812I35J-356D01*
G01Y20012D01*
G03X3291Y19712I358J0D01*
G03X3153Y19541I196J-300D01*
G01X2710Y19099D01*
G03X2385Y19307I-325J-150D01*
G01X-1115D01*
G03X-1159Y19305I0J-358D01*
G03X-1260Y19307I-101J-1855D01*
G03X-3118Y17449I0J-1858D01*
G03X-1260Y15591I1858J0D01*
G03X-1159Y15594I0J1858D01*
G03X-1115Y15591I44J355D01*
G01X2385D01*
G03X2743Y15949I0J358D01*
G01Y16150D01*
G03X3158Y16412I-369J1045D01*
G01X4721Y17975D01*
G03X4943Y18293I-784J784D01*
G01X5458D01*
G01X6543D01*
G03X7008Y18486I0J658D01*
G01X7400Y18877D01*
G01Y18676D01*
G03X7758Y18318I358J0D01*
G01X8205D01*
G01X8616Y17907D01*
G03X8959Y17765I343J343D01*
G01X9125D01*
G03X9474Y17489I349J82D01*
G01X10338D01*
G03X10696Y17847I0J358D01*
G01Y18653D01*
G03X10413Y19004I-358J0D01*
G03X10696Y19354I-75J350D01*
G01Y20160D01*
G03X10338Y20518I-358J0D01*
G01X9474D01*
G03X9116Y20176I0J-358D01*
G03X9055Y20376I-358J0D01*
G03X9116Y20576I-297J200D01*
G01Y21126D01*
G03X8758Y21484I-358J0D01*
G01X8438D01*
G03X8258Y21509I-180J-633D01*
G01X7300D01*
G03X6835Y21317I0J-658D01*
G01X6520Y21002D01*
G03X6327Y20536I465J-465D01*
G01Y19666D01*
G01X6316Y19655D01*
G01Y20176D01*
G03X6255Y20376I-358J0D01*
G03X6316Y20576I-297J200D01*
G01Y21126D01*
G03X5958Y21484I-358J0D01*
G01X4958D01*
G03X4600Y21126I0J-358D01*
G01Y21100D01*
G03X4422Y21169I-213J-288D01*
G01Y24749D01*
G03X4727Y25103I-53J354D01*
G01Y25910D01*
G03X4444Y26260I-358J0D01*
G03X4727Y26610I-75J350D01*
G01Y26644D01*
G01X5211D01*
G01Y26025D01*
G03X5569Y25667I358J0D01*
G01X6581D01*
G01X12676Y19572D01*
G03X12556Y19304I238J-268D01*
G01Y18828D01*
G03X12531Y18599I1033J-229D01*
G03X12556Y18371I1058J0D01*
G01Y17894D01*
G03X12711Y17599I358J0D01*
G03X12556Y17304I203J-295D01*
G01Y15894D01*
G03X12914Y15536I358J0D01*
G01X14264D01*
G03X14542Y15668I0J358D01*
G03X14819Y15536I277J226D01*
G01X16169D01*
G03X16527Y15894I0J358D01*
G01Y17304D01*
G03X16438Y17541I-358J0D01*
G01X16677D01*
G03X16665Y17448I346J-93D01*
G01Y16898D01*
G03X17023Y16540I358J0D01*
G01X18023D01*
G03X18381Y16898I0J358D01*
G01Y17448D01*
G03X18320Y17648I-358J0D01*
G03X18381Y17848I-297J200D01*
G01Y17863D01*
G03X18528Y17602I542J134D01*
G01X19351Y16779D01*
G03X19572Y16643I395J395D01*
G03X19823Y16540I251J255D01*
G01X20823D01*
G03X21181Y16898I0J358D01*
G01Y17448D01*
G03X21120Y17648I-358J0D01*
G03X21181Y17848I-297J200D01*
G01Y18398D01*
G03X21120Y18598I-358J0D01*
G03X21151Y18654I-297J200D01*
G01X22841D01*
G03X23115Y18386I349J82D01*
G03X22832Y18036I75J-350D01*
G01Y17229D01*
G03X23190Y16871I358J0D01*
G01X24054D01*
G03X24398Y17131I0J358D01*
G03X25273Y16624I875J501D01*
G01X26052D01*
G03X26765Y16920I0J1008D01*
G01X27215Y17369D01*
G01X27940D01*
G03X27796Y17082I214J-287D01*
G01Y15672D01*
G03X28154Y15314I358J0D01*
G01X29504D01*
G03X29845Y15563I0J358D01*
G37*
G36*
G01X32478Y17536D02*
G03X32836Y17178I358J0D01*
G01X35236D01*
G03X35557Y17378I0J358D01*
G01X40757D01*
G03X41187Y17556I0J608D01*
G01X43102Y19471D01*
G03X43280Y19901I-430J430D01*
G01Y20439D01*
G03X43830Y21425I-608J986D01*
G03X42672Y22583I-1158J0D01*
G03X41514Y21425I0J-1158D01*
G03X42064Y20439I1158J0D01*
G01Y20153D01*
G01X40505Y18594D01*
G01X35594D01*
G01Y19436D01*
G03X35583Y19527I-358J0D01*
G01X36273Y18836D01*
G03X36703Y18658I430J430D01*
G01X39243D01*
G03X39673Y18836I0J608D01*
G01X40562Y19725D01*
G03X40740Y20155I-430J430D01*
G01Y20439D01*
G03X41290Y21425I-608J986D01*
G03X40132Y22583I-1158J0D01*
G03X38974Y21425I0J-1158D01*
G03X39524Y20439I1158J0D01*
G01Y20407D01*
G01X38991Y19874D01*
G01X36955D01*
G01X36168Y20661D01*
G01Y21062D01*
G03X35990Y21492I-608J0D01*
G01X35603Y21879D01*
G01X35582Y23556D01*
G03X35224Y23910I-358J-5D01*
G01X35219D01*
G01X32819Y23879D01*
G03X32466Y23521I5J-358D01*
G01Y23516D01*
G01X32490Y21616D01*
G03X32848Y21263I358J5D01*
G01X32853D01*
G01X34479Y21284D01*
G01X34952Y20810D01*
G01Y20409D01*
G03X35130Y19979I608J0D01*
G01X35326Y19783D01*
G03X35236Y19794I-90J-347D01*
G01X32836D01*
G03X32478Y19436I0J-358D01*
G01Y17536D01*
G37*
G36*
G01X49454Y24208D02*
G03X49812Y23850I358J0D01*
G01X53312D01*
G03X53670Y24208I0J358D01*
G01Y26008D01*
G03X53312Y26366I-358J0D01*
G01X49812D01*
G03X49454Y26008I0J-358D01*
G01Y24208D01*
G37*
G36*
G01X32893Y25297D02*
G03X34101Y26505I0J1208D01*
G03X32893Y27713I-1208J0D01*
G03X31685Y26505I0J-1208D01*
G03X32893Y25297I1208J0D01*
G37*
G36*
G01X44054Y21425D02*
G03X45212Y20267I1158J0D01*
G03X46370Y21425I0J1158D01*
G03X45212Y22583I-1158J0D01*
G03X44054Y21425I0J-1158D01*
G37*
G36*
G01X38392Y20267D02*
G03X38750Y20625I0J358D01*
G01Y22225D01*
G03X38392Y22583I-358J0D01*
G01X36792D01*
G03X36434Y22225I0J-358D01*
G01Y20625D01*
G03X36792Y20267I358J0D01*
G01X38392D01*
G37*
G36*
G01X25245Y15456D02*
G03X25908Y14793I663J0D01*
G03X26571Y15456I0J663D01*
G03X25908Y16119I-663J0D01*
G03X25245Y15456I0J-663D01*
G37*
%LPD*%
G36*
G01X9399Y19004D02*
G03X9133Y18763I75J-350D01*
G01X9116Y18779D01*
G01Y19226D01*
G03X9055Y19426I-358J0D01*
G03X9116Y19611I-297J200D01*
G01Y19354D01*
G03X9399Y19004I358J0D01*
G37*
G54D999*
G01X-7645Y12807D02*
G01X-7645Y33091D01*
G01X52642D01*
G01Y30315D01*
G03X53000Y29957I358J0D01*
G01X57427D01*
G01Y15814D01*
G01X53000D01*
G03X52642Y15456I0J-358D01*
G01Y12807D01*
G01X-7645D01*
G01X29845Y15563D02*
G03X30186Y15314I341J109D01*
G01X31536D01*
G03X31894Y15672I0J358D01*
G01Y17082D01*
G03X31739Y17377I-358J0D01*
G03X31894Y17672I-203J295D01*
G01Y19082D01*
G03X31536Y19440I-358J0D01*
G01X30186D01*
G03X29995Y19385I0J-358D01*
G01X29695D01*
G03X29504Y19440I-191J-303D01*
G01X28154D01*
G03X27963Y19385I0J-358D01*
G01X27932D01*
G01Y24854D01*
G03X27830Y25297I-1008J0D01*
G03X28176Y25353I-17J1208D01*
G01X29196Y24333D01*
G03X29591Y24169I395J395D01*
G01X37869D01*
G03X38227Y24064I358J558D01*
G03X38890Y24727I0J663D01*
G03X38227Y25390I-663J0D01*
G03X37869Y25285I0J-663D01*
G01X29822D01*
G01X29161Y25947D01*
G01X29282D01*
G03X30353Y25297I1071J558D01*
G03X31561Y26505I0J1208D01*
G03X30353Y27713I-1208J0D01*
G03X29282Y27063I0J-1208D01*
G01X28885D01*
G03X27813Y27713I-1071J-558D01*
G03X26608Y26596I0J-1208D01*
G01X26481Y26723D01*
G01Y27355D01*
G03X26123Y27713I-358J0D01*
G01X24423D01*
G03X24102Y27513I0J-358D01*
G01X22098D01*
G01X21825Y27787D01*
G01X36576D01*
G01X37592D01*
G03X38850Y29045I0J1258D01*
G03X38777Y29467I-1258J0D01*
G01X39383Y30073D01*
G01X39598D01*
G03X38974Y29045I534J-1028D01*
G03X40132Y27887I1158J0D01*
G03X41290Y29045I0J1158D01*
G03X40666Y30073I-1158J0D01*
G01X42138D01*
G03X41514Y29045I534J-1028D01*
G03X42672Y27887I1158J0D01*
G03X43830Y29045I0J1158D01*
G03X43206Y30073I-1158J0D01*
G01X44678D01*
G03X44054Y29045I534J-1028D01*
G03X45212Y27887I1158J0D01*
G03X46370Y29045I0J1158D01*
G03X46339Y29314I-1158J0D01*
G01X47370Y28283D01*
G01X48386Y27267D01*
G03X49276Y26898I890J890D01*
G01X53178D01*
G01X54241Y25835D01*
G01Y22035D01*
G01X53667Y21461D01*
G03X53670Y21511I-355J50D01*
G01Y23311D01*
G03X53312Y23669I-358J0D01*
G01X49812D01*
G03X49454Y23311I0J-358D01*
G01Y22872D01*
G01X49253D01*
G03X48895Y22977I-358J-558D01*
G03X48232Y22314I0J-663D01*
G03X48895Y21651I663J0D01*
G03X49253Y21756I0J663D01*
G01X49454D01*
G01Y21511D01*
G03X49812Y21153I358J0D01*
G01X53312D01*
G03X53362Y21157I0J358D01*
G01X53178Y20972D01*
G01X52197D01*
G01X49812D01*
G03X49454Y20614I0J-358D01*
G01Y18814D01*
G03X49812Y18456I358J0D01*
G01X52197D01*
G01X53312D01*
G01X53699D01*
G03X54589Y18825I0J1258D01*
G01X56389Y20625D01*
G03X56757Y21514I-890J890D01*
G01Y26356D01*
G03X56389Y27246I-1258J0D01*
G01X54589Y29046D01*
G03X53699Y29414I-890J-890D01*
G01X49797D01*
G01X49150Y30062D01*
G01X46991Y32221D01*
G03X46101Y32589I-890J-890D01*
G01X38862D01*
G03X37972Y32221I0J-1258D01*
G01X36055Y30303D01*
G01X21209D01*
G03X20319Y29935I0J-1258D01*
G01X19541Y29157D01*
G01X19125D01*
G03X18767Y28799I0J-358D01*
G01Y27260D01*
G03X19125Y26902I358J0D01*
G01X19599D01*
G03X19976Y26784I558J1128D01*
G01X20968Y25792D01*
G03X21681Y25497I713J713D01*
G01X24102D01*
G03X24423Y25297I321J158D01*
G01X25055D01*
G01X25916Y24437D01*
G01Y19832D01*
G03X25705Y19901I-211J-289D01*
G01X24841D01*
G03X24492Y19624I0J-358D01*
G01X24403D01*
G03X24054Y19901I-349J-82D01*
G01X23190D01*
G03X22841Y19624I0J-358D01*
G01X21051D01*
G03X20823Y19706I-228J-276D01*
G01X19823D01*
G03X19481Y19455I0J-358D01*
G01Y20249D01*
G03X19318Y20644I-558J0D01*
G01X14215Y25747D01*
G03X14347Y26025I-226J278D01*
G01Y26896D01*
G01X15149D01*
G03X15261Y26902I0J1133D01*
G01X16181D01*
G03X16539Y27260I0J358D01*
G01Y28799D01*
G03X16181Y29157I-358J0D01*
G01X15261D01*
G03X15149Y29162I-111J-1128D01*
G01X14347D01*
G01Y29525D01*
G03X13989Y29883I-358J0D01*
G01X11639D01*
G03X11281Y29525I0J-358D01*
G01Y26025D01*
G03X11639Y25667I358J0D01*
G01X12716D01*
G01X18365Y20018D01*
G01Y19455D01*
G03X18023Y19706I-342J-107D01*
G01X17023D01*
G03X16842Y19657I0J-358D01*
G01X16229D01*
G03X16169Y19662I-60J-353D01*
G01X15578D01*
G01X8277Y26964D01*
G01Y29525D01*
G03X7919Y29883I-358J0D01*
G01X5569D01*
G03X5211Y29525I0J-358D01*
G01Y29160D01*
G01X2616D01*
G01Y29449D01*
G03X2258Y29807I-358J0D01*
G01X-1242D01*
G01X-1247D01*
G01X-1260D01*
G03X-3118Y27949I0J-1858D01*
G03X-1260Y26091I1858J0D01*
G01X-1247D01*
G01X-1242D01*
G01X2258D01*
G03X2616Y26449I0J358D01*
G01Y26644D01*
G01X3147D01*
G01Y26610D01*
G03X3430Y26260I358J0D01*
G03X3147Y25910I75J-350D01*
G01Y25103D01*
G03X3452Y24749I358J0D01*
G01Y21169D01*
G03X3129Y20812I35J-356D01*
G01Y20012D01*
G03X3291Y19712I358J0D01*
G03X3153Y19541I196J-300D01*
G01X2710Y19099D01*
G03X2385Y19307I-325J-150D01*
G01X-1115D01*
G03X-1159Y19305I0J-358D01*
G03X-1260Y19307I-101J-1855D01*
G03X-3118Y17449I0J-1858D01*
G03X-1260Y15591I1858J0D01*
G03X-1159Y15594I0J1858D01*
G03X-1115Y15591I44J355D01*
G01X2385D01*
G03X2743Y15949I0J358D01*
G01Y16150D01*
G03X3158Y16412I-369J1045D01*
G01X4721Y17975D01*
G03X4943Y18293I-784J784D01*
G01X5458D01*
G01X6543D01*
G03X7008Y18486I0J658D01*
G01X7400Y18877D01*
G01Y18676D01*
G03X7758Y18318I358J0D01*
G01X8205D01*
G01X8616Y17907D01*
G03X8959Y17765I343J343D01*
G01X9125D01*
G03X9474Y17489I349J82D01*
G01X10338D01*
G03X10696Y17847I0J358D01*
G01Y18653D01*
G03X10413Y19004I-358J0D01*
G03X10696Y19354I-75J350D01*
G01Y20160D01*
G03X10338Y20518I-358J0D01*
G01X9474D01*
G03X9116Y20176I0J-358D01*
G03X9055Y20376I-358J0D01*
G03X9116Y20576I-297J200D01*
G01Y21126D01*
G03X8758Y21484I-358J0D01*
G01X8438D01*
G03X8258Y21509I-180J-633D01*
G01X7300D01*
G03X6835Y21317I0J-658D01*
G01X6520Y21002D01*
G03X6327Y20536I465J-465D01*
G01Y19666D01*
G01X6316Y19655D01*
G01Y20176D01*
G03X6255Y20376I-358J0D01*
G03X6316Y20576I-297J200D01*
G01Y21126D01*
G03X5958Y21484I-358J0D01*
G01X4958D01*
G03X4600Y21126I0J-358D01*
G01Y21100D01*
G03X4422Y21169I-213J-288D01*
G01Y24749D01*
G03X4727Y25103I-53J354D01*
G01Y25910D01*
G03X4444Y26260I-358J0D01*
G03X4727Y26610I-75J350D01*
G01Y26644D01*
G01X5211D01*
G01Y26025D01*
G03X5569Y25667I358J0D01*
G01X6581D01*
G01X12676Y19572D01*
G03X12556Y19304I238J-268D01*
G01Y18828D01*
G03X12531Y18599I1033J-229D01*
G03X12556Y18371I1058J0D01*
G01Y17894D01*
G03X12711Y17599I358J0D01*
G03X12556Y17304I203J-295D01*
G01Y15894D01*
G03X12914Y15536I358J0D01*
G01X14264D01*
G03X14542Y15668I0J358D01*
G03X14819Y15536I277J226D01*
G01X16169D01*
G03X16527Y15894I0J358D01*
G01Y17304D01*
G03X16438Y17541I-358J0D01*
G01X16677D01*
G03X16665Y17448I346J-93D01*
G01Y16898D01*
G03X17023Y16540I358J0D01*
G01X18023D01*
G03X18381Y16898I0J358D01*
G01Y17448D01*
G03X18320Y17648I-358J0D01*
G03X18381Y17848I-297J200D01*
G01Y17863D01*
G03X18528Y17602I542J134D01*
G01X19351Y16779D01*
G03X19572Y16643I395J395D01*
G03X19823Y16540I251J255D01*
G01X20823D01*
G03X21181Y16898I0J358D01*
G01Y17448D01*
G03X21120Y17648I-358J0D01*
G03X21181Y17848I-297J200D01*
G01Y18398D01*
G03X21120Y18598I-358J0D01*
G03X21151Y18654I-297J200D01*
G01X22841D01*
G03X23115Y18386I349J82D01*
G03X22832Y18036I75J-350D01*
G01Y17229D01*
G03X23190Y16871I358J0D01*
G01X24054D01*
G03X24398Y17131I0J358D01*
G03X25273Y16624I875J501D01*
G01X26052D01*
G03X26765Y16920I0J1008D01*
G01X27215Y17369D01*
G01X27940D01*
G03X27796Y17082I214J-287D01*
G01Y15672D01*
G03X28154Y15314I358J0D01*
G01X29504D01*
G03X29845Y15563I0J358D01*
G01X32478Y17536D02*
G03X32836Y17178I358J0D01*
G01X35236D01*
G03X35557Y17378I0J358D01*
G01X40757D01*
G03X41187Y17556I0J608D01*
G01X43102Y19471D01*
G03X43280Y19901I-430J430D01*
G01Y20439D01*
G03X43830Y21425I-608J986D01*
G03X42672Y22583I-1158J0D01*
G03X41514Y21425I0J-1158D01*
G03X42064Y20439I1158J0D01*
G01Y20153D01*
G01X40505Y18594D01*
G01X35594D01*
G01Y19436D01*
G03X35583Y19527I-358J0D01*
G01X36273Y18836D01*
G03X36703Y18658I430J430D01*
G01X39243D01*
G03X39673Y18836I0J608D01*
G01X40562Y19725D01*
G03X40740Y20155I-430J430D01*
G01Y20439D01*
G03X41290Y21425I-608J986D01*
G03X40132Y22583I-1158J0D01*
G03X38974Y21425I0J-1158D01*
G03X39524Y20439I1158J0D01*
G01Y20407D01*
G01X38991Y19874D01*
G01X36955D01*
G01X36168Y20661D01*
G01Y21062D01*
G03X35990Y21492I-608J0D01*
G01X35603Y21879D01*
G01X35582Y23556D01*
G03X35224Y23910I-358J-5D01*
G01X35219D01*
G01X32819Y23879D01*
G03X32466Y23521I5J-358D01*
G01Y23516D01*
G01X32490Y21616D01*
G03X32848Y21263I358J5D01*
G01X32853D01*
G01X34479Y21284D01*
G01X34952Y20810D01*
G01Y20409D01*
G03X35130Y19979I608J0D01*
G01X35326Y19783D01*
G03X35236Y19794I-90J-347D01*
G01X32836D01*
G03X32478Y19436I0J-358D01*
G01Y17536D01*
G01X49454Y24208D02*
G03X49812Y23850I358J0D01*
G01X53312D01*
G03X53670Y24208I0J358D01*
G01Y26008D01*
G03X53312Y26366I-358J0D01*
G01X49812D01*
G03X49454Y26008I0J-358D01*
G01Y24208D01*
G01X32893Y25297D02*
G03X34101Y26505I0J1208D01*
G03X32893Y27713I-1208J0D01*
G03X31685Y26505I0J-1208D01*
G03X32893Y25297I1208J0D01*
G01X44054Y21425D02*
G03X45212Y20267I1158J0D01*
G03X46370Y21425I0J1158D01*
G03X45212Y22583I-1158J0D01*
G03X44054Y21425I0J-1158D01*
G01X38392Y20267D02*
G03X38750Y20625I0J358D01*
G01Y22225D01*
G03X38392Y22583I-358J0D01*
G01X36792D01*
G03X36434Y22225I0J-358D01*
G01Y20625D01*
G03X36792Y20267I358J0D01*
G01X38392D01*
G01X25245Y15456D02*
G03X25908Y14793I663J0D01*
G03X26571Y15456I0J663D01*
G03X25908Y16119I-663J0D01*
G03X25245Y15456I0J-663D01*
G01X9399Y19004D02*
G03X9133Y18763I75J-350D01*
G01X9116Y18779D01*
G01Y19226D01*
G03X9055Y19426I-358J0D01*
G03X9116Y19611I-297J200D01*
G01Y19354D01*
G03X9399Y19004I358J0D01*
G54D11*
G01X20323Y18123D02*
G01X21082Y18123D01*
G01X15494Y16599D02*
G01X15494Y15635D01*
G01X15494Y16599D02*
G01X16428Y16599D01*
G01X28829Y16377D02*
G01X28829Y15413D01*
G01X28829Y16377D02*
G01X27895Y16377D01*
G01X45212Y21425D02*
G01X44153Y21425D01*
G01X45212Y21425D02*
G01X46271Y21425D01*
G01X45212Y21425D02*
G01X45212Y22484D01*
G01X45212Y21425D02*
G01X45212Y20366D01*
G01X13589Y16599D02*
G01X13589Y15635D01*
G01X13589Y16599D02*
G01X12655Y16599D01*
G01X32893Y26505D02*
G01X31784Y26505D01*
G01X32893Y26505D02*
G01X34002Y26505D01*
G01X32893Y26505D02*
G01X32893Y27614D01*
G01X32893Y26505D02*
G01X32893Y25396D01*
G01X51562Y25108D02*
G01X51562Y23949D01*
G01X51562Y25108D02*
G01X51562Y26267D01*
G01X51562Y25108D02*
G01X49553Y25108D01*
G01X51562Y25108D02*
G01X53571Y25108D01*
G01X23622Y17632D02*
G01X23622Y16970D01*
G01X23622Y17632D02*
G01X22931Y17632D01*
G01X9906Y19757D02*
G01X9906Y20419D01*
G01X9906Y19757D02*
G01X10597Y19757D01*
G01X30861Y16377D02*
G01X30861Y15413D01*
G01X30861Y16377D02*
G01X31795Y16377D01*
G01X25908Y15456D02*
G01X25344Y15456D01*
G01X25908Y15456D02*
G01X26472Y15456D01*
G01X25908Y15456D02*
G01X25908Y16020D01*
G01X25908Y15456D02*
G01X25908Y14892D01*
G04 Copper End*
G54D12*
G01X51562Y25108D03*
G01X51562Y22411D03*
G01X51562Y19714D03*
G54D13*
G01X-1260Y27949D03*
G01X-1260Y17449D03*
G54D14*
G01X508Y27949D03*
G01X635Y17449D03*
G54D15*
G01X26035Y28664D03*
G01X25908Y15456D03*
G54D16*
G01X20323Y19073D03*
G01X20323Y18123D03*
G01X20323Y17173D03*
G01X17523Y17173D03*
G01X17523Y18123D03*
G01X17523Y19073D03*
G54D17*
G01X15149Y28029D03*
G01X20157Y28029D03*
G54D19*
G01X25273Y17632D03*
G01X25273Y19139D03*
G54D20*
G01X6744Y27775D03*
G01X12814Y27775D03*
G54D21*
G01X13589Y16599D03*
G01X13589Y18599D03*
G01X15494Y16599D03*
G01X15494Y18599D03*
G01X28829Y16377D03*
G01X28829Y18377D03*
G01X30861Y16377D03*
G01X30861Y18377D03*
G54D22*
G01X23622Y19139D03*
G01X23622Y17632D03*
G54D23*
G01X37592Y21425D03*
G54D24*
G01X40132Y21425D03*
G01X42672Y21425D03*
G01X45212Y21425D03*
G01X45212Y29045D03*
G01X42672Y29045D03*
G01X40132Y29045D03*
G01X37592Y29045D03*
G54D25*
G01X34036Y18486D03*
G54D26*
G01X34036Y22586D03*
G54D16*
G01X8258Y20851D03*
G01X8258Y19901D03*
G01X8258Y18951D03*
G01X5458Y18951D03*
G01X5458Y19901D03*
G01X5458Y20851D03*
G54D27*
G01X3937Y19012D03*
G01X3937Y20412D03*
G54D19*
G01X9906Y18250D03*
G01X9906Y19757D03*
G01X3937Y25506D03*
G01X3937Y27013D03*
G54D28*
G01X32893Y26505D03*
G01X30353Y26505D03*
G01X27813Y26505D03*
G54D29*
G01X25273Y26505D03*
G04 Pad End*
G54D30*
G01X45212Y19139D03*
G01X48260Y29172D03*
G54D31*
G01X38227Y24727D03*
G01X48895Y22314D03*
G04 Via End*
G54D11*
G01X20323Y18123D02*
G01X23131Y18123D01*
G01X23622Y17632D01*
G01X20323Y19073D02*
G01X20389Y19139D01*
G01X23622D01*
G01X25273Y19139D02*
G01X23622Y19139D01*
G54D32*
G01X15149Y28029D02*
G01X13068Y28029D01*
G01X12814Y27775D01*
G54D33*
G01X12814Y26358D01*
G01X18923Y20249D01*
G54D34*
G01X20157Y28029D02*
G01X21681Y26505D01*
G01X25273D01*
G54D11*
G01X-1260Y27822D02*
G01X508Y27822D01*
G01X8258Y18951D02*
G01X8959Y18250D01*
G01X9906D01*
G01X5458Y19901D02*
G01X4448Y19901D01*
G01X3937Y20412D01*
G54D33*
G01X30353Y26505D02*
G01X27813Y26505D01*
G01X18923Y20249D02*
G01X18923Y17996D01*
G01X19746Y17173D01*
G01X20323D01*
G01X38227Y24727D02*
G01X29591Y24727D01*
G01X27813Y26505D01*
G01X48895Y22314D02*
G01X52100Y22314D01*
G01X52197Y22411D01*
G54D35*
G01X6744Y27775D02*
G01X6617Y27902D01*
G01X588D01*
G01X508Y27822D01*
G54D11*
G01X23622Y15075D02*
G01X23622Y17632D01*
G54D35*
G01X45212Y19139D02*
G01X45212Y21425D01*
G01X20193Y28029D02*
G01X20157Y28029D01*
G01X21209Y29045D02*
G01X20193Y28029D01*
G01X38862Y31331D02*
G01X36576Y29045D01*
G01X52197Y19714D02*
G01X53699Y19714D01*
G01X55499Y21514D01*
G01X37592Y29045D02*
G01X36576Y29045D01*
G01X45212Y25108D02*
G01X52197Y25108D01*
G01X45212Y25108D02*
G01X45212Y21425D01*
G54D34*
G01X45212Y25108D02*
G01X41529Y25108D01*
G01X40132Y26505D01*
G01X32893D01*
G01X26924Y24854D02*
G01X25273Y26505D01*
G54D11*
G01X3937Y25506D02*
G01X3937Y20412D01*
G54D35*
G01X36576Y29045D02*
G01X21209Y29045D01*
G54D11*
G01X9906Y19757D02*
G01X9915Y19766D01*
G54D36*
G01X10287Y19901D02*
G01X8258Y19901D01*
G01X11430Y18758D02*
G01X10287Y19901D01*
G54D37*
G01X13589Y18599D02*
G01X15494Y18599D01*
G01X17621D01*
G01X6509Y27235D02*
G01X15145Y18599D01*
G54D35*
G01X48260Y29172D02*
G01X49276Y28156D01*
G01X53699D01*
G01X55499Y26356D02*
G01X55499Y21514D01*
G01X53699Y28156D02*
G01X55499Y26356D01*
G01X46101Y31331D02*
G01X38862Y31331D01*
G01X48260Y29172D02*
G01X46101Y31331D01*
G54D38*
G01X42672Y19901D02*
G01X42672Y21425D01*
G01X40132Y21425D02*
G01X40132Y20155D01*
G01X35560Y20409D02*
G01X35560Y21062D01*
G01X34036Y22586D01*
G01X40132Y20155D02*
G01X39243Y19266D01*
G01X36703D01*
G01X35560Y20409D01*
G01X34036Y18486D02*
G01X34536Y17986D01*
G01X40757D01*
G01X42672Y19901D01*
G54D35*
G01X45212Y19139D02*
G01X42164Y16091D01*
G01X28067D01*
G01X27051Y15075D01*
G01X23622D01*
G54D34*
G01X26052Y17632D02*
G01X25273Y17632D01*
G01X26924Y24854D02*
G01X26924Y18504D01*
G01X26052Y17632D01*
G01X27051Y18377D02*
G01X26924Y18504D01*
G01X30861Y18377D02*
G01X28829Y18377D01*
G01X27051D01*
G54D39*
G01X3937Y18758D02*
G01X2374Y17195D01*
G01X635D01*
G54D36*
G01X8258Y20851D02*
G01X7300Y20851D01*
G01X6985Y20536D01*
G01Y19393D01*
G01X6543Y18951D02*
G01X5458Y18951D01*
G01X6985Y19393D02*
G01X6543Y18951D01*
G01X3937Y19012D02*
G01X3998Y18951D01*
G01X5458D01*
G04 Track End*
G54D10*
G01X-59975Y60373D03*
G01X47760Y60373D03*
G01X-54975Y-14475D03*
G01X42760Y-14475D03*
G04 Panelize End*
G36*
G01X-7645Y35757D02*
G01X-7645Y56040D01*
G01X52642D01*
G01Y53264D01*
G03X53000Y52906I358J0D01*
G01X57427D01*
G01Y38764D01*
G01X53000D01*
G03X52642Y38405I0J-358D01*
G01Y35757D01*
G01X-7645D01*
G37*
%LPC*%
G36*
G01X29845Y38512D02*
G03X30186Y38263I341J109D01*
G01X31536D01*
G03X31894Y38621I0J358D01*
G01Y40031D01*
G03X31739Y40326I-358J0D01*
G03X31894Y40621I-203J295D01*
G01Y42031D01*
G03X31536Y42390I-358J0D01*
G01X30186D01*
G03X29995Y42335I0J-358D01*
G01X29695D01*
G03X29504Y42390I-191J-303D01*
G01X28154D01*
G03X27963Y42335I0J-358D01*
G01X27932D01*
G01Y47803D01*
G03X27830Y48246I-1008J0D01*
G03X28176Y48302I-17J1208D01*
G01X29196Y47282D01*
G03X29591Y47118I395J395D01*
G01X37869D01*
G03X38227Y47013I358J558D01*
G03X38890Y47676I0J663D01*
G03X38227Y48340I-663J0D01*
G03X37869Y48235I0J-663D01*
G01X29822D01*
G01X29161Y48896D01*
G01X29282D01*
G03X30353Y48246I1071J558D01*
G03X31561Y49454I0J1208D01*
G03X30353Y50663I-1208J0D01*
G03X29282Y50013I0J-1208D01*
G01X28885D01*
G03X27813Y50663I-1071J-558D01*
G03X26608Y49545I0J-1208D01*
G01X26481Y49672D01*
G01Y50304D01*
G03X26123Y50663I-358J0D01*
G01X24423D01*
G03X24102Y50463I0J-358D01*
G01X22098D01*
G01X21825Y50736D01*
G01X36576D01*
G01X37592D01*
G03X38850Y51994I0J1258D01*
G03X38777Y52416I-1258J0D01*
G01X39383Y53022D01*
G01X39598D01*
G03X38974Y51994I534J-1028D01*
G03X40132Y50836I1158J0D01*
G03X41290Y51994I0J1158D01*
G03X40666Y53022I-1158J0D01*
G01X42138D01*
G03X41514Y51994I534J-1028D01*
G03X42672Y50836I1158J0D01*
G03X43830Y51994I0J1158D01*
G03X43206Y53022I-1158J0D01*
G01X44678D01*
G03X44054Y51994I534J-1028D01*
G03X45212Y50836I1158J0D01*
G03X46370Y51994I0J1158D01*
G03X46339Y52264I-1158J0D01*
G01X47370Y51232D01*
G01X48386Y50216D01*
G03X49276Y49847I890J890D01*
G01X53178D01*
G01X54241Y48784D01*
G01Y44985D01*
G01X53667Y44410D01*
G03X53670Y44460I-355J50D01*
G01Y46260D01*
G03X53312Y46619I-358J0D01*
G01X49812D01*
G03X49454Y46260I0J-358D01*
G01Y45822D01*
G01X49253D01*
G03X48895Y45927I-358J-558D01*
G03X48232Y45263I0J-663D01*
G03X48895Y44600I663J0D01*
G03X49253Y44705I0J663D01*
G01X49454D01*
G01Y44460D01*
G03X49812Y44102I358J0D01*
G01X53312D01*
G03X53362Y44106I0J358D01*
G01X53178Y43922D01*
G01X52197D01*
G01X49812D01*
G03X49454Y43563I0J-358D01*
G01Y41763D01*
G03X49812Y41405I358J0D01*
G01X52197D01*
G01X53312D01*
G01X53699D01*
G03X54589Y41774I0J1258D01*
G01X56389Y43574D01*
G03X56757Y44463I-890J890D01*
G01Y49305D01*
G03X56389Y50195I-1258J0D01*
G01X54589Y51995D01*
G03X53699Y52364I-890J-890D01*
G01X49797D01*
G01X49150Y53011D01*
G01X46991Y55170D01*
G03X46101Y55539I-890J-890D01*
G01X38862D01*
G03X37972Y55170I0J-1258D01*
G01X36055Y53253D01*
G01X21209D01*
G03X20319Y52884I0J-1258D01*
G01X19541Y52106D01*
G01X19125D01*
G03X18767Y51748I0J-358D01*
G01Y50209D01*
G03X19125Y49851I358J0D01*
G01X19599D01*
G03X19976Y49733I558J1128D01*
G01X20968Y48742D01*
G03X21681Y48446I713J713D01*
G01X24102D01*
G03X24423Y48246I321J158D01*
G01X25055D01*
G01X25916Y47386D01*
G01Y42781D01*
G03X25705Y42850I-211J-289D01*
G01X24841D01*
G03X24492Y42574I0J-358D01*
G01X24403D01*
G03X24054Y42850I-349J-82D01*
G01X23190D01*
G03X22841Y42574I0J-358D01*
G01X21051D01*
G03X20823Y42656I-228J-276D01*
G01X19823D01*
G03X19481Y42404I0J-358D01*
G01Y43199D01*
G03X19318Y43593I-558J0D01*
G01X14215Y48696D01*
G03X14347Y48974I-226J278D01*
G01Y49845D01*
G01X15149D01*
G03X15261Y49851I0J1133D01*
G01X16181D01*
G03X16539Y50209I0J358D01*
G01Y51748D01*
G03X16181Y52106I-358J0D01*
G01X15261D01*
G03X15149Y52112I-111J-1128D01*
G01X14347D01*
G01Y52474D01*
G03X13989Y52833I-358J0D01*
G01X11639D01*
G03X11281Y52474I0J-358D01*
G01Y48974D01*
G03X11639Y48616I358J0D01*
G01X12716D01*
G01X18365Y42967D01*
G01Y42404D01*
G03X18023Y42656I-342J-107D01*
G01X17023D01*
G03X16842Y42607I0J-358D01*
G01X16229D01*
G03X16169Y42612I-60J-353D01*
G01X15578D01*
G01X8277Y49913D01*
G01Y52474D01*
G03X7919Y52833I-358J0D01*
G01X5569D01*
G03X5211Y52474I0J-358D01*
G01Y52110D01*
G01X2616D01*
G01Y52398D01*
G03X2258Y52757I-358J0D01*
G01X-1242D01*
G01X-1247D01*
G01X-1260D01*
G03X-3118Y50898I0J-1858D01*
G03X-1260Y49040I1858J0D01*
G01X-1247D01*
G01X-1242D01*
G01X2258D01*
G03X2616Y49398I0J358D01*
G01Y49593D01*
G01X3147D01*
G01Y49559D01*
G03X3430Y49209I358J0D01*
G03X3147Y48859I75J-350D01*
G01Y48052D01*
G03X3452Y47698I358J0D01*
G01Y44118D01*
G03X3129Y43761I35J-356D01*
G01Y42961D01*
G03X3291Y42661I358J0D01*
G03X3153Y42490I196J-300D01*
G01X2710Y42048D01*
G03X2385Y42257I-325J-150D01*
G01X-1115D01*
G03X-1159Y42254I0J-358D01*
G03X-1260Y42257I-101J-1855D01*
G03X-3118Y40398I0J-1858D01*
G03X-1260Y38540I1858J0D01*
G03X-1159Y38543I0J1858D01*
G03X-1115Y38540I44J355D01*
G01X2385D01*
G03X2743Y38898I0J358D01*
G01Y39100D01*
G03X3158Y39361I-369J1045D01*
G01X4721Y40924D01*
G03X4943Y41242I-784J784D01*
G01X5458D01*
G01X6543D01*
G03X7008Y41435I0J658D01*
G01X7400Y41827D01*
G01Y41625D01*
G03X7758Y41267I358J0D01*
G01X8205D01*
G01X8616Y40856D01*
G03X8959Y40714I343J343D01*
G01X9125D01*
G03X9474Y40438I349J82D01*
G01X10338D01*
G03X10696Y40796I0J358D01*
G01Y41603D01*
G03X10413Y41953I-358J0D01*
G03X10696Y42303I-75J350D01*
G01Y43109D01*
G03X10338Y43468I-358J0D01*
G01X9474D01*
G03X9116Y43125I0J-358D01*
G03X9055Y43325I-358J0D01*
G03X9116Y43525I-297J200D01*
G01Y44075D01*
G03X8758Y44434I-358J0D01*
G01X8438D01*
G03X8258Y44459I-180J-633D01*
G01X7300D01*
G03X6835Y44266I0J-658D01*
G01X6520Y43951D01*
G03X6327Y43485I465J-465D01*
G01Y42615D01*
G01X6316Y42604D01*
G01Y43125D01*
G03X6255Y43325I-358J0D01*
G03X6316Y43525I-297J200D01*
G01Y44075D01*
G03X5958Y44434I-358J0D01*
G01X4958D01*
G03X4600Y44075I0J-358D01*
G01Y44050D01*
G03X4422Y44118I-213J-288D01*
G01Y47698D01*
G03X4727Y48052I-53J354D01*
G01Y48859D01*
G03X4444Y49209I-358J0D01*
G03X4727Y49559I-75J350D01*
G01Y49593D01*
G01X5211D01*
G01Y48974D01*
G03X5569Y48616I358J0D01*
G01X6581D01*
G01X12676Y42521D01*
G03X12556Y42253I238J-268D01*
G01Y41777D01*
G03X12531Y41548I1033J-229D01*
G03X12556Y41320I1058J0D01*
G01Y40843D01*
G03X12711Y40548I358J0D01*
G03X12556Y40253I203J-295D01*
G01Y38843D01*
G03X12914Y38485I358J0D01*
G01X14264D01*
G03X14542Y38617I0J358D01*
G03X14819Y38485I277J226D01*
G01X16169D01*
G03X16527Y38843I0J358D01*
G01Y40253D01*
G03X16438Y40490I-358J0D01*
G01X16677D01*
G03X16665Y40397I346J-93D01*
G01Y39847D01*
G03X17023Y39489I358J0D01*
G01X18023D01*
G03X18381Y39847I0J358D01*
G01Y40397D01*
G03X18320Y40597I-358J0D01*
G03X18381Y40797I-297J200D01*
G01Y40812D01*
G03X18528Y40551I542J134D01*
G01X19351Y39728D01*
G03X19572Y39592I395J395D01*
G03X19823Y39489I251J255D01*
G01X20823D01*
G03X21181Y39847I0J358D01*
G01Y40397D01*
G03X21120Y40597I-358J0D01*
G03X21181Y40797I-297J200D01*
G01Y41347D01*
G03X21120Y41547I-358J0D01*
G03X21151Y41603I-297J200D01*
G01X22841D01*
G03X23115Y41335I349J82D01*
G03X22832Y40985I75J-350D01*
G01Y40178D01*
G03X23190Y39820I358J0D01*
G01X24054D01*
G03X24398Y40080I0J358D01*
G03X25273Y39574I875J501D01*
G01X26052D01*
G03X26765Y39869I0J1008D01*
G01X27215Y40318D01*
G01X27940D01*
G03X27796Y40031I214J-287D01*
G01Y38621D01*
G03X28154Y38263I358J0D01*
G01X29504D01*
G03X29845Y38512I0J358D01*
G37*
G36*
G01X32478Y40485D02*
G03X32836Y40127I358J0D01*
G01X35236D01*
G03X35557Y40327I0J358D01*
G01X40757D01*
G03X41187Y40505I0J608D01*
G01X43102Y42420D01*
G03X43280Y42850I-430J430D01*
G01Y43389D01*
G03X43830Y44374I-608J986D01*
G03X42672Y45533I-1158J0D01*
G03X41514Y44374I0J-1158D01*
G03X42064Y43389I1158J0D01*
G01Y43102D01*
G01X40505Y41544D01*
G01X35594D01*
G01Y42385D01*
G03X35583Y42476I-358J0D01*
G01X36273Y41785D01*
G03X36703Y41607I430J430D01*
G01X39243D01*
G03X39673Y41785I0J608D01*
G01X40562Y42674D01*
G03X40740Y43104I-430J430D01*
G01Y43389D01*
G03X41290Y44374I-608J986D01*
G03X40132Y45533I-1158J0D01*
G03X38974Y44374I0J-1158D01*
G03X39524Y43389I1158J0D01*
G01Y43356D01*
G01X38991Y42824D01*
G01X36955D01*
G01X36168Y43610D01*
G01Y44011D01*
G03X35990Y44441I-608J0D01*
G01X35603Y44828D01*
G01X35582Y46505D01*
G03X35224Y46859I-358J-5D01*
G01X35219D01*
G01X32819Y46828D01*
G03X32466Y46470I5J-358D01*
G01Y46465D01*
G01X32490Y44566D01*
G03X32848Y44212I358J5D01*
G01X32853D01*
G01X34479Y44233D01*
G01X34952Y43760D01*
G01Y43358D01*
G03X35130Y42928I608J0D01*
G01X35326Y42732D01*
G03X35236Y42744I-90J-347D01*
G01X32836D01*
G03X32478Y42385I0J-358D01*
G01Y40485D01*
G37*
G36*
G01X49454Y47157D02*
G03X49812Y46799I358J0D01*
G01X53312D01*
G03X53670Y47157I0J358D01*
G01Y48957D01*
G03X53312Y49316I-358J0D01*
G01X49812D01*
G03X49454Y48957I0J-358D01*
G01Y47157D01*
G37*
G36*
G01X32893Y48246D02*
G03X34101Y49454I0J1208D01*
G03X32893Y50663I-1208J0D01*
G03X31685Y49454I0J-1208D01*
G03X32893Y48246I1208J0D01*
G37*
G36*
G01X44054Y44374D02*
G03X45212Y43216I1158J0D01*
G03X46370Y44374I0J1158D01*
G03X45212Y45533I-1158J0D01*
G03X44054Y44374I0J-1158D01*
G37*
G36*
G01X38392Y43216D02*
G03X38750Y43574I0J358D01*
G01Y45175D01*
G03X38392Y45533I-358J0D01*
G01X36792D01*
G03X36434Y45175I0J-358D01*
G01Y43574D01*
G03X36792Y43216I358J0D01*
G01X38392D01*
G37*
G36*
G01X25245Y38405D02*
G03X25908Y37742I663J0D01*
G03X26571Y38405I0J663D01*
G03X25908Y39068I-663J0D01*
G03X25245Y38405I0J-663D01*
G37*
%LPD*%
G36*
G01X9399Y41953D02*
G03X9133Y41712I75J-350D01*
G01X9116Y41728D01*
G01Y42175D01*
G03X9055Y42375I-358J0D01*
G03X9116Y42560I-297J200D01*
G01Y42303D01*
G03X9399Y41953I358J0D01*
G37*
G54D999*
G01X-7645Y35757D02*
G01X-7645Y56040D01*
G01X52642D01*
G01Y53264D01*
G03X53000Y52906I358J0D01*
G01X57427D01*
G01Y38764D01*
G01X53000D01*
G03X52642Y38405I0J-358D01*
G01Y35757D01*
G01X-7645D01*
G01X29845Y38512D02*
G03X30186Y38263I341J109D01*
G01X31536D01*
G03X31894Y38621I0J358D01*
G01Y40031D01*
G03X31739Y40326I-358J0D01*
G03X31894Y40621I-203J295D01*
G01Y42031D01*
G03X31536Y42390I-358J0D01*
G01X30186D01*
G03X29995Y42335I0J-358D01*
G01X29695D01*
G03X29504Y42390I-191J-303D01*
G01X28154D01*
G03X27963Y42335I0J-358D01*
G01X27932D01*
G01Y47803D01*
G03X27830Y48246I-1008J0D01*
G03X28176Y48302I-17J1208D01*
G01X29196Y47282D01*
G03X29591Y47118I395J395D01*
G01X37869D01*
G03X38227Y47013I358J558D01*
G03X38890Y47676I0J663D01*
G03X38227Y48340I-663J0D01*
G03X37869Y48235I0J-663D01*
G01X29822D01*
G01X29161Y48896D01*
G01X29282D01*
G03X30353Y48246I1071J558D01*
G03X31561Y49454I0J1208D01*
G03X30353Y50663I-1208J0D01*
G03X29282Y50013I0J-1208D01*
G01X28885D01*
G03X27813Y50663I-1071J-558D01*
G03X26608Y49545I0J-1208D01*
G01X26481Y49672D01*
G01Y50304D01*
G03X26123Y50663I-358J0D01*
G01X24423D01*
G03X24102Y50463I0J-358D01*
G01X22098D01*
G01X21825Y50736D01*
G01X36576D01*
G01X37592D01*
G03X38850Y51994I0J1258D01*
G03X38777Y52416I-1258J0D01*
G01X39383Y53022D01*
G01X39598D01*
G03X38974Y51994I534J-1028D01*
G03X40132Y50836I1158J0D01*
G03X41290Y51994I0J1158D01*
G03X40666Y53022I-1158J0D01*
G01X42138D01*
G03X41514Y51994I534J-1028D01*
G03X42672Y50836I1158J0D01*
G03X43830Y51994I0J1158D01*
G03X43206Y53022I-1158J0D01*
G01X44678D01*
G03X44054Y51994I534J-1028D01*
G03X45212Y50836I1158J0D01*
G03X46370Y51994I0J1158D01*
G03X46339Y52264I-1158J0D01*
G01X47370Y51232D01*
G01X48386Y50216D01*
G03X49276Y49847I890J890D01*
G01X53178D01*
G01X54241Y48784D01*
G01Y44985D01*
G01X53667Y44410D01*
G03X53670Y44460I-355J50D01*
G01Y46260D01*
G03X53312Y46619I-358J0D01*
G01X49812D01*
G03X49454Y46260I0J-358D01*
G01Y45822D01*
G01X49253D01*
G03X48895Y45927I-358J-558D01*
G03X48232Y45263I0J-663D01*
G03X48895Y44600I663J0D01*
G03X49253Y44705I0J663D01*
G01X49454D01*
G01Y44460D01*
G03X49812Y44102I358J0D01*
G01X53312D01*
G03X53362Y44106I0J358D01*
G01X53178Y43922D01*
G01X52197D01*
G01X49812D01*
G03X49454Y43563I0J-358D01*
G01Y41763D01*
G03X49812Y41405I358J0D01*
G01X52197D01*
G01X53312D01*
G01X53699D01*
G03X54589Y41774I0J1258D01*
G01X56389Y43574D01*
G03X56757Y44463I-890J890D01*
G01Y49305D01*
G03X56389Y50195I-1258J0D01*
G01X54589Y51995D01*
G03X53699Y52364I-890J-890D01*
G01X49797D01*
G01X49150Y53011D01*
G01X46991Y55170D01*
G03X46101Y55539I-890J-890D01*
G01X38862D01*
G03X37972Y55170I0J-1258D01*
G01X36055Y53253D01*
G01X21209D01*
G03X20319Y52884I0J-1258D01*
G01X19541Y52106D01*
G01X19125D01*
G03X18767Y51748I0J-358D01*
G01Y50209D01*
G03X19125Y49851I358J0D01*
G01X19599D01*
G03X19976Y49733I558J1128D01*
G01X20968Y48742D01*
G03X21681Y48446I713J713D01*
G01X24102D01*
G03X24423Y48246I321J158D01*
G01X25055D01*
G01X25916Y47386D01*
G01Y42781D01*
G03X25705Y42850I-211J-289D01*
G01X24841D01*
G03X24492Y42574I0J-358D01*
G01X24403D01*
G03X24054Y42850I-349J-82D01*
G01X23190D01*
G03X22841Y42574I0J-358D01*
G01X21051D01*
G03X20823Y42656I-228J-276D01*
G01X19823D01*
G03X19481Y42404I0J-358D01*
G01Y43199D01*
G03X19318Y43593I-558J0D01*
G01X14215Y48696D01*
G03X14347Y48974I-226J278D01*
G01Y49845D01*
G01X15149D01*
G03X15261Y49851I0J1133D01*
G01X16181D01*
G03X16539Y50209I0J358D01*
G01Y51748D01*
G03X16181Y52106I-358J0D01*
G01X15261D01*
G03X15149Y52112I-111J-1128D01*
G01X14347D01*
G01Y52474D01*
G03X13989Y52833I-358J0D01*
G01X11639D01*
G03X11281Y52474I0J-358D01*
G01Y48974D01*
G03X11639Y48616I358J0D01*
G01X12716D01*
G01X18365Y42967D01*
G01Y42404D01*
G03X18023Y42656I-342J-107D01*
G01X17023D01*
G03X16842Y42607I0J-358D01*
G01X16229D01*
G03X16169Y42612I-60J-353D01*
G01X15578D01*
G01X8277Y49913D01*
G01Y52474D01*
G03X7919Y52833I-358J0D01*
G01X5569D01*
G03X5211Y52474I0J-358D01*
G01Y52110D01*
G01X2616D01*
G01Y52398D01*
G03X2258Y52757I-358J0D01*
G01X-1242D01*
G01X-1247D01*
G01X-1260D01*
G03X-3118Y50898I0J-1858D01*
G03X-1260Y49040I1858J0D01*
G01X-1247D01*
G01X-1242D01*
G01X2258D01*
G03X2616Y49398I0J358D01*
G01Y49593D01*
G01X3147D01*
G01Y49559D01*
G03X3430Y49209I358J0D01*
G03X3147Y48859I75J-350D01*
G01Y48052D01*
G03X3452Y47698I358J0D01*
G01Y44118D01*
G03X3129Y43761I35J-356D01*
G01Y42961D01*
G03X3291Y42661I358J0D01*
G03X3153Y42490I196J-300D01*
G01X2710Y42048D01*
G03X2385Y42257I-325J-150D01*
G01X-1115D01*
G03X-1159Y42254I0J-358D01*
G03X-1260Y42257I-101J-1855D01*
G03X-3118Y40398I0J-1858D01*
G03X-1260Y38540I1858J0D01*
G03X-1159Y38543I0J1858D01*
G03X-1115Y38540I44J355D01*
G01X2385D01*
G03X2743Y38898I0J358D01*
G01Y39100D01*
G03X3158Y39361I-369J1045D01*
G01X4721Y40924D01*
G03X4943Y41242I-784J784D01*
G01X5458D01*
G01X6543D01*
G03X7008Y41435I0J658D01*
G01X7400Y41827D01*
G01Y41625D01*
G03X7758Y41267I358J0D01*
G01X8205D01*
G01X8616Y40856D01*
G03X8959Y40714I343J343D01*
G01X9125D01*
G03X9474Y40438I349J82D01*
G01X10338D01*
G03X10696Y40796I0J358D01*
G01Y41603D01*
G03X10413Y41953I-358J0D01*
G03X10696Y42303I-75J350D01*
G01Y43109D01*
G03X10338Y43468I-358J0D01*
G01X9474D01*
G03X9116Y43125I0J-358D01*
G03X9055Y43325I-358J0D01*
G03X9116Y43525I-297J200D01*
G01Y44075D01*
G03X8758Y44434I-358J0D01*
G01X8438D01*
G03X8258Y44459I-180J-633D01*
G01X7300D01*
G03X6835Y44266I0J-658D01*
G01X6520Y43951D01*
G03X6327Y43485I465J-465D01*
G01Y42615D01*
G01X6316Y42604D01*
G01Y43125D01*
G03X6255Y43325I-358J0D01*
G03X6316Y43525I-297J200D01*
G01Y44075D01*
G03X5958Y44434I-358J0D01*
G01X4958D01*
G03X4600Y44075I0J-358D01*
G01Y44050D01*
G03X4422Y44118I-213J-288D01*
G01Y47698D01*
G03X4727Y48052I-53J354D01*
G01Y48859D01*
G03X4444Y49209I-358J0D01*
G03X4727Y49559I-75J350D01*
G01Y49593D01*
G01X5211D01*
G01Y48974D01*
G03X5569Y48616I358J0D01*
G01X6581D01*
G01X12676Y42521D01*
G03X12556Y42253I238J-268D01*
G01Y41777D01*
G03X12531Y41548I1033J-229D01*
G03X12556Y41320I1058J0D01*
G01Y40843D01*
G03X12711Y40548I358J0D01*
G03X12556Y40253I203J-295D01*
G01Y38843D01*
G03X12914Y38485I358J0D01*
G01X14264D01*
G03X14542Y38617I0J358D01*
G03X14819Y38485I277J226D01*
G01X16169D01*
G03X16527Y38843I0J358D01*
G01Y40253D01*
G03X16438Y40490I-358J0D01*
G01X16677D01*
G03X16665Y40397I346J-93D01*
G01Y39847D01*
G03X17023Y39489I358J0D01*
G01X18023D01*
G03X18381Y39847I0J358D01*
G01Y40397D01*
G03X18320Y40597I-358J0D01*
G03X18381Y40797I-297J200D01*
G01Y40812D01*
G03X18528Y40551I542J134D01*
G01X19351Y39728D01*
G03X19572Y39592I395J395D01*
G03X19823Y39489I251J255D01*
G01X20823D01*
G03X21181Y39847I0J358D01*
G01Y40397D01*
G03X21120Y40597I-358J0D01*
G03X21181Y40797I-297J200D01*
G01Y41347D01*
G03X21120Y41547I-358J0D01*
G03X21151Y41603I-297J200D01*
G01X22841D01*
G03X23115Y41335I349J82D01*
G03X22832Y40985I75J-350D01*
G01Y40178D01*
G03X23190Y39820I358J0D01*
G01X24054D01*
G03X24398Y40080I0J358D01*
G03X25273Y39574I875J501D01*
G01X26052D01*
G03X26765Y39869I0J1008D01*
G01X27215Y40318D01*
G01X27940D01*
G03X27796Y40031I214J-287D01*
G01Y38621D01*
G03X28154Y38263I358J0D01*
G01X29504D01*
G03X29845Y38512I0J358D01*
G01X32478Y40485D02*
G03X32836Y40127I358J0D01*
G01X35236D01*
G03X35557Y40327I0J358D01*
G01X40757D01*
G03X41187Y40505I0J608D01*
G01X43102Y42420D01*
G03X43280Y42850I-430J430D01*
G01Y43389D01*
G03X43830Y44374I-608J986D01*
G03X42672Y45533I-1158J0D01*
G03X41514Y44374I0J-1158D01*
G03X42064Y43389I1158J0D01*
G01Y43102D01*
G01X40505Y41544D01*
G01X35594D01*
G01Y42385D01*
G03X35583Y42476I-358J0D01*
G01X36273Y41785D01*
G03X36703Y41607I430J430D01*
G01X39243D01*
G03X39673Y41785I0J608D01*
G01X40562Y42674D01*
G03X40740Y43104I-430J430D01*
G01Y43389D01*
G03X41290Y44374I-608J986D01*
G03X40132Y45533I-1158J0D01*
G03X38974Y44374I0J-1158D01*
G03X39524Y43389I1158J0D01*
G01Y43356D01*
G01X38991Y42824D01*
G01X36955D01*
G01X36168Y43610D01*
G01Y44011D01*
G03X35990Y44441I-608J0D01*
G01X35603Y44828D01*
G01X35582Y46505D01*
G03X35224Y46859I-358J-5D01*
G01X35219D01*
G01X32819Y46828D01*
G03X32466Y46470I5J-358D01*
G01Y46465D01*
G01X32490Y44566D01*
G03X32848Y44212I358J5D01*
G01X32853D01*
G01X34479Y44233D01*
G01X34952Y43760D01*
G01Y43358D01*
G03X35130Y42928I608J0D01*
G01X35326Y42732D01*
G03X35236Y42744I-90J-347D01*
G01X32836D01*
G03X32478Y42385I0J-358D01*
G01Y40485D01*
G01X49454Y47157D02*
G03X49812Y46799I358J0D01*
G01X53312D01*
G03X53670Y47157I0J358D01*
G01Y48957D01*
G03X53312Y49316I-358J0D01*
G01X49812D01*
G03X49454Y48957I0J-358D01*
G01Y47157D01*
G01X32893Y48246D02*
G03X34101Y49454I0J1208D01*
G03X32893Y50663I-1208J0D01*
G03X31685Y49454I0J-1208D01*
G03X32893Y48246I1208J0D01*
G01X44054Y44374D02*
G03X45212Y43216I1158J0D01*
G03X46370Y44374I0J1158D01*
G03X45212Y45533I-1158J0D01*
G03X44054Y44374I0J-1158D01*
G01X38392Y43216D02*
G03X38750Y43574I0J358D01*
G01Y45175D01*
G03X38392Y45533I-358J0D01*
G01X36792D01*
G03X36434Y45175I0J-358D01*
G01Y43574D01*
G03X36792Y43216I358J0D01*
G01X38392D01*
G01X25245Y38405D02*
G03X25908Y37742I663J0D01*
G03X26571Y38405I0J663D01*
G03X25908Y39068I-663J0D01*
G03X25245Y38405I0J-663D01*
G01X9399Y41953D02*
G03X9133Y41712I75J-350D01*
G01X9116Y41728D01*
G01Y42175D01*
G03X9055Y42375I-358J0D01*
G03X9116Y42560I-297J200D01*
G01Y42303D01*
G03X9399Y41953I358J0D01*
G54D11*
G01X20323Y41072D02*
G01X21082Y41072D01*
G01X15494Y39548D02*
G01X15494Y38584D01*
G01X15494Y39548D02*
G01X16428Y39548D01*
G01X28829Y39326D02*
G01X28829Y38362D01*
G01X28829Y39326D02*
G01X27895Y39326D01*
G01X45212Y44374D02*
G01X44153Y44374D01*
G01X45212Y44374D02*
G01X46271Y44374D01*
G01X45212Y44374D02*
G01X45212Y45434D01*
G01X45212Y44374D02*
G01X45212Y43315D01*
G01X13589Y39548D02*
G01X13589Y38584D01*
G01X13589Y39548D02*
G01X12655Y39548D01*
G01X32893Y49454D02*
G01X31784Y49454D01*
G01X32893Y49454D02*
G01X34002Y49454D01*
G01X32893Y49454D02*
G01X32893Y50563D01*
G01X32893Y49454D02*
G01X32893Y48345D01*
G01X51562Y48057D02*
G01X51562Y46898D01*
G01X51562Y48057D02*
G01X51562Y49216D01*
G01X51562Y48057D02*
G01X49553Y48057D01*
G01X51562Y48057D02*
G01X53571Y48057D01*
G01X23622Y40582D02*
G01X23622Y39919D01*
G01X23622Y40582D02*
G01X22931Y40582D01*
G01X9906Y42706D02*
G01X9906Y43368D01*
G01X9906Y42706D02*
G01X10597Y42706D01*
G01X30861Y39326D02*
G01X30861Y38362D01*
G01X30861Y39326D02*
G01X31795Y39326D01*
G01X25908Y38405D02*
G01X25344Y38405D01*
G01X25908Y38405D02*
G01X26472Y38405D01*
G01X25908Y38405D02*
G01X25908Y38969D01*
G01X25908Y38405D02*
G01X25908Y37842D01*
G04 Copper End*
G54D12*
G01X51562Y48057D03*
G01X51562Y45360D03*
G01X51562Y42663D03*
G54D13*
G01X-1260Y50898D03*
G01X-1260Y40398D03*
G54D14*
G01X508Y50898D03*
G01X635Y40398D03*
G54D15*
G01X26035Y51613D03*
G01X25908Y38405D03*
G54D16*
G01X20323Y42022D03*
G01X20323Y41072D03*
G01X20323Y40122D03*
G01X17523Y40122D03*
G01X17523Y41072D03*
G01X17523Y42022D03*
G54D17*
G01X15149Y50978D03*
G01X20157Y50978D03*
G54D19*
G01X25273Y40582D03*
G01X25273Y42088D03*
G54D20*
G01X6744Y50724D03*
G01X12814Y50724D03*
G54D21*
G01X13589Y39548D03*
G01X13589Y41548D03*
G01X15494Y39548D03*
G01X15494Y41548D03*
G01X28829Y39326D03*
G01X28829Y41326D03*
G01X30861Y39326D03*
G01X30861Y41326D03*
G54D22*
G01X23622Y42088D03*
G01X23622Y40582D03*
G54D23*
G01X37592Y44374D03*
G54D24*
G01X40132Y44374D03*
G01X42672Y44374D03*
G01X45212Y44374D03*
G01X45212Y51994D03*
G01X42672Y51994D03*
G01X40132Y51994D03*
G01X37592Y51994D03*
G54D25*
G01X34036Y41435D03*
G54D26*
G01X34036Y45535D03*
G54D16*
G01X8258Y43800D03*
G01X8258Y42850D03*
G01X8258Y41900D03*
G01X5458Y41900D03*
G01X5458Y42850D03*
G01X5458Y43800D03*
G54D27*
G01X3937Y41961D03*
G01X3937Y43361D03*
G54D19*
G01X9906Y41199D03*
G01X9906Y42706D03*
G01X3937Y48456D03*
G01X3937Y49962D03*
G54D28*
G01X32893Y49454D03*
G01X30353Y49454D03*
G01X27813Y49454D03*
G54D29*
G01X25273Y49454D03*
G04 Pad End*
G54D30*
G01X45212Y42088D03*
G01X48260Y52121D03*
G54D31*
G01X38227Y47676D03*
G01X48895Y45263D03*
G04 Via End*
G54D11*
G01X20323Y41072D02*
G01X23131Y41072D01*
G01X23622Y40582D01*
G01X20323Y42022D02*
G01X20389Y42088D01*
G01X23622D01*
G01X25273Y42088D02*
G01X23622Y42088D01*
G54D32*
G01X15149Y50978D02*
G01X13068Y50978D01*
G01X12814Y50724D01*
G54D33*
G01X12814Y49308D01*
G01X18923Y43199D01*
G54D34*
G01X20157Y50978D02*
G01X21681Y49454D01*
G01X25273D01*
G54D11*
G01X-1260Y50771D02*
G01X508Y50771D01*
G01X8258Y41900D02*
G01X8959Y41199D01*
G01X9906D01*
G01X5458Y42850D02*
G01X4448Y42850D01*
G01X3937Y43361D01*
G54D33*
G01X30353Y49454D02*
G01X27813Y49454D01*
G01X18923Y43199D02*
G01X18923Y40945D01*
G01X19746Y40122D01*
G01X20323D01*
G01X38227Y47676D02*
G01X29591Y47676D01*
G01X27813Y49454D01*
G01X48895Y45263D02*
G01X52100Y45263D01*
G01X52197Y45360D01*
G54D35*
G01X6744Y50724D02*
G01X6617Y50851D01*
G01X588D01*
G01X508Y50771D01*
G54D11*
G01X23622Y38024D02*
G01X23622Y40582D01*
G54D35*
G01X45212Y42088D02*
G01X45212Y44374D01*
G01X20193Y50978D02*
G01X20157Y50978D01*
G01X21209Y51994D02*
G01X20193Y50978D01*
G01X38862Y54280D02*
G01X36576Y51994D01*
G01X52197Y42663D02*
G01X53699Y42663D01*
G01X55499Y44463D01*
G01X37592Y51994D02*
G01X36576Y51994D01*
G01X45212Y48057D02*
G01X52197Y48057D01*
G01X45212Y48057D02*
G01X45212Y44374D01*
G54D34*
G01X45212Y48057D02*
G01X41529Y48057D01*
G01X40132Y49454D01*
G01X32893D01*
G01X26924Y47803D02*
G01X25273Y49454D01*
G54D11*
G01X3937Y48456D02*
G01X3937Y43361D01*
G54D35*
G01X36576Y51994D02*
G01X21209Y51994D01*
G54D11*
G01X9906Y42706D02*
G01X9915Y42715D01*
G54D36*
G01X10287Y42850D02*
G01X8258Y42850D01*
G01X11430Y41707D02*
G01X10287Y42850D01*
G54D37*
G01X13589Y41548D02*
G01X15494Y41548D01*
G01X17621D01*
G01X6509Y50184D02*
G01X15145Y41548D01*
G54D35*
G01X48260Y52121D02*
G01X49276Y51105D01*
G01X53699D01*
G01X55499Y49305D02*
G01X55499Y44463D01*
G01X53699Y51105D02*
G01X55499Y49305D01*
G01X46101Y54280D02*
G01X38862Y54280D01*
G01X48260Y52121D02*
G01X46101Y54280D01*
G54D38*
G01X42672Y42850D02*
G01X42672Y44374D01*
G01X40132Y44374D02*
G01X40132Y43104D01*
G01X35560Y43358D02*
G01X35560Y44011D01*
G01X34036Y45535D01*
G01X40132Y43104D02*
G01X39243Y42215D01*
G01X36703D01*
G01X35560Y43358D01*
G01X34036Y41435D02*
G01X34536Y40935D01*
G01X40757D01*
G01X42672Y42850D01*
G54D35*
G01X45212Y42088D02*
G01X42164Y39040D01*
G01X28067D01*
G01X27051Y38024D01*
G01X23622D01*
G54D34*
G01X26052Y40582D02*
G01X25273Y40582D01*
G01X26924Y47803D02*
G01X26924Y41453D01*
G01X26052Y40582D01*
G01X27051Y41326D02*
G01X26924Y41453D01*
G01X30861Y41326D02*
G01X28829Y41326D01*
G01X27051D01*
G54D39*
G01X3937Y41707D02*
G01X2374Y40144D01*
G01X635D01*
G54D36*
G01X8258Y43800D02*
G01X7300Y43800D01*
G01X6985Y43485D01*
G01Y42342D01*
G01X6543Y41900D02*
G01X5458Y41900D01*
G01X6985Y42342D02*
G01X6543Y41900D01*
G01X3937Y41961D02*
G01X3998Y41900D01*
G01X5458D01*
G04 Track End*

M02*
