G04 Layer: TopPasteMaskLayer*
G04 EasyEDA Pro v1.9.28.eba1c1, 2023-02-22 19:28:42*
G04 Gerber Generator version 0.3*
G04 Scale: 100 percent, Rotated: No, Reflected: No*
G04 Dimensions in millimeters*
G04 Leading zeros omitted, absolute positions, 3 integers and 3 decimals*
G04 Panelize: Stamp Hole, Column: 1, Row: 3, Board Size: 127.734mm x 20.95mm, Panelized Board Size: 127.734mm x 82.847mm, Panelized Method: All Objects*
%FSLAX33Y33*%
%MOMM*%
%AMRect*21,1,$1,$2,0,0,$3*%
%ADD10C,1.000001*%
%ADD11C,0.0254*%
%ADD12R,3.500001X1.799999*%
%ADD13R,3.500001X2.999999*%
%ADD14R,0.999998X0.550012*%
%ADD15R,2.0675X1.539011*%
%ADD16R,2.062505X1.539011*%
%ADD17R,2.350008X3.499993*%
%ADD18R,2.399995X1.899996*%
%ADD19Rect,1.899996X2.399995X90.73*%
%ADD20R,0.899998X0.799998*%
G75*


G04 Panelize Start*
G54D10*
G01X-59975Y60373D03*
G01X47760Y60373D03*
G01X-54975Y-14475D03*
G01X42760Y-14475D03*
G04 Panelize End*

G04 PolygonModel Start*
G36*
G01X25723Y-5758D02*
G01X25723Y-4958D01*
G01X25673Y-4908D01*
G01X25445D01*
G01Y-5278D01*
G01X25115D01*
G01Y-4908D01*
G01X24873D01*
G01X24823Y-4958D01*
G01Y-5758D01*
G01X24873Y-5808D01*
G01X25673D01*
G01X25723Y-5758D01*
G37*
G54D11*
G01X25723Y-5758D02*
G01X25723Y-4958D01*
G01X25673Y-4908D01*
G01X25445D01*
G01Y-5278D01*
G01X25115D01*
G01Y-4908D01*
G01X24873D01*
G01X24823Y-4958D01*
G01Y-5758D01*
G01X24873Y-5808D01*
G01X25673D01*
G01X25723Y-5758D01*
G36*
G01X25673Y-4208D02*
G01X25445Y-4208D01*
G01Y-3828D01*
G01X25115D01*
G01Y-4208D01*
G01X24873D01*
G01X24823Y-4158D01*
G01Y-3368D01*
G01X24873Y-3318D01*
G01X25673D01*
G01X25723Y-3368D01*
G01Y-4158D01*
G01X25673Y-4208D01*
G37*
G01X25673Y-4208D02*
G01X25445Y-4208D01*
G01Y-3828D01*
G01X25115D01*
G01Y-4208D01*
G01X24873D01*
G01X24823Y-4158D01*
G01Y-3368D01*
G01X24873Y-3318D01*
G01X25673D01*
G01X25723Y-3368D01*
G01Y-4158D01*
G01X25673Y-4208D01*
G36*
G01X12969Y-3675D02*
G01X14249Y-3675D01*
G01X14299Y-3725D01*
G01Y-4875D01*
G01X14249Y-4925D01*
G01X13839Y-4930D01*
G01Y-4480D01*
G01X13389D01*
G01Y-4920D01*
G01X12969Y-4925D01*
G01X12919Y-4875D01*
G01Y-3725D01*
G01X12969Y-3675D01*
G37*
G01X12969Y-3675D02*
G01X14249Y-3675D01*
G01X14299Y-3725D01*
G01Y-4875D01*
G01X14249Y-4925D01*
G01X13839Y-4930D01*
G01Y-4480D01*
G01X13389D01*
G01Y-4920D01*
G01X12969Y-4925D01*
G01X12919Y-4875D01*
G01Y-3725D01*
G01X12969Y-3675D01*
G36*
G01X12969Y-5825D02*
G01X13389Y-5825D01*
G01Y-6270D01*
G01X13839D01*
G01Y-5830D01*
G01X14249Y-5825D01*
G01X14299Y-5875D01*
G01Y-7025D01*
G01X14249Y-7075D01*
G01X12969D01*
G01X12919Y-7025D01*
G01Y-5875D01*
G01X12969Y-5825D01*
G37*
G01X12969Y-5825D02*
G01X13389Y-5825D01*
G01Y-6270D01*
G01X13839D01*
G01Y-5830D01*
G01X14249Y-5825D01*
G01X14299Y-5875D01*
G01Y-7025D01*
G01X14249Y-7075D01*
G01X12969D01*
G01X12919Y-7025D01*
G01Y-5875D01*
G01X12969Y-5825D01*
G36*
G01X14874Y-3675D02*
G01X16154Y-3675D01*
G01X16204Y-3725D01*
G01Y-4875D01*
G01X16154Y-4925D01*
G01X15744Y-4930D01*
G01Y-4480D01*
G01X15294D01*
G01Y-4920D01*
G01X14874Y-4925D01*
G01X14824Y-4875D01*
G01Y-3725D01*
G01X14874Y-3675D01*
G37*
G01X14874Y-3675D02*
G01X16154Y-3675D01*
G01X16204Y-3725D01*
G01Y-4875D01*
G01X16154Y-4925D01*
G01X15744Y-4930D01*
G01Y-4480D01*
G01X15294D01*
G01Y-4920D01*
G01X14874Y-4925D01*
G01X14824Y-4875D01*
G01Y-3725D01*
G01X14874Y-3675D01*
G36*
G01X14874Y-5825D02*
G01X15294Y-5825D01*
G01Y-6270D01*
G01X15744D01*
G01Y-5830D01*
G01X16154Y-5825D01*
G01X16204Y-5875D01*
G01Y-7025D01*
G01X16154Y-7075D01*
G01X14874D01*
G01X14824Y-7025D01*
G01Y-5875D01*
G01X14874Y-5825D01*
G37*
G01X14874Y-5825D02*
G01X15294Y-5825D01*
G01Y-6270D01*
G01X15744D01*
G01Y-5830D01*
G01X16154Y-5825D01*
G01X16204Y-5875D01*
G01Y-7025D01*
G01X16154Y-7075D01*
G01X14874D01*
G01X14824Y-7025D01*
G01Y-5875D01*
G01X14874Y-5825D01*
G36*
G01X28209Y-3897D02*
G01X29489Y-3897D01*
G01X29539Y-3947D01*
G01Y-5097D01*
G01X29489Y-5147D01*
G01X29079Y-5152D01*
G01Y-4702D01*
G01X28629D01*
G01Y-5142D01*
G01X28209Y-5147D01*
G01X28159Y-5097D01*
G01Y-3947D01*
G01X28209Y-3897D01*
G37*
G01X28209Y-3897D02*
G01X29489Y-3897D01*
G01X29539Y-3947D01*
G01Y-5097D01*
G01X29489Y-5147D01*
G01X29079Y-5152D01*
G01Y-4702D01*
G01X28629D01*
G01Y-5142D01*
G01X28209Y-5147D01*
G01X28159Y-5097D01*
G01Y-3947D01*
G01X28209Y-3897D01*
G36*
G01X28209Y-6047D02*
G01X28629Y-6047D01*
G01Y-6492D01*
G01X29079D01*
G01Y-6052D01*
G01X29489Y-6047D01*
G01X29539Y-6097D01*
G01Y-7247D01*
G01X29489Y-7297D01*
G01X28209D01*
G01X28159Y-7247D01*
G01Y-6097D01*
G01X28209Y-6047D01*
G37*
G01X28209Y-6047D02*
G01X28629Y-6047D01*
G01Y-6492D01*
G01X29079D01*
G01Y-6052D01*
G01X29489Y-6047D01*
G01X29539Y-6097D01*
G01Y-7247D01*
G01X29489Y-7297D01*
G01X28209D01*
G01X28159Y-7247D01*
G01Y-6097D01*
G01X28209Y-6047D01*
G36*
G01X30241Y-3897D02*
G01X31521Y-3897D01*
G01X31571Y-3947D01*
G01Y-5097D01*
G01X31521Y-5147D01*
G01X31111Y-5152D01*
G01Y-4702D01*
G01X30661D01*
G01Y-5142D01*
G01X30241Y-5147D01*
G01X30191Y-5097D01*
G01Y-3947D01*
G01X30241Y-3897D01*
G37*
G01X30241Y-3897D02*
G01X31521Y-3897D01*
G01X31571Y-3947D01*
G01Y-5097D01*
G01X31521Y-5147D01*
G01X31111Y-5152D01*
G01Y-4702D01*
G01X30661D01*
G01Y-5142D01*
G01X30241Y-5147D01*
G01X30191Y-5097D01*
G01Y-3947D01*
G01X30241Y-3897D01*
G36*
G01X30241Y-6047D02*
G01X30661Y-6047D01*
G01Y-6492D01*
G01X31111D01*
G01Y-6052D01*
G01X31521Y-6047D01*
G01X31571Y-6097D01*
G01Y-7247D01*
G01X31521Y-7297D01*
G01X30241D01*
G01X30191Y-7247D01*
G01Y-6097D01*
G01X30241Y-6047D01*
G37*
G01X30241Y-6047D02*
G01X30661Y-6047D01*
G01Y-6492D01*
G01X31111D01*
G01Y-6052D01*
G01X31521Y-6047D01*
G01X31571Y-6097D01*
G01Y-7247D01*
G01X31521Y-7297D01*
G01X30241D01*
G01X30191Y-7247D01*
G01Y-6097D01*
G01X30241Y-6047D01*
G36*
G01X23172Y-3368D02*
G01X23172Y-4168D01*
G01X23222Y-4218D01*
G01X23450D01*
G01Y-3848D01*
G01X23780D01*
G01Y-4218D01*
G01X24022D01*
G01X24072Y-4168D01*
G01Y-3368D01*
G01X24022Y-3318D01*
G01X23222D01*
G01X23172Y-3368D01*
G37*
G01X23172Y-3368D02*
G01X23172Y-4168D01*
G01X23222Y-4218D01*
G01X23450D01*
G01Y-3848D01*
G01X23780D01*
G01Y-4218D01*
G01X24022D01*
G01X24072Y-4168D01*
G01Y-3368D01*
G01X24022Y-3318D01*
G01X23222D01*
G01X23172Y-3368D01*
G36*
G01X23222Y-4918D02*
G01X23450Y-4918D01*
G01Y-5298D01*
G01X23780D01*
G01Y-4918D01*
G01X24022D01*
G01X24072Y-4968D01*
G01Y-5758D01*
G01X24022Y-5808D01*
G01X23222D01*
G01X23172Y-5758D01*
G01Y-4968D01*
G01X23222Y-4918D01*
G37*
G01X23222Y-4918D02*
G01X23450Y-4918D01*
G01Y-5298D01*
G01X23780D01*
G01Y-4918D01*
G01X24022D01*
G01X24072Y-4968D01*
G01Y-5758D01*
G01X24022Y-5808D01*
G01X23222D01*
G01X23172Y-5758D01*
G01Y-4968D01*
G01X23222Y-4918D01*
G36*
G01X10356Y-5141D02*
G01X10356Y-4341D01*
G01X10306Y-4291D01*
G01X10078D01*
G01Y-4661D01*
G01X9748D01*
G01Y-4291D01*
G01X9506D01*
G01X9456Y-4341D01*
G01Y-5141D01*
G01X9506Y-5191D01*
G01X10306D01*
G01X10356Y-5141D01*
G37*
G01X10356Y-5141D02*
G01X10356Y-4341D01*
G01X10306Y-4291D01*
G01X10078D01*
G01Y-4661D01*
G01X9748D01*
G01Y-4291D01*
G01X9506D01*
G01X9456Y-4341D01*
G01Y-5141D01*
G01X9506Y-5191D01*
G01X10306D01*
G01X10356Y-5141D01*
G36*
G01X10306Y-3591D02*
G01X10078Y-3591D01*
G01Y-3211D01*
G01X9748D01*
G01Y-3591D01*
G01X9506D01*
G01X9456Y-3541D01*
G01Y-2751D01*
G01X9506Y-2701D01*
G01X10306D01*
G01X10356Y-2751D01*
G01Y-3541D01*
G01X10306Y-3591D01*
G37*
G01X10306Y-3591D02*
G01X10078Y-3591D01*
G01Y-3211D01*
G01X9748D01*
G01Y-3591D01*
G01X9506D01*
G01X9456Y-3541D01*
G01Y-2751D01*
G01X9506Y-2701D01*
G01X10306D01*
G01X10356Y-2751D01*
G01Y-3541D01*
G01X10306Y-3591D01*
G36*
G01X4387Y2116D02*
G01X4387Y2916D01*
G01X4337Y2966D01*
G01X4109D01*
G01Y2596D01*
G01X3779D01*
G01Y2966D01*
G01X3537D01*
G01X3487Y2916D01*
G01Y2116D01*
G01X3537Y2066D01*
G01X4337D01*
G01X4387Y2116D01*
G37*
G01X4387Y2116D02*
G01X4387Y2916D01*
G01X4337Y2966D01*
G01X4109D01*
G01Y2596D01*
G01X3779D01*
G01Y2966D01*
G01X3537D01*
G01X3487Y2916D01*
G01Y2116D01*
G01X3537Y2066D01*
G01X4337D01*
G01X4387Y2116D01*
G36*
G01X4337Y3666D02*
G01X4109Y3666D01*
G01Y4046D01*
G01X3779D01*
G01Y3666D01*
G01X3537D01*
G01X3487Y3716D01*
G01Y4506D01*
G01X3537Y4556D01*
G01X4337D01*
G01X4387Y4506D01*
G01Y3716D01*
G01X4337Y3666D01*
G37*
G01X4337Y3666D02*
G01X4109Y3666D01*
G01Y4046D01*
G01X3779D01*
G01Y3666D01*
G01X3537D01*
G01X3487Y3716D01*
G01Y4506D01*
G01X3537Y4556D01*
G01X4337D01*
G01X4387Y4506D01*
G01Y3716D01*
G01X4337Y3666D01*
G04 PolygonModel End*

G04 Pad Start*
G54D12*
G01X51562Y2159D03*
G01X51562Y-538D03*
G01X51562Y-3235D03*
G54D13*
G01X508Y5000D03*
G01X635Y-5500D03*
G54D14*
G01X20323Y-3876D03*
G01X20323Y-4826D03*
G01X20323Y-5776D03*
G01X17523Y-5776D03*
G01X17523Y-4826D03*
G01X17523Y-3876D03*
G54D16*
G01X15149Y5080D03*
G01X20157Y5080D03*
G54D17*
G01X6744Y4826D03*
G01X12814Y4826D03*
G54D18*
G01X34036Y-4463D03*
G54D19*
G01X34036Y-363D03*
G54D14*
G01X8258Y-2098D03*
G01X8258Y-3048D03*
G01X8258Y-3998D03*
G01X5458Y-3998D03*
G01X5458Y-3048D03*
G01X5458Y-2098D03*
G54D20*
G01X3937Y-3937D03*
G01X3937Y-2537D03*
G04 Pad End*
G54D10*
G01X-59975Y60373D03*
G01X47760Y60373D03*
G01X-54975Y-14475D03*
G01X42760Y-14475D03*
G04 Panelize End*
G36*
G01X25723Y17191D02*
G01X25723Y17991D01*
G01X25673Y18041D01*
G01X25445D01*
G01Y17671D01*
G01X25115D01*
G01Y18041D01*
G01X24873D01*
G01X24823Y17991D01*
G01Y17191D01*
G01X24873Y17141D01*
G01X25673D01*
G01X25723Y17191D01*
G37*
G54D11*
G01X25723Y17191D02*
G01X25723Y17991D01*
G01X25673Y18041D01*
G01X25445D01*
G01Y17671D01*
G01X25115D01*
G01Y18041D01*
G01X24873D01*
G01X24823Y17991D01*
G01Y17191D01*
G01X24873Y17141D01*
G01X25673D01*
G01X25723Y17191D01*
G36*
G01X25673Y18741D02*
G01X25445Y18741D01*
G01Y19121D01*
G01X25115D01*
G01Y18741D01*
G01X24873D01*
G01X24823Y18791D01*
G01Y19581D01*
G01X24873Y19631D01*
G01X25673D01*
G01X25723Y19581D01*
G01Y18791D01*
G01X25673Y18741D01*
G37*
G01X25673Y18741D02*
G01X25445Y18741D01*
G01Y19121D01*
G01X25115D01*
G01Y18741D01*
G01X24873D01*
G01X24823Y18791D01*
G01Y19581D01*
G01X24873Y19631D01*
G01X25673D01*
G01X25723Y19581D01*
G01Y18791D01*
G01X25673Y18741D01*
G36*
G01X12969Y19274D02*
G01X14249Y19274D01*
G01X14299Y19224D01*
G01Y18074D01*
G01X14249Y18024D01*
G01X13839Y18019D01*
G01Y18469D01*
G01X13389D01*
G01Y18029D01*
G01X12969Y18024D01*
G01X12919Y18074D01*
G01Y19224D01*
G01X12969Y19274D01*
G37*
G01X12969Y19274D02*
G01X14249Y19274D01*
G01X14299Y19224D01*
G01Y18074D01*
G01X14249Y18024D01*
G01X13839Y18019D01*
G01Y18469D01*
G01X13389D01*
G01Y18029D01*
G01X12969Y18024D01*
G01X12919Y18074D01*
G01Y19224D01*
G01X12969Y19274D01*
G36*
G01X12969Y17124D02*
G01X13389Y17124D01*
G01Y16679D01*
G01X13839D01*
G01Y17119D01*
G01X14249Y17124D01*
G01X14299Y17074D01*
G01Y15924D01*
G01X14249Y15874D01*
G01X12969D01*
G01X12919Y15924D01*
G01Y17074D01*
G01X12969Y17124D01*
G37*
G01X12969Y17124D02*
G01X13389Y17124D01*
G01Y16679D01*
G01X13839D01*
G01Y17119D01*
G01X14249Y17124D01*
G01X14299Y17074D01*
G01Y15924D01*
G01X14249Y15874D01*
G01X12969D01*
G01X12919Y15924D01*
G01Y17074D01*
G01X12969Y17124D01*
G36*
G01X14874Y19274D02*
G01X16154Y19274D01*
G01X16204Y19224D01*
G01Y18074D01*
G01X16154Y18024D01*
G01X15744Y18019D01*
G01Y18469D01*
G01X15294D01*
G01Y18029D01*
G01X14874Y18024D01*
G01X14824Y18074D01*
G01Y19224D01*
G01X14874Y19274D01*
G37*
G01X14874Y19274D02*
G01X16154Y19274D01*
G01X16204Y19224D01*
G01Y18074D01*
G01X16154Y18024D01*
G01X15744Y18019D01*
G01Y18469D01*
G01X15294D01*
G01Y18029D01*
G01X14874Y18024D01*
G01X14824Y18074D01*
G01Y19224D01*
G01X14874Y19274D01*
G36*
G01X14874Y17124D02*
G01X15294Y17124D01*
G01Y16679D01*
G01X15744D01*
G01Y17119D01*
G01X16154Y17124D01*
G01X16204Y17074D01*
G01Y15924D01*
G01X16154Y15874D01*
G01X14874D01*
G01X14824Y15924D01*
G01Y17074D01*
G01X14874Y17124D01*
G37*
G01X14874Y17124D02*
G01X15294Y17124D01*
G01Y16679D01*
G01X15744D01*
G01Y17119D01*
G01X16154Y17124D01*
G01X16204Y17074D01*
G01Y15924D01*
G01X16154Y15874D01*
G01X14874D01*
G01X14824Y15924D01*
G01Y17074D01*
G01X14874Y17124D01*
G36*
G01X28209Y19052D02*
G01X29489Y19052D01*
G01X29539Y19002D01*
G01Y17852D01*
G01X29489Y17802D01*
G01X29079Y17797D01*
G01Y18247D01*
G01X28629D01*
G01Y17807D01*
G01X28209Y17802D01*
G01X28159Y17852D01*
G01Y19002D01*
G01X28209Y19052D01*
G37*
G01X28209Y19052D02*
G01X29489Y19052D01*
G01X29539Y19002D01*
G01Y17852D01*
G01X29489Y17802D01*
G01X29079Y17797D01*
G01Y18247D01*
G01X28629D01*
G01Y17807D01*
G01X28209Y17802D01*
G01X28159Y17852D01*
G01Y19002D01*
G01X28209Y19052D01*
G36*
G01X28209Y16902D02*
G01X28629Y16902D01*
G01Y16457D01*
G01X29079D01*
G01Y16897D01*
G01X29489Y16902D01*
G01X29539Y16852D01*
G01Y15702D01*
G01X29489Y15652D01*
G01X28209D01*
G01X28159Y15702D01*
G01Y16852D01*
G01X28209Y16902D01*
G37*
G01X28209Y16902D02*
G01X28629Y16902D01*
G01Y16457D01*
G01X29079D01*
G01Y16897D01*
G01X29489Y16902D01*
G01X29539Y16852D01*
G01Y15702D01*
G01X29489Y15652D01*
G01X28209D01*
G01X28159Y15702D01*
G01Y16852D01*
G01X28209Y16902D01*
G36*
G01X30241Y19052D02*
G01X31521Y19052D01*
G01X31571Y19002D01*
G01Y17852D01*
G01X31521Y17802D01*
G01X31111Y17797D01*
G01Y18247D01*
G01X30661D01*
G01Y17807D01*
G01X30241Y17802D01*
G01X30191Y17852D01*
G01Y19002D01*
G01X30241Y19052D01*
G37*
G01X30241Y19052D02*
G01X31521Y19052D01*
G01X31571Y19002D01*
G01Y17852D01*
G01X31521Y17802D01*
G01X31111Y17797D01*
G01Y18247D01*
G01X30661D01*
G01Y17807D01*
G01X30241Y17802D01*
G01X30191Y17852D01*
G01Y19002D01*
G01X30241Y19052D01*
G36*
G01X30241Y16902D02*
G01X30661Y16902D01*
G01Y16457D01*
G01X31111D01*
G01Y16897D01*
G01X31521Y16902D01*
G01X31571Y16852D01*
G01Y15702D01*
G01X31521Y15652D01*
G01X30241D01*
G01X30191Y15702D01*
G01Y16852D01*
G01X30241Y16902D01*
G37*
G01X30241Y16902D02*
G01X30661Y16902D01*
G01Y16457D01*
G01X31111D01*
G01Y16897D01*
G01X31521Y16902D01*
G01X31571Y16852D01*
G01Y15702D01*
G01X31521Y15652D01*
G01X30241D01*
G01X30191Y15702D01*
G01Y16852D01*
G01X30241Y16902D01*
G36*
G01X23172Y19581D02*
G01X23172Y18781D01*
G01X23222Y18731D01*
G01X23450D01*
G01Y19101D01*
G01X23780D01*
G01Y18731D01*
G01X24022D01*
G01X24072Y18781D01*
G01Y19581D01*
G01X24022Y19631D01*
G01X23222D01*
G01X23172Y19581D01*
G37*
G01X23172Y19581D02*
G01X23172Y18781D01*
G01X23222Y18731D01*
G01X23450D01*
G01Y19101D01*
G01X23780D01*
G01Y18731D01*
G01X24022D01*
G01X24072Y18781D01*
G01Y19581D01*
G01X24022Y19631D01*
G01X23222D01*
G01X23172Y19581D01*
G36*
G01X23222Y18031D02*
G01X23450Y18031D01*
G01Y17651D01*
G01X23780D01*
G01Y18031D01*
G01X24022D01*
G01X24072Y17981D01*
G01Y17191D01*
G01X24022Y17141D01*
G01X23222D01*
G01X23172Y17191D01*
G01Y17981D01*
G01X23222Y18031D01*
G37*
G01X23222Y18031D02*
G01X23450Y18031D01*
G01Y17651D01*
G01X23780D01*
G01Y18031D01*
G01X24022D01*
G01X24072Y17981D01*
G01Y17191D01*
G01X24022Y17141D01*
G01X23222D01*
G01X23172Y17191D01*
G01Y17981D01*
G01X23222Y18031D01*
G36*
G01X10356Y17809D02*
G01X10356Y18609D01*
G01X10306Y18659D01*
G01X10078D01*
G01Y18289D01*
G01X9748D01*
G01Y18659D01*
G01X9506D01*
G01X9456Y18609D01*
G01Y17809D01*
G01X9506Y17759D01*
G01X10306D01*
G01X10356Y17809D01*
G37*
G01X10356Y17809D02*
G01X10356Y18609D01*
G01X10306Y18659D01*
G01X10078D01*
G01Y18289D01*
G01X9748D01*
G01Y18659D01*
G01X9506D01*
G01X9456Y18609D01*
G01Y17809D01*
G01X9506Y17759D01*
G01X10306D01*
G01X10356Y17809D01*
G36*
G01X10306Y19359D02*
G01X10078Y19359D01*
G01Y19739D01*
G01X9748D01*
G01Y19359D01*
G01X9506D01*
G01X9456Y19409D01*
G01Y20199D01*
G01X9506Y20249D01*
G01X10306D01*
G01X10356Y20199D01*
G01Y19409D01*
G01X10306Y19359D01*
G37*
G01X10306Y19359D02*
G01X10078Y19359D01*
G01Y19739D01*
G01X9748D01*
G01Y19359D01*
G01X9506D01*
G01X9456Y19409D01*
G01Y20199D01*
G01X9506Y20249D01*
G01X10306D01*
G01X10356Y20199D01*
G01Y19409D01*
G01X10306Y19359D01*
G36*
G01X4387Y25065D02*
G01X4387Y25865D01*
G01X4337Y25915D01*
G01X4109D01*
G01Y25545D01*
G01X3779D01*
G01Y25915D01*
G01X3537D01*
G01X3487Y25865D01*
G01Y25065D01*
G01X3537Y25015D01*
G01X4337D01*
G01X4387Y25065D01*
G37*
G01X4387Y25065D02*
G01X4387Y25865D01*
G01X4337Y25915D01*
G01X4109D01*
G01Y25545D01*
G01X3779D01*
G01Y25915D01*
G01X3537D01*
G01X3487Y25865D01*
G01Y25065D01*
G01X3537Y25015D01*
G01X4337D01*
G01X4387Y25065D01*
G36*
G01X4337Y26615D02*
G01X4109Y26615D01*
G01Y26995D01*
G01X3779D01*
G01Y26615D01*
G01X3537D01*
G01X3487Y26665D01*
G01Y27455D01*
G01X3537Y27505D01*
G01X4337D01*
G01X4387Y27455D01*
G01Y26665D01*
G01X4337Y26615D01*
G37*
G01X4337Y26615D02*
G01X4109Y26615D01*
G01Y26995D01*
G01X3779D01*
G01Y26615D01*
G01X3537D01*
G01X3487Y26665D01*
G01Y27455D01*
G01X3537Y27505D01*
G01X4337D01*
G01X4387Y27455D01*
G01Y26665D01*
G01X4337Y26615D01*
G04 PolygonModel End*
G54D12*
G01X51562Y25108D03*
G01X51562Y22411D03*
G01X51562Y19714D03*
G54D13*
G01X508Y27949D03*
G01X635Y17449D03*
G54D14*
G01X20323Y19073D03*
G01X20323Y18123D03*
G01X20323Y17173D03*
G01X17523Y17173D03*
G01X17523Y18123D03*
G01X17523Y19073D03*
G54D16*
G01X15149Y28029D03*
G01X20157Y28029D03*
G54D17*
G01X6744Y27775D03*
G01X12814Y27775D03*
G54D18*
G01X34036Y18486D03*
G54D19*
G01X34036Y22586D03*
G54D14*
G01X8258Y20851D03*
G01X8258Y19901D03*
G01X8258Y18951D03*
G01X5458Y18951D03*
G01X5458Y19901D03*
G01X5458Y20851D03*
G54D20*
G01X3937Y19012D03*
G01X3937Y20412D03*
G04 Pad End*
G54D10*
G01X-59975Y60373D03*
G01X47760Y60373D03*
G01X-54975Y-14475D03*
G01X42760Y-14475D03*
G04 Panelize End*
G36*
G01X25723Y40140D02*
G01X25723Y40940D01*
G01X25673Y40990D01*
G01X25445D01*
G01Y40620D01*
G01X25115D01*
G01Y40990D01*
G01X24873D01*
G01X24823Y40940D01*
G01Y40140D01*
G01X24873Y40090D01*
G01X25673D01*
G01X25723Y40140D01*
G37*
G54D11*
G01X25723Y40140D02*
G01X25723Y40940D01*
G01X25673Y40990D01*
G01X25445D01*
G01Y40620D01*
G01X25115D01*
G01Y40990D01*
G01X24873D01*
G01X24823Y40940D01*
G01Y40140D01*
G01X24873Y40090D01*
G01X25673D01*
G01X25723Y40140D01*
G36*
G01X25673Y41690D02*
G01X25445Y41690D01*
G01Y42070D01*
G01X25115D01*
G01Y41690D01*
G01X24873D01*
G01X24823Y41740D01*
G01Y42530D01*
G01X24873Y42580D01*
G01X25673D01*
G01X25723Y42530D01*
G01Y41740D01*
G01X25673Y41690D01*
G37*
G01X25673Y41690D02*
G01X25445Y41690D01*
G01Y42070D01*
G01X25115D01*
G01Y41690D01*
G01X24873D01*
G01X24823Y41740D01*
G01Y42530D01*
G01X24873Y42580D01*
G01X25673D01*
G01X25723Y42530D01*
G01Y41740D01*
G01X25673Y41690D01*
G36*
G01X12969Y42223D02*
G01X14249Y42223D01*
G01X14299Y42173D01*
G01Y41023D01*
G01X14249Y40973D01*
G01X13839Y40968D01*
G01Y41418D01*
G01X13389D01*
G01Y40978D01*
G01X12969Y40973D01*
G01X12919Y41023D01*
G01Y42173D01*
G01X12969Y42223D01*
G37*
G01X12969Y42223D02*
G01X14249Y42223D01*
G01X14299Y42173D01*
G01Y41023D01*
G01X14249Y40973D01*
G01X13839Y40968D01*
G01Y41418D01*
G01X13389D01*
G01Y40978D01*
G01X12969Y40973D01*
G01X12919Y41023D01*
G01Y42173D01*
G01X12969Y42223D01*
G36*
G01X12969Y40073D02*
G01X13389Y40073D01*
G01Y39628D01*
G01X13839D01*
G01Y40068D01*
G01X14249Y40073D01*
G01X14299Y40023D01*
G01Y38873D01*
G01X14249Y38823D01*
G01X12969D01*
G01X12919Y38873D01*
G01Y40023D01*
G01X12969Y40073D01*
G37*
G01X12969Y40073D02*
G01X13389Y40073D01*
G01Y39628D01*
G01X13839D01*
G01Y40068D01*
G01X14249Y40073D01*
G01X14299Y40023D01*
G01Y38873D01*
G01X14249Y38823D01*
G01X12969D01*
G01X12919Y38873D01*
G01Y40023D01*
G01X12969Y40073D01*
G36*
G01X14874Y42223D02*
G01X16154Y42223D01*
G01X16204Y42173D01*
G01Y41023D01*
G01X16154Y40973D01*
G01X15744Y40968D01*
G01Y41418D01*
G01X15294D01*
G01Y40978D01*
G01X14874Y40973D01*
G01X14824Y41023D01*
G01Y42173D01*
G01X14874Y42223D01*
G37*
G01X14874Y42223D02*
G01X16154Y42223D01*
G01X16204Y42173D01*
G01Y41023D01*
G01X16154Y40973D01*
G01X15744Y40968D01*
G01Y41418D01*
G01X15294D01*
G01Y40978D01*
G01X14874Y40973D01*
G01X14824Y41023D01*
G01Y42173D01*
G01X14874Y42223D01*
G36*
G01X14874Y40073D02*
G01X15294Y40073D01*
G01Y39628D01*
G01X15744D01*
G01Y40068D01*
G01X16154Y40073D01*
G01X16204Y40023D01*
G01Y38873D01*
G01X16154Y38823D01*
G01X14874D01*
G01X14824Y38873D01*
G01Y40023D01*
G01X14874Y40073D01*
G37*
G01X14874Y40073D02*
G01X15294Y40073D01*
G01Y39628D01*
G01X15744D01*
G01Y40068D01*
G01X16154Y40073D01*
G01X16204Y40023D01*
G01Y38873D01*
G01X16154Y38823D01*
G01X14874D01*
G01X14824Y38873D01*
G01Y40023D01*
G01X14874Y40073D01*
G36*
G01X28209Y42001D02*
G01X29489Y42001D01*
G01X29539Y41951D01*
G01Y40801D01*
G01X29489Y40751D01*
G01X29079Y40746D01*
G01Y41196D01*
G01X28629D01*
G01Y40756D01*
G01X28209Y40751D01*
G01X28159Y40801D01*
G01Y41951D01*
G01X28209Y42001D01*
G37*
G01X28209Y42001D02*
G01X29489Y42001D01*
G01X29539Y41951D01*
G01Y40801D01*
G01X29489Y40751D01*
G01X29079Y40746D01*
G01Y41196D01*
G01X28629D01*
G01Y40756D01*
G01X28209Y40751D01*
G01X28159Y40801D01*
G01Y41951D01*
G01X28209Y42001D01*
G36*
G01X28209Y39851D02*
G01X28629Y39851D01*
G01Y39406D01*
G01X29079D01*
G01Y39846D01*
G01X29489Y39851D01*
G01X29539Y39801D01*
G01Y38651D01*
G01X29489Y38601D01*
G01X28209D01*
G01X28159Y38651D01*
G01Y39801D01*
G01X28209Y39851D01*
G37*
G01X28209Y39851D02*
G01X28629Y39851D01*
G01Y39406D01*
G01X29079D01*
G01Y39846D01*
G01X29489Y39851D01*
G01X29539Y39801D01*
G01Y38651D01*
G01X29489Y38601D01*
G01X28209D01*
G01X28159Y38651D01*
G01Y39801D01*
G01X28209Y39851D01*
G36*
G01X30241Y42001D02*
G01X31521Y42001D01*
G01X31571Y41951D01*
G01Y40801D01*
G01X31521Y40751D01*
G01X31111Y40746D01*
G01Y41196D01*
G01X30661D01*
G01Y40756D01*
G01X30241Y40751D01*
G01X30191Y40801D01*
G01Y41951D01*
G01X30241Y42001D01*
G37*
G01X30241Y42001D02*
G01X31521Y42001D01*
G01X31571Y41951D01*
G01Y40801D01*
G01X31521Y40751D01*
G01X31111Y40746D01*
G01Y41196D01*
G01X30661D01*
G01Y40756D01*
G01X30241Y40751D01*
G01X30191Y40801D01*
G01Y41951D01*
G01X30241Y42001D01*
G36*
G01X30241Y39851D02*
G01X30661Y39851D01*
G01Y39406D01*
G01X31111D01*
G01Y39846D01*
G01X31521Y39851D01*
G01X31571Y39801D01*
G01Y38651D01*
G01X31521Y38601D01*
G01X30241D01*
G01X30191Y38651D01*
G01Y39801D01*
G01X30241Y39851D01*
G37*
G01X30241Y39851D02*
G01X30661Y39851D01*
G01Y39406D01*
G01X31111D01*
G01Y39846D01*
G01X31521Y39851D01*
G01X31571Y39801D01*
G01Y38651D01*
G01X31521Y38601D01*
G01X30241D01*
G01X30191Y38651D01*
G01Y39801D01*
G01X30241Y39851D01*
G36*
G01X23172Y42530D02*
G01X23172Y41730D01*
G01X23222Y41680D01*
G01X23450D01*
G01Y42050D01*
G01X23780D01*
G01Y41680D01*
G01X24022D01*
G01X24072Y41730D01*
G01Y42530D01*
G01X24022Y42580D01*
G01X23222D01*
G01X23172Y42530D01*
G37*
G01X23172Y42530D02*
G01X23172Y41730D01*
G01X23222Y41680D01*
G01X23450D01*
G01Y42050D01*
G01X23780D01*
G01Y41680D01*
G01X24022D01*
G01X24072Y41730D01*
G01Y42530D01*
G01X24022Y42580D01*
G01X23222D01*
G01X23172Y42530D01*
G36*
G01X23222Y40980D02*
G01X23450Y40980D01*
G01Y40600D01*
G01X23780D01*
G01Y40980D01*
G01X24022D01*
G01X24072Y40930D01*
G01Y40140D01*
G01X24022Y40090D01*
G01X23222D01*
G01X23172Y40140D01*
G01Y40930D01*
G01X23222Y40980D01*
G37*
G01X23222Y40980D02*
G01X23450Y40980D01*
G01Y40600D01*
G01X23780D01*
G01Y40980D01*
G01X24022D01*
G01X24072Y40930D01*
G01Y40140D01*
G01X24022Y40090D01*
G01X23222D01*
G01X23172Y40140D01*
G01Y40930D01*
G01X23222Y40980D01*
G36*
G01X10356Y40758D02*
G01X10356Y41558D01*
G01X10306Y41608D01*
G01X10078D01*
G01Y41238D01*
G01X9748D01*
G01Y41608D01*
G01X9506D01*
G01X9456Y41558D01*
G01Y40758D01*
G01X9506Y40708D01*
G01X10306D01*
G01X10356Y40758D01*
G37*
G01X10356Y40758D02*
G01X10356Y41558D01*
G01X10306Y41608D01*
G01X10078D01*
G01Y41238D01*
G01X9748D01*
G01Y41608D01*
G01X9506D01*
G01X9456Y41558D01*
G01Y40758D01*
G01X9506Y40708D01*
G01X10306D01*
G01X10356Y40758D01*
G36*
G01X10306Y42308D02*
G01X10078Y42308D01*
G01Y42688D01*
G01X9748D01*
G01Y42308D01*
G01X9506D01*
G01X9456Y42358D01*
G01Y43148D01*
G01X9506Y43198D01*
G01X10306D01*
G01X10356Y43148D01*
G01Y42358D01*
G01X10306Y42308D01*
G37*
G01X10306Y42308D02*
G01X10078Y42308D01*
G01Y42688D01*
G01X9748D01*
G01Y42308D01*
G01X9506D01*
G01X9456Y42358D01*
G01Y43148D01*
G01X9506Y43198D01*
G01X10306D01*
G01X10356Y43148D01*
G01Y42358D01*
G01X10306Y42308D01*
G36*
G01X4387Y48014D02*
G01X4387Y48814D01*
G01X4337Y48864D01*
G01X4109D01*
G01Y48494D01*
G01X3779D01*
G01Y48864D01*
G01X3537D01*
G01X3487Y48814D01*
G01Y48014D01*
G01X3537Y47964D01*
G01X4337D01*
G01X4387Y48014D01*
G37*
G01X4387Y48014D02*
G01X4387Y48814D01*
G01X4337Y48864D01*
G01X4109D01*
G01Y48494D01*
G01X3779D01*
G01Y48864D01*
G01X3537D01*
G01X3487Y48814D01*
G01Y48014D01*
G01X3537Y47964D01*
G01X4337D01*
G01X4387Y48014D01*
G36*
G01X4337Y49564D02*
G01X4109Y49564D01*
G01Y49944D01*
G01X3779D01*
G01Y49564D01*
G01X3537D01*
G01X3487Y49614D01*
G01Y50404D01*
G01X3537Y50454D01*
G01X4337D01*
G01X4387Y50404D01*
G01Y49614D01*
G01X4337Y49564D01*
G37*
G01X4337Y49564D02*
G01X4109Y49564D01*
G01Y49944D01*
G01X3779D01*
G01Y49564D01*
G01X3537D01*
G01X3487Y49614D01*
G01Y50404D01*
G01X3537Y50454D01*
G01X4337D01*
G01X4387Y50404D01*
G01Y49614D01*
G01X4337Y49564D01*
G04 PolygonModel End*
G54D12*
G01X51562Y48057D03*
G01X51562Y45360D03*
G01X51562Y42663D03*
G54D13*
G01X508Y50898D03*
G01X635Y40398D03*
G54D14*
G01X20323Y42022D03*
G01X20323Y41072D03*
G01X20323Y40122D03*
G01X17523Y40122D03*
G01X17523Y41072D03*
G01X17523Y42022D03*
G54D16*
G01X15149Y50978D03*
G01X20157Y50978D03*
G54D17*
G01X6744Y50724D03*
G01X12814Y50724D03*
G54D18*
G01X34036Y41435D03*
G54D19*
G01X34036Y45535D03*
G54D14*
G01X8258Y43800D03*
G01X8258Y42850D03*
G01X8258Y41900D03*
G01X5458Y41900D03*
G01X5458Y42850D03*
G01X5458Y43800D03*
G54D20*
G01X3937Y41961D03*
G01X3937Y43361D03*
G04 Pad End*

M02*
