G04 Layer: TopSilkscreenLayer*
G04 EasyEDA Pro v1.9.28.eba1c1, 2023-02-22 19:28:42*
G04 Gerber Generator version 0.3*
G04 Scale: 100 percent, Rotated: No, Reflected: No*
G04 Dimensions in millimeters*
G04 Leading zeros omitted, absolute positions, 3 integers and 3 decimals*
G04 Panelize: Stamp Hole, Column: 1, Row: 3, Board Size: 127.734mm x 20.95mm, Panelized Board Size: 127.734mm x 82.847mm, Panelized Method: All Objects*
%FSLAX33Y33*%
%MOMM*%
%ADD10C,0.15*%
%ADD11C,0.299999*%
%ADD12C,0.2*%
%ADD13C,0.2032*%
%ADD14C,0.1524*%
%ADD15C,0.254*%
%ADD16C,0.0254*%
%ADD17C,0.1000*%
%ADD18C,0.1*%
G75*


G04 Text Start*
G04 //text: 5v*
G54D10*
G01X25870Y7089D02*
G01X25540Y7089D01*
G01X25507Y6795D01*
G01X25540Y6828D01*
G01X25639Y6861D01*
G01X25738D01*
G01X25837Y6828D01*
G01X25900Y6761D01*
G01X25933Y6662D01*
G01Y6596D01*
G01X25900Y6500D01*
G01X25837Y6434D01*
G01X25738Y6401D01*
G01X25639D01*
G01X25540Y6434D01*
G01X25507Y6467D01*
G01X25476Y6533D01*
G01X26241Y6861D02*
G01X26439Y6401D01*
G01X26634Y6861D02*
G01X26439Y6401D01*
G04 //text: GND*
G01X25331Y-8186D02*
G01X25298Y-8123D01*
G01X25235Y-8057D01*
G01X25169Y-8024D01*
G01X25037D01*
G01X24971Y-8057D01*
G01X24905Y-8123D01*
G01X24872Y-8186D01*
G01X24841Y-8285D01*
G01Y-8451D01*
G01X24872Y-8547D01*
G01X24905Y-8613D01*
G01X24971Y-8679D01*
G01X25037Y-8712D01*
G01X25169D01*
G01X25235Y-8679D01*
G01X25298Y-8613D01*
G01X25331Y-8547D01*
G01Y-8451D01*
G01X25169Y-8451D02*
G01X25331Y-8451D01*
G01X25639Y-8024D02*
G01X25639Y-8712D01*
G01X25639Y-8024D02*
G01X26099Y-8712D01*
G01X26099Y-8024D02*
G01X26099Y-8712D01*
G01X26406Y-8024D02*
G01X26406Y-8712D01*
G01X26406Y-8024D02*
G01X26637Y-8024D01*
G01X26734Y-8057D01*
G01X26800Y-8123D01*
G01X26833Y-8186D01*
G01X26866Y-8285D01*
G01Y-8451D01*
G01X26833Y-8547D01*
G01X26800Y-8613D01*
G01X26734Y-8679D01*
G01X26637Y-8712D01*
G01X26406D01*
G04 //text: BAT-*
G54D11*
G01X-4355Y-1862D02*
G01X-6125Y-1862D01*
G01X-4355Y-1862D02*
G01X-4355Y-2621D01*
G01X-4439Y-2875D01*
G01X-4523Y-2959D01*
G01X-4693Y-3043D01*
G01X-4861D01*
G01X-5031Y-2959D01*
G01X-5115Y-2875D01*
G01X-5198Y-2621D01*
G01X-5198Y-1862D02*
G01X-5198Y-2621D01*
G01X-5282Y-2875D01*
G01X-5366Y-2959D01*
G01X-5536Y-3043D01*
G01X-5790D01*
G01X-5958Y-2959D01*
G01X-6042Y-2875D01*
G01X-6125Y-2621D01*
G01Y-1862D01*
G01X-4355Y-4422D02*
G01X-6125Y-3749D01*
G01X-4355Y-4422D02*
G01X-6125Y-5098D01*
G01X-5536Y-4000D02*
G01X-5536Y-4846D01*
G01X-4355Y-6393D02*
G01X-6125Y-6393D01*
G01X-4355Y-5804D02*
G01X-4355Y-6985D01*
G01X-5366Y-7689D02*
G01X-5366Y-9207D01*
G04 //text: BAT+*
G01X-4219Y8867D02*
G01X-5989Y8867D01*
G01X-4219Y8867D02*
G01X-4219Y8108D01*
G01X-4303Y7854D01*
G01X-4387Y7770D01*
G01X-4557Y7686D01*
G01X-4724D01*
G01X-4895Y7770D01*
G01X-4978Y7854D01*
G01X-5062Y8108D01*
G01X-5062Y8867D02*
G01X-5062Y8108D01*
G01X-5146Y7854D01*
G01X-5230Y7770D01*
G01X-5400Y7686D01*
G01X-5654D01*
G01X-5822Y7770D01*
G01X-5905Y7854D01*
G01X-5989Y8108D01*
G01Y8867D01*
G01X-4219Y6307D02*
G01X-5989Y6980D01*
G01X-4219Y6307D02*
G01X-5989Y5631D01*
G01X-5400Y6728D02*
G01X-5400Y5883D01*
G01X-4219Y4336D02*
G01X-5989Y4336D01*
G01X-4219Y4925D02*
G01X-4219Y3744D01*
G01X-4470Y2281D02*
G01X-5989Y2281D01*
G01X-5230Y3040D02*
G01X-5230Y1521D01*
G04 //text: 5V*
G54D10*
G01X54397Y-2715D02*
G01X53896Y-2715D01*
G01X53845Y-3165D01*
G01X53896Y-3117D01*
G01X54046Y-3066D01*
G01X54196D01*
G01X54346Y-3117D01*
G01X54445Y-3216D01*
G01X54496Y-3365D01*
G01Y-3467D01*
G01X54445Y-3617D01*
G01X54346Y-3716D01*
G01X54196Y-3767D01*
G01X54046D01*
G01X53896Y-3716D01*
G01X53845Y-3665D01*
G01X53797Y-3566D01*
G01X54887Y-2715D02*
G01X55286Y-3767D01*
G01X55687Y-2715D02*
G01X55286Y-3767D01*
G04 //text: GND*
G01X54547Y2494D02*
G01X54496Y2596D01*
G01X54397Y2695D01*
G01X54295Y2746D01*
G01X54097D01*
G01X53995Y2695D01*
G01X53896Y2596D01*
G01X53845Y2494D01*
G01X53797Y2344D01*
G01Y2096D01*
G01X53845Y1946D01*
G01X53896Y1844D01*
G01X53995Y1745D01*
G01X54097Y1694D01*
G01X54295D01*
G01X54397Y1745D01*
G01X54496Y1844D01*
G01X54547Y1946D01*
G01Y2096D01*
G01X54295Y2096D02*
G01X54547Y2096D01*
G01X54935Y2746D02*
G01X54935Y1694D01*
G01X54935Y2746D02*
G01X55636Y1694D01*
G01X55636Y2746D02*
G01X55636Y1694D01*
G01X56025Y2746D02*
G01X56025Y1694D01*
G01X56025Y2746D02*
G01X56375Y2746D01*
G01X56525Y2695D01*
G01X56627Y2596D01*
G01X56675Y2494D01*
G01X56726Y2344D01*
G01Y2096D01*
G01X56675Y1946D01*
G01X56627Y1844D01*
G01X56525Y1745D01*
G01X56375Y1694D01*
G01X56025D01*
G04 //text: SIG*
G01X54496Y-198D02*
G01X54397Y-99D01*
G01X54247Y-48D01*
G01X54046D01*
G01X53896Y-99D01*
G01X53797Y-198D01*
G01Y-300D01*
G01X53845Y-399D01*
G01X53896Y-450D01*
G01X53995Y-498D01*
G01X54295Y-599D01*
G01X54397Y-650D01*
G01X54445Y-698D01*
G01X54496Y-800D01*
G01Y-950D01*
G01X54397Y-1049D01*
G01X54247Y-1100D01*
G01X54046D01*
G01X53896Y-1049D01*
G01X53797Y-950D01*
G01X54887Y-48D02*
G01X54887Y-1100D01*
G01X56025Y-300D02*
G01X55977Y-198D01*
G01X55875Y-99D01*
G01X55776Y-48D01*
G01X55575D01*
G01X55476Y-99D01*
G01X55377Y-198D01*
G01X55326Y-300D01*
G01X55275Y-450D01*
G01Y-698D01*
G01X55326Y-848D01*
G01X55377Y-950D01*
G01X55476Y-1049D01*
G01X55575Y-1100D01*
G01X55776D01*
G01X55875Y-1049D01*
G01X55977Y-950D01*
G01X56025Y-848D01*
G01Y-698D01*
G01X55776Y-698D02*
G01X56025Y-698D01*
G04 //text: v0.3.1 2023-01-23*
G54D12*
G01X31976Y-8118D02*
G01X32314Y-8905D01*
G01X32652Y-8118D02*
G01X32314Y-8905D01*
G01X33459Y-7724D02*
G01X33292Y-7780D01*
G01X33177Y-7948D01*
G01X33122Y-8230D01*
G01Y-8397D01*
G01X33177Y-8679D01*
G01X33292Y-8847D01*
G01X33459Y-8905D01*
G01X33571D01*
G01X33741Y-8847D01*
G01X33853Y-8679D01*
G01X33909Y-8397D01*
G01Y-8230D01*
G01X33853Y-7948D01*
G01X33741Y-7780D01*
G01X33571Y-7724D01*
G01X33459D01*
G01X34435Y-8623D02*
G01X34379Y-8679D01*
G01X34435Y-8735D01*
G01X34493Y-8679D01*
G01X34435Y-8623D01*
G01X35075Y-7724D02*
G01X35692Y-7724D01*
G01X35357Y-8174D01*
G01X35524D01*
G01X35636Y-8230D01*
G01X35692Y-8285D01*
G01X35751Y-8453D01*
G01Y-8567D01*
G01X35692Y-8735D01*
G01X35580Y-8847D01*
G01X35413Y-8905D01*
G01X35243D01*
G01X35075Y-8847D01*
G01X35019Y-8791D01*
G01X34963Y-8679D01*
G01X36276Y-8623D02*
G01X36220Y-8679D01*
G01X36276Y-8735D01*
G01X36332Y-8679D01*
G01X36276Y-8623D01*
G01X36802Y-7948D02*
G01X36914Y-7892D01*
G01X37084Y-7724D01*
G01Y-8905D01*
G01X38870Y-8004D02*
G01X38870Y-7948D01*
G01X38926Y-7836D01*
G01X38981Y-7780D01*
G01X39096Y-7724D01*
G01X39319D01*
G01X39431Y-7780D01*
G01X39489Y-7836D01*
G01X39545Y-7948D01*
G01Y-8059D01*
G01X39489Y-8174D01*
G01X39375Y-8341D01*
G01X38814Y-8905D01*
G01X39601D01*
G01X40409Y-7724D02*
G01X40239Y-7780D01*
G01X40127Y-7948D01*
G01X40071Y-8230D01*
G01Y-8397D01*
G01X40127Y-8679D01*
G01X40239Y-8847D01*
G01X40409Y-8905D01*
G01X40521D01*
G01X40688Y-8847D01*
G01X40803Y-8679D01*
G01X40858Y-8397D01*
G01Y-8230D01*
G01X40803Y-7948D01*
G01X40688Y-7780D01*
G01X40521Y-7724D01*
G01X40409D01*
G01X41384Y-8004D02*
G01X41384Y-7948D01*
G01X41440Y-7836D01*
G01X41496Y-7780D01*
G01X41610Y-7724D01*
G01X41834D01*
G01X41948Y-7780D01*
G01X42004Y-7836D01*
G01X42060Y-7948D01*
G01Y-8059D01*
G01X42004Y-8174D01*
G01X41890Y-8341D01*
G01X41328Y-8905D01*
G01X42116D01*
G01X42697Y-7724D02*
G01X43317Y-7724D01*
G01X42979Y-8174D01*
G01X43150D01*
G01X43261Y-8230D01*
G01X43317Y-8285D01*
G01X43373Y-8453D01*
G01Y-8567D01*
G01X43317Y-8735D01*
G01X43205Y-8847D01*
G01X43035Y-8905D01*
G01X42868D01*
G01X42697Y-8847D01*
G01X42642Y-8791D01*
G01X42586Y-8679D01*
G01X43843Y-8397D02*
G01X44856Y-8397D01*
G01X45664Y-7724D02*
G01X45494Y-7780D01*
G01X45382Y-7948D01*
G01X45326Y-8230D01*
G01Y-8397D01*
G01X45382Y-8679D01*
G01X45494Y-8847D01*
G01X45664Y-8905D01*
G01X45776D01*
G01X45944Y-8847D01*
G01X46058Y-8679D01*
G01X46114Y-8397D01*
G01Y-8230D01*
G01X46058Y-7948D01*
G01X45944Y-7780D01*
G01X45776Y-7724D01*
G01X45664D01*
G01X46584Y-7948D02*
G01X46695Y-7892D01*
G01X46866Y-7724D01*
G01Y-8905D01*
G01X47335Y-8397D02*
G01X48346Y-8397D01*
G01X48872Y-8004D02*
G01X48872Y-7948D01*
G01X48931Y-7836D01*
G01X48986Y-7780D01*
G01X49098Y-7724D01*
G01X49324D01*
G01X49436Y-7780D01*
G01X49492Y-7836D01*
G01X49548Y-7948D01*
G01Y-8059D01*
G01X49492Y-8174D01*
G01X49380Y-8341D01*
G01X48816Y-8905D01*
G01X49604D01*
G01X50188Y-7724D02*
G01X50805Y-7724D01*
G01X50467Y-8174D01*
G01X50637D01*
G01X50749Y-8230D01*
G01X50805Y-8285D01*
G01X50861Y-8453D01*
G01Y-8567D01*
G01X50805Y-8735D01*
G01X50693Y-8847D01*
G01X50526Y-8905D01*
G01X50356D01*
G01X50188Y-8847D01*
G01X50132Y-8791D01*
G01X50074Y-8679D01*
G04 //text: ₍ ‧ꀈ˙⁾՜*
G36*
G01X40230Y-5217D02*
G01X40230Y-5640D01*
G01X40439D01*
G01Y-4058D01*
G01X40467Y-4065D01*
G01X40480Y-4072D01*
G01X40513Y-4094D01*
G01X40535Y-4108D01*
G01X40580Y-4135D01*
G01X40607Y-4152D01*
G01X40640Y-4176D01*
G01X40662Y-4190D01*
G01X40708Y-4217D01*
G01X40734Y-4234D01*
G01X40768Y-4258D01*
G01X40789Y-4271D01*
G01X40835Y-4299D01*
G01X40861Y-4316D01*
G01X40876Y-4326D01*
G01X40930Y-4367D01*
G01X40935Y-4340D01*
G01X40937Y-4292D01*
G01X40939Y-3908D01*
G01Y-3494D01*
G01X40739D01*
G01Y-4021D01*
G01X40712Y-4014D01*
G01X40698Y-4008D01*
G01X40671Y-3989D01*
G01X40658Y-3981D01*
G01X40635Y-3968D01*
G01X40621Y-3960D01*
G01X40598Y-3944D01*
G01X40585Y-3935D01*
G01X40562Y-3923D01*
G01X40548Y-3914D01*
G01X40526Y-3898D01*
G01X40512Y-3890D01*
G01X40489Y-3878D01*
G01X40476Y-3869D01*
G01X40453Y-3853D01*
G01X40439Y-3844D01*
G01X40417Y-3832D01*
G01X40403Y-3823D01*
G01X40380Y-3807D01*
G01X40367Y-3799D01*
G01X40344Y-3787D01*
G01X40330Y-3778D01*
G01X40308Y-3762D01*
G01X40294Y-3753D01*
G01X40271Y-3741D01*
G01X40258Y-3732D01*
G01X40230Y-3712D01*
G01Y-4112D01*
G01X40225Y-4445D01*
G01X40223Y-4483D01*
G01X40220Y-4500D01*
G01X40219Y-4504D01*
G01X40218Y-4506D01*
G01Y-4507D01*
G01X40217Y-4508D01*
G01X40210Y-4505D01*
G01X40204Y-4501D01*
G01X40199Y-4496D01*
G01X40189Y-4483D01*
G01X40178Y-4472D01*
G01X40159Y-4457D01*
G01X40144Y-4438D01*
G01X40132Y-4426D01*
G01X40113Y-4411D01*
G01X40098Y-4392D01*
G01X40087Y-4381D01*
G01X40068Y-4366D01*
G01X40053Y-4347D01*
G01X40041Y-4335D01*
G01X40022Y-4320D01*
G01X40007Y-4301D01*
G01X39996Y-4290D01*
G01X39977Y-4275D01*
G01X39967Y-4262D01*
G01X39961Y-4255D01*
G01X39954Y-4249D01*
G01X39945Y-4242D01*
G01X39924Y-4228D01*
G01X39912Y-4218D01*
G01X39905Y-4211D01*
G01X39898Y-4201D01*
G01X39887Y-4190D01*
G01X39868Y-4175D01*
G01X39853Y-4156D01*
G01X39841Y-4144D01*
G01X39822Y-4129D01*
G01X39807Y-4110D01*
G01X39796Y-4099D01*
G01X39789Y-4094D01*
G01X39783Y-4090D01*
G01X39777Y-4088D01*
G01X39771D01*
G01X39767Y-4090D01*
G01X39762Y-4092D01*
G01X39758Y-4096D01*
G01X39748Y-4108D01*
G01X39738Y-4120D01*
G01X39719Y-4135D01*
G01X39708Y-4147D01*
G01X39693Y-4166D01*
G01X39680Y-4176D01*
G01X39674Y-4181D01*
G01X39668Y-4187D01*
G01X39662Y-4195D01*
G01X39658Y-4203D01*
G01X39654Y-4212D01*
G01Y-4219D01*
G01X39657Y-4225D01*
G01X39662Y-4230D01*
G01X39675Y-4241D01*
G01X39690Y-4260D01*
G01X39701Y-4271D01*
G01X39720Y-4286D01*
G01X39735Y-4305D01*
G01X39746Y-4317D01*
G01X39765Y-4332D01*
G01X39781Y-4351D01*
G01X39792Y-4362D01*
G01X39811Y-4377D01*
G01X39826Y-4396D01*
G01X39837Y-4407D01*
G01X39856Y-4423D01*
G01X39871Y-4442D01*
G01X39883Y-4453D01*
G01X39902Y-4468D01*
G01X39912Y-4480D01*
G01X39917Y-4487D01*
G01X39925Y-4494D01*
G01X39933Y-4501D01*
G01X39954Y-4515D01*
G01X39967Y-4525D01*
G01X39973Y-4532D01*
G01X39981Y-4542D01*
G01X39992Y-4553D01*
G01X40011Y-4568D01*
G01X40026Y-4587D01*
G01X40037Y-4598D01*
G01X40056Y-4613D01*
G01X40071Y-4632D01*
G01X40083Y-4644D01*
G01X40102Y-4659D01*
G01X40117Y-4678D01*
G01X40128Y-4689D01*
G01X40147Y-4704D01*
G01X40162Y-4723D01*
G01X40174Y-4735D01*
G01X40193Y-4750D01*
G01X40203Y-4762D01*
G01X40217Y-4780D01*
G01X40221Y-4785D01*
G01X40223Y-4794D01*
G01X40227Y-4850D01*
G01X40230Y-5217D01*
G37*
G36*
G01X37044Y-6967D02*
G01X37049Y-6971D01*
G01X37060Y-6974D01*
G01X37076Y-6975D01*
G01X37098Y-6976D01*
G01X37148D01*
G01X37139Y-6953D01*
G01X37133Y-6937D01*
G01X37123Y-6920D01*
G01X37112Y-6901D01*
G01X37096Y-6865D01*
G01X37087Y-6848D01*
G01X37076Y-6828D01*
G01X37053Y-6776D01*
G01X37037Y-6742D01*
G01X37030Y-6726D01*
G01X37012Y-6680D01*
G01X37003Y-6655D01*
G01X36994Y-6626D01*
G01X36983Y-6583D01*
G01X36962Y-6480D01*
G01X36958Y-6453D01*
G01X36953Y-6417D01*
G01X36950Y-6377D01*
G01X36948Y-6315D01*
G01X36946Y-6298D01*
G01X36942Y-6282D01*
G01X36940Y-6267D01*
G01Y-6249D01*
G01X36942Y-6233D01*
G01X36945Y-6222D01*
G01X36947Y-6202D01*
G01X36949Y-6118D01*
G01X36951Y-6096D01*
G01X36955Y-6082D01*
G01X36957Y-6067D01*
G01X36959Y-6041D01*
G01X36962Y-6026D01*
G01X36964Y-6018D01*
G01X36969Y-5998D01*
G01X36974Y-5972D01*
G01X36977Y-5960D01*
G01X36981Y-5949D01*
G01X36989Y-5930D01*
G01X36993Y-5919D01*
G01X36996Y-5907D01*
G01X37001Y-5881D01*
G01X37006Y-5865D01*
G01X37010Y-5857D01*
G01X37020Y-5838D01*
G01X37028Y-5813D01*
G01X37035Y-5797D01*
G01X37047Y-5775D01*
G01X37056Y-5749D01*
G01X37062Y-5733D01*
G01X37076Y-5710D01*
G01X37092Y-5674D01*
G01X37101Y-5657D01*
G01X37112Y-5637D01*
G01X37126Y-5606D01*
G01X37133Y-5594D01*
G01X37137Y-5587D01*
G01X37139Y-5585D01*
G01X37140Y-5577D01*
G01X37126Y-5571D01*
G01X37102Y-5568D01*
G01X37069Y-5567D01*
G01X37063Y-5568D01*
G01X37058Y-5569D01*
G01X37053Y-5571D01*
G01X37049Y-5574D01*
G01X37045Y-5577D01*
G01X37042Y-5581D01*
G01X37030Y-5602D01*
G01X36998Y-5653D01*
G01X36944Y-5744D01*
G01X36934Y-5761D01*
G01X36926Y-5778D01*
G01X36914Y-5805D01*
G01X36905Y-5822D01*
G01X36894Y-5842D01*
G01X36871Y-5894D01*
G01X36862Y-5913D01*
G01X36856Y-5933D01*
G01X36847Y-5966D01*
G01X36839Y-5985D01*
G01X36835Y-5994D01*
G01X36833Y-6003D01*
G01X36831Y-6012D01*
G01X36830Y-6030D01*
G01X36828Y-6046D01*
G01X36821Y-6069D01*
G01X36817Y-6090D01*
G01X36814Y-6106D01*
G01X36812Y-6130D01*
G01X36811Y-6148D01*
G01X36808Y-6162D01*
G01X36806Y-6167D01*
G01X36805Y-6187D01*
G01X36803Y-6290D01*
G01X36805Y-6389D01*
G01X36806Y-6412D01*
G01X36807Y-6416D01*
G01X36810Y-6425D01*
G01X36814Y-6450D01*
G01X36821Y-6498D01*
G01X36826Y-6517D01*
G01X36839Y-6558D01*
G01X36847Y-6584D01*
G01X36856Y-6619D01*
G01X36862Y-6639D01*
G01X36878Y-6673D01*
G01X36885Y-6690D01*
G01X36903Y-6735D01*
G01X36912Y-6754D01*
G01X36917Y-6761D01*
G01X36926Y-6772D01*
G01X36935Y-6786D01*
G01X36948Y-6811D01*
G01X37026Y-6935D01*
G01X37044Y-6967D01*
G37*
G36*
G01X42162Y-4767D02*
G01X42163Y-4771D01*
G01X42171Y-4774D01*
G01X42186Y-4775D01*
G01X42208Y-4776D01*
G01X42225Y-4775D01*
G01X42243Y-4773D01*
G01X42249Y-4772D01*
G01X42255Y-4769D01*
G01X42257Y-4768D01*
G01X42259Y-4767D01*
G01X42260Y-4765D01*
G01X42261Y-4764D01*
G01X42265Y-4755D01*
G01X42271Y-4742D01*
G01X42344Y-4626D01*
G01X42353Y-4609D01*
G01X42362Y-4592D01*
G01X42371Y-4569D01*
G01X42377Y-4559D01*
G01X42383Y-4549D01*
G01X42396Y-4530D01*
G01X42403Y-4517D01*
G01X42406Y-4508D01*
G01X42413Y-4486D01*
G01X42421Y-4471D01*
G01X42425Y-4464D01*
G01X42429Y-4455D01*
G01X42432Y-4446D01*
G01X42437Y-4424D01*
G01X42442Y-4410D01*
G01X42446Y-4402D01*
G01X42453Y-4391D01*
G01X42456Y-4380D01*
G01X42460Y-4368D01*
G01X42467Y-4326D01*
G01X42476Y-4292D01*
G01X42480Y-4271D01*
G01X42483Y-4255D01*
G01X42485Y-4230D01*
G01X42486Y-4213D01*
G01X42489Y-4199D01*
G01X42491Y-4190D01*
G01X42493Y-4176D01*
G01X42494Y-4147D01*
G01X42495Y-4098D01*
G01X42497Y-4078D01*
G01X42498Y-4071D01*
G01X42500Y-4065D01*
G01X42501Y-4058D01*
G01X42500Y-4051D01*
G01X42496Y-4035D01*
G01X42495Y-4021D01*
G01X42494Y-3992D01*
G01X42493Y-3944D01*
G01X42491Y-3923D01*
G01X42487Y-3909D01*
G01X42483Y-3884D01*
G01X42476Y-3836D01*
G01X42471Y-3817D01*
G01X42439Y-3721D01*
G01X42430Y-3696D01*
G01X42410Y-3651D01*
G01X42396Y-3619D01*
G01X42387Y-3602D01*
G01X42362Y-3562D01*
G01X42308Y-3471D01*
G01X42262Y-3399D01*
G01X42258Y-3393D01*
G01X42253Y-3389D01*
G01X42247Y-3385D01*
G01X42240Y-3382D01*
G01X42233Y-3379D01*
G01X42214Y-3376D01*
G01X42203D01*
G01X42158D01*
G01X42165Y-3403D01*
G01X42171Y-3419D01*
G01X42185Y-3442D01*
G01X42201Y-3478D01*
G01X42210Y-3495D01*
G01X42221Y-3515D01*
G01X42230Y-3535D01*
G01X42248Y-3580D01*
G01X42255Y-3596D01*
G01X42264Y-3613D01*
G01X42271Y-3624D01*
G01X42275Y-3633D01*
G01X42278Y-3642D01*
G01X42283Y-3664D01*
G01X42290Y-3685D01*
G01X42302Y-3713D01*
G01X42308Y-3735D01*
G01X42312Y-3755D01*
G01X42321Y-3787D01*
G01X42326Y-3808D01*
G01X42335Y-3853D01*
G01X42339Y-3880D01*
G01X42344Y-3917D01*
G01X42348Y-3962D01*
G01X42350Y-3993D01*
G01X42353Y-4008D01*
G01X42355Y-4019D01*
G01X42356Y-4037D01*
G01X42358Y-4099D01*
G01X42356Y-4160D01*
G01X42354Y-4184D01*
G01X42353Y-4189D01*
G01X42351Y-4197D01*
G01X42350Y-4208D01*
G01X42348Y-4256D01*
G01X42346Y-4273D01*
G01X42342Y-4289D01*
G01X42337Y-4314D01*
G01X42330Y-4361D01*
G01X42326Y-4380D01*
G01X42294Y-4476D01*
G01X42278Y-4520D01*
G01X42269Y-4542D01*
G01X42260Y-4559D01*
G01X42253Y-4569D01*
G01X42246Y-4585D01*
G01X42238Y-4611D01*
G01X42230Y-4626D01*
G01X42221Y-4642D01*
G01X42205Y-4678D01*
G01X42196Y-4695D01*
G01X42185Y-4715D01*
G01X42176Y-4735D01*
G01X42162Y-4767D01*
G37*
G36*
G01X42735Y-3817D02*
G01X42739Y-3840D01*
G01X42967D01*
G01Y-3803D01*
G01Y-3779D01*
G01X42969Y-3761D01*
G01X42971Y-3753D01*
G01X42985Y-3717D01*
G01X42990Y-3706D01*
G01X42995Y-3698D01*
G01X43001Y-3690D01*
G01X43008Y-3685D01*
G01X43020Y-3675D01*
G01X43030Y-3662D01*
G01X43036Y-3655D01*
G01X43043Y-3649D01*
G01X43052Y-3642D01*
G01X43089Y-3618D01*
G01X43117Y-3598D01*
G01X43130Y-3590D01*
G01X43153Y-3578D01*
G01X43167Y-3569D01*
G01X43208Y-3540D01*
G01X43233Y-3521D01*
G01X43254Y-3503D01*
G01X43263Y-3495D01*
G01X43273Y-3484D01*
G01X43285Y-3468D01*
G01X43294Y-3458D01*
G01X43298Y-3452D01*
G01X43308Y-3436D01*
G01X43319Y-3410D01*
G01X43328Y-3393D01*
G01X43332Y-3386D01*
G01X43336Y-3375D01*
G01X43340Y-3362D01*
G01X43344Y-3335D01*
G01X43353Y-3253D01*
G01X43355Y-3231D01*
G01Y-3214D01*
G01X43354Y-3208D01*
G01Y-3204D01*
G01X43353Y-3203D01*
G01X43350Y-3201D01*
G01X43344Y-3199D01*
G01X43334Y-3198D01*
G01X43305Y-3195D01*
G01X43235Y-3194D01*
G01X43121D01*
G01Y-3240D01*
G01Y-3269D01*
G01X43119Y-3284D01*
G01X43117Y-3297D01*
G01X43103Y-3335D01*
G01X43098Y-3346D01*
G01X43093Y-3354D01*
G01X43087Y-3361D01*
G01X43080Y-3367D01*
G01X43068Y-3377D01*
G01X43058Y-3390D01*
G01X43052Y-3396D01*
G01X43045Y-3403D01*
G01X43036Y-3410D01*
G01X43011Y-3426D01*
G01X42996Y-3437D01*
G01X42989Y-3444D01*
G01X42975Y-3453D01*
G01X42953Y-3465D01*
G01X42939Y-3474D01*
G01X42911Y-3494D01*
G01X42879Y-3515D01*
G01X42866Y-3525D01*
G01X42860Y-3532D01*
G01X42853Y-3542D01*
G01X42841Y-3553D01*
G01X42822Y-3568D01*
G01X42807Y-3587D01*
G01X42796Y-3598D01*
G01X42783Y-3608D01*
G01X42778Y-3615D01*
G01X42774Y-3622D01*
G01X42769Y-3640D01*
G01X42762Y-3658D01*
G01X42753Y-3677D01*
G01X42750Y-3691D01*
G01X42746Y-3707D01*
G01X42739Y-3760D01*
G01X42735Y-3779D01*
G01X42733Y-3788D01*
G01Y-3796D01*
G01Y-3806D01*
G01X42735Y-3817D01*
G37*
G36*
G01X38708Y-4767D02*
G01X38712Y-4769D01*
G01X38717Y-4771D01*
G01X38733Y-4774D01*
G01X38754Y-4775D01*
G01X38780Y-4776D01*
G01X38823Y-4775D01*
G01X38846Y-4773D01*
G01X38853Y-4771D01*
G01X38869Y-4765D01*
G01X38889Y-4753D01*
G01X38906Y-4742D01*
G01X38935Y-4721D01*
G01X38949Y-4708D01*
G01X38956Y-4700D01*
G01X38961Y-4693D01*
G01X38968Y-4676D01*
G01X38980Y-4655D01*
G01X38985Y-4645D01*
G01X38994Y-4621D01*
G01X38996Y-4614D01*
G01X38999Y-4599D01*
G01X39002Y-4582D01*
G01X39003Y-4563D01*
G01Y-4553D01*
G01X39002Y-4534D01*
G01X39000Y-4514D01*
G01X38997Y-4502D01*
G01X38983Y-4470D01*
G01X38971Y-4443D01*
G01X38965Y-4434D01*
G01X38960Y-4427D01*
G01X38953Y-4421D01*
G01X38940Y-4411D01*
G01X38930Y-4399D01*
G01X38925Y-4392D01*
G01X38919Y-4386D01*
G01X38912Y-4381D01*
G01X38903Y-4376D01*
G01X38862Y-4356D01*
G01X38851Y-4352D01*
G01X38839Y-4348D01*
G01X38817Y-4344D01*
G01X38787Y-4341D01*
G01X38751Y-4340D01*
G01X38733Y-4342D01*
G01X38726Y-4344D01*
G01X38689Y-4358D01*
G01X38670Y-4367D01*
G01X38663Y-4371D01*
G01X38653Y-4380D01*
G01X38635Y-4394D01*
G01X38628Y-4399D01*
G01X38621Y-4407D01*
G01X38614Y-4415D01*
G01X38608Y-4426D01*
G01X38585Y-4462D01*
G01X38581Y-4470D01*
G01X38577Y-4480D01*
G01X38574Y-4493D01*
G01X38567Y-4535D01*
G01X38562Y-4553D01*
G01X38560Y-4561D01*
G01Y-4569D01*
G01Y-4579D01*
G01X38562Y-4590D01*
G01X38571Y-4630D01*
G01X38577Y-4648D01*
G01X38585Y-4662D01*
G01X38603Y-4690D01*
G01X38613Y-4702D01*
G01X38632Y-4717D01*
G01X38644Y-4728D01*
G01X38654Y-4741D01*
G01X38660Y-4746D01*
G01X38667Y-4750D01*
G01X38685Y-4756D01*
G01X38700Y-4763D01*
G01X38708Y-4767D01*
G37*
G36*
G01X41439Y-3726D02*
G01X41439Y-3894D01*
G01X41776D01*
G01Y-3567D01*
G01X41753Y-3562D01*
G01X41745Y-3561D01*
G01X41700Y-3559D01*
G01X41585Y-3558D01*
G01X41439D01*
G01Y-3726D01*
G37*
G04 //text: NO Bug*
G54D13*
G01X11278Y658D02*
G01X11278Y-521D01*
G01X11278Y658D02*
G01X12062Y-521D01*
G01X12062Y658D02*
G01X12062Y-521D01*
G01X12873Y658D02*
G01X12761Y602D01*
G01X12649Y490D01*
G01X12593Y376D01*
G01X12537Y208D01*
G01Y-71D01*
G01X12593Y-241D01*
G01X12649Y-353D01*
G01X12761Y-465D01*
G01X12873Y-521D01*
G01X13099D01*
G01X13211Y-465D01*
G01X13322Y-353D01*
G01X13378Y-241D01*
G01X13434Y-71D01*
G01Y208D01*
G01X13378Y376D01*
G01X13322Y490D01*
G01X13211Y602D01*
G01X13099Y658D01*
G01X12873D01*
G01X15166Y658D02*
G01X15166Y-521D01*
G01X15166Y658D02*
G01X15672Y658D01*
G01X15839Y602D01*
G01X15895Y546D01*
G01X15951Y434D01*
G01Y320D01*
G01X15895Y208D01*
G01X15839Y152D01*
G01X15672Y97D01*
G01X15166Y97D02*
G01X15672Y97D01*
G01X15839Y41D01*
G01X15895Y-15D01*
G01X15951Y-130D01*
G01Y-297D01*
G01X15895Y-409D01*
G01X15839Y-465D01*
G01X15672Y-521D01*
G01X15166D01*
G01X16424Y264D02*
G01X16424Y-297D01*
G01X16480Y-465D01*
G01X16594Y-521D01*
G01X16761D01*
G01X16873Y-465D01*
G01X17041Y-297D01*
G01X17041Y264D02*
G01X17041Y-521D01*
G01X18189Y264D02*
G01X18189Y-632D01*
G01X18133Y-803D01*
G01X18077Y-859D01*
G01X17963Y-914D01*
G01X17795D01*
G01X17683Y-859D01*
G01X18189Y97D02*
G01X18077Y208D01*
G01X17963Y264D01*
G01X17795D01*
G01X17683Y208D01*
G01X17572Y97D01*
G01X17513Y-71D01*
G01Y-185D01*
G01X17572Y-353D01*
G01X17683Y-465D01*
G01X17795Y-521D01*
G01X17963D01*
G01X18077Y-465D01*
G01X18189Y-353D01*
G04 //text: (ㅅ˘ㅂ˘)*
G36*
G01X22279Y949D02*
G01X22282Y928D01*
G01X22285Y909D01*
G01X22288Y897D01*
G01X22297Y870D01*
G01X22308Y840D01*
G01X22314Y826D01*
G01X22320Y815D01*
G01X22337Y788D01*
G01X22341Y781D01*
G01X22348Y773D01*
G01X22353Y769D01*
G01X22359Y764D01*
G01X22367Y756D01*
G01X22373Y748D01*
G01X22377Y744D01*
G01X22380Y742D01*
G01X22390Y738D01*
G01X22393Y736D01*
G01X22397Y734D01*
G01X22404Y727D01*
G01X22414Y721D01*
G01X22442Y709D01*
G01X22459Y702D01*
G01X22467Y700D01*
G01X22500Y694D01*
G01X22517Y690D01*
G01X22529Y688D01*
G01X22546D01*
G01X22551Y687D01*
G01X22553Y686D01*
G01X22555Y685D01*
G01X22557Y684D01*
G01X22561Y683D01*
G01X22576Y682D01*
G01X22592Y683D01*
G01X22601Y684D01*
G01X22609Y686D01*
G01X22615Y687D01*
G01X22648Y688D01*
G01X22658Y690D01*
G01X22694Y700D01*
G01X22708Y705D01*
G01X22719Y709D01*
G01X22734Y718D01*
G01X22752Y728D01*
G01X22758Y732D01*
G01X22773Y743D01*
G01X22780Y748D01*
G01X22786Y754D01*
G01X22792Y761D01*
G01X22798Y768D01*
G01X22805Y776D01*
G01X22813Y782D01*
G01X22817Y786D01*
G01X22819Y790D01*
G01X22823Y799D01*
G01X22827Y808D01*
G01X22837Y823D01*
G01X22843Y837D01*
G01X22855Y867D01*
G01X22857Y875D01*
G01X22860Y883D01*
G01X22862Y892D01*
G01X22867Y916D01*
G01X22870Y928D01*
G01X22871Y932D01*
G01Y939D01*
G01X22870Y943D01*
G01X22866Y945D01*
G01X22857Y947D01*
G01X22843Y948D01*
G01X22824Y949D01*
G01X22782D01*
G01X22779Y928D01*
G01X22777Y917D01*
G01X22774Y906D01*
G01X22771Y900D01*
G01X22764Y887D01*
G01X22754Y870D01*
G01X22750Y863D01*
G01X22740Y849D01*
G01X22734Y842D01*
G01X22728Y836D01*
G01X22721Y829D01*
G01X22691Y808D01*
G01X22682Y803D01*
G01X22676Y801D01*
G01X22656Y796D01*
G01X22641Y791D01*
G01X22627Y788D01*
G01X22617Y786D01*
G01X22600Y785D01*
G01X22589Y784D01*
G01X22579Y782D01*
G01X22575Y781D01*
G01X22565D01*
G01X22556Y783D01*
G01X22542Y785D01*
G01X22518Y786D01*
G01X22508Y787D01*
G01X22506Y788D01*
G01X22482Y797D01*
G01X22471Y802D01*
G01X22460Y808D01*
G01X22439Y821D01*
G01X22431Y828D01*
G01X22425Y837D01*
G01X22416Y848D01*
G01X22409Y855D01*
G01X22403Y866D01*
G01X22396Y883D01*
G01X22390Y895D01*
G01X22385Y902D01*
G01X22382Y909D01*
G01X22380Y916D01*
G01X22378Y929D01*
G01X22377Y933D01*
G01X22375Y936D01*
G01X22373Y939D01*
G01X22370Y941D01*
G01X22368Y943D01*
G01X22364Y945D01*
G01X22361Y946D01*
G01X22352Y947D01*
G01X22335Y948D01*
G01X22312Y949D01*
G37*
G36*
G01X25012Y949D02*
G01X25012Y927D01*
G01X25014Y914D01*
G01X25018Y899D01*
G01X25023Y878D01*
G01X25026Y869D01*
G01X25029Y863D01*
G01X25033Y856D01*
G01X25038Y845D01*
G01X25043Y828D01*
G01X25048Y818D01*
G01X25064Y794D01*
G01X25068Y787D01*
G01X25075Y779D01*
G01X25079Y775D01*
G01X25087Y770D01*
G01X25094Y762D01*
G01X25101Y753D01*
G01X25105Y749D01*
G01X25111Y744D01*
G01X25128Y733D01*
G01X25138Y726D01*
G01X25143Y722D01*
G01X25147Y719D01*
G01X25152Y717D01*
G01X25169Y712D01*
G01X25179Y706D01*
G01X25184Y704D01*
G01X25191Y701D01*
G01X25199Y699D01*
G01X25227Y694D01*
G01X25245Y690D01*
G01X25258Y688D01*
G01X25281Y687D01*
G01X25286Y686D01*
G01X25287D01*
G01X25288Y685D01*
G01X25290Y684D01*
G01X25295Y683D01*
G01X25309Y682D01*
G01X25325Y683D01*
G01X25334Y684D01*
G01X25342Y686D01*
G01X25355Y688D01*
G01X25380Y689D01*
G01X25389Y690D01*
G01X25402Y694D01*
G01X25422Y699D01*
G01X25432Y702D01*
G01X25437Y705D01*
G01X25444Y709D01*
G01X25455Y714D01*
G01X25467Y717D01*
G01X25471Y719D01*
G01X25476Y722D01*
G01X25482Y727D01*
G01X25487Y732D01*
G01X25507Y744D01*
G01X25515Y751D01*
G01X25520Y755D01*
G01X25531Y770D01*
G01X25537Y777D01*
G01X25540Y781D01*
G01X25549Y794D01*
G01X25570Y829D01*
G01X25576Y843D01*
G01X25586Y872D01*
G01X25592Y890D01*
G01X25596Y905D01*
G01X25600Y929D01*
G01X25602Y939D01*
G01X25603Y943D01*
G01X25602Y945D01*
G01X25594Y947D01*
G01X25580Y948D01*
G01X25561Y949D01*
G01X25515D01*
G01X25509Y928D01*
G01X25502Y903D01*
G01X25497Y891D01*
G01X25494Y884D01*
G01X25490Y877D01*
G01X25486Y870D01*
G01X25467Y843D01*
G01X25463Y838D01*
G01X25458Y834D01*
G01X25453Y829D01*
G01X25446Y824D01*
G01X25421Y809D01*
G01X25410Y803D01*
G01X25394Y797D01*
G01X25377Y792D01*
G01X25361Y788D01*
G01X25349Y786D01*
G01X25338Y785D01*
G01X25317Y784D01*
G01X25309Y783D01*
G01X25301Y781D01*
G01X25293D01*
G01X25283Y783D01*
G01X25271Y785D01*
G01X25250Y786D01*
G01X25242Y787D01*
G01X25212Y797D01*
G01X25204Y800D01*
G01X25194Y805D01*
G01X25190Y808D01*
G01X25185Y812D01*
G01X25173Y821D01*
G01X25165Y828D01*
G01X25155Y841D01*
G01X25147Y848D01*
G01X25138Y855D01*
G01X25135Y859D01*
G01X25132Y863D01*
G01X25127Y877D01*
G01X25119Y895D01*
G01X25114Y907D01*
G01X25106Y931D01*
G01X25102Y938D01*
G01X25100Y941D01*
G01X25096Y945D01*
G01X25094Y946D01*
G01X25088Y947D01*
G01X25078Y948D01*
G01X25048Y949D01*
G37*
G36*
G01X20091Y815D02*
G01X20082Y793D01*
G01X20077Y785D01*
G01X20075Y781D01*
G01X20066Y771D01*
G01X20046Y740D01*
G01X20035Y724D01*
G01X20031Y718D01*
G01X20027Y711D01*
G01X20020Y693D01*
G01X20014Y681D01*
G01X19997Y655D01*
G01X19991Y644D01*
G01X19985Y632D01*
G01X19978Y614D01*
G01X19972Y602D01*
G01X19964Y590D01*
G01X19958Y576D01*
G01X19946Y546D01*
G01X19941Y535D01*
G01X19935Y524D01*
G01X19930Y516D01*
G01X19927Y510D01*
G01X19921Y494D01*
G01X19911Y465D01*
G01X19897Y431D01*
G01X19892Y416D01*
G01X19884Y387D01*
G01X19882Y382D01*
G01X19867Y343D01*
G01X19859Y314D01*
G01X19853Y294D01*
G01X19847Y272D01*
G01X19844Y262D01*
G01X19841Y248D01*
G01X19836Y224D01*
G01X19832Y207D01*
G01X19829Y194D01*
G01X19824Y169D01*
G01X19820Y153D01*
G01X19819Y142D01*
G01X19818Y125D01*
G01X19814Y111D01*
G01X19813Y100D01*
G01X19811Y83D01*
G01X19809Y73D01*
G01X19808Y68D01*
G01X19807Y61D01*
G01X19806Y28D01*
G01X19804Y18D01*
G01X19803Y12D01*
G01X19802Y7D01*
G01X19801Y-2D01*
G01X19800Y-27D01*
G01Y-47D01*
G01X19799Y-56D01*
G01X19797Y-65D01*
G01X19796Y-70D01*
G01X19795Y-80D01*
G01X19794Y-119D01*
G01Y-133D01*
G01X19795Y-180D01*
G01X19796Y-197D01*
G01X19797Y-200D01*
G01X19798Y-205D01*
G01X19799Y-213D01*
G01X19800Y-236D01*
G01X19801Y-254D01*
G01X19802Y-267D01*
G01X19803Y-272D01*
G01X19804Y-278D01*
G01X19805Y-285D01*
G01X19806Y-322D01*
G01X19808Y-334D01*
G01X19811Y-345D01*
G01X19814Y-363D01*
G01X19818Y-392D01*
G01X19820Y-403D01*
G01X19822Y-414D01*
G01X19827Y-430D01*
G01X19829Y-438D01*
G01X19830Y-447D01*
G01X19831Y-462D01*
G01X19832Y-469D01*
G01X19834Y-475D01*
G01X19838Y-485D01*
G01X19840Y-491D01*
G01X19842Y-497D01*
G01Y-503D01*
G01X19843Y-512D01*
G01X19844Y-518D01*
G01X19846Y-524D01*
G01X19852Y-536D01*
G01X19854Y-544D01*
G01X19856Y-552D01*
G01X19861Y-576D01*
G01X19864Y-588D01*
G01X19881Y-634D01*
G01X19888Y-654D01*
G01X19897Y-679D01*
G01X19933Y-770D01*
G01X19938Y-780D01*
G01X19944Y-791D01*
G01X19949Y-799D01*
G01X19952Y-805D01*
G01X19962Y-833D01*
G01X19968Y-846D01*
G01X19976Y-858D01*
G01X19991Y-886D01*
G01X20003Y-907D01*
G01X20009Y-918D01*
G01X20013Y-930D01*
G01X20024Y-949D01*
G01X20036Y-969D01*
G01X20041Y-978D01*
G01X20052Y-994D01*
G01X20057Y-1003D01*
G01X20067Y-1020D01*
G01X20072Y-1026D01*
G01X20076Y-1030D01*
G01X20082Y-1039D01*
G01X20085Y-1045D01*
G01X20087Y-1048D01*
G01X20092Y-1051D01*
G01X20098Y-1053D01*
G01X20106Y-1054D01*
G01X20116Y-1056D01*
G01X20142Y-1057D01*
G01X20158D01*
G01X20190D01*
G01X20203Y-1056D01*
G01X20215Y-1054D01*
G01X20220Y-1052D01*
G01X20222D01*
G01X20223Y-1051D01*
G01X20224Y-1050D01*
G01Y-1049D01*
G01Y-1048D01*
G01Y-1044D01*
G01X20223Y-1039D01*
G01X20221Y-1035D01*
G01X20218Y-1030D01*
G01X20203Y-1006D01*
G01X20191Y-985D01*
G01X20182Y-967D01*
G01X20173Y-952D01*
G01X20170Y-947D01*
G01X20159Y-923D01*
G01X20153Y-911D01*
G01X20146Y-898D01*
G01X20135Y-874D01*
G01X20129Y-863D01*
G01X20124Y-855D01*
G01X20120Y-845D01*
G01X20115Y-828D01*
G01X20106Y-813D01*
G01X20103Y-807D01*
G01X20091Y-774D01*
G01X20082Y-754D01*
G01X20077Y-742D01*
G01X20069Y-712D01*
G01X20064Y-701D01*
G01X20055Y-681D01*
G01X20050Y-659D01*
G01X20045Y-645D01*
G01X20037Y-626D01*
G01X20033Y-612D01*
G01X20030Y-598D01*
G01X20018Y-560D01*
G01X20013Y-543D01*
G01X20007Y-515D01*
G01X20000Y-494D01*
G01X19997Y-485D01*
G01X19995Y-477D01*
G01X19994Y-466D01*
G01Y-457D01*
G01X19991Y-445D01*
G01X19987Y-436D01*
G01X19984Y-429D01*
G01X19982Y-416D01*
G01Y-392D01*
G01X19980Y-381D01*
G01X19976Y-365D01*
G01X19973Y-351D01*
G01X19972Y-343D01*
G01X19970Y-335D01*
G01Y-315D01*
G01X19969Y-301D01*
G01X19968Y-290D01*
G01X19965Y-279D01*
G01X19962Y-264D01*
G01X19960Y-247D01*
G01X19958Y-197D01*
G01Y-106D01*
G01X19959Y16D01*
G01X19960Y28D01*
G01X19962Y36D01*
G01X19965Y51D01*
G01X19967Y61D01*
G01X19969Y81D01*
G01X19970Y109D01*
G01X19972Y122D01*
G01X19976Y138D01*
G01X19979Y152D01*
G01X19985Y185D01*
G01X19988Y201D01*
G01X19992Y217D01*
G01X19995Y231D01*
G01X20000Y256D01*
G01X20006Y277D01*
G01X20012Y305D01*
G01X20024Y343D01*
G01X20037Y382D01*
G01X20046Y412D01*
G01X20060Y451D01*
G01X20065Y470D01*
G01X20070Y482D01*
G01X20077Y498D01*
G01X20085Y519D01*
G01X20091Y535D01*
G01X20102Y559D01*
G01X20109Y579D01*
G01X20115Y596D01*
G01X20129Y626D01*
G01X20138Y647D01*
G01X20144Y658D01*
G01X20152Y671D01*
G01X20167Y699D01*
G01X20185Y731D01*
G01X20194Y748D01*
G01X20206Y768D01*
G01X20218Y790D01*
G01X20224Y800D01*
G01X20226Y804D01*
G01X20225Y808D01*
G01X20221Y810D01*
G01X20215Y812D01*
G01X20211Y813D01*
G01X20199Y814D01*
G01X20146Y815D01*
G37*
G36*
G01X25994Y815D02*
G01X25970Y815D01*
G01X25960Y814D01*
G01X25947Y812D01*
G01X25941Y810D01*
G01X25936Y808D01*
G01X25934Y806D01*
G01Y805D01*
G01X25933Y804D01*
G01Y803D01*
G01X25934Y798D01*
G01X25935Y792D01*
G01X25937Y787D01*
G01X25939Y782D01*
G01X25955Y758D01*
G01X25966Y737D01*
G01X25979Y714D01*
G01X25991Y693D01*
G01X25996Y681D01*
G01X26001Y669D01*
G01X26015Y644D01*
G01X26020Y633D01*
G01X26025Y621D01*
G01X26035Y599D01*
G01X26047Y567D01*
G01X26053Y554D01*
G01X26057Y547D01*
G01X26062Y536D01*
G01X26068Y519D01*
G01X26076Y500D01*
G01X26080Y488D01*
G01X26089Y458D01*
G01X26094Y446D01*
G01X26100Y433D01*
G01X26105Y421D01*
G01X26109Y406D01*
G01X26118Y376D01*
G01X26121Y365D01*
G01X26126Y344D01*
G01X26131Y331D01*
G01X26138Y314D01*
G01X26140Y306D01*
G01X26146Y273D01*
G01X26149Y261D01*
G01X26158Y231D01*
G01X26161Y216D01*
G01X26163Y208D01*
G01X26164Y194D01*
G01X26165Y188D01*
G01X26166Y182D01*
G01X26171Y170D01*
G01X26174Y162D01*
G01X26176Y148D01*
G01Y120D01*
G01X26178Y109D01*
G01X26182Y92D01*
G01X26185Y79D01*
G01X26186Y71D01*
G01X26187Y62D01*
G01X26188Y43D01*
G01Y28D01*
G01X26190Y18D01*
G01X26192Y7D01*
G01X26194Y-7D01*
G01X26195Y-31D01*
G01X26197Y-40D01*
G01X26198Y-46D01*
G01X26199Y-59D01*
G01X26200Y-133D01*
G01X26199Y-207D01*
G01X26198Y-221D01*
G01X26196Y-229D01*
G01X26195Y-241D01*
G01X26193Y-262D01*
G01X26192Y-270D01*
G01X26190Y-278D01*
G01X26189Y-285D01*
G01X26187Y-322D01*
G01X26186Y-334D01*
G01X26182Y-350D01*
G01X26179Y-363D01*
G01X26177Y-375D01*
G01X26176Y-386D01*
G01Y-401D01*
G01X26173Y-415D01*
G01X26169Y-424D01*
G01X26166Y-430D01*
G01X26165Y-437D01*
G01X26164Y-444D01*
G01X26163Y-462D01*
G01X26161Y-470D01*
G01X26158Y-483D01*
G01X26150Y-518D01*
G01X26146Y-533D01*
G01X26121Y-618D01*
G01X26109Y-657D01*
G01X26100Y-685D01*
G01X26086Y-723D01*
G01X26080Y-742D01*
G01X26076Y-754D01*
G01X26065Y-777D01*
G01X26052Y-809D01*
G01X26041Y-831D01*
G01X26037Y-842D01*
G01X26024Y-872D01*
G01X26020Y-883D01*
G01X26014Y-895D01*
G01X26006Y-907D01*
G01X25995Y-932D01*
G01X25990Y-943D01*
G01X25982Y-955D01*
G01X25967Y-983D01*
G01X25961Y-994D01*
G01X25936Y-1034D01*
G01X25931Y-1046D01*
G01X25930Y-1048D01*
G01X25933Y-1052D01*
G01X25945Y-1055D01*
G01X25965Y-1057D01*
G01X25994D01*
G01X26061D01*
G01X26070Y-1042D01*
G01X26081Y-1025D01*
G01X26097Y-1002D01*
G01X26106Y-988D01*
G01X26124Y-958D01*
G01X26131Y-946D01*
G01X26136Y-935D01*
G01X26143Y-919D01*
G01X26146Y-913D01*
G01X26150Y-906D01*
G01X26163Y-888D01*
G01X26166Y-881D01*
G01X26171Y-868D01*
G01X26185Y-844D01*
G01X26190Y-833D01*
G01X26195Y-820D01*
G01X26208Y-792D01*
G01X26217Y-771D01*
G01X26223Y-759D01*
G01X26227Y-752D01*
G01X26232Y-742D01*
G01X26237Y-724D01*
G01X26247Y-702D01*
G01X26254Y-682D01*
G01X26261Y-665D01*
G01X26270Y-645D01*
G01X26272Y-638D01*
G01X26274Y-630D01*
G01X26278Y-613D01*
G01X26281Y-602D01*
G01X26283Y-596D01*
G01X26287Y-589D01*
G01X26290Y-584D01*
G01X26291Y-578D01*
G01X26292Y-566D01*
G01X26293Y-561D01*
G01X26295Y-556D01*
G01X26300Y-547D01*
G01X26302Y-542D01*
G01X26303Y-536D01*
G01X26304Y-524D01*
G01X26305Y-519D01*
G01X26307Y-514D01*
G01X26312Y-504D01*
G01X26314Y-498D01*
G01X26315Y-492D01*
G01Y-478D01*
G01X26317Y-465D01*
G01X26322Y-450D01*
G01X26325Y-436D01*
G01X26331Y-406D01*
G01X26334Y-392D01*
G01X26337Y-382D01*
G01X26338Y-376D01*
G01X26339Y-369D01*
G01X26340Y-337D01*
G01X26341Y-326D01*
G01X26345Y-310D01*
G01X26348Y-297D01*
G01X26350Y-288D01*
G01X26351Y-270D01*
G01X26353Y-218D01*
G01X26354Y-204D01*
G01X26355Y-200D01*
G01X26356Y-194D01*
G01X26357Y-186D01*
G01X26358Y-164D01*
G01Y-145D01*
G01X26360Y-133D01*
G01X26361Y-127D01*
G01X26362Y-122D01*
G01Y-113D01*
G01X26360Y-103D01*
G01X26359Y-94D01*
G01X26358Y-70D01*
G01X26357Y-50D01*
G01Y-40D01*
G01X26355Y-31D01*
G01X26354Y-27D01*
G01X26353Y-13D01*
G01X26351Y47D01*
G01X26349Y62D01*
G01X26347Y72D01*
G01X26344Y87D01*
G01X26342Y97D01*
G01X26340Y117D01*
G01X26339Y137D01*
G01Y144D01*
G01X26337Y151D01*
G01X26335Y158D01*
G01X26331Y167D01*
G01X26329Y174D01*
G01X26328Y181D01*
G01X26325Y206D01*
G01X26323Y212D01*
G01X26318Y222D01*
G01X26317Y229D01*
G01X26315Y241D01*
G01Y254D01*
G01X26314Y262D01*
G01X26311Y271D01*
G01X26306Y278D01*
G01X26304Y284D01*
G01X26302Y292D01*
G01X26297Y316D01*
G01X26285Y355D01*
G01X26278Y378D01*
G01X26272Y397D01*
G01X26264Y416D01*
G01X26260Y429D01*
G01X26256Y444D01*
G01X26253Y453D01*
G01X26250Y459D01*
G01X26246Y466D01*
G01X26241Y476D01*
G01X26236Y494D01*
G01X26223Y523D01*
G01X26209Y555D01*
G01X26194Y585D01*
G01X26186Y601D01*
G01X26179Y619D01*
G01X26174Y628D01*
G01X26171Y632D01*
G01X26167Y637D01*
G01X26165Y641D01*
G01X26163Y644D01*
G01X26157Y658D01*
G01X26146Y677D01*
G01X26131Y705D01*
G01X26124Y715D01*
G01X26112Y737D01*
G01X26103Y753D01*
G01X26099Y759D01*
G01X26094Y764D01*
G01X26088Y773D01*
G01X26082Y785D01*
G01X26078Y791D01*
G01X26073Y797D01*
G01X26067Y803D01*
G01X26063Y806D01*
G01X26058Y809D01*
G01X26051Y811D01*
G01X26043Y812D01*
G01X26033Y814D01*
G01X26009Y815D01*
G37*
G36*
G01X21152Y379D02*
G01X21152Y215D01*
G01X21150Y55D01*
G01X21149Y44D01*
G01Y43D01*
G01X21147Y38D01*
G01X21144Y22D01*
G01X21141Y3D01*
G01X21139Y-7D01*
G01X21135Y-18D01*
G01X21128Y-33D01*
G01X21123Y-51D01*
G01X21118Y-63D01*
G01X21108Y-86D01*
G01X21099Y-107D01*
G01X21093Y-118D01*
G01X21076Y-145D01*
G01X21065Y-163D01*
G01X21042Y-194D01*
G01X21030Y-211D01*
G01X21019Y-225D01*
G01X21013Y-231D01*
G01X21005Y-238D01*
G01X20999Y-242D01*
G01X20991Y-250D01*
G01X20981Y-263D01*
G01X20969Y-273D01*
G01X20961Y-280D01*
G01X20951Y-293D01*
G01X20938Y-303D01*
G01X20931Y-310D01*
G01X20924Y-319D01*
G01X20920Y-323D01*
G01X20916Y-325D01*
G01X20908Y-329D01*
G01X20904Y-331D01*
G01X20900Y-333D01*
G01X20894Y-339D01*
G01X20882Y-348D01*
G01X20848Y-372D01*
G01X20804Y-400D01*
G01X20799Y-403D01*
G01X20775Y-414D01*
G01X20763Y-420D01*
G01X20750Y-427D01*
G01X20726Y-437D01*
G01X20715Y-443D01*
G01X20708Y-448D01*
G01X20697Y-453D01*
G01X20679Y-458D01*
G01X20660Y-466D01*
G01X20647Y-471D01*
G01X20633Y-474D01*
G01X20627Y-477D01*
G01X20625Y-478D01*
G01X20624Y-479D01*
G01X20622Y-480D01*
G01X20621Y-482D01*
G01X20620Y-485D01*
G01X20621Y-490D01*
G01X20622Y-496D01*
G01X20624Y-503D01*
G01X20629Y-513D01*
G01X20635Y-525D01*
G01X20643Y-537D01*
G01X20653Y-562D01*
G01X20659Y-573D01*
G01X20667Y-585D01*
G01X20673Y-597D01*
G01X20676Y-602D01*
G01X20680Y-605D01*
G01X20684Y-607D01*
G01X20688Y-606D01*
G01X20752Y-585D01*
G01X20781Y-574D01*
G01X20806Y-563D01*
G01X20829Y-553D01*
G01X20847Y-545D01*
G01X20854Y-542D01*
G01X20861Y-537D01*
G01X20873Y-529D01*
G01X20880Y-525D01*
G01X20887Y-521D01*
G01X20907Y-512D01*
G01X20912Y-509D01*
G01X20919Y-502D01*
G01X20924Y-499D01*
G01X20946Y-484D01*
G01X20956Y-477D01*
G01X20961Y-472D01*
G01X20966Y-469D01*
G01X20989Y-454D01*
G01X20999Y-447D01*
G01X21011Y-436D01*
G01X21020Y-430D01*
G01X21027Y-422D01*
G01X21037Y-409D01*
G01X21045Y-403D01*
G01X21058Y-394D01*
G01X21071Y-382D01*
G01X21080Y-375D01*
G01X21088Y-368D01*
G01X21097Y-355D01*
G01X21106Y-345D01*
G01X21116Y-333D01*
G01X21122Y-325D01*
G01X21130Y-318D01*
G01X21135Y-314D01*
G01X21139Y-310D01*
G01X21142Y-305D01*
G01X21152Y-289D01*
G01X21156Y-283D01*
G01X21161Y-278D01*
G01X21164Y-273D01*
G01X21184Y-243D01*
G01X21195Y-227D01*
G01X21199Y-220D01*
G01X21203Y-213D01*
G01X21211Y-195D01*
G01X21217Y-184D01*
G01X21224Y-173D01*
G01X21230Y-167D01*
G01X21233Y-165D01*
G01X21236Y-164D01*
G01X21239Y-166D01*
G01X21243Y-170D01*
G01X21248Y-179D01*
G01X21253Y-197D01*
G01X21255Y-201D01*
G01X21258Y-205D01*
G01X21264Y-212D01*
G01X21270Y-223D01*
G01X21276Y-237D01*
G01X21280Y-243D01*
G01X21284Y-248D01*
G01X21288Y-251D01*
G01X21292Y-255D01*
G01X21295Y-258D01*
G01X21298Y-262D01*
G01X21302Y-271D01*
G01X21306Y-277D01*
G01X21310Y-283D01*
G01X21315Y-291D01*
G01X21340Y-321D01*
G01X21346Y-328D01*
G01X21351Y-334D01*
G01X21358Y-340D01*
G01X21365Y-345D01*
G01X21369Y-350D01*
G01X21373Y-355D01*
G01X21379Y-366D01*
G01X21383Y-371D01*
G01X21388Y-375D01*
G01X21397Y-380D01*
G01X21403Y-384D01*
G01X21407Y-387D01*
G01X21411Y-392D01*
G01X21415Y-398D01*
G01X21423Y-405D01*
G01X21436Y-415D01*
G01X21446Y-424D01*
G01X21458Y-433D01*
G01X21470Y-442D01*
G01X21484Y-454D01*
G01X21522Y-482D01*
G01X21537Y-491D01*
G01X21567Y-509D01*
G01X21578Y-515D01*
G01X21589Y-521D01*
G01X21605Y-527D01*
G01X21611Y-531D01*
G01X21618Y-535D01*
G01X21631Y-544D01*
G01X21638Y-548D01*
G01X21646Y-551D01*
G01X21671Y-560D01*
G01X21691Y-569D01*
G01X21705Y-574D01*
G01X21727Y-579D01*
G01X21739Y-585D01*
G01X21746Y-587D01*
G01X21753Y-590D01*
G01X21761Y-592D01*
G01X21774Y-594D01*
G01X21778D01*
G01X21782D01*
G01X21784Y-593D01*
G01X21787Y-591D01*
G01X21789Y-590D01*
G01X21790Y-587D01*
G01X21793Y-579D01*
G01X21797Y-568D01*
G01X21806Y-553D01*
G01X21821Y-518D01*
G01X21832Y-495D01*
G01X21842Y-469D01*
G01X21821Y-466D01*
G01X21811Y-465D01*
G01X21802Y-463D01*
G01X21791Y-459D01*
G01X21778Y-453D01*
G01X21758Y-445D01*
G01X21728Y-435D01*
G01X21714Y-429D01*
G01X21702Y-423D01*
G01X21690Y-415D01*
G01X21665Y-404D01*
G01X21654Y-398D01*
G01X21628Y-382D01*
G01X21610Y-370D01*
G01X21579Y-348D01*
G01X21562Y-336D01*
G01X21535Y-315D01*
G01X21526Y-309D01*
G01X21518Y-301D01*
G01X21509Y-289D01*
G01X21496Y-278D01*
G01X21488Y-271D01*
G01X21478Y-258D01*
G01X21466Y-248D01*
G01X21458Y-240D01*
G01X21449Y-228D01*
G01X21440Y-218D01*
G01X21430Y-206D01*
G01X21418Y-189D01*
G01X21404Y-171D01*
G01X21396Y-157D01*
G01X21388Y-143D01*
G01X21379Y-128D01*
G01X21376Y-122D01*
G01X21365Y-99D01*
G01X21359Y-87D01*
G01X21355Y-79D01*
G01X21352Y-73D01*
G01X21346Y-57D01*
G01X21327Y-3D01*
G01X21325Y7D01*
G01X21322Y18D01*
G01X21319Y36D01*
G01X21312Y91D01*
G01Y98D01*
G01X21310Y150D01*
G01X21309Y246D01*
G01Y379D01*
G37*
G36*
G01X23412Y361D02*
G01X23412Y-118D01*
G01X23564D01*
G01X24351D01*
G01Y-439D01*
G01X23961D01*
G01X23574Y-437D01*
G01X23568Y-436D01*
G01X23567D01*
G01X23566Y-433D01*
G01X23565Y-412D01*
G01X23564Y-275D01*
G01Y-118D01*
G01X23412D01*
G01Y-579D01*
G01X24503D01*
G01Y361D01*
G01X24351D01*
G01Y21D01*
G01X23564D01*
G01Y361D01*
G37*
G04 //text: U1*
G54D14*
G01X18491Y-2106D02*
G01X18491Y-2570D01*
G01X18522Y-2662D01*
G01X18585Y-2725D01*
G01X18677Y-2756D01*
G01X18740D01*
G01X18832Y-2725D01*
G01X18893Y-2662D01*
G01X18926Y-2570D01*
G01Y-2106D01*
G01X19225Y-2230D02*
G01X19289Y-2197D01*
G01X19380Y-2106D01*
G01Y-2756D01*
G04 //text: D1*
G01X18999Y7800D02*
G01X18999Y7150D01*
G01X18999Y7800D02*
G01X19215Y7800D01*
G01X19309Y7770D01*
G01X19370Y7709D01*
G01X19401Y7645D01*
G01X19434Y7554D01*
G01Y7399D01*
G01X19401Y7305D01*
G01X19370Y7244D01*
G01X19309Y7181D01*
G01X19215Y7150D01*
G01X18999D01*
G01X19733Y7676D02*
G01X19797Y7709D01*
G01X19888Y7800D01*
G01Y7150D01*
G04 //text: R1*
G01X24841Y-2106D02*
G01X24841Y-2756D01*
G01X24841Y-2106D02*
G01X25121Y-2106D01*
G01X25212Y-2136D01*
G01X25243Y-2167D01*
G01X25276Y-2230D01*
G01Y-2291D01*
G01X25243Y-2352D01*
G01X25212Y-2383D01*
G01X25121Y-2416D01*
G01X24841D01*
G01X25057Y-2416D02*
G01X25276Y-2756D01*
G01X25575Y-2230D02*
G01X25639Y-2197D01*
G01X25730Y-2106D01*
G01Y-2756D01*
G04 //text: L1*
G01X4902Y8054D02*
G01X4902Y7404D01*
G01X4902Y7404D02*
G01X5273Y7404D01*
G01X5575Y7930D02*
G01X5636Y7963D01*
G01X5730Y8054D01*
G01Y7404D01*
G04 //text: C1*
G01X13622Y-2642D02*
G01X13592Y-2578D01*
G01X13528Y-2517D01*
G01X13467Y-2487D01*
G01X13343D01*
G01X13282Y-2517D01*
G01X13218Y-2578D01*
G01X13188Y-2642D01*
G01X13157Y-2733D01*
G01Y-2888D01*
G01X13188Y-2982D01*
G01X13218Y-3043D01*
G01X13282Y-3106D01*
G01X13343Y-3137D01*
G01X13467D01*
G01X13528Y-3106D01*
G01X13592Y-3043D01*
G01X13622Y-2982D01*
G01X13922Y-2611D02*
G01X13985Y-2578D01*
G01X14077Y-2487D01*
G01Y-3137D01*
G04 //text: C2*
G01X15400Y-2642D02*
G01X15370Y-2578D01*
G01X15306Y-2517D01*
G01X15245Y-2487D01*
G01X15121D01*
G01X15060Y-2517D01*
G01X14996Y-2578D01*
G01X14966Y-2642D01*
G01X14935Y-2733D01*
G01Y-2888D01*
G01X14966Y-2982D01*
G01X14996Y-3043D01*
G01X15060Y-3106D01*
G01X15121Y-3137D01*
G01X15245D01*
G01X15306Y-3106D01*
G01X15370Y-3043D01*
G01X15400Y-2982D01*
G01X15733Y-2642D02*
G01X15733Y-2611D01*
G01X15763Y-2548D01*
G01X15794Y-2517D01*
G01X15855Y-2487D01*
G01X15979D01*
G01X16040Y-2517D01*
G01X16073Y-2548D01*
G01X16104Y-2611D01*
G01Y-2672D01*
G01X16073Y-2733D01*
G01X16010Y-2827D01*
G01X15700Y-3137D01*
G01X16134D01*
G04 //text: C3*
G01X28735Y-2769D02*
G01X28705Y-2705D01*
G01X28641Y-2644D01*
G01X28580Y-2614D01*
G01X28456D01*
G01X28395Y-2644D01*
G01X28331Y-2705D01*
G01X28301Y-2769D01*
G01X28270Y-2860D01*
G01Y-3015D01*
G01X28301Y-3109D01*
G01X28331Y-3170D01*
G01X28395Y-3233D01*
G01X28456Y-3264D01*
G01X28580D01*
G01X28641Y-3233D01*
G01X28705Y-3170D01*
G01X28735Y-3109D01*
G01X29098Y-2614D02*
G01X29439Y-2614D01*
G01X29253Y-2860D01*
G01X29345D01*
G01X29408Y-2891D01*
G01X29439Y-2924D01*
G01X29469Y-3015D01*
G01Y-3078D01*
G01X29439Y-3170D01*
G01X29375Y-3233D01*
G01X29284Y-3264D01*
G01X29190D01*
G01X29098Y-3233D01*
G01X29068Y-3200D01*
G01X29035Y-3139D01*
G04 //text: C4*
G01X30640Y-2769D02*
G01X30610Y-2705D01*
G01X30546Y-2644D01*
G01X30485Y-2614D01*
G01X30361D01*
G01X30300Y-2644D01*
G01X30236Y-2705D01*
G01X30206Y-2769D01*
G01X30175Y-2860D01*
G01Y-3015D01*
G01X30206Y-3109D01*
G01X30236Y-3170D01*
G01X30300Y-3233D01*
G01X30361Y-3264D01*
G01X30485D01*
G01X30546Y-3233D01*
G01X30610Y-3170D01*
G01X30640Y-3109D01*
G01X31250Y-2614D02*
G01X30940Y-3045D01*
G01X31405D01*
G01X31250Y-2614D02*
G01X31250Y-3264D01*
G04 //text: R2*
G01X23063Y-2106D02*
G01X23063Y-2756D01*
G01X23063Y-2106D02*
G01X23343Y-2106D01*
G01X23434Y-2136D01*
G01X23465Y-2167D01*
G01X23498Y-2230D01*
G01Y-2291D01*
G01X23465Y-2352D01*
G01X23434Y-2383D01*
G01X23343Y-2416D01*
G01X23063D01*
G01X23279Y-2416D02*
G01X23498Y-2756D01*
G01X23828Y-2261D02*
G01X23828Y-2230D01*
G01X23861Y-2167D01*
G01X23891Y-2136D01*
G01X23952Y-2106D01*
G01X24077D01*
G01X24138Y-2136D01*
G01X24168Y-2167D01*
G01X24201Y-2230D01*
G01Y-2291D01*
G01X24168Y-2352D01*
G01X24107Y-2446D01*
G01X23797Y-2756D01*
G01X24232D01*
G04 //text: U2*
G01X47058Y2602D02*
G01X47058Y2137D01*
G01X47088Y2046D01*
G01X47152Y1982D01*
G01X47243Y1952D01*
G01X47307D01*
G01X47398Y1982D01*
G01X47459Y2046D01*
G01X47492Y2137D01*
G01Y2602D01*
G01X47822Y2447D02*
G01X47822Y2477D01*
G01X47855Y2541D01*
G01X47886Y2571D01*
G01X47947Y2602D01*
G01X48071D01*
G01X48132Y2571D01*
G01X48163Y2541D01*
G01X48196Y2477D01*
G01Y2416D01*
G01X48163Y2355D01*
G01X48102Y2261D01*
G01X47792Y1952D01*
G01X48226D01*
G04 //text: X1*
G01X30937Y815D02*
G01X31372Y165D01*
G01X31372Y815D02*
G01X30937Y165D01*
G01X31671Y691D02*
G01X31735Y724D01*
G01X31826Y815D01*
G01Y165D01*
G04 //text: U3*
G01X6299Y-455D02*
G01X6299Y-919D01*
G01X6330Y-1011D01*
G01X6393Y-1074D01*
G01X6485Y-1105D01*
G01X6548D01*
G01X6640Y-1074D01*
G01X6701Y-1011D01*
G01X6734Y-919D01*
G01Y-455D01*
G01X7097Y-455D02*
G01X7437Y-455D01*
G01X7249Y-701D01*
G01X7343D01*
G01X7404Y-732D01*
G01X7437Y-765D01*
G01X7468Y-856D01*
G01Y-919D01*
G01X7437Y-1011D01*
G01X7374Y-1074D01*
G01X7282Y-1105D01*
G01X7188D01*
G01X7097Y-1074D01*
G01X7064Y-1041D01*
G01X7033Y-980D01*
G04 //text: C5*
G01X3843Y-991D02*
G01X3813Y-927D01*
G01X3749Y-866D01*
G01X3688Y-836D01*
G01X3564D01*
G01X3503Y-866D01*
G01X3439Y-927D01*
G01X3409Y-991D01*
G01X3378Y-1082D01*
G01Y-1237D01*
G01X3409Y-1331D01*
G01X3439Y-1392D01*
G01X3503Y-1455D01*
G01X3564Y-1486D01*
G01X3688D01*
G01X3749Y-1455D01*
G01X3813Y-1392D01*
G01X3843Y-1331D01*
G01X4516Y-836D02*
G01X4206Y-836D01*
G01X4176Y-1113D01*
G01X4206Y-1082D01*
G01X4298Y-1052D01*
G01X4392D01*
G01X4483Y-1082D01*
G01X4547Y-1146D01*
G01X4577Y-1237D01*
G01Y-1300D01*
G01X4547Y-1392D01*
G01X4483Y-1455D01*
G01X4392Y-1486D01*
G01X4298D01*
G01X4206Y-1455D01*
G01X4176Y-1422D01*
G01X4143Y-1361D01*
G04 //text: R3*
G01X9347Y-1471D02*
G01X9347Y-2121D01*
G01X9347Y-1471D02*
G01X9627Y-1471D01*
G01X9718Y-1501D01*
G01X9749Y-1532D01*
G01X9782Y-1595D01*
G01Y-1656D01*
G01X9749Y-1717D01*
G01X9718Y-1748D01*
G01X9627Y-1781D01*
G01X9347D01*
G01X9563Y-1781D02*
G01X9782Y-2121D01*
G01X10145Y-1471D02*
G01X10485Y-1471D01*
G01X10297Y-1717D01*
G01X10391D01*
G01X10452Y-1748D01*
G01X10485Y-1781D01*
G01X10516Y-1872D01*
G01Y-1935D01*
G01X10485Y-2027D01*
G01X10422Y-2090D01*
G01X10330Y-2121D01*
G01X10236D01*
G01X10145Y-2090D01*
G01X10112Y-2057D01*
G01X10081Y-1996D01*
G04 //text: R4*
G01X3378Y5641D02*
G01X3378Y4991D01*
G01X3378Y5641D02*
G01X3658Y5641D01*
G01X3749Y5611D01*
G01X3780Y5580D01*
G01X3813Y5517D01*
G01Y5456D01*
G01X3780Y5395D01*
G01X3749Y5364D01*
G01X3658Y5331D01*
G01X3378D01*
G01X3594Y5331D02*
G01X3813Y4991D01*
G01X4422Y5641D02*
G01X4112Y5210D01*
G01X4577D01*
G01X4422Y5641D02*
G01X4422Y4991D01*
G04 Text End*

G04 PolygonModel Start*
G54D15*
G01X18023Y-3276D02*
G01X19823Y-3276D01*
G01X18023Y-6376D02*
G01X19823Y-6376D01*
G54D14*
G01X20299Y3724D02*
G01X15007Y3724D01*
G01X20299Y6436D02*
G01X15007Y6436D01*
G01X18922Y3724D02*
G01X18922Y6436D01*
G01X15007Y3724D02*
G01X15007Y4107D01*
G01X15007Y6436D02*
G01X15007Y6053D01*
G36*
G01X20223Y3648D02*
G01X20223Y4158D01*
G01X20680D01*
G01Y3648D01*
G01X20223D01*
G37*
G54D16*
G01X20223Y3648D02*
G01X20223Y4158D01*
G01X20680D01*
G01Y3648D01*
G01X20223D01*
G36*
G01X20223Y6512D02*
G01X20223Y6002D01*
G01X20680D01*
G01Y6512D01*
G01X20223D01*
G37*
G01X20223Y6512D02*
G01X20223Y6002D01*
G01X20680D01*
G01Y6512D01*
G01X20223D01*
G54D14*
G01X24612Y-4990D02*
G01X24612Y-5948D01*
G01X24612Y-5948D02*
G01X25934Y-5948D01*
G01X25934Y-5948D02*
G01X25934Y-4990D01*
G01X24612Y-4137D02*
G01X24612Y-3178D01*
G01X24612Y-3178D02*
G01X25934Y-3178D01*
G01X25934Y-3178D02*
G01X25934Y-4137D01*
G54D15*
G01X6477Y6985D02*
G01X6477Y8128D01*
G01X6477Y8128D02*
G01X13081Y8128D01*
G01X13081Y8128D02*
G01X13081Y6985D01*
G01X13081Y2667D02*
G01X13081Y1524D01*
G01X13081Y1524D02*
G01X6477Y1524D01*
G01X6477Y1524D02*
G01X6477Y2667D01*
G54D14*
G01X14493Y-7161D02*
G01X14493Y-5751D01*
G01X12685Y-5751D02*
G01X12685Y-7161D01*
G01X12838Y-7314D02*
G01X14340Y-7314D01*
G01X14493Y-3539D02*
G01X14493Y-4949D01*
G01X12685Y-4949D02*
G01X12685Y-3539D01*
G01X12838Y-3386D02*
G01X14340Y-3386D01*
G01X12685Y-7161D02*
G03X12838Y-7314I152J0D01*
G01X14340Y-7314D02*
G03X14493Y-7161I0J152D01*
G01X12685Y-3539D02*
G02X12838Y-3386I152J0D01*
G01X14340Y-3386D02*
G02X14493Y-3539I0J-152D01*
G01X16398Y-7161D02*
G01X16398Y-5751D01*
G01X14590Y-5751D02*
G01X14590Y-7161D01*
G01X14743Y-7314D02*
G01X16245Y-7314D01*
G01X16398Y-3539D02*
G01X16398Y-4949D01*
G01X14590Y-4949D02*
G01X14590Y-3539D01*
G01X14743Y-3386D02*
G01X16245Y-3386D01*
G01X14590Y-7161D02*
G03X14743Y-7314I152J0D01*
G01X16245Y-7314D02*
G03X16398Y-7161I0J152D01*
G01X14590Y-3539D02*
G02X14743Y-3386I152J0D01*
G01X16245Y-3386D02*
G02X16398Y-3539I0J-152D01*
G01X29733Y-7383D02*
G01X29733Y-5973D01*
G01X27925Y-5973D02*
G01X27925Y-7383D01*
G01X28078Y-7536D02*
G01X29580Y-7536D01*
G01X29733Y-3761D02*
G01X29733Y-5171D01*
G01X27925Y-5171D02*
G01X27925Y-3761D01*
G01X28078Y-3608D02*
G01X29580Y-3608D01*
G01X27925Y-7383D02*
G03X28078Y-7536I152J0D01*
G01X29580Y-7536D02*
G03X29733Y-7383I0J152D01*
G01X27925Y-3761D02*
G02X28078Y-3608I152J0D01*
G01X29580Y-3608D02*
G02X29733Y-3761I0J-152D01*
G01X31765Y-7383D02*
G01X31765Y-5973D01*
G01X29957Y-5973D02*
G01X29957Y-7383D01*
G01X30110Y-7536D02*
G01X31612Y-7536D01*
G01X31765Y-3761D02*
G01X31765Y-5171D01*
G01X29957Y-5171D02*
G01X29957Y-3761D01*
G01X30110Y-3608D02*
G01X31612Y-3608D01*
G01X29957Y-7383D02*
G03X30110Y-7536I152J0D01*
G01X31612Y-7536D02*
G03X31765Y-7383I0J152D01*
G01X29957Y-3761D02*
G02X30110Y-3608I152J0D01*
G01X31612Y-3608D02*
G02X31765Y-3761I0J-152D01*
G01X24283Y-4137D02*
G01X24283Y-3178D01*
G01X24283Y-3178D02*
G01X22961Y-3178D01*
G01X22961Y-3178D02*
G01X22961Y-4137D01*
G01X24283Y-4990D02*
G01X24283Y-5948D01*
G01X24283Y-5948D02*
G01X22961Y-5948D01*
G01X22961Y-5948D02*
G01X22961Y-4990D01*
G54D15*
G01X46482Y-254D02*
G01X46482Y4826D01*
G01X36322Y-254D02*
G01X36322Y1016D01*
G01X46482Y-254D02*
G01X36322Y-254D01*
G01X46482Y4826D02*
G01X36322Y4826D01*
G01X36322Y3556D02*
G01X36322Y4826D01*
G01X36322Y3556D02*
G02X36322Y1016I0J-1270D01*
G01X34736Y912D02*
G01X35886Y912D01*
G01X35886Y912D02*
G01X35886Y-5738D01*
G01X35886Y-5738D02*
G01X34736Y-5738D01*
G01X33336Y-5738D02*
G01X32186Y-5738D01*
G01X32186Y-5738D02*
G01X32186Y912D01*
G01X32186Y912D02*
G01X33336Y912D01*
G01X33336Y912D02*
G01X34736Y912D01*
G01X34736Y-5738D02*
G01X33336Y-5738D01*
G54D18*
G01X34045Y-1796D02*
G01X34045Y-1496D01*
G01X33045Y-1896D02*
G01X35145Y-1896D01*
G01X33146Y-2596D02*
G01X35045Y-2596D01*
G01X35045Y-2596D02*
G01X35045Y-2196D01*
G01X35045Y-2196D02*
G01X33146Y-2196D01*
G01X33146Y-2196D02*
G01X33146Y-2596D01*
G01X33045Y-2896D02*
G01X35145Y-2896D01*
G01X34036Y-3353D02*
G01X34036Y-2997D01*
G54D15*
G01X5958Y-1498D02*
G01X7758Y-1498D01*
G01X5958Y-4598D02*
G01X7758Y-4598D01*
G01X4337Y-4627D02*
G01X3537Y-4627D01*
G01X4647Y-3517D02*
G01X4647Y-4317D01*
G01X3227Y-3517D02*
G01X3227Y-4317D01*
G01X4652Y-2941D02*
G01X4652Y-2141D01*
G01X4343Y-1832D02*
G01X3543Y-1832D01*
G01X3233Y-2941D02*
G01X3233Y-2141D01*
G01X4343Y-1831D02*
G02X4652Y-2141I0J-310D01*
G01X3233Y-2141D02*
G02X3543Y-1831I310J0D01*
G01X4647Y-4317D02*
G02X4337Y-4627I-310J-0D01*
G01X3537Y-4627D02*
G02X3227Y-4317I0J310D01*
G54D14*
G01X9245Y-4372D02*
G01X9245Y-5331D01*
G01X9245Y-5331D02*
G01X10567Y-5331D01*
G01X10567Y-5331D02*
G01X10567Y-4372D01*
G01X9245Y-3519D02*
G01X9245Y-2561D01*
G01X9245Y-2561D02*
G01X10567Y-2561D01*
G01X10567Y-2561D02*
G01X10567Y-3519D01*
G01X3276Y2884D02*
G01X3276Y1926D01*
G01X3276Y1926D02*
G01X4598Y1926D01*
G01X4598Y1926D02*
G01X4598Y2884D01*
G01X3276Y3737D02*
G01X3276Y4696D01*
G01X3276Y4696D02*
G01X4598Y4696D01*
G01X4598Y4696D02*
G01X4598Y3737D01*
G04 PolygonModel End*

G04 Circle Start*
G54D15*
G01X20193Y-6477D02*
G03X20447Y-6477I127J0D01*
G03X20193I-127J0D01*
G01X8128Y-4699D02*
G03X8382Y-4699I127J0D01*
G03X8128I-127J0D01*
G04 Circle End*
G04 Text End*
G04 //text: 5v*
G54D10*
G01X25870Y30038D02*
G01X25540Y30038D01*
G01X25507Y29744D01*
G01X25540Y29777D01*
G01X25639Y29810D01*
G01X25738D01*
G01X25837Y29777D01*
G01X25900Y29711D01*
G01X25933Y29612D01*
G01Y29546D01*
G01X25900Y29449D01*
G01X25837Y29383D01*
G01X25738Y29350D01*
G01X25639D01*
G01X25540Y29383D01*
G01X25507Y29416D01*
G01X25476Y29482D01*
G01X26241Y29810D02*
G01X26439Y29350D01*
G01X26634Y29810D02*
G01X26439Y29350D01*
G04 //text: GND*
G01X25331Y14763D02*
G01X25298Y14826D01*
G01X25235Y14892D01*
G01X25169Y14925D01*
G01X25037D01*
G01X24971Y14892D01*
G01X24905Y14826D01*
G01X24872Y14763D01*
G01X24841Y14664D01*
G01Y14499D01*
G01X24872Y14402D01*
G01X24905Y14336D01*
G01X24971Y14270D01*
G01X25037Y14237D01*
G01X25169D01*
G01X25235Y14270D01*
G01X25298Y14336D01*
G01X25331Y14402D01*
G01Y14499D01*
G01X25169Y14499D02*
G01X25331Y14499D01*
G01X25639Y14925D02*
G01X25639Y14237D01*
G01X25639Y14925D02*
G01X26099Y14237D01*
G01X26099Y14925D02*
G01X26099Y14237D01*
G01X26406Y14925D02*
G01X26406Y14237D01*
G01X26406Y14925D02*
G01X26637Y14925D01*
G01X26734Y14892D01*
G01X26800Y14826D01*
G01X26833Y14763D01*
G01X26866Y14664D01*
G01Y14499D01*
G01X26833Y14402D01*
G01X26800Y14336D01*
G01X26734Y14270D01*
G01X26637Y14237D01*
G01X26406D01*
G04 //text: BAT-*
G54D11*
G01X-4355Y21087D02*
G01X-6125Y21087D01*
G01X-4355Y21087D02*
G01X-4355Y20328D01*
G01X-4439Y20074D01*
G01X-4523Y19990D01*
G01X-4693Y19906D01*
G01X-4861D01*
G01X-5031Y19990D01*
G01X-5115Y20074D01*
G01X-5198Y20328D01*
G01X-5198Y21087D02*
G01X-5198Y20328D01*
G01X-5282Y20074D01*
G01X-5366Y19990D01*
G01X-5536Y19906D01*
G01X-5790D01*
G01X-5958Y19990D01*
G01X-6042Y20074D01*
G01X-6125Y20328D01*
G01Y21087D01*
G01X-4355Y18527D02*
G01X-6125Y19200D01*
G01X-4355Y18527D02*
G01X-6125Y17851D01*
G01X-5536Y18949D02*
G01X-5536Y18103D01*
G01X-4355Y16556D02*
G01X-6125Y16556D01*
G01X-4355Y17145D02*
G01X-4355Y15964D01*
G01X-5366Y15261D02*
G01X-5366Y13742D01*
G04 //text: BAT+*
G01X-4219Y31816D02*
G01X-5989Y31816D01*
G01X-4219Y31816D02*
G01X-4219Y31057D01*
G01X-4303Y30803D01*
G01X-4387Y30719D01*
G01X-4557Y30635D01*
G01X-4724D01*
G01X-4895Y30719D01*
G01X-4978Y30803D01*
G01X-5062Y31057D01*
G01X-5062Y31816D02*
G01X-5062Y31057D01*
G01X-5146Y30803D01*
G01X-5230Y30719D01*
G01X-5400Y30635D01*
G01X-5654D01*
G01X-5822Y30719D01*
G01X-5905Y30803D01*
G01X-5989Y31057D01*
G01Y31816D01*
G01X-4219Y29256D02*
G01X-5989Y29929D01*
G01X-4219Y29256D02*
G01X-5989Y28580D01*
G01X-5400Y29678D02*
G01X-5400Y28832D01*
G01X-4219Y27285D02*
G01X-5989Y27285D01*
G01X-4219Y27874D02*
G01X-4219Y26693D01*
G01X-4470Y25230D02*
G01X-5989Y25230D01*
G01X-5230Y25990D02*
G01X-5230Y24471D01*
G04 //text: 5V*
G54D10*
G01X54397Y20234D02*
G01X53896Y20234D01*
G01X53845Y19784D01*
G01X53896Y19833D01*
G01X54046Y19883D01*
G01X54196D01*
G01X54346Y19833D01*
G01X54445Y19734D01*
G01X54496Y19584D01*
G01Y19482D01*
G01X54445Y19332D01*
G01X54346Y19233D01*
G01X54196Y19182D01*
G01X54046D01*
G01X53896Y19233D01*
G01X53845Y19284D01*
G01X53797Y19383D01*
G01X54887Y20234D02*
G01X55286Y19182D01*
G01X55687Y20234D02*
G01X55286Y19182D01*
G04 //text: GND*
G01X54547Y25443D02*
G01X54496Y25545D01*
G01X54397Y25644D01*
G01X54295Y25695D01*
G01X54097D01*
G01X53995Y25644D01*
G01X53896Y25545D01*
G01X53845Y25443D01*
G01X53797Y25294D01*
G01Y25045D01*
G01X53845Y24895D01*
G01X53896Y24793D01*
G01X53995Y24694D01*
G01X54097Y24643D01*
G01X54295D01*
G01X54397Y24694D01*
G01X54496Y24793D01*
G01X54547Y24895D01*
G01Y25045D01*
G01X54295Y25045D02*
G01X54547Y25045D01*
G01X54935Y25695D02*
G01X54935Y24643D01*
G01X54935Y25695D02*
G01X55636Y24643D01*
G01X55636Y25695D02*
G01X55636Y24643D01*
G01X56025Y25695D02*
G01X56025Y24643D01*
G01X56025Y25695D02*
G01X56375Y25695D01*
G01X56525Y25644D01*
G01X56627Y25545D01*
G01X56675Y25443D01*
G01X56726Y25294D01*
G01Y25045D01*
G01X56675Y24895D01*
G01X56627Y24793D01*
G01X56525Y24694D01*
G01X56375Y24643D01*
G01X56025D01*
G04 //text: SIG*
G01X54496Y22751D02*
G01X54397Y22850D01*
G01X54247Y22901D01*
G01X54046D01*
G01X53896Y22850D01*
G01X53797Y22751D01*
G01Y22649D01*
G01X53845Y22550D01*
G01X53896Y22500D01*
G01X53995Y22451D01*
G01X54295Y22350D01*
G01X54397Y22299D01*
G01X54445Y22251D01*
G01X54496Y22149D01*
G01Y21999D01*
G01X54397Y21900D01*
G01X54247Y21849D01*
G01X54046D01*
G01X53896Y21900D01*
G01X53797Y21999D01*
G01X54887Y22901D02*
G01X54887Y21849D01*
G01X56025Y22649D02*
G01X55977Y22751D01*
G01X55875Y22850D01*
G01X55776Y22901D01*
G01X55575D01*
G01X55476Y22850D01*
G01X55377Y22751D01*
G01X55326Y22649D01*
G01X55275Y22500D01*
G01Y22251D01*
G01X55326Y22101D01*
G01X55377Y21999D01*
G01X55476Y21900D01*
G01X55575Y21849D01*
G01X55776D01*
G01X55875Y21900D01*
G01X55977Y21999D01*
G01X56025Y22101D01*
G01Y22251D01*
G01X55776Y22251D02*
G01X56025Y22251D01*
G04 //text: v0.3.1 2023-01-23*
G54D12*
G01X31976Y14831D02*
G01X32314Y14044D01*
G01X32652Y14831D02*
G01X32314Y14044D01*
G01X33459Y15225D02*
G01X33292Y15169D01*
G01X33177Y15002D01*
G01X33122Y14720D01*
G01Y14552D01*
G01X33177Y14270D01*
G01X33292Y14102D01*
G01X33459Y14044D01*
G01X33571D01*
G01X33741Y14102D01*
G01X33853Y14270D01*
G01X33909Y14552D01*
G01Y14720D01*
G01X33853Y15002D01*
G01X33741Y15169D01*
G01X33571Y15225D01*
G01X33459D01*
G01X34435Y14326D02*
G01X34379Y14270D01*
G01X34435Y14214D01*
G01X34493Y14270D01*
G01X34435Y14326D01*
G01X35075Y15225D02*
G01X35692Y15225D01*
G01X35357Y14775D01*
G01X35524D01*
G01X35636Y14720D01*
G01X35692Y14664D01*
G01X35751Y14496D01*
G01Y14382D01*
G01X35692Y14214D01*
G01X35580Y14102D01*
G01X35413Y14044D01*
G01X35243D01*
G01X35075Y14102D01*
G01X35019Y14158D01*
G01X34963Y14270D01*
G01X36276Y14326D02*
G01X36220Y14270D01*
G01X36276Y14214D01*
G01X36332Y14270D01*
G01X36276Y14326D01*
G01X36802Y15002D02*
G01X36914Y15057D01*
G01X37084Y15225D01*
G01Y14044D01*
G01X38870Y14946D02*
G01X38870Y15002D01*
G01X38926Y15113D01*
G01X38981Y15169D01*
G01X39096Y15225D01*
G01X39319D01*
G01X39431Y15169D01*
G01X39489Y15113D01*
G01X39545Y15002D01*
G01Y14890D01*
G01X39489Y14775D01*
G01X39375Y14608D01*
G01X38814Y14044D01*
G01X39601D01*
G01X40409Y15225D02*
G01X40239Y15169D01*
G01X40127Y15002D01*
G01X40071Y14720D01*
G01Y14552D01*
G01X40127Y14270D01*
G01X40239Y14102D01*
G01X40409Y14044D01*
G01X40521D01*
G01X40688Y14102D01*
G01X40803Y14270D01*
G01X40858Y14552D01*
G01Y14720D01*
G01X40803Y15002D01*
G01X40688Y15169D01*
G01X40521Y15225D01*
G01X40409D01*
G01X41384Y14946D02*
G01X41384Y15002D01*
G01X41440Y15113D01*
G01X41496Y15169D01*
G01X41610Y15225D01*
G01X41834D01*
G01X41948Y15169D01*
G01X42004Y15113D01*
G01X42060Y15002D01*
G01Y14890D01*
G01X42004Y14775D01*
G01X41890Y14608D01*
G01X41328Y14044D01*
G01X42116D01*
G01X42697Y15225D02*
G01X43317Y15225D01*
G01X42979Y14775D01*
G01X43150D01*
G01X43261Y14720D01*
G01X43317Y14664D01*
G01X43373Y14496D01*
G01Y14382D01*
G01X43317Y14214D01*
G01X43205Y14102D01*
G01X43035Y14044D01*
G01X42868D01*
G01X42697Y14102D01*
G01X42642Y14158D01*
G01X42586Y14270D01*
G01X43843Y14552D02*
G01X44856Y14552D01*
G01X45664Y15225D02*
G01X45494Y15169D01*
G01X45382Y15002D01*
G01X45326Y14720D01*
G01Y14552D01*
G01X45382Y14270D01*
G01X45494Y14102D01*
G01X45664Y14044D01*
G01X45776D01*
G01X45944Y14102D01*
G01X46058Y14270D01*
G01X46114Y14552D01*
G01Y14720D01*
G01X46058Y15002D01*
G01X45944Y15169D01*
G01X45776Y15225D01*
G01X45664D01*
G01X46584Y15002D02*
G01X46695Y15057D01*
G01X46866Y15225D01*
G01Y14044D01*
G01X47335Y14552D02*
G01X48346Y14552D01*
G01X48872Y14946D02*
G01X48872Y15002D01*
G01X48931Y15113D01*
G01X48986Y15169D01*
G01X49098Y15225D01*
G01X49324D01*
G01X49436Y15169D01*
G01X49492Y15113D01*
G01X49548Y15002D01*
G01Y14890D01*
G01X49492Y14775D01*
G01X49380Y14608D01*
G01X48816Y14044D01*
G01X49604D01*
G01X50188Y15225D02*
G01X50805Y15225D01*
G01X50467Y14775D01*
G01X50637D01*
G01X50749Y14720D01*
G01X50805Y14664D01*
G01X50861Y14496D01*
G01Y14382D01*
G01X50805Y14214D01*
G01X50693Y14102D01*
G01X50526Y14044D01*
G01X50356D01*
G01X50188Y14102D01*
G01X50132Y14158D01*
G01X50074Y14270D01*
G04 //text: ₍ ‧ꀈ˙⁾՜*
G36*
G01X40230Y17732D02*
G01X40230Y17310D01*
G01X40439D01*
G01Y18891D01*
G01X40467Y18884D01*
G01X40480Y18878D01*
G01X40513Y18855D01*
G01X40535Y18841D01*
G01X40580Y18814D01*
G01X40607Y18797D01*
G01X40640Y18773D01*
G01X40662Y18760D01*
G01X40708Y18732D01*
G01X40734Y18715D01*
G01X40768Y18691D01*
G01X40789Y18678D01*
G01X40835Y18651D01*
G01X40861Y18634D01*
G01X40876Y18623D01*
G01X40930Y18582D01*
G01X40935Y18609D01*
G01X40937Y18657D01*
G01X40939Y19041D01*
G01Y19455D01*
G01X40739D01*
G01Y18928D01*
G01X40712Y18935D01*
G01X40698Y18942D01*
G01X40671Y18960D01*
G01X40658Y18968D01*
G01X40635Y18981D01*
G01X40621Y18989D01*
G01X40598Y19006D01*
G01X40585Y19014D01*
G01X40562Y19026D01*
G01X40548Y19035D01*
G01X40526Y19051D01*
G01X40512Y19059D01*
G01X40489Y19072D01*
G01X40476Y19080D01*
G01X40453Y19097D01*
G01X40439Y19105D01*
G01X40417Y19117D01*
G01X40403Y19126D01*
G01X40380Y19142D01*
G01X40367Y19150D01*
G01X40344Y19163D01*
G01X40330Y19171D01*
G01X40308Y19187D01*
G01X40294Y19196D01*
G01X40271Y19208D01*
G01X40258Y19217D01*
G01X40230Y19237D01*
G01Y18837D01*
G01X40225Y18505D01*
G01X40223Y18466D01*
G01X40220Y18449D01*
G01X40219Y18445D01*
G01X40218Y18443D01*
G01Y18442D01*
G01X40217D01*
G01Y18441D01*
G01X40210Y18444D01*
G01X40204Y18448D01*
G01X40199Y18453D01*
G01X40189Y18466D01*
G01X40178Y18478D01*
G01X40159Y18493D01*
G01X40144Y18512D01*
G01X40132Y18523D01*
G01X40113Y18538D01*
G01X40098Y18557D01*
G01X40087Y18568D01*
G01X40068Y18584D01*
G01X40053Y18603D01*
G01X40041Y18614D01*
G01X40022Y18629D01*
G01X40007Y18648D01*
G01X39996Y18659D01*
G01X39977Y18674D01*
G01X39967Y18687D01*
G01X39961Y18694D01*
G01X39954Y18701D01*
G01X39945Y18707D01*
G01X39924Y18721D01*
G01X39912Y18731D01*
G01X39905Y18738D01*
G01X39898Y18748D01*
G01X39887Y18759D01*
G01X39868Y18774D01*
G01X39853Y18793D01*
G01X39841Y18805D01*
G01X39822Y18820D01*
G01X39807Y18839D01*
G01X39796Y18850D01*
G01X39789Y18855D01*
G01X39783Y18859D01*
G01X39777Y18861D01*
G01X39771D01*
G01X39767Y18860D01*
G01X39762Y18857D01*
G01X39758Y18853D01*
G01X39748Y18841D01*
G01X39738Y18829D01*
G01X39719Y18814D01*
G01X39708Y18803D01*
G01X39693Y18784D01*
G01X39680Y18773D01*
G01X39674Y18768D01*
G01X39668Y18762D01*
G01X39662Y18755D01*
G01X39658Y18746D01*
G01X39654Y18737D01*
G01Y18730D01*
G01X39657Y18724D01*
G01X39662Y18719D01*
G01X39675Y18709D01*
G01X39690Y18689D01*
G01X39701Y18678D01*
G01X39720Y18663D01*
G01X39735Y18644D01*
G01X39746Y18633D01*
G01X39765Y18618D01*
G01X39781Y18599D01*
G01X39792Y18587D01*
G01X39811Y18572D01*
G01X39826Y18553D01*
G01X39837Y18542D01*
G01X39856Y18527D01*
G01X39871Y18508D01*
G01X39883Y18496D01*
G01X39902Y18481D01*
G01X39912Y18469D01*
G01X39917Y18462D01*
G01X39925Y18455D01*
G01X39933Y18448D01*
G01X39954Y18435D01*
G01X39967Y18424D01*
G01X39973Y18418D01*
G01X39981Y18408D01*
G01X39992Y18396D01*
G01X40011Y18381D01*
G01X40026Y18362D01*
G01X40037Y18351D01*
G01X40056Y18336D01*
G01X40071Y18317D01*
G01X40083Y18305D01*
G01X40102Y18290D01*
G01X40117Y18271D01*
G01X40128Y18260D01*
G01X40147Y18245D01*
G01X40162Y18226D01*
G01X40174Y18214D01*
G01X40193Y18199D01*
G01X40203Y18187D01*
G01X40217Y18169D01*
G01X40221Y18164D01*
G01X40223Y18155D01*
G01X40227Y18099D01*
G01X40230Y17732D01*
G37*
G36*
G01X37044Y15982D02*
G01X37049Y15978D01*
G01X37060Y15976D01*
G01X37076Y15974D01*
G01X37098Y15973D01*
G01X37148D01*
G01X37139Y15996D01*
G01X37133Y16012D01*
G01X37123Y16029D01*
G01X37112Y16048D01*
G01X37096Y16085D01*
G01X37087Y16102D01*
G01X37076Y16121D01*
G01X37053Y16173D01*
G01X37037Y16207D01*
G01X37030Y16223D01*
G01X37012Y16269D01*
G01X37003Y16294D01*
G01X36994Y16323D01*
G01X36983Y16366D01*
G01X36962Y16469D01*
G01X36958Y16496D01*
G01X36953Y16532D01*
G01X36950Y16572D01*
G01X36948Y16634D01*
G01X36946Y16651D01*
G01X36942Y16667D01*
G01X36940Y16683D01*
G01Y16700D01*
G01X36942Y16716D01*
G01X36945Y16727D01*
G01X36947Y16747D01*
G01X36949Y16831D01*
G01X36951Y16853D01*
G01X36955Y16867D01*
G01X36957Y16883D01*
G01X36959Y16909D01*
G01X36962Y16923D01*
G01X36964Y16931D01*
G01X36969Y16951D01*
G01X36974Y16977D01*
G01X36977Y16989D01*
G01X36981Y17000D01*
G01X36989Y17019D01*
G01X36993Y17030D01*
G01X36996Y17042D01*
G01X37001Y17068D01*
G01X37006Y17084D01*
G01X37010Y17092D01*
G01X37020Y17111D01*
G01X37028Y17137D01*
G01X37035Y17153D01*
G01X37047Y17174D01*
G01X37056Y17200D01*
G01X37062Y17216D01*
G01X37076Y17239D01*
G01X37092Y17275D01*
G01X37101Y17292D01*
G01X37112Y17312D01*
G01X37126Y17343D01*
G01X37133Y17355D01*
G01X37137Y17362D01*
G01X37139Y17364D01*
G01X37140Y17372D01*
G01X37126Y17378D01*
G01X37102Y17381D01*
G01X37069Y17382D01*
G01X37063Y17381D01*
G01X37058Y17380D01*
G01X37053Y17378D01*
G01X37049Y17375D01*
G01X37045Y17372D01*
G01X37042Y17368D01*
G01X37030Y17347D01*
G01X36998Y17296D01*
G01X36944Y17205D01*
G01X36934Y17188D01*
G01X36926Y17171D01*
G01X36914Y17144D01*
G01X36905Y17127D01*
G01X36894Y17107D01*
G01X36871Y17055D01*
G01X36862Y17037D01*
G01X36856Y17016D01*
G01X36847Y16984D01*
G01X36839Y16964D01*
G01X36835Y16955D01*
G01X36833Y16946D01*
G01X36831Y16937D01*
G01X36830Y16919D01*
G01X36828Y16903D01*
G01X36821Y16880D01*
G01X36817Y16860D01*
G01X36814Y16843D01*
G01X36812Y16819D01*
G01X36811Y16802D01*
G01X36808Y16787D01*
G01X36806Y16782D01*
G01X36805Y16763D01*
G01X36803Y16660D01*
G01X36805Y16560D01*
G01X36806Y16537D01*
G01X36807Y16533D01*
G01X36810Y16524D01*
G01X36814Y16499D01*
G01X36821Y16452D01*
G01X36826Y16432D01*
G01X36839Y16391D01*
G01X36847Y16365D01*
G01X36856Y16330D01*
G01X36862Y16310D01*
G01X36878Y16276D01*
G01X36885Y16260D01*
G01X36903Y16214D01*
G01X36912Y16195D01*
G01X36917Y16188D01*
G01X36926Y16177D01*
G01X36935Y16164D01*
G01X36948Y16138D01*
G01X37026Y16014D01*
G01X37044Y15982D01*
G37*
G36*
G01X42162Y18182D02*
G01X42163Y18178D01*
G01X42171Y18176D01*
G01X42186Y18174D01*
G01X42208Y18173D01*
G01X42225Y18174D01*
G01X42243Y18176D01*
G01X42249Y18178D01*
G01X42255Y18180D01*
G01X42257Y18181D01*
G01X42259Y18182D01*
G01X42260Y18184D01*
G01X42261Y18185D01*
G01X42265Y18194D01*
G01X42271Y18207D01*
G01X42344Y18323D01*
G01X42353Y18340D01*
G01X42362Y18357D01*
G01X42371Y18380D01*
G01X42377Y18390D01*
G01X42383Y18400D01*
G01X42396Y18419D01*
G01X42403Y18432D01*
G01X42406Y18441D01*
G01X42413Y18463D01*
G01X42421Y18478D01*
G01X42425Y18485D01*
G01X42429Y18494D01*
G01X42432Y18503D01*
G01X42437Y18525D01*
G01X42442Y18539D01*
G01X42446Y18547D01*
G01X42453Y18559D01*
G01X42456Y18569D01*
G01X42460Y18581D01*
G01X42467Y18623D01*
G01X42476Y18657D01*
G01X42480Y18678D01*
G01X42483Y18694D01*
G01X42485Y18719D01*
G01X42486Y18736D01*
G01X42489Y18751D01*
G01X42491Y18760D01*
G01X42493Y18773D01*
G01X42494Y18802D01*
G01X42495Y18851D01*
G01X42497Y18871D01*
G01X42498Y18878D01*
G01X42500Y18885D01*
G01X42501Y18891D01*
G01X42500Y18898D01*
G01X42496Y18914D01*
G01X42495Y18928D01*
G01X42494Y18957D01*
G01X42493Y19006D01*
G01X42491Y19026D01*
G01X42487Y19041D01*
G01X42483Y19066D01*
G01X42476Y19113D01*
G01X42471Y19132D01*
G01X42439Y19228D01*
G01X42430Y19253D01*
G01X42410Y19298D01*
G01X42396Y19330D01*
G01X42387Y19347D01*
G01X42362Y19387D01*
G01X42308Y19478D01*
G01X42262Y19551D01*
G01X42258Y19556D01*
G01X42253Y19561D01*
G01X42247Y19564D01*
G01X42240Y19568D01*
G01X42233Y19570D01*
G01X42214Y19573D01*
G01X42203D01*
G01X42158D01*
G01X42165Y19546D01*
G01X42171Y19530D01*
G01X42185Y19507D01*
G01X42201Y19471D01*
G01X42210Y19454D01*
G01X42221Y19435D01*
G01X42230Y19414D01*
G01X42248Y19369D01*
G01X42255Y19353D01*
G01X42264Y19336D01*
G01X42271Y19325D01*
G01X42275Y19316D01*
G01X42278Y19307D01*
G01X42283Y19285D01*
G01X42290Y19264D01*
G01X42302Y19236D01*
G01X42308Y19214D01*
G01X42312Y19194D01*
G01X42321Y19162D01*
G01X42326Y19141D01*
G01X42335Y19096D01*
G01X42339Y19069D01*
G01X42344Y19032D01*
G01X42348Y18987D01*
G01X42350Y18956D01*
G01X42353Y18941D01*
G01X42355Y18931D01*
G01X42356Y18912D01*
G01X42358Y18851D01*
G01X42356Y18789D01*
G01X42354Y18765D01*
G01X42353Y18761D01*
G01X42351Y18752D01*
G01X42350Y18741D01*
G01X42348Y18693D01*
G01X42346Y18677D01*
G01X42342Y18661D01*
G01X42337Y18636D01*
G01X42330Y18588D01*
G01X42326Y18569D01*
G01X42294Y18473D01*
G01X42278Y18429D01*
G01X42269Y18408D01*
G01X42260Y18390D01*
G01X42253Y18380D01*
G01X42246Y18364D01*
G01X42238Y18338D01*
G01X42230Y18323D01*
G01X42221Y18307D01*
G01X42205Y18271D01*
G01X42196Y18254D01*
G01X42185Y18235D01*
G01X42176Y18214D01*
G01X42162Y18182D01*
G37*
G36*
G01X42735Y19132D02*
G01X42739Y19110D01*
G01X42967D01*
G01Y19146D01*
G01Y19170D01*
G01X42969Y19188D01*
G01X42971Y19196D01*
G01X42985Y19232D01*
G01X42990Y19243D01*
G01X42995Y19252D01*
G01X43001Y19259D01*
G01X43008Y19264D01*
G01X43020Y19274D01*
G01X43030Y19287D01*
G01X43036Y19294D01*
G01X43043Y19301D01*
G01X43052Y19307D01*
G01X43089Y19331D01*
G01X43117Y19351D01*
G01X43130Y19359D01*
G01X43153Y19372D01*
G01X43167Y19380D01*
G01X43208Y19410D01*
G01X43233Y19428D01*
G01X43254Y19446D01*
G01X43263Y19454D01*
G01X43273Y19465D01*
G01X43285Y19481D01*
G01X43294Y19491D01*
G01X43298Y19497D01*
G01X43308Y19513D01*
G01X43319Y19539D01*
G01X43328Y19556D01*
G01X43332Y19563D01*
G01X43336Y19574D01*
G01X43340Y19587D01*
G01X43344Y19614D01*
G01X43353Y19696D01*
G01X43355Y19718D01*
G01Y19735D01*
G01X43354Y19741D01*
G01Y19745D01*
G01X43353Y19746D01*
G01X43350Y19748D01*
G01X43344Y19750D01*
G01X43334Y19752D01*
G01X43305Y19754D01*
G01X43235Y19755D01*
G01X43121D01*
G01Y19710D01*
G01Y19680D01*
G01X43119Y19665D01*
G01X43117Y19652D01*
G01X43103Y19614D01*
G01X43098Y19604D01*
G01X43093Y19595D01*
G01X43087Y19588D01*
G01X43080Y19582D01*
G01X43068Y19572D01*
G01X43058Y19560D01*
G01X43052Y19553D01*
G01X43045Y19546D01*
G01X43036Y19539D01*
G01X43011Y19523D01*
G01X42996Y19512D01*
G01X42989Y19505D01*
G01X42975Y19496D01*
G01X42953Y19484D01*
G01X42939Y19475D01*
G01X42911Y19455D01*
G01X42879Y19435D01*
G01X42866Y19424D01*
G01X42860Y19418D01*
G01X42853Y19408D01*
G01X42841Y19396D01*
G01X42822Y19381D01*
G01X42807Y19362D01*
G01X42796Y19351D01*
G01X42783Y19341D01*
G01X42778Y19335D01*
G01X42774Y19327D01*
G01X42769Y19310D01*
G01X42762Y19291D01*
G01X42753Y19272D01*
G01X42750Y19259D01*
G01X42746Y19242D01*
G01X42739Y19189D01*
G01X42735Y19171D01*
G01X42733Y19161D01*
G01Y19153D01*
G01Y19143D01*
G01X42735Y19132D01*
G37*
G36*
G01X38708Y18182D02*
G01X38712Y18180D01*
G01X38717Y18178D01*
G01X38733Y18176D01*
G01X38754Y18174D01*
G01X38780Y18173D01*
G01X38823Y18174D01*
G01X38846Y18176D01*
G01X38853Y18178D01*
G01X38869Y18185D01*
G01X38889Y18196D01*
G01X38906Y18207D01*
G01X38935Y18228D01*
G01X38949Y18241D01*
G01X38956Y18249D01*
G01X38961Y18256D01*
G01X38968Y18273D01*
G01X38980Y18295D01*
G01X38985Y18304D01*
G01X38994Y18328D01*
G01X38996Y18335D01*
G01X38999Y18350D01*
G01X39002Y18367D01*
G01X39003Y18386D01*
G01Y18396D01*
G01X39002Y18415D01*
G01X39000Y18435D01*
G01X38997Y18447D01*
G01X38983Y18480D01*
G01X38971Y18507D01*
G01X38965Y18515D01*
G01X38960Y18522D01*
G01X38953Y18528D01*
G01X38940Y18538D01*
G01X38930Y18551D01*
G01X38925Y18557D01*
G01X38919Y18563D01*
G01X38912Y18568D01*
G01X38903Y18573D01*
G01X38862Y18594D01*
G01X38851Y18598D01*
G01X38839Y18601D01*
G01X38817Y18605D01*
G01X38787Y18609D01*
G01X38751D01*
G01X38733Y18607D01*
G01X38726Y18605D01*
G01X38689Y18591D01*
G01X38670Y18582D01*
G01X38663Y18578D01*
G01X38653Y18569D01*
G01X38635Y18555D01*
G01X38628Y18550D01*
G01X38621Y18543D01*
G01X38614Y18534D01*
G01X38608Y18523D01*
G01X38585Y18487D01*
G01X38581Y18479D01*
G01X38577Y18469D01*
G01X38574Y18456D01*
G01X38567Y18414D01*
G01X38562Y18396D01*
G01X38560Y18389D01*
G01Y18380D01*
G01Y18370D01*
G01X38562Y18360D01*
G01X38571Y18319D01*
G01X38577Y18302D01*
G01X38585Y18287D01*
G01X38603Y18260D01*
G01X38613Y18247D01*
G01X38632Y18232D01*
G01X38644Y18221D01*
G01X38654Y18208D01*
G01X38660Y18203D01*
G01X38667Y18199D01*
G01X38685Y18193D01*
G01X38700Y18187D01*
G01X38708Y18182D01*
G37*
G36*
G01X41439Y19223D02*
G01X41439Y19055D01*
G01X41776D01*
G01Y19382D01*
G01X41753Y19387D01*
G01X41745Y19388D01*
G01X41700Y19390D01*
G01X41585Y19391D01*
G01X41439D01*
G01Y19223D01*
G37*
G04 //text: NO Bug*
G54D13*
G01X11278Y23607D02*
G01X11278Y22429D01*
G01X11278Y23607D02*
G01X12062Y22429D01*
G01X12062Y23607D02*
G01X12062Y22429D01*
G01X12873Y23607D02*
G01X12761Y23551D01*
G01X12649Y23439D01*
G01X12593Y23325D01*
G01X12537Y23157D01*
G01Y22878D01*
G01X12593Y22708D01*
G01X12649Y22596D01*
G01X12761Y22484D01*
G01X12873Y22429D01*
G01X13099D01*
G01X13211Y22484D01*
G01X13322Y22596D01*
G01X13378Y22708D01*
G01X13434Y22878D01*
G01Y23157D01*
G01X13378Y23325D01*
G01X13322Y23439D01*
G01X13211Y23551D01*
G01X13099Y23607D01*
G01X12873D01*
G01X15166Y23607D02*
G01X15166Y22429D01*
G01X15166Y23607D02*
G01X15672Y23607D01*
G01X15839Y23551D01*
G01X15895Y23495D01*
G01X15951Y23384D01*
G01Y23269D01*
G01X15895Y23157D01*
G01X15839Y23102D01*
G01X15672Y23046D01*
G01X15166Y23046D02*
G01X15672Y23046D01*
G01X15839Y22990D01*
G01X15895Y22934D01*
G01X15951Y22820D01*
G01Y22652D01*
G01X15895Y22540D01*
G01X15839Y22484D01*
G01X15672Y22429D01*
G01X15166D01*
G01X16424Y23213D02*
G01X16424Y22652D01*
G01X16480Y22484D01*
G01X16594Y22429D01*
G01X16761D01*
G01X16873Y22484D01*
G01X17041Y22652D01*
G01X17041Y23213D02*
G01X17041Y22429D01*
G01X18189Y23213D02*
G01X18189Y22317D01*
G01X18133Y22147D01*
G01X18077Y22091D01*
G01X17963Y22035D01*
G01X17795D01*
G01X17683Y22091D01*
G01X18189Y23046D02*
G01X18077Y23157D01*
G01X17963Y23213D01*
G01X17795D01*
G01X17683Y23157D01*
G01X17572Y23046D01*
G01X17513Y22878D01*
G01Y22764D01*
G01X17572Y22596D01*
G01X17683Y22484D01*
G01X17795Y22429D01*
G01X17963D01*
G01X18077Y22484D01*
G01X18189Y22596D01*
G04 //text: (ㅅ˘ㅂ˘)*
G36*
G01X22279Y23898D02*
G01X22282Y23877D01*
G01X22285Y23859D01*
G01X22288Y23847D01*
G01X22297Y23819D01*
G01X22308Y23790D01*
G01X22314Y23775D01*
G01X22320Y23764D01*
G01X22337Y23737D01*
G01X22341Y23730D01*
G01X22348Y23722D01*
G01X22353Y23718D01*
G01X22359Y23713D01*
G01X22367Y23705D01*
G01X22373Y23697D01*
G01X22377Y23694D01*
G01X22380Y23691D01*
G01X22390Y23687D01*
G01X22393Y23685D01*
G01X22397Y23682D01*
G01X22404Y23677D01*
G01X22414Y23671D01*
G01X22442Y23659D01*
G01X22459Y23651D01*
G01X22467Y23649D01*
G01X22500Y23643D01*
G01X22517Y23639D01*
G01X22529Y23638D01*
G01X22546Y23637D01*
G01X22551Y23636D01*
G01X22553D01*
G01X22554Y23635D01*
G01X22555Y23634D01*
G01X22557Y23633D01*
G01X22561Y23632D01*
G01X22576Y23631D01*
G01X22592Y23632D01*
G01X22601Y23634D01*
G01X22609Y23636D01*
G01X22615Y23637D01*
G01X22648Y23638D01*
G01X22658Y23639D01*
G01X22694Y23649D01*
G01X22708Y23654D01*
G01X22719Y23659D01*
G01X22734Y23668D01*
G01X22752Y23677D01*
G01X22758Y23681D01*
G01X22773Y23692D01*
G01X22780Y23698D01*
G01X22786Y23703D01*
G01X22792Y23711D01*
G01X22798Y23718D01*
G01X22805Y23725D01*
G01X22813Y23731D01*
G01X22817Y23735D01*
G01X22819Y23739D01*
G01X22823Y23748D01*
G01X22827Y23757D01*
G01X22837Y23772D01*
G01X22843Y23786D01*
G01X22855Y23816D01*
G01X22857Y23824D01*
G01X22860Y23832D01*
G01X22862Y23840D01*
G01X22867Y23865D01*
G01X22870Y23877D01*
G01X22871Y23881D01*
G01Y23889D01*
G01X22870Y23892D01*
G01X22866Y23894D01*
G01X22857Y23896D01*
G01X22843Y23897D01*
G01X22824Y23898D01*
G01X22782D01*
G01X22779Y23877D01*
G01X22777Y23867D01*
G01X22774Y23855D01*
G01X22771Y23849D01*
G01X22764Y23836D01*
G01X22754Y23819D01*
G01X22750Y23813D01*
G01X22740Y23798D01*
G01X22734Y23791D01*
G01X22728Y23785D01*
G01X22721Y23778D01*
G01X22691Y23758D01*
G01X22682Y23753D01*
G01X22676Y23751D01*
G01X22656Y23745D01*
G01X22641Y23740D01*
G01X22627Y23737D01*
G01X22617Y23735D01*
G01X22600Y23734D01*
G01X22589D01*
G01X22579Y23731D01*
G01X22575Y23730D01*
G01X22570D01*
G01X22565D01*
G01X22556Y23733D01*
G01X22542Y23734D01*
G01X22518Y23735D01*
G01X22508Y23737D01*
G01X22506D01*
G01X22482Y23746D01*
G01X22471Y23751D01*
G01X22460Y23757D01*
G01X22439Y23771D01*
G01X22431Y23777D01*
G01X22425Y23786D01*
G01X22416Y23798D01*
G01X22409Y23804D01*
G01X22403Y23815D01*
G01X22396Y23833D01*
G01X22390Y23844D01*
G01X22385Y23852D01*
G01X22382Y23858D01*
G01X22380Y23865D01*
G01X22378Y23878D01*
G01X22377Y23882D01*
G01X22375Y23885D01*
G01X22373Y23888D01*
G01X22370Y23891D01*
G01X22368Y23892D01*
G01X22364Y23894D01*
G01X22361Y23895D01*
G01X22352Y23896D01*
G01X22335Y23897D01*
G01X22312Y23898D01*
G37*
G36*
G01X25012Y23898D02*
G01X25012Y23875D01*
G01X25014Y23863D01*
G01X25018Y23848D01*
G01X25023Y23827D01*
G01X25026Y23818D01*
G01X25029Y23813D01*
G01X25033Y23805D01*
G01X25038Y23795D01*
G01X25043Y23777D01*
G01X25048Y23768D01*
G01X25064Y23743D01*
G01X25068Y23736D01*
G01X25075Y23728D01*
G01X25079Y23724D01*
G01X25087Y23719D01*
G01X25094Y23711D01*
G01X25101Y23702D01*
G01X25105Y23698D01*
G01X25128Y23682D01*
G01X25138Y23675D01*
G01X25143Y23671D01*
G01X25147Y23668D01*
G01X25152Y23666D01*
G01X25169Y23661D01*
G01X25179Y23656D01*
G01X25184Y23652D01*
G01X25191Y23650D01*
G01X25199Y23648D01*
G01X25227Y23643D01*
G01X25245Y23639D01*
G01X25258Y23638D01*
G01X25281Y23637D01*
G01X25286Y23636D01*
G01X25287Y23635D01*
G01X25288Y23634D01*
G01X25290Y23633D01*
G01X25295Y23632D01*
G01X25309Y23631D01*
G01X25325Y23632D01*
G01X25334Y23634D01*
G01X25342Y23636D01*
G01X25355Y23637D01*
G01X25380Y23638D01*
G01X25389Y23640D01*
G01X25402Y23643D01*
G01X25422Y23648D01*
G01X25432Y23651D01*
G01X25437Y23654D01*
G01X25444Y23659D01*
G01X25455Y23663D01*
G01X25467Y23666D01*
G01X25471Y23668D01*
G01X25476Y23671D01*
G01X25482Y23677D01*
G01X25487Y23680D01*
G01X25507Y23694D01*
G01X25515Y23700D01*
G01X25520Y23705D01*
G01X25531Y23719D01*
G01X25537Y23726D01*
G01X25540Y23731D01*
G01X25549Y23743D01*
G01X25570Y23778D01*
G01X25576Y23792D01*
G01X25586Y23821D01*
G01X25592Y23839D01*
G01X25596Y23854D01*
G01X25600Y23879D01*
G01X25602Y23888D01*
G01X25603Y23892D01*
G01X25602Y23894D01*
G01X25594Y23896D01*
G01X25580Y23897D01*
G01X25561Y23898D01*
G01X25515D01*
G01X25509Y23877D01*
G01X25502Y23853D01*
G01X25497Y23840D01*
G01X25494Y23833D01*
G01X25490Y23826D01*
G01X25486Y23819D01*
G01X25467Y23792D01*
G01X25463Y23787D01*
G01X25458Y23783D01*
G01X25453Y23778D01*
G01X25446Y23774D01*
G01X25421Y23759D01*
G01X25410Y23753D01*
G01X25394Y23746D01*
G01X25377Y23741D01*
G01X25361Y23737D01*
G01X25349Y23735D01*
G01X25338Y23734D01*
G01X25317D01*
G01X25309Y23732D01*
G01X25301Y23730D01*
G01X25297D01*
G01X25293D01*
G01X25283Y23733D01*
G01X25271Y23734D01*
G01X25250Y23735D01*
G01X25242Y23737D01*
G01X25212Y23746D01*
G01X25204Y23750D01*
G01X25194Y23754D01*
G01X25190Y23757D01*
G01X25185Y23762D01*
G01X25173Y23771D01*
G01X25165Y23777D01*
G01X25155Y23790D01*
G01X25147Y23798D01*
G01X25138Y23804D01*
G01X25135Y23808D01*
G01X25132Y23812D01*
G01X25127Y23826D01*
G01X25119Y23844D01*
G01X25114Y23856D01*
G01X25106Y23880D01*
G01X25102Y23887D01*
G01X25100Y23890D01*
G01X25098Y23892D01*
G01X25096Y23894D01*
G01X25094Y23895D01*
G01X25088Y23896D01*
G01X25078Y23897D01*
G01X25048Y23898D01*
G37*
G36*
G01X20091Y23765D02*
G01X20082Y23742D01*
G01X20077Y23734D01*
G01X20075Y23730D01*
G01X20066Y23720D01*
G01X20046Y23689D01*
G01X20035Y23673D01*
G01X20031Y23667D01*
G01X20027Y23660D01*
G01X20020Y23642D01*
G01X20014Y23631D01*
G01X19997Y23604D01*
G01X19991Y23593D01*
G01X19985Y23581D01*
G01X19978Y23563D01*
G01X19972Y23552D01*
G01X19964Y23539D01*
G01X19958Y23525D01*
G01X19946Y23495D01*
G01X19941Y23484D01*
G01X19935Y23473D01*
G01X19930Y23466D01*
G01X19927Y23459D01*
G01X19921Y23443D01*
G01X19911Y23414D01*
G01X19897Y23380D01*
G01X19892Y23365D01*
G01X19884Y23336D01*
G01X19882Y23331D01*
G01X19867Y23293D01*
G01X19859Y23263D01*
G01X19853Y23243D01*
G01X19847Y23221D01*
G01X19844Y23211D01*
G01X19841Y23197D01*
G01X19836Y23173D01*
G01X19832Y23157D01*
G01X19829Y23143D01*
G01X19824Y23119D01*
G01X19820Y23102D01*
G01X19819Y23092D01*
G01X19818Y23074D01*
G01X19814Y23060D01*
G01X19813Y23049D01*
G01X19811Y23032D01*
G01X19809Y23022D01*
G01X19808Y23017D01*
G01X19807Y23010D01*
G01X19806Y22978D01*
G01X19804Y22967D01*
G01X19803Y22962D01*
G01X19802Y22956D01*
G01X19801Y22947D01*
G01X19800Y22922D01*
G01Y22903D01*
G01X19799Y22893D01*
G01X19797Y22884D01*
G01X19796Y22880D01*
G01X19795Y22869D01*
G01X19794Y22830D01*
G01Y22816D01*
G01X19795Y22769D01*
G01X19796Y22752D01*
G01X19797Y22749D01*
G01X19798Y22744D01*
G01X19799Y22736D01*
G01X19800Y22713D01*
G01X19801Y22695D01*
G01X19802Y22682D01*
G01X19803Y22677D01*
G01X19804Y22671D01*
G01X19805Y22664D01*
G01X19806Y22627D01*
G01X19808Y22616D01*
G01X19811Y22604D01*
G01X19814Y22586D01*
G01X19818Y22558D01*
G01X19820Y22546D01*
G01X19822Y22535D01*
G01X19827Y22519D01*
G01X19830Y22503D01*
G01X19831Y22488D01*
G01X19832Y22481D01*
G01X19834Y22474D01*
G01X19838Y22465D01*
G01X19840Y22459D01*
G01X19842Y22453D01*
G01Y22446D01*
G01X19843Y22437D01*
G01X19844Y22431D01*
G01X19846Y22425D01*
G01X19852Y22412D01*
G01X19854Y22405D01*
G01X19856Y22398D01*
G01X19861Y22373D01*
G01X19864Y22362D01*
G01X19881Y22315D01*
G01X19888Y22295D01*
G01X19897Y22271D01*
G01X19933Y22180D01*
G01X19938Y22169D01*
G01X19944Y22158D01*
G01X19949Y22150D01*
G01X19952Y22144D01*
G01X19962Y22116D01*
G01X19968Y22104D01*
G01X19976Y22091D01*
G01X19991Y22063D01*
G01X20003Y22042D01*
G01X20009Y22030D01*
G01X20013Y22019D01*
G01X20024Y22000D01*
G01X20036Y21980D01*
G01X20041Y21970D01*
G01X20052Y21956D01*
G01X20057Y21947D01*
G01X20067Y21930D01*
G01X20072Y21924D01*
G01X20076Y21919D01*
G01X20082Y21910D01*
G01X20085Y21904D01*
G01X20087Y21901D01*
G01X20092Y21899D01*
G01X20098Y21897D01*
G01X20106Y21895D01*
G01X20116Y21894D01*
G01X20142Y21892D01*
G01X20158D01*
G01X20190Y21893D01*
G01X20203Y21894D01*
G01X20215Y21895D01*
G01X20220Y21897D01*
G01X20222Y21898D01*
G01X20223D01*
G01X20224Y21899D01*
G01Y21900D01*
G01Y21901D01*
G01Y21905D01*
G01X20223Y21910D01*
G01X20221Y21915D01*
G01X20218Y21919D01*
G01X20203Y21944D01*
G01X20191Y21964D01*
G01X20182Y21982D01*
G01X20173Y21997D01*
G01X20170Y22002D01*
G01X20159Y22026D01*
G01X20153Y22038D01*
G01X20146Y22051D01*
G01X20135Y22075D01*
G01X20129Y22086D01*
G01X20124Y22093D01*
G01X20120Y22104D01*
G01X20115Y22121D01*
G01X20106Y22137D01*
G01X20103Y22143D01*
G01X20097Y22158D01*
G01X20091Y22175D01*
G01X20082Y22196D01*
G01X20077Y22208D01*
G01X20069Y22237D01*
G01X20064Y22249D01*
G01X20055Y22268D01*
G01X20050Y22290D01*
G01X20045Y22304D01*
G01X20037Y22323D01*
G01X20033Y22337D01*
G01X20030Y22351D01*
G01X20018Y22389D01*
G01X20013Y22406D01*
G01X20007Y22434D01*
G01X20000Y22456D01*
G01X19997Y22464D01*
G01X19995Y22472D01*
G01X19994Y22483D01*
G01Y22492D01*
G01X19991Y22504D01*
G01X19987Y22513D01*
G01X19984Y22521D01*
G01X19982Y22533D01*
G01Y22558D01*
G01X19980Y22568D01*
G01X19976Y22584D01*
G01X19973Y22598D01*
G01X19972Y22606D01*
G01X19970Y22615D01*
G01Y22634D01*
G01X19969Y22649D01*
G01X19968Y22659D01*
G01X19965Y22670D01*
G01X19962Y22685D01*
G01X19960Y22702D01*
G01X19958Y22752D01*
G01Y22843D01*
G01X19959Y22965D01*
G01X19960Y22978D01*
G01X19962Y22985D01*
G01X19965Y23000D01*
G01X19967Y23010D01*
G01X19969Y23031D01*
G01X19970Y23058D01*
G01X19972Y23072D01*
G01X19976Y23087D01*
G01X19979Y23101D01*
G01X19985Y23134D01*
G01X19988Y23150D01*
G01X19992Y23167D01*
G01X19995Y23181D01*
G01X20000Y23205D01*
G01X20006Y23227D01*
G01X20012Y23254D01*
G01X20024Y23292D01*
G01X20037Y23331D01*
G01X20046Y23361D01*
G01X20060Y23400D01*
G01X20065Y23419D01*
G01X20070Y23432D01*
G01X20077Y23447D01*
G01X20085Y23468D01*
G01X20091Y23484D01*
G01X20102Y23508D01*
G01X20109Y23528D01*
G01X20115Y23545D01*
G01X20129Y23575D01*
G01X20138Y23596D01*
G01X20144Y23608D01*
G01X20152Y23620D01*
G01X20167Y23647D01*
G01X20173Y23659D01*
G01X20185Y23679D01*
G01X20194Y23697D01*
G01X20206Y23717D01*
G01X20218Y23739D01*
G01X20224Y23750D01*
G01X20226Y23754D01*
G01X20225Y23757D01*
G01X20221Y23760D01*
G01X20215Y23762D01*
G01X20211D01*
G01X20199Y23763D01*
G01X20146Y23765D01*
G37*
G36*
G01X25994Y23765D02*
G01X25970Y23764D01*
G01X25960Y23763D01*
G01X25947Y23761D01*
G01X25941Y23759D01*
G01X25935Y23757D01*
G01Y23756D01*
G01X25934Y23755D01*
G01Y23754D01*
G01X25933Y23753D01*
G01X25934Y23746D01*
G01X25935Y23741D01*
G01X25937Y23736D01*
G01X25939Y23731D01*
G01X25955Y23707D01*
G01X25966Y23686D01*
G01X25979Y23664D01*
G01X25991Y23642D01*
G01X25996Y23631D01*
G01X26001Y23617D01*
G01X26015Y23594D01*
G01X26020Y23582D01*
G01X26025Y23570D01*
G01X26035Y23549D01*
G01X26043Y23528D01*
G01X26047Y23516D01*
G01X26053Y23503D01*
G01X26057Y23496D01*
G01X26062Y23486D01*
G01X26068Y23468D01*
G01X26076Y23449D01*
G01X26080Y23437D01*
G01X26089Y23408D01*
G01X26094Y23395D01*
G01X26100Y23382D01*
G01X26105Y23370D01*
G01X26109Y23355D01*
G01X26118Y23325D01*
G01X26121Y23315D01*
G01X26126Y23293D01*
G01X26131Y23280D01*
G01X26138Y23263D01*
G01X26140Y23255D01*
G01X26146Y23222D01*
G01X26149Y23210D01*
G01X26158Y23180D01*
G01X26161Y23165D01*
G01X26163Y23157D01*
G01X26164Y23143D01*
G01X26165Y23137D01*
G01X26166Y23131D01*
G01X26171Y23119D01*
G01X26174Y23111D01*
G01X26176Y23097D01*
G01Y23070D01*
G01X26178Y23058D01*
G01X26182Y23042D01*
G01X26185Y23028D01*
G01X26186Y23021D01*
G01X26187Y23011D01*
G01X26188Y22992D01*
G01Y22978D01*
G01X26190Y22967D01*
G01X26192Y22957D01*
G01X26194Y22943D01*
G01X26195Y22918D01*
G01X26197Y22909D01*
G01X26198Y22904D01*
G01X26199Y22890D01*
G01X26200Y22816D01*
G01X26199Y22742D01*
G01X26198Y22727D01*
G01X26196Y22720D01*
G01X26195Y22708D01*
G01X26193Y22687D01*
G01X26192Y22679D01*
G01X26190Y22671D01*
G01X26189Y22664D01*
G01X26187Y22627D01*
G01X26186Y22616D01*
G01X26182Y22599D01*
G01X26179Y22586D01*
G01X26177Y22575D01*
G01X26176Y22563D01*
G01Y22548D01*
G01X26174Y22541D01*
G01X26173Y22534D01*
G01X26169Y22525D01*
G01X26166Y22519D01*
G01X26165Y22512D01*
G01X26164Y22505D01*
G01X26163Y22487D01*
G01X26161Y22479D01*
G01X26158Y22466D01*
G01X26150Y22431D01*
G01X26146Y22416D01*
G01X26121Y22331D01*
G01X26109Y22292D01*
G01X26100Y22265D01*
G01X26086Y22226D01*
G01X26080Y22207D01*
G01X26076Y22195D01*
G01X26065Y22173D01*
G01X26061Y22162D01*
G01X26052Y22141D01*
G01X26041Y22118D01*
G01X26037Y22107D01*
G01X26024Y22077D01*
G01X26020Y22066D01*
G01X26014Y22055D01*
G01X26006Y22042D01*
G01X25995Y22018D01*
G01X25990Y22007D01*
G01X25982Y21994D01*
G01X25967Y21966D01*
G01X25961Y21956D01*
G01X25943Y21925D01*
G01X25936Y21915D01*
G01X25931Y21903D01*
G01X25930Y21901D01*
G01X25933Y21897D01*
G01X25945Y21894D01*
G01X25965Y21892D01*
G01X25994D01*
G01X26061D01*
G01X26070Y21907D01*
G01X26081Y21925D01*
G01X26097Y21947D01*
G01X26106Y21961D01*
G01X26124Y21992D01*
G01X26131Y22003D01*
G01X26136Y22015D01*
G01X26143Y22029D01*
G01X26146Y22037D01*
G01X26150Y22043D01*
G01X26163Y22061D01*
G01X26166Y22069D01*
G01X26171Y22081D01*
G01X26185Y22106D01*
G01X26190Y22117D01*
G01X26195Y22129D01*
G01X26208Y22157D01*
G01X26217Y22178D01*
G01X26223Y22189D01*
G01X26227Y22197D01*
G01X26232Y22207D01*
G01X26237Y22225D01*
G01X26247Y22247D01*
G01X26254Y22268D01*
G01X26261Y22284D01*
G01X26270Y22304D01*
G01X26272Y22311D01*
G01X26274Y22319D01*
G01X26278Y22337D01*
G01X26281Y22347D01*
G01X26283Y22353D01*
G01X26287Y22360D01*
G01X26290Y22365D01*
G01X26291Y22371D01*
G01X26292Y22382D01*
G01X26293Y22388D01*
G01X26295Y22393D01*
G01X26300Y22403D01*
G01X26302Y22408D01*
G01X26303Y22413D01*
G01X26304Y22425D01*
G01X26305Y22431D01*
G01X26307Y22436D01*
G01X26312Y22445D01*
G01X26314Y22451D01*
G01X26315Y22457D01*
G01Y22472D01*
G01X26317Y22484D01*
G01X26322Y22499D01*
G01X26325Y22513D01*
G01X26331Y22544D01*
G01X26334Y22557D01*
G01X26337Y22567D01*
G01X26338Y22573D01*
G01X26339Y22580D01*
G01X26340Y22612D01*
G01X26341Y22623D01*
G01X26345Y22639D01*
G01X26348Y22652D01*
G01X26350Y22661D01*
G01X26351Y22680D01*
G01X26353Y22730D01*
G01X26354Y22745D01*
G01X26356Y22755D01*
G01X26357Y22763D01*
G01X26358Y22786D01*
G01Y22804D01*
G01X26360Y22816D01*
G01X26361Y22822D01*
G01X26362Y22826D01*
G01Y22836D01*
G01X26360Y22846D01*
G01X26359Y22855D01*
G01X26358Y22880D01*
G01X26357Y22900D01*
G01Y22909D01*
G01X26355Y22918D01*
G01X26354Y22922D01*
G01X26353Y22936D01*
G01X26351Y22996D01*
G01X26349Y23012D01*
G01X26347Y23022D01*
G01X26344Y23037D01*
G01X26342Y23046D01*
G01X26340Y23066D01*
G01X26339Y23087D01*
G01Y23094D01*
G01X26337Y23100D01*
G01X26335Y23107D01*
G01X26331Y23117D01*
G01X26328Y23130D01*
G01X26325Y23155D01*
G01X26323Y23162D01*
G01X26318Y23171D01*
G01X26317Y23178D01*
G01X26315Y23190D01*
G01Y23203D01*
G01X26314Y23211D01*
G01X26312Y23217D01*
G01X26311Y23220D01*
G01X26306Y23227D01*
G01X26304Y23233D01*
G01X26302Y23241D01*
G01X26297Y23265D01*
G01X26285Y23304D01*
G01X26278Y23328D01*
G01X26272Y23347D01*
G01X26264Y23365D01*
G01X26260Y23379D01*
G01X26256Y23393D01*
G01X26253Y23403D01*
G01X26250Y23408D01*
G01X26246Y23415D01*
G01X26241Y23425D01*
G01X26236Y23443D01*
G01X26223Y23472D01*
G01X26218Y23483D01*
G01X26209Y23504D01*
G01X26194Y23534D01*
G01X26186Y23551D01*
G01X26179Y23569D01*
G01X26174Y23577D01*
G01X26171Y23581D01*
G01X26167Y23586D01*
G01X26165Y23589D01*
G01X26163Y23594D01*
G01X26157Y23607D01*
G01X26146Y23626D01*
G01X26131Y23653D01*
G01X26124Y23665D01*
G01X26112Y23686D01*
G01X26103Y23702D01*
G01X26099Y23708D01*
G01X26094Y23713D01*
G01X26088Y23723D01*
G01X26082Y23734D01*
G01X26078Y23740D01*
G01X26073Y23746D01*
G01X26067Y23753D01*
G01X26063Y23755D01*
G01X26058Y23758D01*
G01X26051Y23760D01*
G01X26043Y23762D01*
G01X26033Y23763D01*
G01X26009Y23764D01*
G37*
G36*
G01X21152Y23328D02*
G01X21152Y23165D01*
G01X21150Y23005D01*
G01X21149Y22994D01*
G01Y22992D01*
G01X21147Y22986D01*
G01X21144Y22971D01*
G01X21141Y22951D01*
G01X21139Y22943D01*
G01X21135Y22932D01*
G01X21128Y22916D01*
G01X21123Y22898D01*
G01X21118Y22886D01*
G01X21108Y22864D01*
G01X21099Y22842D01*
G01X21093Y22831D01*
G01X21076Y22804D01*
G01X21065Y22786D01*
G01X21042Y22755D01*
G01X21030Y22739D01*
G01X21019Y22724D01*
G01X21013Y22718D01*
G01X21005Y22712D01*
G01X20999Y22707D01*
G01X20991Y22699D01*
G01X20981Y22687D01*
G01X20969Y22677D01*
G01X20961Y22669D01*
G01X20951Y22656D01*
G01X20938Y22646D01*
G01X20931Y22639D01*
G01X20924Y22630D01*
G01X20920Y22627D01*
G01X20916Y22624D01*
G01X20908Y22620D01*
G01X20904Y22618D01*
G01X20900Y22616D01*
G01X20894Y22610D01*
G01X20882Y22601D01*
G01X20848Y22577D01*
G01X20804Y22550D01*
G01X20799Y22547D01*
G01X20775Y22536D01*
G01X20763Y22530D01*
G01X20750Y22522D01*
G01X20726Y22512D01*
G01X20715Y22505D01*
G01X20708Y22501D01*
G01X20697Y22497D01*
G01X20679Y22491D01*
G01X20660Y22483D01*
G01X20647Y22478D01*
G01X20633Y22475D01*
G01X20627Y22473D01*
G01X20625Y22472D01*
G01X20624Y22470D01*
G01X20622Y22469D01*
G01X20621Y22468D01*
G01X20620Y22464D01*
G01X20621Y22459D01*
G01X20622Y22454D01*
G01X20624Y22446D01*
G01X20629Y22436D01*
G01X20635Y22425D01*
G01X20643Y22411D01*
G01X20653Y22388D01*
G01X20659Y22376D01*
G01X20667Y22364D01*
G01X20673Y22353D01*
G01X20676Y22347D01*
G01X20680Y22344D01*
G01X20684Y22343D01*
G01X20688D01*
G01X20752Y22365D01*
G01X20781Y22375D01*
G01X20806Y22386D01*
G01X20829Y22396D01*
G01X20847Y22404D01*
G01X20854Y22408D01*
G01X20861Y22412D01*
G01X20873Y22421D01*
G01X20880Y22425D01*
G01X20887Y22428D01*
G01X20907Y22437D01*
G01X20912Y22440D01*
G01X20919Y22446D01*
G01X20924Y22450D01*
G01X20946Y22465D01*
G01X20956Y22472D01*
G01X20961Y22477D01*
G01X20966Y22481D01*
G01X20989Y22495D01*
G01X20999Y22502D01*
G01X21011Y22513D01*
G01X21020Y22519D01*
G01X21027Y22527D01*
G01X21037Y22539D01*
G01X21045Y22547D01*
G01X21058Y22556D01*
G01X21071Y22567D01*
G01X21080Y22574D01*
G01X21088Y22582D01*
G01X21097Y22594D01*
G01X21106Y22604D01*
G01X21116Y22616D01*
G01X21122Y22624D01*
G01X21130Y22631D01*
G01X21135Y22634D01*
G01X21139Y22639D01*
G01X21142Y22644D01*
G01X21152Y22660D01*
G01X21156Y22666D01*
G01X21161Y22671D01*
G01X21164Y22676D01*
G01X21184Y22707D01*
G01X21195Y22722D01*
G01X21199Y22729D01*
G01X21203Y22736D01*
G01X21211Y22754D01*
G01X21217Y22766D01*
G01X21224Y22776D01*
G01X21230Y22783D01*
G01X21233Y22785D01*
G01X21236D01*
G01X21239Y22783D01*
G01X21243Y22780D01*
G01X21248Y22770D01*
G01X21253Y22753D01*
G01X21255Y22748D01*
G01X21258Y22744D01*
G01X21264Y22737D01*
G01X21270Y22726D01*
G01X21276Y22712D01*
G01X21280Y22706D01*
G01X21284Y22702D01*
G01X21288Y22698D01*
G01X21292Y22695D01*
G01X21295Y22691D01*
G01X21298Y22687D01*
G01X21302Y22678D01*
G01X21306Y22672D01*
G01X21310Y22666D01*
G01X21315Y22658D01*
G01X21340Y22628D01*
G01X21346Y22621D01*
G01X21351Y22615D01*
G01X21358Y22609D01*
G01X21365Y22603D01*
G01X21369Y22599D01*
G01X21373Y22594D01*
G01X21379Y22583D01*
G01X21383Y22578D01*
G01X21388Y22574D01*
G01X21397Y22569D01*
G01X21403Y22566D01*
G01X21407Y22562D01*
G01X21411Y22558D01*
G01X21415Y22551D01*
G01X21423Y22544D01*
G01X21436Y22534D01*
G01X21446Y22525D01*
G01X21458Y22516D01*
G01X21470Y22507D01*
G01X21484Y22495D01*
G01X21509Y22477D01*
G01X21522Y22468D01*
G01X21537Y22459D01*
G01X21567Y22440D01*
G01X21578Y22434D01*
G01X21589Y22428D01*
G01X21605Y22422D01*
G01X21611Y22419D01*
G01X21618Y22414D01*
G01X21631Y22406D01*
G01X21638Y22402D01*
G01X21646Y22398D01*
G01X21671Y22389D01*
G01X21691Y22380D01*
G01X21705Y22375D01*
G01X21727Y22370D01*
G01X21739Y22365D01*
G01X21746Y22362D01*
G01X21753Y22359D01*
G01X21761Y22357D01*
G01X21774Y22355D01*
G01X21778D01*
G01X21782Y22356D01*
G01X21784D01*
G01X21787Y22358D01*
G01X21789Y22360D01*
G01X21790Y22362D01*
G01X21793Y22370D01*
G01X21797Y22381D01*
G01X21806Y22396D01*
G01X21821Y22431D01*
G01X21832Y22454D01*
G01X21842Y22480D01*
G01X21821Y22483D01*
G01X21811Y22485D01*
G01X21802Y22487D01*
G01X21791Y22490D01*
G01X21778Y22496D01*
G01X21758Y22504D01*
G01X21728Y22515D01*
G01X21714Y22521D01*
G01X21702Y22527D01*
G01X21690Y22534D01*
G01X21665Y22545D01*
G01X21654Y22551D01*
G01X21628Y22567D01*
G01X21610Y22579D01*
G01X21579Y22601D01*
G01X21562Y22614D01*
G01X21535Y22634D01*
G01X21526Y22641D01*
G01X21518Y22648D01*
G01X21509Y22661D01*
G01X21496Y22671D01*
G01X21488Y22679D01*
G01X21478Y22691D01*
G01X21466Y22701D01*
G01X21458Y22709D01*
G01X21449Y22721D01*
G01X21440Y22731D01*
G01X21430Y22743D01*
G01X21418Y22760D01*
G01X21404Y22779D01*
G01X21396Y22792D01*
G01X21388Y22806D01*
G01X21379Y22821D01*
G01X21376Y22826D01*
G01X21365Y22851D01*
G01X21359Y22862D01*
G01X21355Y22870D01*
G01X21352Y22876D01*
G01X21346Y22892D01*
G01X21327Y22946D01*
G01X21325Y22956D01*
G01X21322Y22967D01*
G01X21319Y22985D01*
G01X21312Y23040D01*
G01Y23047D01*
G01X21310Y23100D01*
G01X21309Y23195D01*
G01Y23328D01*
G37*
G36*
G01X23412Y23310D02*
G01X23412Y22831D01*
G01X23564D01*
G01X24351D01*
G01Y22510D01*
G01X23961D01*
G01X23574Y22513D01*
G01X23568D01*
G01X23567D01*
G01X23566Y22516D01*
G01X23565Y22537D01*
G01X23564Y22674D01*
G01Y22831D01*
G01X23412D01*
G01Y22371D01*
G01X24503D01*
G01Y23310D01*
G01X24351D01*
G01Y22971D01*
G01X23564D01*
G01Y23310D01*
G37*
G04 //text: U1*
G54D14*
G01X18491Y20844D02*
G01X18491Y20379D01*
G01X18522Y20287D01*
G01X18585Y20224D01*
G01X18677Y20193D01*
G01X18740D01*
G01X18832Y20224D01*
G01X18893Y20287D01*
G01X18926Y20379D01*
G01Y20844D01*
G01X19225Y20719D02*
G01X19289Y20752D01*
G01X19380Y20844D01*
G01Y20193D01*
G04 //text: D1*
G01X18999Y30750D02*
G01X18999Y30099D01*
G01X18999Y30750D02*
G01X19215Y30750D01*
G01X19309Y30719D01*
G01X19370Y30658D01*
G01X19401Y30595D01*
G01X19434Y30503D01*
G01Y30348D01*
G01X19401Y30254D01*
G01X19370Y30193D01*
G01X19309Y30130D01*
G01X19215Y30099D01*
G01X18999D01*
G01X19733Y30625D02*
G01X19797Y30658D01*
G01X19888Y30750D01*
G01Y30099D01*
G04 //text: R1*
G01X24841Y20844D02*
G01X24841Y20193D01*
G01X24841Y20844D02*
G01X25121Y20844D01*
G01X25212Y20813D01*
G01X25243Y20783D01*
G01X25276Y20719D01*
G01Y20658D01*
G01X25243Y20597D01*
G01X25212Y20567D01*
G01X25121Y20534D01*
G01X24841D01*
G01X25057Y20534D02*
G01X25276Y20193D01*
G01X25575Y20719D02*
G01X25639Y20752D01*
G01X25730Y20844D01*
G01Y20193D01*
G04 //text: L1*
G01X4902Y31004D02*
G01X4902Y30353D01*
G01X4902Y30353D02*
G01X5273Y30353D01*
G01X5575Y30879D02*
G01X5636Y30912D01*
G01X5730Y31004D01*
G01Y30353D01*
G04 //text: C1*
G01X13622Y20308D02*
G01X13592Y20371D01*
G01X13528Y20432D01*
G01X13467Y20463D01*
G01X13343D01*
G01X13282Y20432D01*
G01X13218Y20371D01*
G01X13188Y20308D01*
G01X13157Y20216D01*
G01Y20061D01*
G01X13188Y19967D01*
G01X13218Y19906D01*
G01X13282Y19843D01*
G01X13343Y19812D01*
G01X13467D01*
G01X13528Y19843D01*
G01X13592Y19906D01*
G01X13622Y19967D01*
G01X13922Y20338D02*
G01X13985Y20371D01*
G01X14077Y20463D01*
G01Y19812D01*
G04 //text: C2*
G01X15400Y20308D02*
G01X15370Y20371D01*
G01X15306Y20432D01*
G01X15245Y20463D01*
G01X15121D01*
G01X15060Y20432D01*
G01X14996Y20371D01*
G01X14966Y20308D01*
G01X14935Y20216D01*
G01Y20061D01*
G01X14966Y19967D01*
G01X14996Y19906D01*
G01X15060Y19843D01*
G01X15121Y19812D01*
G01X15245D01*
G01X15306Y19843D01*
G01X15370Y19906D01*
G01X15400Y19967D01*
G01X15733Y20308D02*
G01X15733Y20338D01*
G01X15763Y20402D01*
G01X15794Y20432D01*
G01X15855Y20463D01*
G01X15979D01*
G01X16040Y20432D01*
G01X16073Y20402D01*
G01X16104Y20338D01*
G01Y20277D01*
G01X16073Y20216D01*
G01X16010Y20122D01*
G01X15700Y19812D01*
G01X16134D01*
G04 //text: C3*
G01X28735Y20181D02*
G01X28705Y20244D01*
G01X28641Y20305D01*
G01X28580Y20336D01*
G01X28456D01*
G01X28395Y20305D01*
G01X28331Y20244D01*
G01X28301Y20181D01*
G01X28270Y20089D01*
G01Y19934D01*
G01X28301Y19840D01*
G01X28331Y19779D01*
G01X28395Y19716D01*
G01X28456Y19685D01*
G01X28580D01*
G01X28641Y19716D01*
G01X28705Y19779D01*
G01X28735Y19840D01*
G01X29098Y20336D02*
G01X29439Y20336D01*
G01X29253Y20089D01*
G01X29345D01*
G01X29408Y20059D01*
G01X29439Y20026D01*
G01X29469Y19934D01*
G01Y19871D01*
G01X29439Y19779D01*
G01X29375Y19716D01*
G01X29284Y19685D01*
G01X29190D01*
G01X29098Y19716D01*
G01X29068Y19749D01*
G01X29035Y19810D01*
G04 //text: C4*
G01X30640Y20181D02*
G01X30610Y20244D01*
G01X30546Y20305D01*
G01X30485Y20336D01*
G01X30361D01*
G01X30300Y20305D01*
G01X30236Y20244D01*
G01X30206Y20181D01*
G01X30175Y20089D01*
G01Y19934D01*
G01X30206Y19840D01*
G01X30236Y19779D01*
G01X30300Y19716D01*
G01X30361Y19685D01*
G01X30485D01*
G01X30546Y19716D01*
G01X30610Y19779D01*
G01X30640Y19840D01*
G01X31250Y20336D02*
G01X30940Y19904D01*
G01X31405D01*
G01X31250Y20336D02*
G01X31250Y19685D01*
G04 //text: R2*
G01X23063Y20844D02*
G01X23063Y20193D01*
G01X23063Y20844D02*
G01X23343Y20844D01*
G01X23434Y20813D01*
G01X23465Y20783D01*
G01X23498Y20719D01*
G01Y20658D01*
G01X23465Y20597D01*
G01X23434Y20567D01*
G01X23343Y20534D01*
G01X23063D01*
G01X23279Y20534D02*
G01X23498Y20193D01*
G01X23828Y20689D02*
G01X23828Y20719D01*
G01X23861Y20783D01*
G01X23891Y20813D01*
G01X23952Y20844D01*
G01X24077D01*
G01X24138Y20813D01*
G01X24168Y20783D01*
G01X24201Y20719D01*
G01Y20658D01*
G01X24168Y20597D01*
G01X24107Y20503D01*
G01X23797Y20193D01*
G01X24232D01*
G04 //text: U2*
G01X47058Y25551D02*
G01X47058Y25086D01*
G01X47088Y24995D01*
G01X47152Y24931D01*
G01X47243Y24901D01*
G01X47307D01*
G01X47398Y24931D01*
G01X47459Y24995D01*
G01X47492Y25086D01*
G01Y25551D01*
G01X47822Y25396D02*
G01X47822Y25427D01*
G01X47855Y25490D01*
G01X47886Y25521D01*
G01X47947Y25551D01*
G01X48071D01*
G01X48132Y25521D01*
G01X48163Y25490D01*
G01X48196Y25427D01*
G01Y25366D01*
G01X48163Y25305D01*
G01X48102Y25211D01*
G01X47792Y24901D01*
G01X48226D01*
G04 //text: X1*
G01X30937Y23765D02*
G01X31372Y23114D01*
G01X31372Y23765D02*
G01X30937Y23114D01*
G01X31671Y23640D02*
G01X31735Y23673D01*
G01X31826Y23765D01*
G01Y23114D01*
G04 //text: U3*
G01X6299Y22495D02*
G01X6299Y22030D01*
G01X6330Y21938D01*
G01X6393Y21875D01*
G01X6485Y21844D01*
G01X6548D01*
G01X6640Y21875D01*
G01X6701Y21938D01*
G01X6734Y22030D01*
G01Y22495D01*
G01X7097Y22495D02*
G01X7437Y22495D01*
G01X7249Y22248D01*
G01X7343D01*
G01X7404Y22218D01*
G01X7437Y22185D01*
G01X7468Y22093D01*
G01Y22030D01*
G01X7437Y21938D01*
G01X7374Y21875D01*
G01X7282Y21844D01*
G01X7188D01*
G01X7097Y21875D01*
G01X7064Y21908D01*
G01X7033Y21969D01*
G04 //text: C5*
G01X3843Y21959D02*
G01X3813Y22022D01*
G01X3749Y22083D01*
G01X3688Y22114D01*
G01X3564D01*
G01X3503Y22083D01*
G01X3439Y22022D01*
G01X3409Y21959D01*
G01X3378Y21867D01*
G01Y21712D01*
G01X3409Y21618D01*
G01X3439Y21557D01*
G01X3503Y21494D01*
G01X3564Y21463D01*
G01X3688D01*
G01X3749Y21494D01*
G01X3813Y21557D01*
G01X3843Y21618D01*
G01X4516Y22114D02*
G01X4206Y22114D01*
G01X4176Y21837D01*
G01X4206Y21867D01*
G01X4298Y21898D01*
G01X4392D01*
G01X4483Y21867D01*
G01X4547Y21804D01*
G01X4577Y21712D01*
G01Y21649D01*
G01X4547Y21557D01*
G01X4483Y21494D01*
G01X4392Y21463D01*
G01X4298D01*
G01X4206Y21494D01*
G01X4176Y21527D01*
G01X4143Y21588D01*
G04 //text: R3*
G01X9347Y21479D02*
G01X9347Y20828D01*
G01X9347Y21479D02*
G01X9627Y21479D01*
G01X9718Y21448D01*
G01X9749Y21418D01*
G01X9782Y21354D01*
G01Y21293D01*
G01X9749Y21232D01*
G01X9718Y21202D01*
G01X9627Y21169D01*
G01X9347D01*
G01X9563Y21169D02*
G01X9782Y20828D01*
G01X10145Y21479D02*
G01X10485Y21479D01*
G01X10297Y21232D01*
G01X10391D01*
G01X10452Y21202D01*
G01X10485Y21169D01*
G01X10516Y21077D01*
G01Y21014D01*
G01X10485Y20922D01*
G01X10422Y20859D01*
G01X10330Y20828D01*
G01X10236D01*
G01X10145Y20859D01*
G01X10112Y20892D01*
G01X10081Y20953D01*
G04 //text: R4*
G01X3378Y28591D02*
G01X3378Y27940D01*
G01X3378Y28591D02*
G01X3658Y28591D01*
G01X3749Y28560D01*
G01X3780Y28530D01*
G01X3813Y28466D01*
G01Y28405D01*
G01X3780Y28344D01*
G01X3749Y28314D01*
G01X3658Y28281D01*
G01X3378D01*
G01X3594Y28281D02*
G01X3813Y27940D01*
G01X4422Y28591D02*
G01X4112Y28159D01*
G01X4577D01*
G01X4422Y28591D02*
G01X4422Y27940D01*
G04 Text End*
G54D15*
G01X18023Y19673D02*
G01X19823Y19673D01*
G01X18023Y16573D02*
G01X19823Y16573D01*
G54D14*
G01X20299Y26673D02*
G01X15007Y26673D01*
G01X20299Y29385D02*
G01X15007Y29385D01*
G01X18922Y26673D02*
G01X18922Y29385D01*
G01X15007Y26673D02*
G01X15007Y27057D01*
G01X15007Y29385D02*
G01X15007Y29002D01*
G36*
G01X20223Y26597D02*
G01X20223Y27107D01*
G01X20680D01*
G01Y26597D01*
G01X20223D01*
G37*
G54D16*
G01X20223Y26597D02*
G01X20223Y27107D01*
G01X20680D01*
G01Y26597D01*
G01X20223D01*
G36*
G01X20223Y29462D02*
G01X20223Y28951D01*
G01X20680D01*
G01Y29462D01*
G01X20223D01*
G37*
G01X20223Y29462D02*
G01X20223Y28951D01*
G01X20680D01*
G01Y29462D01*
G01X20223D01*
G54D14*
G01X24612Y17960D02*
G01X24612Y17001D01*
G01X24612Y17001D02*
G01X25934Y17001D01*
G01X25934Y17001D02*
G01X25934Y17960D01*
G01X24612Y18812D02*
G01X24612Y19771D01*
G01X24612Y19771D02*
G01X25934Y19771D01*
G01X25934Y19771D02*
G01X25934Y18812D01*
G54D15*
G01X6477Y29934D02*
G01X6477Y31077D01*
G01X6477Y31077D02*
G01X13081Y31077D01*
G01X13081Y31077D02*
G01X13081Y29934D01*
G01X13081Y25616D02*
G01X13081Y24473D01*
G01X13081Y24473D02*
G01X6477Y24473D01*
G01X6477Y24473D02*
G01X6477Y25616D01*
G54D14*
G01X14493Y15788D02*
G01X14493Y17198D01*
G01X12685Y17198D02*
G01X12685Y15788D01*
G01X12838Y15636D02*
G01X14340Y15636D01*
G01X14493Y19410D02*
G01X14493Y18000D01*
G01X12685Y18000D02*
G01X12685Y19410D01*
G01X12838Y19563D02*
G01X14340Y19563D01*
G01X12685Y15788D02*
G03X12838Y15636I152J0D01*
G01X14340Y15636D02*
G03X14493Y15788I0J152D01*
G01X12685Y19410D02*
G02X12838Y19563I152J0D01*
G01X14340Y19563D02*
G02X14493Y19410I0J-152D01*
G01X16398Y15788D02*
G01X16398Y17198D01*
G01X14590Y17198D02*
G01X14590Y15788D01*
G01X14743Y15636D02*
G01X16245Y15636D01*
G01X16398Y19410D02*
G01X16398Y18000D01*
G01X14590Y18000D02*
G01X14590Y19410D01*
G01X14743Y19563D02*
G01X16245Y19563D01*
G01X14590Y15788D02*
G03X14743Y15636I152J0D01*
G01X16245Y15636D02*
G03X16398Y15788I0J152D01*
G01X14590Y19410D02*
G02X14743Y19563I152J0D01*
G01X16245Y19563D02*
G02X16398Y19410I0J-152D01*
G01X29733Y15566D02*
G01X29733Y16976D01*
G01X27925Y16976D02*
G01X27925Y15566D01*
G01X28078Y15414D02*
G01X29580Y15414D01*
G01X29733Y19188D02*
G01X29733Y17778D01*
G01X27925Y17778D02*
G01X27925Y19188D01*
G01X28078Y19341D02*
G01X29580Y19341D01*
G01X27925Y15566D02*
G03X28078Y15414I152J0D01*
G01X29580Y15414D02*
G03X29733Y15566I0J152D01*
G01X27925Y19188D02*
G02X28078Y19341I152J0D01*
G01X29580Y19341D02*
G02X29733Y19188I0J-152D01*
G01X31765Y15566D02*
G01X31765Y16976D01*
G01X29957Y16976D02*
G01X29957Y15566D01*
G01X30110Y15414D02*
G01X31612Y15414D01*
G01X31765Y19188D02*
G01X31765Y17778D01*
G01X29957Y17778D02*
G01X29957Y19188D01*
G01X30110Y19341D02*
G01X31612Y19341D01*
G01X29957Y15566D02*
G03X30110Y15414I152J0D01*
G01X31612Y15414D02*
G03X31765Y15566I0J152D01*
G01X29957Y19188D02*
G02X30110Y19341I152J0D01*
G01X31612Y19341D02*
G02X31765Y19188I0J-152D01*
G01X24283Y18812D02*
G01X24283Y19771D01*
G01X24283Y19771D02*
G01X22961Y19771D01*
G01X22961Y19771D02*
G01X22961Y18812D01*
G01X24283Y17960D02*
G01X24283Y17001D01*
G01X24283Y17001D02*
G01X22961Y17001D01*
G01X22961Y17001D02*
G01X22961Y17960D01*
G54D15*
G01X46482Y22695D02*
G01X46482Y27775D01*
G01X36322Y22695D02*
G01X36322Y23965D01*
G01X46482Y22695D02*
G01X36322Y22695D01*
G01X46482Y27775D02*
G01X36322Y27775D01*
G01X36322Y26505D02*
G01X36322Y27775D01*
G01X36322Y26505D02*
G02X36322Y23965I0J-1270D01*
G01X34736Y23861D02*
G01X35886Y23861D01*
G01X35886Y23861D02*
G01X35886Y17211D01*
G01X35886Y17211D02*
G01X34736Y17211D01*
G01X33336Y17211D02*
G01X32186Y17211D01*
G01X32186Y17211D02*
G01X32186Y23861D01*
G01X32186Y23861D02*
G01X33336Y23861D01*
G01X33336Y23861D02*
G01X34736Y23861D01*
G01X34736Y17211D02*
G01X33336Y17211D01*
G54D18*
G01X34045Y21154D02*
G01X34045Y21454D01*
G01X33045Y21054D02*
G01X35145Y21054D01*
G01X33146Y20354D02*
G01X35045Y20354D01*
G01X35045Y20354D02*
G01X35045Y20754D01*
G01X35045Y20754D02*
G01X33146Y20754D01*
G01X33146Y20754D02*
G01X33146Y20354D01*
G01X33045Y20054D02*
G01X35145Y20054D01*
G01X34036Y19596D02*
G01X34036Y19952D01*
G54D15*
G01X5958Y21451D02*
G01X7758Y21451D01*
G01X5958Y18351D02*
G01X7758Y18351D01*
G01X4337Y18322D02*
G01X3537Y18322D01*
G01X4647Y19432D02*
G01X4647Y18632D01*
G01X3227Y19432D02*
G01X3227Y18632D01*
G01X4652Y20008D02*
G01X4652Y20808D01*
G01X4343Y21118D02*
G01X3543Y21118D01*
G01X3233Y20008D02*
G01X3233Y20808D01*
G01X4343Y21118D02*
G02X4652Y20808I0J-310D01*
G01X3233Y20808D02*
G02X3543Y21118I310J0D01*
G01X4647Y18632D02*
G02X4337Y18322I-310J-0D01*
G01X3537Y18322D02*
G02X3227Y18632I0J310D01*
G54D14*
G01X9245Y18577D02*
G01X9245Y17618D01*
G01X9245Y17618D02*
G01X10567Y17618D01*
G01X10567Y17618D02*
G01X10567Y18577D01*
G01X9245Y19430D02*
G01X9245Y20389D01*
G01X9245Y20389D02*
G01X10567Y20389D01*
G01X10567Y20389D02*
G01X10567Y19430D01*
G01X3276Y25834D02*
G01X3276Y24875D01*
G01X3276Y24875D02*
G01X4598Y24875D01*
G01X4598Y24875D02*
G01X4598Y25834D01*
G01X3276Y26686D02*
G01X3276Y27645D01*
G01X3276Y27645D02*
G01X4598Y27645D01*
G01X4598Y27645D02*
G01X4598Y26686D01*
G04 PolygonModel End*
G54D15*
G01X20193Y16472D02*
G03X20447Y16472I127J0D01*
G03X20193I-127J0D01*
G01X8128Y18250D02*
G03X8382Y18250I127J0D01*
G03X8128I-127J0D01*
G04 Circle End*
G04 Text End*
G04 //text: 5v*
G54D10*
G01X25870Y52988D02*
G01X25540Y52988D01*
G01X25507Y52693D01*
G01X25540Y52726D01*
G01X25639Y52759D01*
G01X25738D01*
G01X25837Y52726D01*
G01X25900Y52660D01*
G01X25933Y52561D01*
G01Y52495D01*
G01X25900Y52398D01*
G01X25837Y52332D01*
G01X25738Y52299D01*
G01X25639D01*
G01X25540Y52332D01*
G01X25507Y52365D01*
G01X25476Y52431D01*
G01X26241Y52759D02*
G01X26439Y52299D01*
G01X26634Y52759D02*
G01X26439Y52299D01*
G04 //text: GND*
G01X25331Y37712D02*
G01X25298Y37775D01*
G01X25235Y37842D01*
G01X25169Y37875D01*
G01X25037D01*
G01X24971Y37842D01*
G01X24905Y37775D01*
G01X24872Y37712D01*
G01X24841Y37613D01*
G01Y37448D01*
G01X24872Y37351D01*
G01X24905Y37285D01*
G01X24971Y37219D01*
G01X25037Y37186D01*
G01X25169D01*
G01X25235Y37219D01*
G01X25298Y37285D01*
G01X25331Y37351D01*
G01Y37448D01*
G01X25169Y37448D02*
G01X25331Y37448D01*
G01X25639Y37875D02*
G01X25639Y37186D01*
G01X25639Y37875D02*
G01X26099Y37186D01*
G01X26099Y37875D02*
G01X26099Y37186D01*
G01X26406Y37875D02*
G01X26406Y37186D01*
G01X26406Y37875D02*
G01X26637Y37875D01*
G01X26734Y37842D01*
G01X26800Y37775D01*
G01X26833Y37712D01*
G01X26866Y37613D01*
G01Y37448D01*
G01X26833Y37351D01*
G01X26800Y37285D01*
G01X26734Y37219D01*
G01X26637Y37186D01*
G01X26406D01*
G04 //text: BAT-*
G54D11*
G01X-4355Y44037D02*
G01X-6125Y44037D01*
G01X-4355Y44037D02*
G01X-4355Y43277D01*
G01X-4439Y43023D01*
G01X-4523Y42939D01*
G01X-4693Y42855D01*
G01X-4861D01*
G01X-5031Y42939D01*
G01X-5115Y43023D01*
G01X-5198Y43277D01*
G01X-5198Y44037D02*
G01X-5198Y43277D01*
G01X-5282Y43023D01*
G01X-5366Y42939D01*
G01X-5536Y42855D01*
G01X-5790D01*
G01X-5958Y42939D01*
G01X-6042Y43023D01*
G01X-6125Y43277D01*
G01Y44037D01*
G01X-4355Y41476D02*
G01X-6125Y42149D01*
G01X-4355Y41476D02*
G01X-6125Y40801D01*
G01X-5536Y41898D02*
G01X-5536Y41052D01*
G01X-4355Y39505D02*
G01X-6125Y39505D01*
G01X-4355Y40095D02*
G01X-4355Y38913D01*
G01X-5366Y38210D02*
G01X-5366Y36691D01*
G04 //text: BAT+*
G01X-4219Y54766D02*
G01X-5989Y54766D01*
G01X-4219Y54766D02*
G01X-4219Y54006D01*
G01X-4303Y53752D01*
G01X-4387Y53668D01*
G01X-4557Y53584D01*
G01X-4724D01*
G01X-4895Y53668D01*
G01X-4978Y53752D01*
G01X-5062Y54006D01*
G01X-5062Y54766D02*
G01X-5062Y54006D01*
G01X-5146Y53752D01*
G01X-5230Y53668D01*
G01X-5400Y53584D01*
G01X-5654D01*
G01X-5822Y53668D01*
G01X-5905Y53752D01*
G01X-5989Y54006D01*
G01Y54766D01*
G01X-4219Y52205D02*
G01X-5989Y52878D01*
G01X-4219Y52205D02*
G01X-5989Y51530D01*
G01X-5400Y52627D02*
G01X-5400Y51781D01*
G01X-4219Y50234D02*
G01X-5989Y50234D01*
G01X-4219Y50823D02*
G01X-4219Y49642D01*
G01X-4470Y48179D02*
G01X-5989Y48179D01*
G01X-5230Y48939D02*
G01X-5230Y47420D01*
G04 //text: 5V*
G54D10*
G01X54397Y43183D02*
G01X53896Y43183D01*
G01X53845Y42734D01*
G01X53896Y42782D01*
G01X54046Y42833D01*
G01X54196D01*
G01X54346Y42782D01*
G01X54445Y42683D01*
G01X54496Y42533D01*
G01Y42431D01*
G01X54445Y42281D01*
G01X54346Y42182D01*
G01X54196Y42132D01*
G01X54046D01*
G01X53896Y42182D01*
G01X53845Y42233D01*
G01X53797Y42332D01*
G01X54887Y43183D02*
G01X55286Y42132D01*
G01X55687Y43183D02*
G01X55286Y42132D01*
G04 //text: GND*
G01X54547Y48393D02*
G01X54496Y48494D01*
G01X54397Y48593D01*
G01X54295Y48644D01*
G01X54097D01*
G01X53995Y48593D01*
G01X53896Y48494D01*
G01X53845Y48393D01*
G01X53797Y48243D01*
G01Y47994D01*
G01X53845Y47844D01*
G01X53896Y47742D01*
G01X53995Y47643D01*
G01X54097Y47593D01*
G01X54295D01*
G01X54397Y47643D01*
G01X54496Y47742D01*
G01X54547Y47844D01*
G01Y47994D01*
G01X54295Y47994D02*
G01X54547Y47994D01*
G01X54935Y48644D02*
G01X54935Y47593D01*
G01X54935Y48644D02*
G01X55636Y47593D01*
G01X55636Y48644D02*
G01X55636Y47593D01*
G01X56025Y48644D02*
G01X56025Y47593D01*
G01X56025Y48644D02*
G01X56375Y48644D01*
G01X56525Y48593D01*
G01X56627Y48494D01*
G01X56675Y48393D01*
G01X56726Y48243D01*
G01Y47994D01*
G01X56675Y47844D01*
G01X56627Y47742D01*
G01X56525Y47643D01*
G01X56375Y47593D01*
G01X56025D01*
G04 //text: SIG*
G01X54496Y45700D02*
G01X54397Y45799D01*
G01X54247Y45850D01*
G01X54046D01*
G01X53896Y45799D01*
G01X53797Y45700D01*
G01Y45599D01*
G01X53845Y45500D01*
G01X53896Y45449D01*
G01X53995Y45401D01*
G01X54295Y45299D01*
G01X54397Y45248D01*
G01X54445Y45200D01*
G01X54496Y45098D01*
G01Y44948D01*
G01X54397Y44849D01*
G01X54247Y44799D01*
G01X54046D01*
G01X53896Y44849D01*
G01X53797Y44948D01*
G01X54887Y45850D02*
G01X54887Y44799D01*
G01X56025Y45599D02*
G01X55977Y45700D01*
G01X55875Y45799D01*
G01X55776Y45850D01*
G01X55575D01*
G01X55476Y45799D01*
G01X55377Y45700D01*
G01X55326Y45599D01*
G01X55275Y45449D01*
G01Y45200D01*
G01X55326Y45050D01*
G01X55377Y44948D01*
G01X55476Y44849D01*
G01X55575Y44799D01*
G01X55776D01*
G01X55875Y44849D01*
G01X55977Y44948D01*
G01X56025Y45050D01*
G01Y45200D01*
G01X55776Y45200D02*
G01X56025Y45200D01*
G04 //text: v0.3.1 2023-01-23*
G54D12*
G01X31976Y37781D02*
G01X32314Y36993D01*
G01X32652Y37781D02*
G01X32314Y36993D01*
G01X33459Y38174D02*
G01X33292Y38118D01*
G01X33177Y37951D01*
G01X33122Y37669D01*
G01Y37501D01*
G01X33177Y37219D01*
G01X33292Y37052D01*
G01X33459Y36993D01*
G01X33571D01*
G01X33741Y37052D01*
G01X33853Y37219D01*
G01X33909Y37501D01*
G01Y37669D01*
G01X33853Y37951D01*
G01X33741Y38118D01*
G01X33571Y38174D01*
G01X33459D01*
G01X34435Y37275D02*
G01X34379Y37219D01*
G01X34435Y37163D01*
G01X34493Y37219D01*
G01X34435Y37275D01*
G01X35075Y38174D02*
G01X35692Y38174D01*
G01X35357Y37725D01*
G01X35524D01*
G01X35636Y37669D01*
G01X35692Y37613D01*
G01X35751Y37445D01*
G01Y37331D01*
G01X35692Y37163D01*
G01X35580Y37052D01*
G01X35413Y36993D01*
G01X35243D01*
G01X35075Y37052D01*
G01X35019Y37107D01*
G01X34963Y37219D01*
G01X36276Y37275D02*
G01X36220Y37219D01*
G01X36276Y37163D01*
G01X36332Y37219D01*
G01X36276Y37275D01*
G01X36802Y37951D02*
G01X36914Y38007D01*
G01X37084Y38174D01*
G01Y36993D01*
G01X38870Y37895D02*
G01X38870Y37951D01*
G01X38926Y38063D01*
G01X38981Y38118D01*
G01X39096Y38174D01*
G01X39319D01*
G01X39431Y38118D01*
G01X39489Y38063D01*
G01X39545Y37951D01*
G01Y37839D01*
G01X39489Y37725D01*
G01X39375Y37557D01*
G01X38814Y36993D01*
G01X39601D01*
G01X40409Y38174D02*
G01X40239Y38118D01*
G01X40127Y37951D01*
G01X40071Y37669D01*
G01Y37501D01*
G01X40127Y37219D01*
G01X40239Y37052D01*
G01X40409Y36993D01*
G01X40521D01*
G01X40688Y37052D01*
G01X40803Y37219D01*
G01X40858Y37501D01*
G01Y37669D01*
G01X40803Y37951D01*
G01X40688Y38118D01*
G01X40521Y38174D01*
G01X40409D01*
G01X41384Y37895D02*
G01X41384Y37951D01*
G01X41440Y38063D01*
G01X41496Y38118D01*
G01X41610Y38174D01*
G01X41834D01*
G01X41948Y38118D01*
G01X42004Y38063D01*
G01X42060Y37951D01*
G01Y37839D01*
G01X42004Y37725D01*
G01X41890Y37557D01*
G01X41328Y36993D01*
G01X42116D01*
G01X42697Y38174D02*
G01X43317Y38174D01*
G01X42979Y37725D01*
G01X43150D01*
G01X43261Y37669D01*
G01X43317Y37613D01*
G01X43373Y37445D01*
G01Y37331D01*
G01X43317Y37163D01*
G01X43205Y37052D01*
G01X43035Y36993D01*
G01X42868D01*
G01X42697Y37052D01*
G01X42642Y37107D01*
G01X42586Y37219D01*
G01X43843Y37501D02*
G01X44856Y37501D01*
G01X45664Y38174D02*
G01X45494Y38118D01*
G01X45382Y37951D01*
G01X45326Y37669D01*
G01Y37501D01*
G01X45382Y37219D01*
G01X45494Y37052D01*
G01X45664Y36993D01*
G01X45776D01*
G01X45944Y37052D01*
G01X46058Y37219D01*
G01X46114Y37501D01*
G01Y37669D01*
G01X46058Y37951D01*
G01X45944Y38118D01*
G01X45776Y38174D01*
G01X45664D01*
G01X46584Y37951D02*
G01X46695Y38007D01*
G01X46866Y38174D01*
G01Y36993D01*
G01X47335Y37501D02*
G01X48346Y37501D01*
G01X48872Y37895D02*
G01X48872Y37951D01*
G01X48931Y38063D01*
G01X48986Y38118D01*
G01X49098Y38174D01*
G01X49324D01*
G01X49436Y38118D01*
G01X49492Y38063D01*
G01X49548Y37951D01*
G01Y37839D01*
G01X49492Y37725D01*
G01X49380Y37557D01*
G01X48816Y36993D01*
G01X49604D01*
G01X50188Y38174D02*
G01X50805Y38174D01*
G01X50467Y37725D01*
G01X50637D01*
G01X50749Y37669D01*
G01X50805Y37613D01*
G01X50861Y37445D01*
G01Y37331D01*
G01X50805Y37163D01*
G01X50693Y37052D01*
G01X50526Y36993D01*
G01X50356D01*
G01X50188Y37052D01*
G01X50132Y37107D01*
G01X50074Y37219D01*
G04 //text: ₍ ‧ꀈ˙⁾՜*
G36*
G01X40230Y40682D02*
G01X40230Y40259D01*
G01X40439D01*
G01Y41841D01*
G01X40467Y41833D01*
G01X40480Y41827D01*
G01X40513Y41804D01*
G01X40535Y41791D01*
G01X40580Y41763D01*
G01X40607Y41746D01*
G01X40640Y41722D01*
G01X40662Y41709D01*
G01X40708Y41682D01*
G01X40734Y41665D01*
G01X40768Y41641D01*
G01X40789Y41627D01*
G01X40835Y41600D01*
G01X40861Y41583D01*
G01X40876Y41572D01*
G01X40930Y41532D01*
G01X40935Y41559D01*
G01X40937Y41607D01*
G01X40939Y41991D01*
G01Y42404D01*
G01X40739D01*
G01Y41877D01*
G01X40712Y41884D01*
G01X40698Y41891D01*
G01X40671Y41909D01*
G01X40658Y41918D01*
G01X40635Y41930D01*
G01X40621Y41939D01*
G01X40598Y41955D01*
G01X40585Y41963D01*
G01X40562Y41975D01*
G01X40548Y41984D01*
G01X40526Y42000D01*
G01X40512Y42009D01*
G01X40489Y42021D01*
G01X40476Y42030D01*
G01X40453Y42046D01*
G01X40439Y42054D01*
G01X40417Y42066D01*
G01X40403Y42075D01*
G01X40380Y42091D01*
G01X40367Y42099D01*
G01X40344Y42112D01*
G01X40330Y42121D01*
G01X40308Y42137D01*
G01X40294Y42145D01*
G01X40271Y42157D01*
G01X40258Y42166D01*
G01X40230Y42186D01*
G01Y41786D01*
G01X40225Y41454D01*
G01X40223Y41415D01*
G01X40220Y41398D01*
G01X40219Y41394D01*
G01X40218Y41392D01*
G01Y41391D01*
G01X40217D01*
G01X40210Y41394D01*
G01X40204Y41397D01*
G01X40199Y41403D01*
G01X40189Y41415D01*
G01X40178Y41427D01*
G01X40159Y41442D01*
G01X40144Y41461D01*
G01X40132Y41472D01*
G01X40113Y41487D01*
G01X40098Y41506D01*
G01X40087Y41518D01*
G01X40068Y41533D01*
G01X40053Y41552D01*
G01X40041Y41563D01*
G01X40022Y41578D01*
G01X40007Y41597D01*
G01X39996Y41609D01*
G01X39977Y41624D01*
G01X39967Y41636D01*
G01X39961Y41643D01*
G01X39954Y41650D01*
G01X39945Y41657D01*
G01X39924Y41670D01*
G01X39912Y41680D01*
G01X39905Y41687D01*
G01X39898Y41697D01*
G01X39887Y41709D01*
G01X39868Y41724D01*
G01X39853Y41743D01*
G01X39841Y41754D01*
G01X39822Y41769D01*
G01X39807Y41788D01*
G01X39796Y41799D01*
G01X39789Y41804D01*
G01X39783Y41808D01*
G01X39777Y41810D01*
G01X39771D01*
G01X39767Y41809D01*
G01X39762Y41806D01*
G01X39758Y41802D01*
G01X39748Y41791D01*
G01X39738Y41778D01*
G01X39719Y41763D01*
G01X39708Y41752D01*
G01X39693Y41733D01*
G01X39680Y41722D01*
G01X39674Y41717D01*
G01X39668Y41711D01*
G01X39662Y41704D01*
G01X39658Y41695D01*
G01X39654Y41687D01*
G01Y41679D01*
G01X39657Y41673D01*
G01X39662Y41668D01*
G01X39675Y41658D01*
G01X39690Y41639D01*
G01X39701Y41627D01*
G01X39720Y41612D01*
G01X39735Y41593D01*
G01X39746Y41582D01*
G01X39765Y41567D01*
G01X39781Y41548D01*
G01X39792Y41536D01*
G01X39811Y41521D01*
G01X39826Y41502D01*
G01X39837Y41491D01*
G01X39856Y41476D01*
G01X39871Y41457D01*
G01X39883Y41446D01*
G01X39902Y41430D01*
G01X39912Y41418D01*
G01X39917Y41411D01*
G01X39925Y41404D01*
G01X39933Y41397D01*
G01X39954Y41384D01*
G01X39967Y41374D01*
G01X39973Y41367D01*
G01X39981Y41357D01*
G01X39992Y41346D01*
G01X40011Y41330D01*
G01X40026Y41311D01*
G01X40037Y41300D01*
G01X40056Y41285D01*
G01X40071Y41266D01*
G01X40083Y41255D01*
G01X40102Y41240D01*
G01X40117Y41221D01*
G01X40128Y41209D01*
G01X40147Y41194D01*
G01X40162Y41175D01*
G01X40174Y41164D01*
G01X40193Y41149D01*
G01X40203Y41136D01*
G01X40217Y41118D01*
G01X40221Y41113D01*
G01X40223Y41105D01*
G01X40227Y41048D01*
G01X40230Y40682D01*
G37*
G36*
G01X37044Y38932D02*
G01X37049Y38928D01*
G01X37060Y38925D01*
G01X37076Y38923D01*
G01X37098Y38922D01*
G01X37148D01*
G01X37139Y38945D01*
G01X37133Y38961D01*
G01X37123Y38978D01*
G01X37112Y38997D01*
G01X37096Y39034D01*
G01X37087Y39051D01*
G01X37076Y39070D01*
G01X37053Y39122D01*
G01X37037Y39156D01*
G01X37030Y39172D01*
G01X37012Y39218D01*
G01X37003Y39243D01*
G01X36994Y39272D01*
G01X36983Y39315D01*
G01X36962Y39418D01*
G01X36958Y39445D01*
G01X36953Y39482D01*
G01X36950Y39521D01*
G01X36948Y39583D01*
G01X36946Y39601D01*
G01X36942Y39616D01*
G01X36940Y39632D01*
G01Y39649D01*
G01X36942Y39665D01*
G01X36945Y39677D01*
G01X36947Y39696D01*
G01X36949Y39781D01*
G01X36951Y39802D01*
G01X36955Y39816D01*
G01X36957Y39832D01*
G01X36959Y39858D01*
G01X36962Y39872D01*
G01X36964Y39880D01*
G01X36969Y39901D01*
G01X36974Y39926D01*
G01X36977Y39938D01*
G01X36981Y39949D01*
G01X36989Y39969D01*
G01X36993Y39979D01*
G01X36996Y39991D01*
G01X37001Y40017D01*
G01X37006Y40033D01*
G01X37010Y40042D01*
G01X37020Y40060D01*
G01X37028Y40086D01*
G01X37035Y40102D01*
G01X37047Y40124D01*
G01X37056Y40149D01*
G01X37062Y40165D01*
G01X37076Y40188D01*
G01X37092Y40225D01*
G01X37101Y40242D01*
G01X37112Y40261D01*
G01X37126Y40292D01*
G01X37133Y40305D01*
G01X37137Y40311D01*
G01X37139Y40313D01*
G01X37140Y40321D01*
G01X37126Y40327D01*
G01X37102Y40330D01*
G01X37069Y40331D01*
G01X37063Y40330D01*
G01X37058Y40329D01*
G01X37053Y40327D01*
G01X37049Y40324D01*
G01X37045Y40321D01*
G01X37042Y40318D01*
G01X37030Y40296D01*
G01X36998Y40245D01*
G01X36944Y40154D01*
G01X36934Y40137D01*
G01X36926Y40120D01*
G01X36914Y40093D01*
G01X36905Y40076D01*
G01X36894Y40057D01*
G01X36871Y40005D01*
G01X36862Y39986D01*
G01X36856Y39965D01*
G01X36847Y39933D01*
G01X36839Y39913D01*
G01X36835Y39904D01*
G01X36833Y39895D01*
G01X36831Y39886D01*
G01X36830Y39868D01*
G01X36828Y39852D01*
G01X36821Y39829D01*
G01X36817Y39809D01*
G01X36814Y39792D01*
G01X36812Y39768D01*
G01X36811Y39751D01*
G01X36808Y39736D01*
G01X36806Y39731D01*
G01X36805Y39712D01*
G01X36803Y39609D01*
G01X36805Y39509D01*
G01X36806Y39487D01*
G01X36807Y39483D01*
G01X36810Y39473D01*
G01X36814Y39448D01*
G01X36821Y39401D01*
G01X36826Y39382D01*
G01X36839Y39341D01*
G01X36847Y39315D01*
G01X36856Y39280D01*
G01X36862Y39259D01*
G01X36878Y39225D01*
G01X36885Y39209D01*
G01X36903Y39163D01*
G01X36912Y39144D01*
G01X36917Y39137D01*
G01X36926Y39126D01*
G01X36935Y39113D01*
G01X36948Y39087D01*
G01X37026Y38963D01*
G01X37044Y38932D01*
G37*
G36*
G01X42162Y41132D02*
G01X42163Y41128D01*
G01X42171Y41125D01*
G01X42186Y41123D01*
G01X42208Y41122D01*
G01X42225Y41123D01*
G01X42243Y41125D01*
G01X42249Y41127D01*
G01X42255Y41129D01*
G01X42257Y41130D01*
G01X42259Y41131D01*
G01X42260Y41133D01*
G01X42261Y41134D01*
G01X42265Y41143D01*
G01X42271Y41157D01*
G01X42344Y41272D01*
G01X42353Y41290D01*
G01X42362Y41307D01*
G01X42371Y41329D01*
G01X42377Y41340D01*
G01X42383Y41349D01*
G01X42396Y41368D01*
G01X42403Y41382D01*
G01X42406Y41391D01*
G01X42413Y41412D01*
G01X42421Y41427D01*
G01X42425Y41434D01*
G01X42429Y41443D01*
G01X42432Y41453D01*
G01X42437Y41474D01*
G01X42442Y41488D01*
G01X42446Y41496D01*
G01X42453Y41508D01*
G01X42456Y41518D01*
G01X42460Y41530D01*
G01X42467Y41572D01*
G01X42476Y41607D01*
G01X42480Y41627D01*
G01X42483Y41643D01*
G01X42485Y41668D01*
G01X42486Y41685D01*
G01X42489Y41700D01*
G01X42491Y41709D01*
G01X42493Y41722D01*
G01X42494Y41751D01*
G01X42495Y41800D01*
G01X42497Y41821D01*
G01X42498Y41827D01*
G01X42500Y41834D01*
G01X42501Y41841D01*
G01X42500Y41847D01*
G01X42496Y41863D01*
G01X42495Y41877D01*
G01X42494Y41906D01*
G01X42493Y41955D01*
G01X42491Y41975D01*
G01X42487Y41990D01*
G01X42483Y42015D01*
G01X42476Y42062D01*
G01X42471Y42082D01*
G01X42439Y42177D01*
G01X42430Y42202D01*
G01X42410Y42247D01*
G01X42396Y42279D01*
G01X42387Y42296D01*
G01X42362Y42336D01*
G01X42308Y42427D01*
G01X42262Y42500D01*
G01X42258Y42505D01*
G01X42253Y42510D01*
G01X42247Y42514D01*
G01X42240Y42517D01*
G01X42233Y42519D01*
G01X42214Y42522D01*
G01X42203D01*
G01X42158D01*
G01X42165Y42496D01*
G01X42171Y42480D01*
G01X42185Y42457D01*
G01X42201Y42420D01*
G01X42210Y42403D01*
G01X42221Y42384D01*
G01X42230Y42363D01*
G01X42248Y42318D01*
G01X42255Y42302D01*
G01X42264Y42285D01*
G01X42271Y42274D01*
G01X42275Y42266D01*
G01X42278Y42256D01*
G01X42283Y42234D01*
G01X42290Y42214D01*
G01X42302Y42185D01*
G01X42308Y42163D01*
G01X42312Y42143D01*
G01X42321Y42111D01*
G01X42326Y42091D01*
G01X42335Y42045D01*
G01X42339Y42018D01*
G01X42344Y41982D01*
G01X42348Y41936D01*
G01X42350Y41905D01*
G01X42353Y41891D01*
G01X42355Y41880D01*
G01X42356Y41861D01*
G01X42358Y41800D01*
G01X42356Y41738D01*
G01X42354Y41715D01*
G01X42353Y41710D01*
G01X42351Y41701D01*
G01X42350Y41691D01*
G01X42348Y41642D01*
G01X42346Y41626D01*
G01X42342Y41610D01*
G01X42337Y41585D01*
G01X42330Y41537D01*
G01X42326Y41518D01*
G01X42294Y41422D01*
G01X42278Y41378D01*
G01X42269Y41357D01*
G01X42260Y41340D01*
G01X42253Y41329D01*
G01X42246Y41313D01*
G01X42238Y41287D01*
G01X42230Y41272D01*
G01X42221Y41257D01*
G01X42205Y41220D01*
G01X42196Y41203D01*
G01X42185Y41184D01*
G01X42176Y41163D01*
G01X42162Y41132D01*
G37*
G36*
G01X42735Y42082D02*
G01X42739Y42059D01*
G01X42967D01*
G01Y42095D01*
G01Y42119D01*
G01X42969Y42137D01*
G01X42971Y42145D01*
G01X42985Y42182D01*
G01X42990Y42192D01*
G01X42995Y42201D01*
G01X43001Y42208D01*
G01X43008Y42213D01*
G01X43020Y42224D01*
G01X43030Y42236D01*
G01X43036Y42243D01*
G01X43043Y42250D01*
G01X43052Y42257D01*
G01X43089Y42280D01*
G01X43117Y42300D01*
G01X43130Y42309D01*
G01X43153Y42321D01*
G01X43167Y42330D01*
G01X43208Y42359D01*
G01X43233Y42378D01*
G01X43254Y42395D01*
G01X43263Y42403D01*
G01X43273Y42414D01*
G01X43285Y42430D01*
G01X43294Y42441D01*
G01X43298Y42446D01*
G01X43308Y42462D01*
G01X43319Y42488D01*
G01X43328Y42505D01*
G01X43332Y42513D01*
G01X43336Y42523D01*
G01X43340Y42537D01*
G01X43344Y42563D01*
G01X43353Y42645D01*
G01X43355Y42668D01*
G01Y42684D01*
G01X43354Y42691D01*
G01Y42694D01*
G01X43353Y42695D01*
G01X43350Y42697D01*
G01X43344Y42699D01*
G01X43334Y42701D01*
G01X43305Y42703D01*
G01X43235Y42704D01*
G01X43121D01*
G01Y42659D01*
G01Y42629D01*
G01X43119Y42614D01*
G01X43117Y42602D01*
G01X43103Y42563D01*
G01X43098Y42553D01*
G01X43093Y42544D01*
G01X43087Y42537D01*
G01X43080Y42532D01*
G01X43068Y42521D01*
G01X43058Y42509D01*
G01X43052Y42502D01*
G01X43045Y42495D01*
G01X43036Y42488D01*
G01X43011Y42472D01*
G01X42996Y42461D01*
G01X42989Y42454D01*
G01X42975Y42445D01*
G01X42953Y42433D01*
G01X42939Y42424D01*
G01X42911Y42404D01*
G01X42879Y42384D01*
G01X42866Y42374D01*
G01X42860Y42367D01*
G01X42853Y42357D01*
G01X42841Y42346D01*
G01X42822Y42330D01*
G01X42807Y42311D01*
G01X42796Y42300D01*
G01X42783Y42290D01*
G01X42778Y42284D01*
G01X42774Y42276D01*
G01X42769Y42259D01*
G01X42762Y42241D01*
G01X42753Y42221D01*
G01X42750Y42208D01*
G01X42746Y42192D01*
G01X42739Y42138D01*
G01X42735Y42120D01*
G01X42733Y42111D01*
G01Y42102D01*
G01Y42092D01*
G01X42735Y42082D01*
G37*
G36*
G01X38708Y41132D02*
G01X38712Y41129D01*
G01X38717Y41128D01*
G01X38733Y41125D01*
G01X38754Y41123D01*
G01X38780Y41122D01*
G01X38823Y41123D01*
G01X38846Y41125D01*
G01X38853Y41127D01*
G01X38869Y41134D01*
G01X38889Y41145D01*
G01X38906Y41156D01*
G01X38935Y41177D01*
G01X38949Y41190D01*
G01X38956Y41198D01*
G01X38961Y41205D01*
G01X38968Y41222D01*
G01X38980Y41244D01*
G01X38985Y41253D01*
G01X38994Y41277D01*
G01X38996Y41284D01*
G01X38999Y41299D01*
G01X39002Y41316D01*
G01X39003Y41335D01*
G01Y41345D01*
G01X39002Y41364D01*
G01X39000Y41384D01*
G01X38997Y41397D01*
G01X38983Y41429D01*
G01X38971Y41456D01*
G01X38965Y41465D01*
G01X38960Y41472D01*
G01X38953Y41477D01*
G01X38940Y41487D01*
G01X38930Y41500D01*
G01X38925Y41506D01*
G01X38919Y41512D01*
G01X38912Y41518D01*
G01X38903Y41522D01*
G01X38862Y41543D01*
G01X38851Y41547D01*
G01X38839Y41550D01*
G01X38817Y41554D01*
G01X38787Y41558D01*
G01X38751Y41559D01*
G01X38733Y41556D01*
G01X38726Y41554D01*
G01X38689Y41541D01*
G01X38670Y41532D01*
G01X38663Y41527D01*
G01X38653Y41518D01*
G01X38635Y41504D01*
G01X38628Y41499D01*
G01X38621Y41492D01*
G01X38614Y41483D01*
G01X38608Y41472D01*
G01X38585Y41436D01*
G01X38581Y41428D01*
G01X38577Y41418D01*
G01X38574Y41405D01*
G01X38567Y41363D01*
G01X38562Y41345D01*
G01X38560Y41338D01*
G01Y41329D01*
G01Y41320D01*
G01X38562Y41309D01*
G01X38571Y41268D01*
G01X38577Y41251D01*
G01X38585Y41236D01*
G01X38603Y41209D01*
G01X38613Y41196D01*
G01X38632Y41181D01*
G01X38644Y41170D01*
G01X38654Y41157D01*
G01X38660Y41152D01*
G01X38667Y41148D01*
G01X38685Y41143D01*
G01X38700Y41136D01*
G01X38708Y41132D01*
G37*
G36*
G01X41439Y42172D02*
G01X41439Y42004D01*
G01X41776D01*
G01Y42332D01*
G01X41753Y42336D01*
G01X41745Y42337D01*
G01X41700Y42340D01*
G01X41585Y42341D01*
G01X41439D01*
G01Y42172D01*
G37*
G04 //text: NO Bug*
G54D13*
G01X11278Y46556D02*
G01X11278Y45378D01*
G01X11278Y46556D02*
G01X12062Y45378D01*
G01X12062Y46556D02*
G01X12062Y45378D01*
G01X12873Y46556D02*
G01X12761Y46500D01*
G01X12649Y46389D01*
G01X12593Y46274D01*
G01X12537Y46107D01*
G01Y45827D01*
G01X12593Y45657D01*
G01X12649Y45545D01*
G01X12761Y45434D01*
G01X12873Y45378D01*
G01X13099D01*
G01X13211Y45434D01*
G01X13322Y45545D01*
G01X13378Y45657D01*
G01X13434Y45827D01*
G01Y46107D01*
G01X13378Y46274D01*
G01X13322Y46389D01*
G01X13211Y46500D01*
G01X13099Y46556D01*
G01X12873D01*
G01X15166Y46556D02*
G01X15166Y45378D01*
G01X15166Y46556D02*
G01X15672Y46556D01*
G01X15839Y46500D01*
G01X15895Y46445D01*
G01X15951Y46333D01*
G01Y46218D01*
G01X15895Y46107D01*
G01X15839Y46051D01*
G01X15672Y45995D01*
G01X15166Y45995D02*
G01X15672Y45995D01*
G01X15839Y45939D01*
G01X15895Y45883D01*
G01X15951Y45769D01*
G01Y45601D01*
G01X15895Y45489D01*
G01X15839Y45434D01*
G01X15672Y45378D01*
G01X15166D01*
G01X16424Y46163D02*
G01X16424Y45601D01*
G01X16480Y45434D01*
G01X16594Y45378D01*
G01X16761D01*
G01X16873Y45434D01*
G01X17041Y45601D01*
G01X17041Y46163D02*
G01X17041Y45378D01*
G01X18189Y46163D02*
G01X18189Y45266D01*
G01X18133Y45096D01*
G01X18077Y45040D01*
G01X17963Y44984D01*
G01X17795D01*
G01X17683Y45040D01*
G01X18189Y45995D02*
G01X18077Y46107D01*
G01X17963Y46163D01*
G01X17795D01*
G01X17683Y46107D01*
G01X17572Y45995D01*
G01X17513Y45827D01*
G01Y45713D01*
G01X17572Y45545D01*
G01X17683Y45434D01*
G01X17795Y45378D01*
G01X17963D01*
G01X18077Y45434D01*
G01X18189Y45545D01*
G04 //text: (ㅅ˘ㅂ˘)*
G36*
G01X22279Y46847D02*
G01X22282Y46826D01*
G01X22285Y46808D01*
G01X22288Y46795D01*
G01X22297Y46769D01*
G01X22308Y46739D01*
G01X22314Y46724D01*
G01X22320Y46713D01*
G01X22337Y46687D01*
G01X22341Y46680D01*
G01X22348Y46671D01*
G01X22353Y46667D01*
G01X22359Y46662D01*
G01X22367Y46655D01*
G01X22373Y46646D01*
G01X22377Y46643D01*
G01X22380Y46640D01*
G01X22390Y46636D01*
G01X22393Y46634D01*
G01X22397Y46632D01*
G01X22404Y46626D01*
G01X22414Y46620D01*
G01X22442Y46608D01*
G01X22459Y46600D01*
G01X22467Y46598D01*
G01X22500Y46593D01*
G01X22517Y46588D01*
G01X22529Y46587D01*
G01X22546Y46586D01*
G01X22551Y46585D01*
G01X22553D01*
G01X22555Y46584D01*
G01X22557Y46582D01*
G01X22561Y46581D01*
G01X22576D01*
G01X22592D01*
G01X22601Y46583D01*
G01X22609Y46585D01*
G01X22615Y46586D01*
G01X22648Y46587D01*
G01X22658Y46588D01*
G01X22694Y46599D01*
G01X22708Y46603D01*
G01X22719Y46608D01*
G01X22734Y46617D01*
G01X22752Y46626D01*
G01X22758Y46630D01*
G01X22773Y46641D01*
G01X22780Y46647D01*
G01X22786Y46653D01*
G01X22792Y46660D01*
G01X22798Y46666D01*
G01X22805Y46674D01*
G01X22813Y46681D01*
G01X22817Y46684D01*
G01X22819Y46688D01*
G01X22823Y46697D01*
G01X22827Y46706D01*
G01X22837Y46721D01*
G01X22843Y46735D01*
G01X22855Y46765D01*
G01X22857Y46773D01*
G01X22860Y46781D01*
G01X22862Y46790D01*
G01X22867Y46815D01*
G01X22870Y46826D01*
G01X22871Y46830D01*
G01Y46838D01*
G01X22870Y46841D01*
G01X22866Y46844D01*
G01X22857Y46846D01*
G01X22843Y46847D01*
G01X22824D01*
G01X22782D01*
G01X22779Y46826D01*
G01X22777Y46816D01*
G01X22774Y46804D01*
G01X22771Y46798D01*
G01X22764Y46786D01*
G01X22754Y46768D01*
G01X22750Y46761D01*
G01X22740Y46747D01*
G01X22734Y46740D01*
G01X22728Y46734D01*
G01X22721Y46727D01*
G01X22691Y46707D01*
G01X22682Y46702D01*
G01X22676Y46699D01*
G01X22656Y46694D01*
G01X22641Y46690D01*
G01X22627Y46687D01*
G01X22617Y46685D01*
G01X22600Y46684D01*
G01X22589Y46683D01*
G01X22579Y46681D01*
G01X22575Y46679D01*
G01X22565D01*
G01X22556Y46682D01*
G01X22542Y46683D01*
G01X22518Y46684D01*
G01X22508Y46686D01*
G01X22506Y46687D01*
G01X22482Y46696D01*
G01X22471Y46700D01*
G01X22460Y46706D01*
G01X22439Y46720D01*
G01X22431Y46727D01*
G01X22425Y46735D01*
G01X22416Y46747D01*
G01X22409Y46754D01*
G01X22403Y46764D01*
G01X22396Y46782D01*
G01X22390Y46793D01*
G01X22385Y46801D01*
G01X22382Y46807D01*
G01X22380Y46814D01*
G01X22378Y46827D01*
G01X22377Y46831D01*
G01X22375Y46835D01*
G01X22373Y46837D01*
G01X22370Y46840D01*
G01X22368Y46842D01*
G01X22364Y46843D01*
G01X22361Y46844D01*
G01X22352Y46845D01*
G01X22335Y46847D01*
G01X22312D01*
G37*
G36*
G01X25012Y46847D02*
G01X25012Y46825D01*
G01X25014Y46813D01*
G01X25018Y46797D01*
G01X25023Y46776D01*
G01X25026Y46767D01*
G01X25029Y46761D01*
G01X25033Y46754D01*
G01X25038Y46744D01*
G01X25043Y46727D01*
G01X25048Y46717D01*
G01X25064Y46693D01*
G01X25068Y46686D01*
G01X25075Y46677D01*
G01X25079Y46673D01*
G01X25087Y46668D01*
G01X25094Y46661D01*
G01X25101Y46652D01*
G01X25105Y46647D01*
G01X25111Y46643D01*
G01X25128Y46632D01*
G01X25138Y46624D01*
G01X25143Y46620D01*
G01X25147Y46618D01*
G01X25152Y46616D01*
G01X25169Y46610D01*
G01X25179Y46605D01*
G01X25184Y46602D01*
G01X25191Y46599D01*
G01X25199Y46597D01*
G01X25227Y46593D01*
G01X25245Y46588D01*
G01X25258Y46587D01*
G01X25281Y46586D01*
G01X25286Y46585D01*
G01X25287Y46584D01*
G01X25288D01*
G01X25290Y46582D01*
G01X25295Y46581D01*
G01X25309D01*
G01X25325D01*
G01X25334Y46583D01*
G01X25342Y46585D01*
G01X25355Y46586D01*
G01X25380Y46587D01*
G01X25389Y46589D01*
G01X25402Y46593D01*
G01X25422Y46597D01*
G01X25432Y46600D01*
G01X25437Y46603D01*
G01X25444Y46607D01*
G01X25455Y46612D01*
G01X25467Y46616D01*
G01X25471Y46618D01*
G01X25476Y46620D01*
G01X25482Y46626D01*
G01X25487Y46630D01*
G01X25507Y46643D01*
G01X25515Y46650D01*
G01X25520Y46654D01*
G01X25531Y46668D01*
G01X25537Y46675D01*
G01X25540Y46680D01*
G01X25549Y46693D01*
G01X25570Y46727D01*
G01X25576Y46741D01*
G01X25586Y46770D01*
G01X25592Y46788D01*
G01X25596Y46804D01*
G01X25600Y46827D01*
G01X25602Y46837D01*
G01X25603Y46841D01*
G01X25602Y46844D01*
G01X25594Y46846D01*
G01X25580Y46847D01*
G01X25561D01*
G01X25515D01*
G01X25509Y46826D01*
G01X25502Y46802D01*
G01X25497Y46789D01*
G01X25494Y46782D01*
G01X25490Y46775D01*
G01X25486Y46769D01*
G01X25467Y46741D01*
G01X25463Y46737D01*
G01X25458Y46732D01*
G01X25453Y46727D01*
G01X25446Y46723D01*
G01X25421Y46708D01*
G01X25410Y46701D01*
G01X25394Y46696D01*
G01X25377Y46690D01*
G01X25361Y46687D01*
G01X25349Y46685D01*
G01X25338Y46684D01*
G01X25317Y46683D01*
G01X25309Y46681D01*
G01X25301Y46679D01*
G01X25293D01*
G01X25283Y46682D01*
G01X25271Y46683D01*
G01X25250Y46684D01*
G01X25242Y46686D01*
G01X25212Y46696D01*
G01X25204Y46698D01*
G01X25194Y46703D01*
G01X25190Y46706D01*
G01X25185Y46711D01*
G01X25173Y46720D01*
G01X25165Y46727D01*
G01X25155Y46740D01*
G01X25147Y46747D01*
G01X25138Y46753D01*
G01X25135Y46757D01*
G01X25132Y46761D01*
G01X25127Y46775D01*
G01X25119Y46793D01*
G01X25114Y46805D01*
G01X25106Y46829D01*
G01X25102Y46837D01*
G01X25098Y46842D01*
G01X25096Y46843D01*
G01X25094Y46844D01*
G01X25088Y46845D01*
G01X25078Y46846D01*
G01X25048Y46847D01*
G37*
G36*
G01X20091Y46714D02*
G01X20082Y46692D01*
G01X20077Y46683D01*
G01X20075Y46679D01*
G01X20066Y46669D01*
G01X20046Y46638D01*
G01X20035Y46623D01*
G01X20031Y46616D01*
G01X20027Y46609D01*
G01X20020Y46591D01*
G01X20014Y46580D01*
G01X19997Y46553D01*
G01X19991Y46542D01*
G01X19985Y46530D01*
G01X19978Y46512D01*
G01X19972Y46501D01*
G01X19964Y46488D01*
G01X19958Y46474D01*
G01X19946Y46444D01*
G01X19941Y46434D01*
G01X19935Y46422D01*
G01X19930Y46415D01*
G01X19927Y46408D01*
G01X19921Y46393D01*
G01X19911Y46363D01*
G01X19897Y46329D01*
G01X19892Y46314D01*
G01X19884Y46285D01*
G01X19882Y46280D01*
G01X19867Y46242D01*
G01X19859Y46212D01*
G01X19853Y46192D01*
G01X19847Y46170D01*
G01X19844Y46160D01*
G01X19841Y46147D01*
G01X19836Y46122D01*
G01X19832Y46106D01*
G01X19829Y46092D01*
G01X19824Y46067D01*
G01X19820Y46052D01*
G01X19819Y46041D01*
G01X19818Y46024D01*
G01X19814Y46009D01*
G01X19813Y45998D01*
G01X19811Y45981D01*
G01X19809Y45971D01*
G01X19808Y45966D01*
G01X19807Y45959D01*
G01X19806Y45927D01*
G01X19804Y45916D01*
G01X19803Y45911D01*
G01X19802Y45905D01*
G01X19801Y45896D01*
G01X19800Y45871D01*
G01Y45852D01*
G01X19799Y45842D01*
G01X19797Y45833D01*
G01X19796Y45829D01*
G01X19795Y45819D01*
G01X19794Y45779D01*
G01Y45765D01*
G01X19795Y45718D01*
G01X19796Y45702D01*
G01X19797Y45699D01*
G01X19798Y45693D01*
G01X19799Y45685D01*
G01X19800Y45662D01*
G01X19801Y45644D01*
G01X19802Y45632D01*
G01X19803Y45626D01*
G01X19804Y45620D01*
G01X19805Y45613D01*
G01X19806Y45577D01*
G01X19808Y45565D01*
G01X19811Y45553D01*
G01X19814Y45536D01*
G01X19818Y45507D01*
G01X19820Y45495D01*
G01X19822Y45485D01*
G01X19827Y45469D01*
G01X19829Y45460D01*
G01X19830Y45452D01*
G01X19831Y45437D01*
G01X19832Y45430D01*
G01X19834Y45423D01*
G01X19838Y45414D01*
G01X19840Y45408D01*
G01X19842Y45401D01*
G01Y45395D01*
G01X19843Y45387D01*
G01X19844Y45381D01*
G01X19846Y45375D01*
G01X19852Y45362D01*
G01X19854Y45355D01*
G01X19856Y45347D01*
G01X19861Y45322D01*
G01X19864Y45311D01*
G01X19881Y45265D01*
G01X19888Y45244D01*
G01X19897Y45220D01*
G01X19933Y45129D01*
G01X19938Y45119D01*
G01X19944Y45107D01*
G01X19949Y45100D01*
G01X19952Y45093D01*
G01X19962Y45065D01*
G01X19968Y45052D01*
G01X19976Y45040D01*
G01X19991Y45013D01*
G01X20003Y44991D01*
G01X20009Y44980D01*
G01X20013Y44968D01*
G01X20024Y44949D01*
G01X20036Y44929D01*
G01X20041Y44920D01*
G01X20052Y44905D01*
G01X20057Y44896D01*
G01X20067Y44879D01*
G01X20072Y44873D01*
G01X20076Y44868D01*
G01X20082Y44859D01*
G01X20085Y44853D01*
G01X20087Y44850D01*
G01X20092Y44848D01*
G01X20098Y44846D01*
G01X20106Y44844D01*
G01X20116Y44843D01*
G01X20142Y44841D01*
G01X20158D01*
G01X20190Y44842D01*
G01X20203Y44843D01*
G01X20215Y44845D01*
G01X20220Y44846D01*
G01X20222Y44847D01*
G01X20223Y44848D01*
G01X20224Y44849D01*
G01Y44850D01*
G01Y44855D01*
G01X20223Y44859D01*
G01X20221Y44864D01*
G01X20218Y44869D01*
G01X20203Y44892D01*
G01X20191Y44914D01*
G01X20182Y44931D01*
G01X20173Y44946D01*
G01X20170Y44952D01*
G01X20159Y44976D01*
G01X20153Y44987D01*
G01X20146Y45000D01*
G01X20135Y45025D01*
G01X20129Y45036D01*
G01X20124Y45043D01*
G01X20120Y45054D01*
G01X20115Y45071D01*
G01X20106Y45086D01*
G01X20103Y45092D01*
G01X20097Y45108D01*
G01X20091Y45125D01*
G01X20082Y45144D01*
G01X20077Y45157D01*
G01X20069Y45186D01*
G01X20064Y45198D01*
G01X20055Y45218D01*
G01X20050Y45239D01*
G01X20045Y45253D01*
G01X20037Y45272D01*
G01X20033Y45287D01*
G01X20030Y45300D01*
G01X20018Y45338D01*
G01X20013Y45355D01*
G01X20007Y45383D01*
G01X20000Y45405D01*
G01X19997Y45413D01*
G01X19995Y45421D01*
G01X19994Y45432D01*
G01Y45441D01*
G01X19991Y45453D01*
G01X19987Y45462D01*
G01X19984Y45470D01*
G01X19982Y45483D01*
G01Y45507D01*
G01X19980Y45518D01*
G01X19976Y45534D01*
G01X19973Y45547D01*
G01X19972Y45555D01*
G01X19970Y45564D01*
G01Y45583D01*
G01X19969Y45598D01*
G01X19968Y45609D01*
G01X19965Y45619D01*
G01X19962Y45634D01*
G01X19960Y45651D01*
G01X19958Y45702D01*
G01Y45793D01*
G01X19959Y45915D01*
G01X19960Y45927D01*
G01X19962Y45934D01*
G01X19965Y45950D01*
G01X19967Y45959D01*
G01X19969Y45980D01*
G01X19970Y46007D01*
G01X19972Y46021D01*
G01X19976Y46036D01*
G01X19979Y46050D01*
G01X19985Y46084D01*
G01X19988Y46099D01*
G01X19992Y46116D01*
G01X19995Y46129D01*
G01X20000Y46154D01*
G01X20006Y46176D01*
G01X20012Y46203D01*
G01X20024Y46241D01*
G01X20037Y46280D01*
G01X20046Y46311D01*
G01X20060Y46349D01*
G01X20065Y46368D01*
G01X20070Y46380D01*
G01X20077Y46397D01*
G01X20085Y46417D01*
G01X20091Y46434D01*
G01X20102Y46457D01*
G01X20109Y46477D01*
G01X20115Y46494D01*
G01X20129Y46524D01*
G01X20138Y46546D01*
G01X20144Y46557D01*
G01X20152Y46569D01*
G01X20167Y46597D01*
G01X20173Y46608D01*
G01X20185Y46629D01*
G01X20194Y46647D01*
G01X20206Y46666D01*
G01X20218Y46689D01*
G01X20224Y46698D01*
G01X20226Y46703D01*
G01X20225Y46706D01*
G01X20221Y46709D01*
G01X20215Y46711D01*
G01X20211Y46712D01*
G01X20199Y46713D01*
G01X20146Y46714D01*
G37*
G36*
G01X25994Y46714D02*
G01X25970Y46713D01*
G01X25960Y46712D01*
G01X25947Y46711D01*
G01X25941Y46709D01*
G01X25935Y46706D01*
G01Y46705D01*
G01X25934Y46704D01*
G01Y46703D01*
G01X25933Y46702D01*
G01Y46701D01*
G01X25934Y46696D01*
G01X25935Y46690D01*
G01X25937Y46685D01*
G01X25939Y46681D01*
G01X25955Y46656D01*
G01X25966Y46635D01*
G01X25979Y46613D01*
G01X25991Y46591D01*
G01X25996Y46580D01*
G01X26001Y46567D01*
G01X26015Y46542D01*
G01X26020Y46531D01*
G01X26025Y46519D01*
G01X26035Y46498D01*
G01X26047Y46465D01*
G01X26053Y46453D01*
G01X26057Y46445D01*
G01X26062Y46435D01*
G01X26068Y46417D01*
G01X26076Y46398D01*
G01X26080Y46386D01*
G01X26089Y46357D01*
G01X26094Y46345D01*
G01X26100Y46332D01*
G01X26105Y46319D01*
G01X26109Y46305D01*
G01X26118Y46274D01*
G01X26121Y46264D01*
G01X26126Y46243D01*
G01X26131Y46229D01*
G01X26138Y46213D01*
G01X26140Y46204D01*
G01X26146Y46172D01*
G01X26149Y46159D01*
G01X26158Y46129D01*
G01X26161Y46114D01*
G01X26163Y46106D01*
G01X26164Y46092D01*
G01X26165Y46087D01*
G01X26166Y46081D01*
G01X26169Y46075D01*
G01X26171Y46068D01*
G01X26174Y46060D01*
G01X26176Y46046D01*
G01Y46019D01*
G01X26178Y46007D01*
G01X26182Y45991D01*
G01X26185Y45978D01*
G01X26186Y45969D01*
G01X26187Y45961D01*
G01X26188Y45941D01*
G01Y45927D01*
G01X26190Y45916D01*
G01X26192Y45905D01*
G01X26194Y45892D01*
G01X26195Y45868D01*
G01X26197Y45859D01*
G01X26198Y45853D01*
G01X26199Y45839D01*
G01X26200Y45765D01*
G01X26199Y45692D01*
G01X26198Y45677D01*
G01X26196Y45670D01*
G01X26195Y45658D01*
G01X26193Y45637D01*
G01X26192Y45628D01*
G01X26190Y45620D01*
G01X26189Y45613D01*
G01X26187Y45577D01*
G01X26186Y45565D01*
G01X26182Y45549D01*
G01X26179Y45535D01*
G01X26177Y45523D01*
G01X26176Y45512D01*
G01Y45497D01*
G01X26174Y45490D01*
G01X26173Y45484D01*
G01X26169Y45474D01*
G01X26166Y45468D01*
G01X26165Y45461D01*
G01X26164Y45454D01*
G01X26163Y45437D01*
G01X26161Y45428D01*
G01X26158Y45415D01*
G01X26150Y45380D01*
G01X26146Y45365D01*
G01X26121Y45281D01*
G01X26109Y45241D01*
G01X26100Y45214D01*
G01X26086Y45175D01*
G01X26080Y45156D01*
G01X26076Y45144D01*
G01X26065Y45122D01*
G01X26052Y45090D01*
G01X26041Y45067D01*
G01X26037Y45056D01*
G01X26024Y45026D01*
G01X26020Y45015D01*
G01X26014Y45004D01*
G01X26006Y44991D01*
G01X25995Y44967D01*
G01X25990Y44955D01*
G01X25982Y44943D01*
G01X25967Y44916D01*
G01X25961Y44905D01*
G01X25936Y44864D01*
G01X25931Y44852D01*
G01X25930Y44850D01*
G01X25933Y44846D01*
G01X25945Y44843D01*
G01X25965Y44842D01*
G01X25994Y44841D01*
G01X26061D01*
G01X26070Y44856D01*
G01X26081Y44874D01*
G01X26097Y44897D01*
G01X26106Y44911D01*
G01X26124Y44941D01*
G01X26131Y44952D01*
G01X26136Y44964D01*
G01X26143Y44979D01*
G01X26146Y44986D01*
G01X26150Y44993D01*
G01X26163Y45010D01*
G01X26166Y45017D01*
G01X26171Y45031D01*
G01X26185Y45055D01*
G01X26190Y45066D01*
G01X26195Y45078D01*
G01X26208Y45106D01*
G01X26217Y45127D01*
G01X26223Y45139D01*
G01X26227Y45146D01*
G01X26232Y45157D01*
G01X26237Y45174D01*
G01X26247Y45196D01*
G01X26254Y45217D01*
G01X26261Y45233D01*
G01X26270Y45254D01*
G01X26272Y45261D01*
G01X26274Y45269D01*
G01X26278Y45286D01*
G01X26281Y45297D01*
G01X26283Y45302D01*
G01X26287Y45310D01*
G01X26290Y45315D01*
G01X26291Y45320D01*
G01X26292Y45332D01*
G01X26293Y45337D01*
G01X26295Y45343D01*
G01X26300Y45352D01*
G01X26302Y45357D01*
G01X26303Y45362D01*
G01X26304Y45374D01*
G01X26305Y45380D01*
G01X26307Y45385D01*
G01X26312Y45394D01*
G01X26314Y45400D01*
G01X26315Y45407D01*
G01Y45421D01*
G01X26317Y45433D01*
G01X26322Y45449D01*
G01X26325Y45462D01*
G01X26331Y45492D01*
G01X26334Y45506D01*
G01X26337Y45517D01*
G01X26338Y45522D01*
G01X26339Y45529D01*
G01X26340Y45562D01*
G01X26341Y45572D01*
G01X26345Y45588D01*
G01X26348Y45602D01*
G01X26350Y45611D01*
G01X26351Y45629D01*
G01X26353Y45680D01*
G01X26354Y45694D01*
G01X26355Y45699D01*
G01X26356Y45704D01*
G01X26357Y45712D01*
G01X26358Y45735D01*
G01Y45753D01*
G01X26360Y45766D01*
G01X26361Y45771D01*
G01X26362Y45776D01*
G01Y45785D01*
G01X26360Y45795D01*
G01X26359Y45804D01*
G01X26358Y45829D01*
G01X26357Y45849D01*
G01Y45859D01*
G01X26355Y45867D01*
G01X26354Y45871D01*
G01X26353Y45885D01*
G01X26351Y45946D01*
G01X26349Y45961D01*
G01X26347Y45970D01*
G01X26344Y45986D01*
G01X26342Y45996D01*
G01X26340Y46015D01*
G01X26339Y46036D01*
G01Y46043D01*
G01X26337Y46050D01*
G01X26335Y46056D01*
G01X26331Y46065D01*
G01X26329Y46072D01*
G01X26328Y46079D01*
G01X26325Y46104D01*
G01X26323Y46111D01*
G01X26318Y46120D01*
G01X26317Y46127D01*
G01X26315Y46140D01*
G01Y46153D01*
G01X26314Y46160D01*
G01X26311Y46169D01*
G01X26306Y46177D01*
G01X26304Y46183D01*
G01X26302Y46190D01*
G01X26297Y46215D01*
G01X26285Y46253D01*
G01X26278Y46277D01*
G01X26272Y46296D01*
G01X26264Y46314D01*
G01X26260Y46328D01*
G01X26256Y46342D01*
G01X26253Y46351D01*
G01X26250Y46357D01*
G01X26246Y46364D01*
G01X26241Y46375D01*
G01X26236Y46393D01*
G01X26223Y46421D01*
G01X26218Y46432D01*
G01X26209Y46453D01*
G01X26194Y46484D01*
G01X26186Y46500D01*
G01X26179Y46518D01*
G01X26174Y46526D01*
G01X26171Y46530D01*
G01X26167Y46535D01*
G01X26165Y46539D01*
G01X26163Y46543D01*
G01X26157Y46556D01*
G01X26146Y46575D01*
G01X26131Y46603D01*
G01X26124Y46614D01*
G01X26112Y46635D01*
G01X26103Y46652D01*
G01X26099Y46658D01*
G01X26094Y46663D01*
G01X26088Y46672D01*
G01X26082Y46684D01*
G01X26078Y46690D01*
G01X26073Y46696D01*
G01X26067Y46701D01*
G01X26063Y46705D01*
G01X26058Y46707D01*
G01X26051Y46709D01*
G01X26043Y46711D01*
G01X26033Y46712D01*
G01X26009Y46714D01*
G37*
G36*
G01X21152Y46277D02*
G01X21152Y46114D01*
G01X21150Y45954D01*
G01X21149Y45943D01*
G01Y45941D01*
G01X21147Y45936D01*
G01X21144Y45921D01*
G01X21141Y45901D01*
G01X21139Y45892D01*
G01X21135Y45881D01*
G01X21128Y45865D01*
G01X21123Y45847D01*
G01X21118Y45835D01*
G01X21108Y45812D01*
G01X21099Y45791D01*
G01X21093Y45780D01*
G01X21076Y45753D01*
G01X21065Y45735D01*
G01X21042Y45705D01*
G01X21030Y45687D01*
G01X21019Y45673D01*
G01X21013Y45668D01*
G01X21005Y45661D01*
G01X20999Y45656D01*
G01X20991Y45648D01*
G01X20981Y45636D01*
G01X20969Y45626D01*
G01X20961Y45618D01*
G01X20951Y45606D01*
G01X20938Y45596D01*
G01X20931Y45588D01*
G01X20924Y45579D01*
G01X20920Y45576D01*
G01X20916Y45573D01*
G01X20908Y45570D01*
G01X20904Y45568D01*
G01X20900Y45565D01*
G01X20894Y45559D01*
G01X20882Y45550D01*
G01X20848Y45526D01*
G01X20804Y45499D01*
G01X20799Y45495D01*
G01X20775Y45485D01*
G01X20763Y45479D01*
G01X20750Y45472D01*
G01X20726Y45461D01*
G01X20715Y45455D01*
G01X20708Y45450D01*
G01X20697Y45446D01*
G01X20679Y45440D01*
G01X20660Y45432D01*
G01X20647Y45427D01*
G01X20633Y45424D01*
G01X20627Y45422D01*
G01X20625Y45421D01*
G01X20624Y45420D01*
G01X20622Y45418D01*
G01X20621Y45417D01*
G01X20620Y45413D01*
G01X20621Y45409D01*
G01X20622Y45403D01*
G01X20624Y45395D01*
G01X20629Y45385D01*
G01X20635Y45374D01*
G01X20643Y45361D01*
G01X20653Y45336D01*
G01X20659Y45325D01*
G01X20667Y45313D01*
G01X20676Y45296D01*
G01X20680Y45293D01*
G01X20684Y45292D01*
G01X20688Y45293D01*
G01X20752Y45314D01*
G01X20781Y45324D01*
G01X20806Y45335D01*
G01X20829Y45346D01*
G01X20847Y45353D01*
G01X20854Y45357D01*
G01X20861Y45361D01*
G01X20873Y45369D01*
G01X20880Y45374D01*
G01X20887Y45377D01*
G01X20907Y45387D01*
G01X20912Y45390D01*
G01X20919Y45396D01*
G01X20924Y45399D01*
G01X20946Y45414D01*
G01X20956Y45421D01*
G01X20961Y45426D01*
G01X20966Y45430D01*
G01X20989Y45445D01*
G01X20999Y45452D01*
G01X21011Y45462D01*
G01X21020Y45469D01*
G01X21027Y45476D01*
G01X21037Y45489D01*
G01X21045Y45495D01*
G01X21058Y45505D01*
G01X21071Y45517D01*
G01X21080Y45523D01*
G01X21088Y45531D01*
G01X21097Y45543D01*
G01X21106Y45553D01*
G01X21116Y45566D01*
G01X21122Y45574D01*
G01X21130Y45580D01*
G01X21135Y45584D01*
G01X21139Y45588D01*
G01X21142Y45593D01*
G01X21152Y45609D01*
G01X21156Y45615D01*
G01X21161Y45620D01*
G01X21164Y45625D01*
G01X21184Y45656D01*
G01X21195Y45672D01*
G01X21199Y45678D01*
G01X21203Y45685D01*
G01X21211Y45703D01*
G01X21217Y45714D01*
G01X21224Y45725D01*
G01X21230Y45732D01*
G01X21233Y45734D01*
G01X21236D01*
G01X21239Y45733D01*
G01X21243Y45729D01*
G01X21248Y45719D01*
G01X21253Y45702D01*
G01X21255Y45697D01*
G01X21258Y45693D01*
G01X21264Y45686D01*
G01X21270Y45675D01*
G01X21276Y45662D01*
G01X21280Y45655D01*
G01X21284Y45651D01*
G01X21288Y45647D01*
G01X21292Y45644D01*
G01X21295Y45640D01*
G01X21298Y45636D01*
G01X21302Y45627D01*
G01X21306Y45621D01*
G01X21310Y45615D01*
G01X21315Y45608D01*
G01X21340Y45577D01*
G01X21346Y45571D01*
G01X21351Y45565D01*
G01X21358Y45558D01*
G01X21365Y45553D01*
G01X21369Y45549D01*
G01X21373Y45544D01*
G01X21379Y45533D01*
G01X21383Y45527D01*
G01X21388Y45523D01*
G01X21397Y45518D01*
G01X21403Y45515D01*
G01X21407Y45511D01*
G01X21411Y45507D01*
G01X21415Y45501D01*
G01X21423Y45493D01*
G01X21436Y45483D01*
G01X21446Y45475D01*
G01X21458Y45465D01*
G01X21470Y45456D01*
G01X21484Y45444D01*
G01X21522Y45417D01*
G01X21537Y45408D01*
G01X21567Y45390D01*
G01X21578Y45383D01*
G01X21589Y45378D01*
G01X21605Y45371D01*
G01X21611Y45367D01*
G01X21618Y45363D01*
G01X21631Y45355D01*
G01X21638Y45351D01*
G01X21646Y45347D01*
G01X21671Y45338D01*
G01X21691Y45329D01*
G01X21705Y45325D01*
G01X21727Y45319D01*
G01X21739Y45314D01*
G01X21746Y45311D01*
G01X21753Y45309D01*
G01X21761Y45306D01*
G01X21774Y45304D01*
G01X21778D01*
G01X21782D01*
G01X21784Y45305D01*
G01X21787Y45307D01*
G01X21789Y45309D01*
G01X21790Y45311D01*
G01X21793Y45320D01*
G01X21797Y45330D01*
G01X21806Y45346D01*
G01X21821Y45380D01*
G01X21832Y45403D01*
G01X21842Y45429D01*
G01X21821Y45432D01*
G01X21811Y45433D01*
G01X21802Y45436D01*
G01X21791Y45440D01*
G01X21778Y45446D01*
G01X21758Y45453D01*
G01X21728Y45464D01*
G01X21714Y45470D01*
G01X21702Y45476D01*
G01X21690Y45483D01*
G01X21665Y45494D01*
G01X21654Y45500D01*
G01X21628Y45517D01*
G01X21610Y45528D01*
G01X21579Y45550D01*
G01X21562Y45563D01*
G01X21535Y45583D01*
G01X21526Y45590D01*
G01X21518Y45598D01*
G01X21509Y45610D01*
G01X21496Y45620D01*
G01X21488Y45628D01*
G01X21478Y45640D01*
G01X21466Y45650D01*
G01X21458Y45658D01*
G01X21449Y45671D01*
G01X21440Y45681D01*
G01X21430Y45693D01*
G01X21418Y45710D01*
G01X21404Y45728D01*
G01X21396Y45741D01*
G01X21388Y45756D01*
G01X21379Y45770D01*
G01X21376Y45776D01*
G01X21365Y45800D01*
G01X21359Y45811D01*
G01X21355Y45819D01*
G01X21352Y45825D01*
G01X21346Y45841D01*
G01X21327Y45896D01*
G01X21325Y45905D01*
G01X21322Y45916D01*
G01X21319Y45934D01*
G01X21312Y45990D01*
G01Y45997D01*
G01X21310Y46049D01*
G01X21309Y46144D01*
G01Y46277D01*
G37*
G36*
G01X23412Y46259D02*
G01X23412Y45780D01*
G01X23564D01*
G01X24351D01*
G01Y45459D01*
G01X23961D01*
G01X23574Y45461D01*
G01X23568Y45462D01*
G01X23567D01*
G01X23566Y45465D01*
G01X23565Y45486D01*
G01X23564Y45623D01*
G01Y45780D01*
G01X23412D01*
G01Y45320D01*
G01X24503D01*
G01Y46259D01*
G01X24351D01*
G01Y45920D01*
G01X23564D01*
G01Y46259D01*
G37*
G04 //text: U1*
G54D14*
G01X18491Y43793D02*
G01X18491Y43328D01*
G01X18522Y43236D01*
G01X18585Y43173D01*
G01X18677Y43143D01*
G01X18740D01*
G01X18832Y43173D01*
G01X18893Y43236D01*
G01X18926Y43328D01*
G01Y43793D01*
G01X19225Y43668D02*
G01X19289Y43701D01*
G01X19380Y43793D01*
G01Y43143D01*
G04 //text: D1*
G01X18999Y53699D02*
G01X18999Y53049D01*
G01X18999Y53699D02*
G01X19215Y53699D01*
G01X19309Y53668D01*
G01X19370Y53607D01*
G01X19401Y53544D01*
G01X19434Y53452D01*
G01Y53297D01*
G01X19401Y53203D01*
G01X19370Y53142D01*
G01X19309Y53079D01*
G01X19215Y53049D01*
G01X18999D01*
G01X19733Y53574D02*
G01X19797Y53607D01*
G01X19888Y53699D01*
G01Y53049D01*
G04 //text: R1*
G01X24841Y43793D02*
G01X24841Y43143D01*
G01X24841Y43793D02*
G01X25121Y43793D01*
G01X25212Y43762D01*
G01X25243Y43732D01*
G01X25276Y43668D01*
G01Y43607D01*
G01X25243Y43546D01*
G01X25212Y43516D01*
G01X25121Y43483D01*
G01X24841D01*
G01X25057Y43483D02*
G01X25276Y43143D01*
G01X25575Y43668D02*
G01X25639Y43701D01*
G01X25730Y43793D01*
G01Y43143D01*
G04 //text: L1*
G01X4902Y53953D02*
G01X4902Y53303D01*
G01X4902Y53303D02*
G01X5273Y53303D01*
G01X5575Y53828D02*
G01X5636Y53861D01*
G01X5730Y53953D01*
G01Y53303D01*
G04 //text: C1*
G01X13622Y43257D02*
G01X13592Y43320D01*
G01X13528Y43381D01*
G01X13467Y43412D01*
G01X13343D01*
G01X13282Y43381D01*
G01X13218Y43320D01*
G01X13188Y43257D01*
G01X13157Y43165D01*
G01Y43010D01*
G01X13188Y42916D01*
G01X13218Y42855D01*
G01X13282Y42792D01*
G01X13343Y42762D01*
G01X13467D01*
G01X13528Y42792D01*
G01X13592Y42855D01*
G01X13622Y42916D01*
G01X13922Y43287D02*
G01X13985Y43320D01*
G01X14077Y43412D01*
G01Y42762D01*
G04 //text: C2*
G01X15400Y43257D02*
G01X15370Y43320D01*
G01X15306Y43381D01*
G01X15245Y43412D01*
G01X15121D01*
G01X15060Y43381D01*
G01X14996Y43320D01*
G01X14966Y43257D01*
G01X14935Y43165D01*
G01Y43010D01*
G01X14966Y42916D01*
G01X14996Y42855D01*
G01X15060Y42792D01*
G01X15121Y42762D01*
G01X15245D01*
G01X15306Y42792D01*
G01X15370Y42855D01*
G01X15400Y42916D01*
G01X15733Y43257D02*
G01X15733Y43287D01*
G01X15763Y43351D01*
G01X15794Y43381D01*
G01X15855Y43412D01*
G01X15979D01*
G01X16040Y43381D01*
G01X16073Y43351D01*
G01X16104Y43287D01*
G01Y43226D01*
G01X16073Y43165D01*
G01X16010Y43071D01*
G01X15700Y42762D01*
G01X16134D01*
G04 //text: C3*
G01X28735Y43130D02*
G01X28705Y43193D01*
G01X28641Y43254D01*
G01X28580Y43285D01*
G01X28456D01*
G01X28395Y43254D01*
G01X28331Y43193D01*
G01X28301Y43130D01*
G01X28270Y43038D01*
G01Y42883D01*
G01X28301Y42789D01*
G01X28331Y42728D01*
G01X28395Y42665D01*
G01X28456Y42635D01*
G01X28580D01*
G01X28641Y42665D01*
G01X28705Y42728D01*
G01X28735Y42789D01*
G01X29098Y43285D02*
G01X29439Y43285D01*
G01X29253Y43038D01*
G01X29345D01*
G01X29408Y43008D01*
G01X29439Y42975D01*
G01X29469Y42883D01*
G01Y42820D01*
G01X29439Y42728D01*
G01X29375Y42665D01*
G01X29284Y42635D01*
G01X29190D01*
G01X29098Y42665D01*
G01X29068Y42698D01*
G01X29035Y42759D01*
G04 //text: C4*
G01X30640Y43130D02*
G01X30610Y43193D01*
G01X30546Y43254D01*
G01X30485Y43285D01*
G01X30361D01*
G01X30300Y43254D01*
G01X30236Y43193D01*
G01X30206Y43130D01*
G01X30175Y43038D01*
G01Y42883D01*
G01X30206Y42789D01*
G01X30236Y42728D01*
G01X30300Y42665D01*
G01X30361Y42635D01*
G01X30485D01*
G01X30546Y42665D01*
G01X30610Y42728D01*
G01X30640Y42789D01*
G01X31250Y43285D02*
G01X30940Y42853D01*
G01X31405D01*
G01X31250Y43285D02*
G01X31250Y42635D01*
G04 //text: R2*
G01X23063Y43793D02*
G01X23063Y43143D01*
G01X23063Y43793D02*
G01X23343Y43793D01*
G01X23434Y43762D01*
G01X23465Y43732D01*
G01X23498Y43668D01*
G01Y43607D01*
G01X23465Y43546D01*
G01X23434Y43516D01*
G01X23343Y43483D01*
G01X23063D01*
G01X23279Y43483D02*
G01X23498Y43143D01*
G01X23828Y43638D02*
G01X23828Y43668D01*
G01X23861Y43732D01*
G01X23891Y43762D01*
G01X23952Y43793D01*
G01X24077D01*
G01X24138Y43762D01*
G01X24168Y43732D01*
G01X24201Y43668D01*
G01Y43607D01*
G01X24168Y43546D01*
G01X24107Y43452D01*
G01X23797Y43143D01*
G01X24232D01*
G04 //text: U2*
G01X47058Y48500D02*
G01X47058Y48035D01*
G01X47088Y47944D01*
G01X47152Y47880D01*
G01X47243Y47850D01*
G01X47307D01*
G01X47398Y47880D01*
G01X47459Y47944D01*
G01X47492Y48035D01*
G01Y48500D01*
G01X47822Y48345D02*
G01X47822Y48376D01*
G01X47855Y48439D01*
G01X47886Y48470D01*
G01X47947Y48500D01*
G01X48071D01*
G01X48132Y48470D01*
G01X48163Y48439D01*
G01X48196Y48376D01*
G01Y48315D01*
G01X48163Y48254D01*
G01X48102Y48160D01*
G01X47792Y47850D01*
G01X48226D01*
G04 //text: X1*
G01X30937Y46714D02*
G01X31372Y46064D01*
G01X31372Y46714D02*
G01X30937Y46064D01*
G01X31671Y46589D02*
G01X31735Y46622D01*
G01X31826Y46714D01*
G01Y46064D01*
G04 //text: U3*
G01X6299Y45444D02*
G01X6299Y44979D01*
G01X6330Y44887D01*
G01X6393Y44824D01*
G01X6485Y44794D01*
G01X6548D01*
G01X6640Y44824D01*
G01X6701Y44887D01*
G01X6734Y44979D01*
G01Y45444D01*
G01X7097Y45444D02*
G01X7437Y45444D01*
G01X7249Y45197D01*
G01X7343D01*
G01X7404Y45167D01*
G01X7437Y45134D01*
G01X7468Y45042D01*
G01Y44979D01*
G01X7437Y44887D01*
G01X7374Y44824D01*
G01X7282Y44794D01*
G01X7188D01*
G01X7097Y44824D01*
G01X7064Y44857D01*
G01X7033Y44918D01*
G04 //text: C5*
G01X3843Y44908D02*
G01X3813Y44971D01*
G01X3749Y45032D01*
G01X3688Y45063D01*
G01X3564D01*
G01X3503Y45032D01*
G01X3439Y44971D01*
G01X3409Y44908D01*
G01X3378Y44816D01*
G01Y44661D01*
G01X3409Y44567D01*
G01X3439Y44506D01*
G01X3503Y44443D01*
G01X3564Y44413D01*
G01X3688D01*
G01X3749Y44443D01*
G01X3813Y44506D01*
G01X3843Y44567D01*
G01X4516Y45063D02*
G01X4206Y45063D01*
G01X4176Y44786D01*
G01X4206Y44816D01*
G01X4298Y44847D01*
G01X4392D01*
G01X4483Y44816D01*
G01X4547Y44753D01*
G01X4577Y44661D01*
G01Y44598D01*
G01X4547Y44506D01*
G01X4483Y44443D01*
G01X4392Y44413D01*
G01X4298D01*
G01X4206Y44443D01*
G01X4176Y44476D01*
G01X4143Y44537D01*
G04 //text: R3*
G01X9347Y44428D02*
G01X9347Y43778D01*
G01X9347Y44428D02*
G01X9627Y44428D01*
G01X9718Y44397D01*
G01X9749Y44367D01*
G01X9782Y44303D01*
G01Y44242D01*
G01X9749Y44181D01*
G01X9718Y44151D01*
G01X9627Y44118D01*
G01X9347D01*
G01X9563Y44118D02*
G01X9782Y43778D01*
G01X10145Y44428D02*
G01X10485Y44428D01*
G01X10297Y44181D01*
G01X10391D01*
G01X10452Y44151D01*
G01X10485Y44118D01*
G01X10516Y44026D01*
G01Y43963D01*
G01X10485Y43871D01*
G01X10422Y43808D01*
G01X10330Y43778D01*
G01X10236D01*
G01X10145Y43808D01*
G01X10112Y43841D01*
G01X10081Y43902D01*
G04 //text: R4*
G01X3378Y51540D02*
G01X3378Y50890D01*
G01X3378Y51540D02*
G01X3658Y51540D01*
G01X3749Y51509D01*
G01X3780Y51479D01*
G01X3813Y51415D01*
G01Y51354D01*
G01X3780Y51293D01*
G01X3749Y51263D01*
G01X3658Y51230D01*
G01X3378D01*
G01X3594Y51230D02*
G01X3813Y50890D01*
G01X4422Y51540D02*
G01X4112Y51108D01*
G01X4577D01*
G01X4422Y51540D02*
G01X4422Y50890D01*
G04 Text End*
G54D15*
G01X18023Y42622D02*
G01X19823Y42622D01*
G01X18023Y39522D02*
G01X19823Y39522D01*
G54D14*
G01X20299Y49622D02*
G01X15007Y49622D01*
G01X20299Y52335D02*
G01X15007Y52335D01*
G01X18922Y49622D02*
G01X18922Y52335D01*
G01X15007Y49622D02*
G01X15007Y50006D01*
G01X15007Y52335D02*
G01X15007Y51951D01*
G36*
G01X20223Y49546D02*
G01X20223Y50057D01*
G01X20680D01*
G01Y49546D01*
G01X20223D01*
G37*
G54D16*
G01X20223Y49546D02*
G01X20223Y50057D01*
G01X20680D01*
G01Y49546D01*
G01X20223D01*
G36*
G01X20223Y52411D02*
G01X20223Y51900D01*
G01X20680D01*
G01Y52411D01*
G01X20223D01*
G37*
G01X20223Y52411D02*
G01X20223Y51900D01*
G01X20680D01*
G01Y52411D01*
G01X20223D01*
G54D14*
G01X24612Y40909D02*
G01X24612Y39950D01*
G01X24612Y39950D02*
G01X25934Y39950D01*
G01X25934Y39950D02*
G01X25934Y40909D01*
G01X24612Y41761D02*
G01X24612Y42720D01*
G01X24612Y42720D02*
G01X25934Y42720D01*
G01X25934Y42720D02*
G01X25934Y41761D01*
G54D15*
G01X6477Y52884D02*
G01X6477Y54027D01*
G01X6477Y54027D02*
G01X13081Y54027D01*
G01X13081Y54027D02*
G01X13081Y52884D01*
G01X13081Y48565D02*
G01X13081Y47422D01*
G01X13081Y47422D02*
G01X6477Y47422D01*
G01X6477Y47422D02*
G01X6477Y48565D01*
G54D14*
G01X14493Y38737D02*
G01X14493Y40147D01*
G01X12685Y40147D02*
G01X12685Y38737D01*
G01X12838Y38585D02*
G01X14340Y38585D01*
G01X14493Y42360D02*
G01X14493Y40950D01*
G01X12685Y40950D02*
G01X12685Y42360D01*
G01X12838Y42512D02*
G01X14340Y42512D01*
G01X12685Y38737D02*
G03X12838Y38585I152J0D01*
G01X14340Y38585D02*
G03X14493Y38737I0J152D01*
G01X12685Y42360D02*
G02X12838Y42512I152J0D01*
G01X14340Y42512D02*
G02X14493Y42360I0J-152D01*
G01X16398Y38737D02*
G01X16398Y40147D01*
G01X14590Y40147D02*
G01X14590Y38737D01*
G01X14743Y38585D02*
G01X16245Y38585D01*
G01X16398Y42360D02*
G01X16398Y40950D01*
G01X14590Y40950D02*
G01X14590Y42360D01*
G01X14743Y42512D02*
G01X16245Y42512D01*
G01X14590Y38737D02*
G03X14743Y38585I152J0D01*
G01X16245Y38585D02*
G03X16398Y38737I0J152D01*
G01X14590Y42360D02*
G02X14743Y42512I152J0D01*
G01X16245Y42512D02*
G02X16398Y42360I0J-152D01*
G01X29733Y38515D02*
G01X29733Y39925D01*
G01X27925Y39925D02*
G01X27925Y38515D01*
G01X28078Y38363D02*
G01X29580Y38363D01*
G01X29733Y42138D02*
G01X29733Y40728D01*
G01X27925Y40728D02*
G01X27925Y42138D01*
G01X28078Y42290D02*
G01X29580Y42290D01*
G01X27925Y38515D02*
G03X28078Y38363I152J0D01*
G01X29580Y38363D02*
G03X29733Y38515I0J152D01*
G01X27925Y42138D02*
G02X28078Y42290I152J0D01*
G01X29580Y42290D02*
G02X29733Y42138I0J-152D01*
G01X31765Y38515D02*
G01X31765Y39925D01*
G01X29957Y39925D02*
G01X29957Y38515D01*
G01X30110Y38363D02*
G01X31612Y38363D01*
G01X31765Y42138D02*
G01X31765Y40728D01*
G01X29957Y40728D02*
G01X29957Y42138D01*
G01X30110Y42290D02*
G01X31612Y42290D01*
G01X29957Y38515D02*
G03X30110Y38363I152J0D01*
G01X31612Y38363D02*
G03X31765Y38515I0J152D01*
G01X29957Y42138D02*
G02X30110Y42290I152J0D01*
G01X31612Y42290D02*
G02X31765Y42138I0J-152D01*
G01X24283Y41761D02*
G01X24283Y42720D01*
G01X24283Y42720D02*
G01X22961Y42720D01*
G01X22961Y42720D02*
G01X22961Y41761D01*
G01X24283Y40909D02*
G01X24283Y39950D01*
G01X24283Y39950D02*
G01X22961Y39950D01*
G01X22961Y39950D02*
G01X22961Y40909D01*
G54D15*
G01X46482Y45644D02*
G01X46482Y50724D01*
G01X36322Y45644D02*
G01X36322Y46914D01*
G01X46482Y45644D02*
G01X36322Y45644D01*
G01X46482Y50724D02*
G01X36322Y50724D01*
G01X36322Y49454D02*
G01X36322Y50724D01*
G01X36322Y49454D02*
G02X36322Y46914I0J-1270D01*
G01X34736Y46810D02*
G01X35886Y46810D01*
G01X35886Y46810D02*
G01X35886Y40161D01*
G01X35886Y40161D02*
G01X34736Y40161D01*
G01X33336Y40161D02*
G01X32186Y40161D01*
G01X32186Y40161D02*
G01X32186Y46810D01*
G01X32186Y46810D02*
G01X33336Y46810D01*
G01X33336Y46810D02*
G01X34736Y46810D01*
G01X34736Y40160D02*
G01X33336Y40160D01*
G54D18*
G01X34045Y44103D02*
G01X34045Y44403D01*
G01X33045Y44003D02*
G01X35145Y44003D01*
G01X33146Y43303D02*
G01X35045Y43303D01*
G01X35045Y43303D02*
G01X35045Y43703D01*
G01X35045Y43703D02*
G01X33146Y43703D01*
G01X33146Y43703D02*
G01X33146Y43303D01*
G01X33045Y43003D02*
G01X35145Y43003D01*
G01X34036Y42546D02*
G01X34036Y42901D01*
G54D15*
G01X5958Y44400D02*
G01X7758Y44400D01*
G01X5958Y41300D02*
G01X7758Y41300D01*
G01X4337Y41271D02*
G01X3537Y41271D01*
G01X4647Y42381D02*
G01X4647Y41581D01*
G01X3227Y42381D02*
G01X3227Y41581D01*
G01X4652Y42957D02*
G01X4652Y43757D01*
G01X4343Y44067D02*
G01X3543Y44067D01*
G01X3233Y42957D02*
G01X3233Y43757D01*
G01X4343Y44067D02*
G02X4652Y43757I0J-310D01*
G01X3233Y43757D02*
G02X3543Y44067I310J0D01*
G01X4647Y41581D02*
G02X4337Y41271I-310J-0D01*
G01X3537Y41271D02*
G02X3227Y41581I0J310D01*
G54D14*
G01X9245Y41527D02*
G01X9245Y40568D01*
G01X9245Y40568D02*
G01X10567Y40568D01*
G01X10567Y40568D02*
G01X10567Y41527D01*
G01X9245Y42379D02*
G01X9245Y43338D01*
G01X9245Y43338D02*
G01X10567Y43338D01*
G01X10567Y43338D02*
G01X10567Y42379D01*
G01X3276Y48783D02*
G01X3276Y47824D01*
G01X3276Y47824D02*
G01X4598Y47824D01*
G01X4598Y47824D02*
G01X4598Y48783D01*
G01X3276Y49635D02*
G01X3276Y50594D01*
G01X3276Y50594D02*
G01X4598Y50594D01*
G01X4598Y50594D02*
G01X4598Y49635D01*
G04 PolygonModel End*
G54D15*
G01X20193Y39421D02*
G03X20447Y39421I127J0D01*
G03X20193I-127J0D01*
G01X8128Y41199D02*
G03X8382Y41199I127J0D01*
G03X8128I-127J0D01*
G04 Circle End*

M02*
